<svg viewBox="135.9936548223351 346.20000000000005 280.62182741116754 180.3125" xmlns="http://www.w3.org/2000/svg" overflow="visible" xmlns:xlink="http://www.w3.org/1999/xlink" width="280.62182741116754px" height="180.3125px"><g id="Master/Character/Torso" stroke="none" stroke-width="1" fill="none" fill-rule="evenodd"><g id="Torso" transform="translate(139.000000, 391.000000) scale(1 1)"><g id="Torso/Shrug Color" stroke="none" stroke-width="1" fill="none" fill-rule="evenodd"><g id="Group" transform="translate(46.967100, 28.404926)" fill="#009DE9"><path d="M106.4469,50.3683738 C94.5368998,50.3683738 82.6258998,50.3673738 70.7158998,50.3713738 C69.5958998,50.3723738 68.4738998,50.3683738 67.3598998,50.4513738 C66.3148998,50.5283738 65.6358998,51.0453738 65.3368998,52.1533738 C64.1708998,56.4663738 62.9978998,60.7793738 61.7128998,65.0573738 C58.7948998,74.7763738 55.8158998,84.4773738 52.8458998,94.1813738 C51.9498998,97.1133738 51.9268998,97.1043738 48.9668998,97.3473738 C47.4558998,97.4713738 45.9458998,97.6903738 44.4338998,97.7103738 C42.6288998,97.7343738 42.3798998,97.4343738 42.2898998,95.6313738 C42.1088998,92.0003738 42.6108998,88.4423738 43.6578998,84.9803738 C45.2318998,79.7713738 45.6598998,74.4603738 45.0688998,69.0883738 C44.7238998,65.9573738 44.6888998,62.8703738 45.3178998,59.7913738 C45.6368998,58.2283738 46.0798998,56.6893738 46.4628998,55.1393738 C46.5958998,54.5973738 46.8678998,54.0353738 46.8018998,53.5163738 C46.7428998,53.0463738 46.3938998,52.3783738 46.0168998,52.2483738 C45.6448998,52.1193738 45.0388998,52.4933738 44.6118998,52.7663738 C44.3818998,52.9143738 44.3008998,53.3083738 44.1738998,53.6003738 C42.4498998,57.5473738 40.7528998,61.5053738 39.0038998,65.4403738 C37.4778998,68.8713738 35.9448998,72.3023738 34.3178998,75.6853738 C33.3858998,77.6233738 32.3418998,79.5193738 31.2028998,81.3443738 C28.8138998,85.1733738 24.8328998,85.8933738 20.8888998,84.1893738 C16.7688998,82.4073738 13.5548998,79.3953738 11.3868998,75.3873738 C8.71889975,70.4513738 7.45289975,65.1203738 6.95589975,59.5753738 C6.66689975,56.3463738 5.23670975,50.0663738 3.74770975,47.1963738 C3.04770975,45.8483738 2.34370975,44.5003738 1.71170975,43.1203738 C-0.0312902515,39.3143738 0.281709748,35.5123738 1.82470975,31.7303738 C2.30170975,30.5583738 3.12670975,29.8523738 4.33270975,29.3503738 C8.90570975,27.4473738 13.4367097,25.4423738 17.9677097,23.4403738 C20.2397097,22.4373738 21.2097097,22.7043738 21.9917097,25.0463738 C23.3617097,29.1493738 25.0138998,36.5603738 24.1068998,40.9823738 C23.9658998,41.6743738 23.9058998,42.4583738 24.0948998,43.1173738 C24.2428998,43.6273738 24.8388998,44.0103738 25.2348998,44.4493738 C25.6578998,44.0413738 26.3168998,43.7013738 26.4578998,43.2113738 C26.7858998,42.0703738 26.7628998,40.8293738 27.0698998,39.6803738 C27.4338998,38.3173738 27.7618998,36.8553738 28.5148998,35.7043738 C30.6588998,32.4273738 31.9858998,28.9393738 32.5458998,25.0463738 C32.8808998,22.7113738 33.6758998,20.4023738 34.5658998,18.2033738 C35.0518998,17.0013738 36.0918998,15.9813738 37.0208998,15.0153738 C37.7598998,14.2463738 38.7308998,13.8273738 39.8478998,14.4343738 C40.6598998,14.8753738 41.3018998,14.5543738 42.0418998,14.0753738 C43.3028998,13.2573738 44.6338998,12.4983738 46.0278998,11.9403738 C51.0238998,9.94237382 56.2718998,8.86337382 61.5478998,7.91537382 C62.1738998,7.80337382 62.8228998,7.82837382 63.4578998,7.76337382 C65.4168998,7.55837382 66.9138998,8.06037382 68.1708998,9.80937382 C70.0818998,12.4703738 72.3488998,14.8563738 75.2928998,16.4753738 C79.8268998,18.9693738 84.4508998,19.8393738 89.2088998,17.1653738 C91.9298998,15.6363738 93.9358998,13.3333738 95.3028998,10.5663738 C96.1668998,8.82037382 97.3208998,7.66137382 99.1348998,6.88937382 C101.1839,6.01737382 103.0449,4.71237382 105.0519,3.73137382 C109.4699,1.57237382 114.0779,0.179373817 119.0669,0.0113738167 C124.5239,-0.172626183 129.0619,1.88837382 133.0819,5.28537382 C136.6279,8.28337382 139.1609,12.0473738 140.7229,16.4323738 C143.4899,24.1983738 145.6399,32.1353738 147.4399,40.1763738 C148.0489,42.8953738 148.0069,45.5523738 147.3669,48.2393738 C146.9119,50.1483738 146.8149,50.3163738 144.8169,50.3313738 C139.7019,50.3683738 134.5859,50.3553738 129.4689,50.3563738 C121.7959,50.3593738 114.1219,50.3573738 106.4469,50.3573738 L106.4469,50.3683738 Z" id="Fill-4"/><path d="M153.167105,82.3399738 C149.304182,81.9797555 145.662086,81.3417417 142.625451,78.8944959 C140.350826,77.0618599 140.211902,76.6568687 141.126314,73.8880721 C143.37191,67.0836094 145.62891,60.283217 147.87347,53.4777367 C148.178274,52.5507343 148.519364,51.6196616 148.670729,50.6631497 C148.765073,50.0709264 148.759889,49.230417 148.407395,48.8447595 C147.357169,47.6949102 147.557262,46.525727 147.825779,45.1988212 C148.146134,43.6165063 148.13473,41.9680497 148.467526,40.38777 C149.017003,37.767538 149.502201,35.0994804 150.42387,32.5983036 C151.567403,29.4977805 152.101328,26.3372211 152.489072,23.0993266 C152.874742,19.8777132 153.348536,16.6571174 154.005834,13.4802769 C154.579155,10.7063924 156.035786,8.36497345 158.370543,6.57914542 C159.766005,5.51171887 161.118962,4.98360221 162.944675,5.60635249 C166.225982,6.72669247 169.5612,7.70355566 172.904712,8.63869865 C175.7651,9.43952296 178.645186,10.1955744 181.5543,10.7979733 C184.784807,11.4675316 187.408816,14.61181 186.366884,17.6044711 C183.698295,25.2657242 183.356168,33.4418656 180.717645,41.0705566 C179.178074,45.5213896 177.237282,49.8440092 175.377356,54.1839274 C173.707155,58.0781518 171.875222,61.9041993 170.165624,65.7831603 C168.414557,69.75879 166.360759,73.5614334 163.48482,76.8664872 C160.754026,80.0036427 157.408441,82.1069512 153.167105,82.3399738" id="Fill-8"/><path d="M2.34156855,27.107441 C1.72956855,24.7472542 1.93056855,24.1333673 3.83256855,23.1153877 C6.87756855,21.4847132 9.94756855,19.9243675 13.0075686,18.3330295 C14.0855686,17.7727832 15.1625686,17.2113448 16.3425686,16.5950738 C16.5845686,17.232801 18.4651213,20.9604022 18.5691213,21.3907191 C19.3371213,24.5388268 17.9000819,22.9175531 15.3310819,24.2919446 C11.9960819,26.0740048 8.34056855,26.2634954 4.96956855,27.9490025 C4.34456855,28.262502 3.64956855,28.3757433 2.94456855,28.5950738 C2.67456855,27.9394664 2.45556855,27.5425259 2.34156855,27.107441 Z" id="Fill-18"/><path d="M164.4801,4.31557382 C164.4181,1.67157382 164.8211,1.27757382 167.1091,1.83157382 C171.5281,2.90157382 175.9391,4.00357382 180.3451,5.12157382 C182.2921,5.61557382 182.5401,6.14457382 182.0221,7.98257382 C181.6961,9.13957382 181.0511,9.55457382 179.8981,9.23357382 C178.3621,8.80757382 176.8041,8.44857382 175.2831,7.97157382 C172.1651,6.99457382 169.0621,5.96357382 165.9591,4.93857382 C165.4391,4.76657382 164.9461,4.51357382 164.4801,4.31557382" id="Fill-20"/></g><path d="M159.770789,24.8535221 C154.877774,25.7437211 149.767774,27.8830319 147.741848,29.4078033 L147.58023,29.5334051 C146.266644,30.589636 144.294511,31.417635 141.662424,31.9937548 C141.316229,32.069531 141.035999,32.3228784 140.92581,32.6597037 C138.787894,39.194904 135.202043,42.6606502 130.108351,43.2413306 C125.027323,43.8205673 119.574904,40.216953 113.788489,32.2514556 C113.579273,31.9634522 113.232728,31.8083797 112.87857,31.8442833 C106.917369,32.4486126 101.785186,33.3077465 97.479294,34.4239143 L96.7977048,34.6054957 C92.9676876,35.6538547 89.687172,37.032062 86.9577346,38.7445183 L86.814,38.836 L86.6988747,38.8195927 C83.3111108,38.3940793 80.5576759,40.4520611 78.5808724,44.1520662 C77.116753,46.8924747 76.1537741,50.5157643 76.0243811,53.1064616 L76.001773,53.7078722 C75.8770125,55.7087226 74.6806388,58.0341634 72.3749305,60.6572098 L72.277,60.766 L72.2573469,60.6315135 C71.4031582,55.1088889 69.9608973,51.68711 67.7812849,50.3343239 C67.5135374,50.1681452 67.1831226,50.1378951 66.8896511,50.2526929 L48.2268386,57.5530658 C48.0515769,57.6216233 47.8992179,57.7382452 47.7872758,57.8895257 C45.3070048,61.2414027 44.4131611,64.6292996 44.8174601,68.2413501 C45.0989578,70.7562805 45.8245109,72.8820217 47.4410869,76.4417325 L48.6212314,79.0146735 C50.0382252,82.1498774 50.5020026,83.5119437 50.6900725,85.2222072 L50.7079855,85.3944727 C51.9008926,97.5433945 57.2224619,108.965553 66.7278445,113.188996 L66.9694918,113.292765 C74.3015961,116.331963 81.2418717,109.243825 87.9796195,92.5385523 L88.246,91.869 C88.4838919,93.7268089 88.768138,95.5787696 89.1004201,97.4308008 C89.6525222,100.508037 89.5218974,104.016942 88.6996746,107.958815 L88.599883,108.301815 C87.6408962,111.670668 86.8462664,116.581329 86.2228932,122.994008 L86.116,124.124 L85.9098595,124.125723 C80.0269298,124.192572 75.7051483,124.789113 73.2164391,125.752093 C70.4396807,126.826531 69.7942454,129.020065 72.394456,129.878893 C74.4010015,130.541639 109.359955,130.541639 180.090579,129.92931 L180.207177,129.921507 C180.590583,129.873263 180.916456,129.606356 181.035249,129.231286 L187.872,107.643 L194.941235,111.616652 L195.049875,111.669348 C205.663606,116.047195 214.994105,107.568139 223.049217,91.0045194 C225.178921,86.625237 227.073741,81.9574476 228.762736,77.1670689 C229.24255,75.8062056 229.679506,74.5101388 230.09436,73.2311853 L230.691211,71.3544969 L231.254436,69.5591703 C231.496629,68.749841 231.756597,67.5297995 232.101134,65.6549086 L233.4579,58.0143205 L233.683352,56.8139266 C234.239553,53.9064119 234.751488,51.6368569 235.275848,49.8608769 L235.461524,49.2543198 C236.904553,44.7130708 235.236663,41.1860594 230.65448,38.9844261 L230.489225,38.9223137 L227.183652,37.9940144 L224.710069,37.2914118 C223.889647,37.0572478 223.075376,36.823661 222.2734,36.5922717 L219.054946,35.6556253 C216.521744,34.9112541 214.396301,34.2675383 212.785907,33.7530113 L211.882335,33.4600261 C207.681826,32.07481 204.329243,33.3779565 202.123711,37.2483347 C201.376079,38.5098283 200.764973,39.8608921 200.279463,41.2930206 L200.091068,41.8652121 C199.281659,44.4026927 198.97818,46.4930624 198.694596,50.4663495 L198.537775,52.7693281 C198.391909,54.7356899 198.237049,55.7088916 197.936086,56.4035353 L197.813942,56.6711695 L197.637989,57.0847274 C197.019904,58.6103397 196.377931,60.9571432 195.704517,64.1413807 L195.484,65.205 L195.448194,65.00344 C192.189699,47.24379 186.925561,35.3267081 179.578849,29.248599 C174.076984,24.6967753 167.203679,23.501237 159.770789,24.8535221 Z M178.303954,30.7895863 C185.77552,36.9709899 191.111591,49.9372291 194.215585,69.6856703 L194.44221,71.1663101 C194.611897,72.2900443 196.226526,72.3049094 196.416874,71.1844898 L196.681728,69.6557069 C197.734194,63.7020574 198.70248,59.6877905 199.559839,57.6703327 L199.7017,57.3525886 C200.188725,56.3177245 200.374481,55.1706806 200.551695,52.6515583 L200.658772,51.0482087 C200.961053,46.652647 201.260629,44.6281102 202.173577,41.93515 C202.615747,40.6308643 203.169681,39.4061983 203.852862,38.2531974 C205.549979,35.2752927 207.834883,34.3244973 210.99094,35.2757409 L212.504436,35.7622241 C213.975475,36.2281951 215.824955,36.788562 217.986713,37.4260288 L219.349517,37.826031 L222.932662,38.8630722 L227.651996,40.2042845 L229.86,40.822 L229.78832,40.7871366 C233.409025,42.5268023 234.629397,44.966591 233.63235,48.3959438 L233.361179,49.2827356 C232.813721,51.134326 232.288774,53.459947 231.720943,56.4277547 L231.275617,58.8442775 L230.257911,64.6117219 C229.84596,66.9032374 229.554007,68.3003319 229.308846,69.0823901 L228.495802,71.6681136 C227.995338,73.2412484 227.468949,74.8218306 226.876542,76.5020333 C225.210982,81.2259452 223.34375,85.8257731 221.250625,90.1298396 L221.021322,90.5983937 L220.57025,91.5029249 C213.185039,106.126616 204.935039,113.362445 196.089007,109.931109 L195.863,109.841 L187.780374,105.297824 L187.67515,105.246368 C187.142071,105.022834 186.516642,105.300756 186.337099,105.867637 L179.347,127.935 L159.103425,128.100126 C105.695733,128.504652 76.4770172,128.469436 73.2612081,128.026917 L73.11,128.001 C73.3097938,127.889166 73.5827695,127.754848 73.9381724,127.617328 C76.308592,126.700119 80.7994205,126.119436 87.0311371,126.119436 C87.5496603,126.119436 87.9821682,125.723096 88.027336,125.206544 C88.6855979,117.678472 89.5589425,112.084899 90.6373609,108.447239 C91.4868299,104.390633 91.6543623,100.783739 91.1497232,97.5585366 L91.0689872,97.0776104 C90.4979553,93.8948658 90.0714695,90.7129494 89.7894946,87.5317802 C89.6951048,86.4668986 88.2204064,86.2730165 87.8539769,87.2773131 C80.8647526,106.433124 74.0098902,114.236029 67.5399334,111.36129 C58.9833877,107.559435 53.972735,97.0126788 52.7492224,85.6917173 L52.6554995,84.8059486 C52.4139093,82.8074226 51.8473569,81.2558392 50.1652865,77.5784671 L49.456089,76.0384547 L49.0960202,75.2381314 C46.0192213,68.2855953 45.7041177,64.3840117 49.0057235,59.6221402 L49.227,59.309 L67.106,52.315 L67.2187124,52.4169947 C68.7406274,53.8553946 69.9108532,57.4245494 70.5706205,63.0905812 C70.6672229,63.9201953 71.6780773,64.272825 72.2697349,63.6833057 C76.0126278,59.9539393 77.9504267,56.5796248 78.0112112,53.508912 C78.1354033,47.2349793 82.0439467,39.9193153 86.8372198,40.8667992 C87.0944587,40.9176475 87.3613778,40.8654234 87.5804842,40.7213756 C90.3629831,38.8920696 93.8291363,37.4362055 97.9811448,36.3599272 L98.6172524,36.1985029 C102.24475,35.2973424 106.47126,34.5725975 111.295125,34.0256233 L112.512,33.893 L112.796932,34.2745092 C118.74525,42.1793879 124.579994,45.8845167 130.334883,45.2284599 L130.669465,45.1865096 C136.21447,44.4274616 140.191853,40.6756636 142.551314,34.0859316 L142.644,33.819 L143.035563,33.7237799 C145.338023,33.1358916 147.18083,32.3329952 148.563168,31.3014058 L148.833496,31.0920346 C150.461577,29.7829243 155.411713,27.6794102 160.128778,26.8212223 C167.028016,25.5660259 173.311133,26.6589074 178.303954,30.7895863 Z" id="Path-19" fill="#000" fill-rule="nonzero"/><path d="M71.5639093,61.9749201 C72.0767451,61.9749201 72.4994164,62.3609603 72.5571815,62.8582989 L72.5639093,62.9749201 L72.5639093,69.8274918 C72.5639093,70.3797765 72.116194,70.8274918 71.5639093,70.8274918 C71.0510734,70.8274918 70.6284021,70.4414516 70.570637,69.9441129 L70.5639093,69.8274918 L70.5639093,62.9749201 C70.5639093,62.4226353 71.0116245,61.9749201 71.5639093,61.9749201 Z" id="Path-32" fill="#000" fill-rule="nonzero"/><path d="M91.2145478,78.8195154 C91.5091257,78.3523513 92.1266396,78.2124425 92.5938037,78.5070203 C93.0609678,78.8015982 93.2008766,79.4191121 92.9062988,79.8862762 C91.3300516,82.3860096 90.2863448,85.5721329 89.7860869,89.4512904 C89.715449,89.9990392 89.2141475,90.385814 88.6663987,90.315176 C88.1186499,90.2445381 87.7318752,89.7432366 87.8025131,89.1954878 C88.3378117,85.0446138 89.4715204,81.5837415 91.2145478,78.8195154 Z" id="Path-80" fill="#000" fill-rule="nonzero"/><path d="M99.6371,124.119436 C100.189385,124.119436 100.6371,124.567151 100.6371,125.119436 C100.6371,125.632271 100.25106,126.054943 99.7537211,126.112708 L99.6371,126.119436 L87.0311371,126.119436 C86.4788524,126.119436 86.0311371,125.67172 86.0311371,125.119436 C86.0311371,124.6066 86.4171773,124.183928 86.914516,124.126163 L87.0311371,124.119436 L99.6371,124.119436 Z" id="Path-81" fill="#000" fill-rule="nonzero"/><path d="M114.133,80.168 L114.113158,80.2942801 C113.901471,81.3769573 112.10933,87.4752915 108.474277,99.4919313 L99.2833611,129.674548 L97.3707037,129.089961 L105.512187,102.361856 C109.803343,88.210107 112.134502,80.3784927 112.134502,80.1435065 C112.134502,78.5865343 114.211352,77.5611057 116.646811,77.4985368 L116.883563,77.4955021 L193.839867,77.4955021 L193.995682,77.5077159 C195.996334,77.8233024 196.529889,79.555528 195.834799,82.0731022 L192.406173,93.2235849 L187.930448,107.662746 L186.020295,107.070026 L193.850767,81.735454 C194.303846,80.22878 194.224248,79.6643169 193.811023,79.515083 L193.744,79.495 L116.883563,79.4955021 C116.092565,79.4955021 115.368563,79.6255273 114.817921,79.8423212 L114.619764,79.9276018 C114.394787,80.0334116 114.230258,80.1453696 114.140307,80.2402171 C114.132042,80.2489315 114.129461,80.2491806 114.129338,80.2407503 L114.133,80.168 Z" id="Path-82" fill="#000" fill-rule="nonzero"/><path d="M195.658974,68.399035 C196.168627,68.4560839 196.545731,68.8867468 196.547813,69.3874246 L196.541526,69.5040703 L195.522602,78.606744 C195.461165,79.155601 194.966424,79.5507327 194.417567,79.4892954 C193.907914,79.4322466 193.53081,79.0015836 193.528728,78.5009058 L193.535016,78.3842601 L194.553939,69.2815864 C194.610988,68.7719336 195.041651,68.3948295 195.542328,68.3927478 L195.658974,68.399035 Z" id="Path-83" fill="#000" fill-rule="nonzero"/><path d="M64.5576976,44.1472379 L64.6035807,44.2500361 L67.2503155,51.1890004 C67.4471419,51.7050216 67.1883834,52.2828987 66.6723623,52.479725 C66.1931998,52.6624924 65.6607023,52.452434 65.4294857,52.0083377 L65.3816377,51.9017718 L63.107,45.94 L48.452,52.313 L48.4118233,52.4072249 C48.0404011,53.3623135 48.3189784,55.1695078 49.3815376,57.7793778 L49.5128164,58.0964118 C49.727069,58.6054445 49.4881024,59.1917831 48.9790697,59.4060356 C48.470037,59.6202881 47.8836985,59.3813216 47.669446,58.8722889 C46.1168442,55.1835341 45.8024907,52.5693264 46.935518,50.9525107 C47.0412812,50.8015879 47.1866936,50.6828271 47.3557003,50.6093406 L63.2704913,43.6893624 C63.7585722,43.4771378 64.3198059,43.6853492 64.5576976,44.1472379 Z" id="Path-84" fill="#000" fill-rule="nonzero"/><path d="M40.1464869,35.2554984 C39.6450943,35.449569 39.1281971,35.6514492 38.5890526,35.8636377 L29.9183651,39.3174647 L28.7468537,39.7700534 C26.4756809,40.6341063 24.9367484,41.143261 23.9726355,41.3352207 L23.83231,41.3616405 C19.7287473,42.087026 13.7289672,42.8375169 5.84086816,43.6111974 C3.45189823,43.6064218 3.45189823,45.6140934 5.09365591,48.206415 C7.17836367,51.4981511 12.6510761,52.5828247 19.6970187,51.6178592 L21.3897795,51.3799401 C22.9372855,51.1727002 24.8537419,50.9461997 27.4062067,50.6637578 L36.1534906,49.7100598 C40.2026824,49.2586826 42.1010763,49.0114563 43.4714114,48.753017 L43.988603,48.6499285 C45.8884365,48.2500122 46.6858709,49.0238943 46.7548222,51.5531514 L46.7949668,53.0257265 L64.9792787,45.2236975 L64.8718908,44.4660804 C64.2497941,40.077213 62.907658,36.0367409 60.8457484,32.3509637 C59.0605577,29.1598367 53.0075818,30.3699723 41.6023224,34.6974369 L40.1464869,35.2554984 Z M59.4173448,33.9084362 C60.9712322,36.8292045 62.0556296,39.9841617 62.6706909,43.3769534 L62.776,43.992 L48.611,50.069 L48.5747162,49.8840044 C48.0464094,47.3789882 46.3941226,46.1944479 43.8205913,46.6457109 L42.9780837,46.810316 C41.8425045,47.018303 40.2684726,47.22905 37.3418095,47.563249 L25.8796399,48.8218762 C23.9431072,49.0405946 22.406475,49.2258288 21.1166889,49.3986482 L19.8222593,49.5800212 C13.2845351,50.5415843 8.35268211,49.6143615 6.78330762,47.1363323 L6.6609059,46.9394457 C6.34816053,46.4265188 6.14442453,46.0114251 6.04335002,45.7181678 L6.006,45.599 L8.07999163,45.3935231 C15.0546658,44.6860454 20.3950616,44.000249 24.180452,43.3311067 L24.5128183,43.2656212 C25.671642,43.01585 27.3483361,42.4493267 29.7982881,41.5093645 L32.0091969,40.6412608 C34.4722675,39.6629555 38.1973867,38.1686766 38.7776419,37.9392439 L40.867764,37.12091 L41.8442583,36.7453678 C52.0118117,32.8616023 58.1284196,31.5901008 59.1003074,33.327404 L59.4173448,33.9084362 Z" id="Path-85" fill="#000" fill-rule="nonzero"/><path d="M2.53162183,32.8981459 L2.70985972,32.9049364 C4.50868169,33.0136223 15.2653513,34.4279127 35.541067,37.2137823 C36.0882112,37.2889595 36.470816,37.7934508 36.3956388,38.340595 C36.3204616,38.8877392 35.8159703,39.2703441 35.2688261,39.1951668 L14.7499594,36.4107291 C8.36067764,35.5609483 4.42990868,35.0655329 3.03730803,34.9338474 L2.849,34.916 L2.85358225,35.0094834 C2.87237448,35.2325128 2.94151408,35.5124128 3.06340243,35.8162011 L3.1428845,36.0010768 C3.75953265,37.3458069 5.0734074,38.537563 6.89910491,39.1364806 C9.98031905,40.1472687 13.6756128,41.1430205 17.9831409,42.1225544 C18.5216771,42.2450178 18.8589707,42.7808638 18.7365073,43.3193999 C18.614044,43.857936 18.078198,44.1952297 17.5396619,44.0727663 C13.175198,43.0802852 9.42115746,42.0687032 6.27569509,41.0368385 C3.91516131,40.2624687 2.1714856,38.6808596 1.32491543,36.8347365 C0.453494735,34.9344217 0.702939857,32.8981459 2.53162183,32.8981459 Z" id="Path-86" fill="#000" fill-rule="nonzero"/><path d="M22.4019125,27.1350179 C24.946656,25.1786634 33.6526073,26.8171068 49.4145628,31.8872472 C49.9403168,32.0563662 50.2294265,32.619672 50.0603075,33.145426 C49.8911885,33.6711799 49.3278827,33.9602896 48.8021287,33.7911706 L47.7319039,33.4489758 C33.783888,29.0165876 25.5021136,27.4734483 23.6867167,28.6737112 L23.5373467,28.7801024 C23.5120167,28.7983148 23.5099272,28.8055236 23.5246881,28.8300682 L23.5747838,28.910669 C23.8023326,29.3093779 24.4532939,29.8749284 25.5149471,30.5380898 C27.8238383,31.980338 31.8750706,33.7785151 37.6419796,35.9121836 C38.159949,36.1038243 38.4244906,36.679077 38.2328498,37.1970464 C38.041209,37.7150157 37.4659563,37.9795573 36.947987,37.7879165 C31.0629951,35.6105592 26.9076798,33.7661839 24.4553765,32.2343533 C21.5678244,30.4306447 20.5149001,28.5857202 22.4019125,27.1350179 Z" id="Path-87" fill="#000" fill-rule="nonzero"/><path d="M211.381001,27.6073865 L211.495454,27.611359 C212.82219,27.6934909 218.620034,29.0502523 229.398921,31.7799502 L231.386567,32.2844605 L231.599319,32.6234981 C232.878407,34.6618314 232.521559,37.185275 230.693304,40.0961433 L230.50558,40.3885179 L228.833231,39.2915912 C230.267209,37.1053806 230.657476,35.410353 230.133247,34.1297904 L230.082,34.017 L224.199936,32.5358507 C216.595577,30.6413878 212.231915,29.6453629 211.423683,29.6084515 L211.381001,29.6073865 C211.233075,29.6073865 210.769871,30.9168704 210.555574,33.6517799 L210.533592,33.9502657 L208.538339,33.812555 L208.588255,33.1660869 C208.903906,29.4966311 209.657966,27.6073865 211.381001,27.6073865 Z" id="Path-88" fill="#000" fill-rule="nonzero"/><path d="M217.085988,16.4504755 C219.080407,16.0449879 228.93702,18.2891912 241.919738,21.8746427 L244.969088,22.7252682 C259.7549,26.889592 269.93773,30.2323874 270.576999,31.5603753 C272.142985,34.8134849 268.065965,36.9211086 262.048116,36.0641317 L261.696248,36.0083652 C260.838644,35.8597631 259.71421,35.5797826 258.096385,35.1260758 L251.78892,33.3121488 C249.563356,32.6878621 247.647765,32.1920093 245.824631,31.7813713 C237.404326,29.8848034 232.014718,30.1265713 230.186511,33.006961 L230.091981,33.1637947 L228.355738,32.1710913 C230.68737,28.0930554 236.629085,27.7164469 245.802723,29.7277044 L246.264096,29.8302511 C247.753186,30.1656497 249.297322,30.5553403 251.010615,31.0218432 L253.22746,31.6418424 C254.955678,32.1367101 257.831973,32.9729056 258.287341,33.1019426 L258.951587,33.2882352 C260.539509,33.7284244 261.592056,33.9790084 262.330083,34.0841078 C267.05689,34.7572328 269.330461,33.5819057 268.774925,32.4278601 C268.571428,32.0051245 257.382604,28.3239944 245.273111,24.8895413 L242.022776,23.9789103 C229.340973,20.4670173 219.034758,18.0951857 217.484459,18.410379 C215.410653,18.8320067 213.971868,21.9230223 213.436555,27.8705273 L213.370557,28.6804717 L211.375906,28.5343014 L211.44326,27.7063341 C212.051673,20.9251486 213.841946,17.1100256 217.085988,16.4504755 Z" id="Path-89" fill="#000" fill-rule="nonzero"/><path d="M218.187385,16.4778585 C225.157329,14.2511242 230.470533,14.2511242 234.10663,16.5893232 C237.228399,18.5967818 241.044349,20.6747449 245.552897,22.8210683 L246.310735,23.1794214 L245.460424,24.9896621 C240.545293,22.6809139 236.400733,20.4423776 233.024883,18.2715313 C230.062192,16.3663674 225.478336,16.3210063 219.254372,18.2391392 L218.796032,18.382996 L218.187385,16.4778585 Z" id="Path-90" fill="#000" fill-rule="nonzero"/></g></g><g id="Head" transform="translate(250.000000, 368.000000) scale(1 1)" fill="#000"><g id="Head/Curly Short" stroke="none" stroke-width="1" fill="none" fill-rule="evenodd"><g id="Group-3" transform="translate(-4.000000, -16.000000)" fill="#000"><path d="M30.0414,7.2277 C29.1184,6.5757 27.9304,6.9467 26.3464,7.0867 C28.6804,5.8967 30.9764,6.3127 32.3224,9.3737 C31.3444,8.3187 30.8654,7.8097 30.0414,7.2277 M12.4094,9.4207 C12.3314,9.0477 12.2304,8.6487 12.1984,8.3087 C12.0214,6.4707 12.3534,4.4157 13.5004,2.7347 C13.9164,2.1247 14.7464,1.1957 15.4714,0.9757 C17.1254,0.4707 17.8774,0.1527 19.7544,1.1617 C14.9594,1.9277 13.5344,5.4277 12.4094,9.4207 M5.3654,28.4727 C4.7804,28.1417 1.9134,26.2127 0.7594,24.5327 C0.3154,23.8857 0.0004,22.2797 1.7734,19.5477 C1.8884,20.0527 2.0064,20.3137 1.9984,20.5717 C1.8834,24.4487 3.9364,26.8407 7.3264,28.2627 C8.4334,28.7277 9.4344,29.2107 10.1404,30.8117 C8.0904,30.2777 6.7774,29.2707 5.3654,28.4727 M5.9114,13.3637 C6.8144,10.9967 7.6634,10.4047 9.6164,10.7067 C8.2564,11.2577 7.1474,13.4577 7.7804,15.0117 C7.2004,14.5307 6.7774,14.2667 5.5834,15.1587 C5.7004,14.4837 5.7114,13.8877 5.9114,13.3637 M42.1334,15.9877 C42.5584,14.7687 43.0064,13.6607 43.3284,12.5177 C43.8574,10.6427 43.4774,8.8467 42.5074,7.2137 C40.8784,4.4697 36.3074,4.9407 34.8524,6.8647 C34.0944,7.8717 33.8194,8.8347 33.8694,9.8017 C33.0214,8.3657 32.3354,7.4557 31.0514,6.4707 C29.4514,5.2447 27.0904,5.8897 25.4664,6.6577 C25.6434,5.7857 25.1124,4.3687 24.5514,3.6377 C23.8484,2.7227 22.5454,1.3857 20.3494,0.5757 C17.5604,-0.4533 15.5014,-0.1933 13.4674,2.0887 C12.3734,3.3157 11.7004,4.8817 11.4824,6.2777 C11.3034,7.4277 11.4794,8.6427 11.2424,9.8297 C10.7934,9.8677 10.4844,9.9397 10.1874,9.9117 C7.6804,9.6717 6.8954,10.0537 5.8034,12.1907 C5.4424,12.8947 5.1104,13.6367 4.9244,14.3997 C4.4684,16.2637 3.2034,17.6177 1.8714,18.7657 C-0.1516,20.5097 -0.2556,23.3897 0.2674,24.6027 C0.2664,24.6027 1.3224,27.0197 6.7234,29.9427 C7.4914,30.3587 8.2384,30.8437 9.0464,31.1797 C10.3164,31.7087 10.2024,33.0457 9.0104,33.7897 C8.6344,34.0237 8.1054,34.0217 7.6454,34.1107 C5.3454,34.5527 4.1994,35.9637 4.2544,38.3067 C4.3054,40.4897 5.3694,42.0907 7.1474,43.2617 C7.6664,43.6027 8.2224,43.8867 8.8874,44.2687 C8.5394,47.6457 8.3244,50.9957 7.8224,54.3007 C7.1264,58.8757 6.2074,63.4157 5.4014,67.9747 C5.2774,68.6757 5.1744,69.3997 5.2164,70.1047 C5.2344,70.4097 5.6114,70.8767 5.8914,70.9307 C6.1784,70.9847 6.6714,70.7037 6.8454,70.4257 C7.0854,70.0417 7.1354,69.5287 7.2254,69.0627 C8.0254,64.9087 8.9304,60.7697 9.5784,56.5917 C10.1644,52.8067 10.5174,48.9827 10.8794,45.1677 C11.0894,42.9547 10.9714,42.8397 8.9514,41.9367 C7.5294,41.3007 6.6044,40.3007 6.3424,38.7537 C6.1174,37.4347 6.6894,35.5867 8.4554,36.0297 C9.8974,36.3907 10.4494,38.3527 10.8024,39.7077 C10.9994,39.6667 11.1964,39.6257 11.3934,39.5847 C11.5784,38.8747 11.8284,38.1747 11.9374,37.4547 C12.2604,35.3227 12.3924,33.1527 12.8474,31.0517 C13.5744,27.6887 15.7374,25.3327 18.9644,24.3667 C21.3604,23.6477 23.9514,23.5767 26.4574,23.2297 C26.6044,23.2087 26.7764,23.2727 26.9204,23.3357 C29.0924,24.2817 31.1394,23.7547 33.0914,22.7467 C34.9184,23.8037 35.6514,25.2567 35.6314,27.3257 C35.5694,33.2717 34.8424,39.1317 33.3584,44.8707 C32.7044,47.3987 31.5364,49.7947 30.5764,52.2427 C30.0024,53.7087 28.7914,54.2867 27.3284,54.1867 C26.3114,54.1177 25.2264,53.9377 24.3254,53.4937 C22.4074,52.5467 20.6094,51.3597 18.7164,50.3577 C18.3214,50.1497 17.7284,50.3177 17.2264,50.3117 C17.2944,50.8037 17.1794,51.5137 17.4614,51.7497 C18.5534,52.6667 19.7024,53.5637 20.9584,54.2257 C23.5884,55.6147 26.3764,56.5377 29.5734,56.0357 C30.8074,60.4047 31.9704,64.5477 33.1494,68.6857 C33.3674,69.4497 33.5894,70.2267 33.9374,70.9337 C34.0654,71.1937 34.6194,71.4567 34.8814,71.3797 C35.1454,71.3017 35.4404,70.8127 35.4524,70.4947 C35.4714,69.9527 35.3174,69.3917 35.1694,68.8577 C34.0784,64.9347 32.9964,61.0087 31.8534,57.1007 C31.4804,55.8277 31.4964,54.7877 32.1494,53.4987 C33.4024,51.0207 34.5904,48.4227 35.2214,45.7377 C36.2024,41.5537 36.7364,37.2607 37.3784,33.0017 C37.6274,31.3547 37.6544,29.6747 37.7824,28.0117 C38.1414,27.8117 38.3994,27.6207 38.6894,27.5127 C40.8204,26.7207 42.2464,25.4127 42.2154,22.9387 C42.2104,22.5717 42.3844,22.1417 42.6104,21.8427 C44.2214,19.7207 44.1884,17.7437 42.1334,15.9877" id="Fill-1"/></g></g></g><g id="Face" transform="translate(264.000000, 380.000000) scale(1 1)" fill="#000"><g id="Face/Smile" stroke="none" stroke-width="1" fill="none" fill-rule="evenodd"><g id="Group-21" fill="#000"><polygon id="Fill-1" points="9.8938 5.7839 11.4208 11.8299 9.1938 12.0529"/><g id="Group-20" transform="translate(0.000000, 0.700000)"><path d="M9.8977,5.1434 L9.2057,11.3404 L11.4087,11.1204 L9.8977,5.1434 Z M9.1937,11.3634 C9.1907,11.3634 9.1877,11.3614 9.1857,11.3594 C9.1837,11.3574 9.1817,11.3544 9.1827,11.3514 L9.8827,5.0824 C9.8837,5.0784 9.8877,5.0744 9.8927,5.0744 C9.8977,5.0734 9.9027,5.0774 9.9037,5.0814 L11.4317,11.1264 C11.4327,11.1294 11.4317,11.1324 11.4297,11.1354 C11.4277,11.1374 11.4257,11.1394 11.4217,11.1394 L9.1947,11.3624 L9.1937,11.3634 Z" id="Fill-2"/><path d="M8.5208,0.3153 C8.5208,0.3153 8.6838,2.1623 8.2888,2.5663 C6.7238,2.1933 2.3858,2.3233 0.0108,4.1523 C0.7098,1.5243 8.5208,0.3153 8.5208,0.3153" id="Fill-4"/><g id="Group-8"><path d="M8.511,0.328 C8.349,0.353 6.468,0.66 4.532,1.259 C3.347,1.625 2.375,2.026 1.641,2.453 C0.74,2.976 0.198,3.539 0.03,4.124 C2.354,2.357 6.628,2.162 8.284,2.555 C8.652,2.167 8.524,0.483 8.511,0.328 M0.011,4.163 C0.008,4.163 0.006,4.162 0.005,4.161 C0.001,4.158 -0.001,4.153 -5.42101086e-20,4.149 C0.16,3.547 0.709,2.971 1.63,2.434 C2.365,2.008 3.34,1.604 4.525,1.238 C6.542,0.615 8.499,0.308 8.519,0.306 C8.522,0.305 8.525,0.306 8.528,0.307 C8.53,0.309 8.532,0.311 8.532,0.314 C8.538,0.39 8.691,2.171 8.295,2.573 C8.293,2.576 8.289,2.577 8.285,2.576 C6.631,2.182 2.333,2.377 0.017,4.16 C0.015,4.162 0.013,4.163 0.011,4.163" id="Fill-6"/></g><path d="M11.2151,0.3104 C11.2151,0.3104 10.8251,2.0914 11.1521,2.4934 C12.9161,1.9724 15.6831,2.3684 17.5191,3.2714 C16.9541,0.6484 11.2151,0.3104 11.2151,0.3104" id="Fill-9"/><g id="Group-13" transform="translate(11.000000, 0.000000)"><path d="M1.9944,2.2509 C2.4144,2.2509 2.8564,2.2799 3.3094,2.3379 C4.4674,2.4859 5.5994,2.8119 6.5034,3.2519 C6.3704,2.6659 5.9624,2.1469 5.2904,1.7109 C4.7444,1.3569 4.0254,1.0569 3.1524,0.8179 C1.7274,0.4279 0.3484,0.3299 0.2234,0.3219 C0.1944,0.4579 -0.1446,2.0929 0.1554,2.4809 C0.6774,2.3279 1.3064,2.2509 1.9944,2.2509 M6.5184,3.2819 C6.5164,3.2819 6.5154,3.2809 6.5144,3.2809 C5.6094,2.8359 4.4714,2.5089 3.3074,2.3589 C2.1114,2.2049 0.9914,2.2569 0.1544,2.5039 C0.1504,2.5049 0.1454,2.5029 0.1434,2.4999 C0.0064,2.3309 -0.0256,1.9109 0.0514,1.2499 C0.1064,0.7599 0.2044,0.3129 0.2054,0.3089 C0.2064,0.3039 0.2104,0.2999 0.2154,0.2999 L0.2164,0.2999 C0.2304,0.3009 1.6694,0.3899 3.1584,0.7969 C4.0334,1.0369 4.7544,1.3389 5.3014,1.6929 C5.9864,2.1379 6.3994,2.6679 6.5284,3.2699 C6.5294,3.2729 6.5274,3.2769 6.5244,3.2789 C6.5224,3.2809 6.5204,3.2819 6.5184,3.2819" id="Fill-11"/></g><path d="M8.6038,13.9999 C8.2728,13.9999 7.9548,13.9459 7.6498,13.8389 C6.3618,13.3829 5.8048,12.1329 5.7818,12.0799 C5.7348,11.9729 5.7848,11.8479 5.8918,11.8009 C5.9988,11.7549 6.1238,11.8039 6.1698,11.9109 C6.1748,11.9219 6.6808,13.0489 7.7938,13.4399 C8.5348,13.6999 9.3838,13.5849 10.3188,13.0969 C10.4218,13.0429 10.5508,13.0829 10.6048,13.1869 C10.6588,13.2909 10.6188,13.4189 10.5148,13.4729 C9.8418,13.8239 9.2028,13.9999 8.6038,13.9999" id="Fill-14"/><path d="M4.8997,8.0116 C4.3517,8.0446 3.8057,7.9446 3.2957,7.7786 C3.4807,7.8306 3.6777,7.8596 3.8827,7.8596 C4.9357,7.8596 5.7927,7.1086 5.7927,6.1846 C5.7927,5.8126 5.5037,5.3676 5.2307,5.0596 C6.5797,5.1846 7.7657,5.8866 8.2027,6.1756 C7.8107,6.6396 6.5927,7.9076 4.8997,8.0116 M2.0237,5.7246 C1.9927,5.8836 1.9727,6.0576 1.9727,6.1846 C1.9727,6.8476 2.4157,7.4226 3.0547,7.6936 C2.0697,7.3246 1.2557,6.7396 0.9077,6.4646 C1.1117,6.2906 1.4927,5.9986 2.0237,5.7246 M8.6377,5.9606 C8.5667,5.9076 6.8727,4.6416 4.8827,4.6166 C2.1467,4.5846 0.4997,6.2546 0.4307,6.3256 C0.3907,6.3666 0.3697,6.4236 0.3717,6.4816 C0.3737,6.5396 0.3997,6.5936 0.4427,6.6316 C0.5297,6.7086 2.5157,8.4426 4.6817,8.4426 C4.7627,8.4426 4.8437,8.4406 4.9257,8.4346 C7.1967,8.2946 8.6227,6.3366 8.6817,6.2536 C8.7497,6.1596 8.7287,6.0306 8.6377,5.9606" id="Fill-16"/><path d="M14.221,7.5848 C13.736,7.6188 13.25,7.4998 12.805,7.3138 C12.881,7.3288 12.957,7.3388 13.035,7.3388 C13.883,7.3388 14.573,6.6488 14.573,5.8008 C14.573,5.4308 14.443,5.0818 14.208,4.8068 C14.303,4.8018 14.398,4.7978 14.495,4.7978 C15.566,4.7978 16.545,5.5528 16.889,5.8498 C16.584,6.2728 15.595,7.4858 14.221,7.5848 M11.018,6.1448 C11.129,6.0488 11.295,5.9158 11.51,5.7708 C11.552,6.1268 11.705,6.4838 11.948,6.7748 C12.012,6.8538 12.082,6.9228 12.154,6.9848 C11.64,6.6818 11.23,6.3368 11.018,6.1448 M17.318,5.6658 C17.264,5.6128 15.997,4.3738 14.495,4.3738 C12.172,4.3738 10.619,5.9268 10.555,5.9918 C10.474,6.0748 10.474,6.2058 10.554,6.2888 C10.573,6.3078 11.013,6.7568 11.684,7.1938 C12.519,7.7388 13.312,8.0148 14.046,8.0148 C14.115,8.0148 14.183,8.0128 14.251,8.0078 C16.128,7.8728 17.3,6.0068 17.349,5.9278 C17.401,5.8438 17.388,5.7348 17.318,5.6658" id="Fill-18"/></g></g></g></g><g id="Glasses" transform="translate(261.000000, 385.000000) scale(1 1)"><g id="Glasses/Round" stroke="none" stroke-width="1" fill="none" fill-rule="evenodd"><g id="Group-3" transform="translate(2.000000, -2.000000)" fill="#F7B500"><g id="Fill-1"><path d="M17.2501,8.77461 C14.9011,8.77461 13.2231,7.24661 13.0431,5.00861 L13.0771,5.00861 L13.0771,4.49261 L13.0281,4.49261 C13.0771,2.49461 14.3881,0.51661 17.2501,0.51661 C20.1681,0.51661 21.4741,2.57161 21.4741,4.60761 C21.4741,7.06061 19.7371,8.77461 17.2501,8.77461 M5.1041,9.06361 C2.4031,9.06361 0.5171,7.29061 0.5171,4.75161 C0.5171,2.64361 1.9361,0.51661 5.1041,0.51661 C8.2741,0.51661 9.6931,2.64361 9.6931,4.75161 C9.6931,7.29061 7.8071,9.06361 5.1041,9.06361 M17.2501,0.00061 C14.4991,0.00061 12.5671,1.84161 12.5131,4.49261 L10.2041,4.49261 C10.1451,3.17061 9.6281,2.04861 8.7011,1.23961 C7.7871,0.44061 6.5101,0.00061 5.1041,0.00061 C3.7001,0.00061 2.4231,0.44061 1.5081,1.23961 C0.5211,2.10061 0.0001,3.31561 0.0001,4.75161 C0.0001,7.59361 2.0991,9.58061 5.1041,9.58061 C8.0191,9.58061 10.0801,7.71361 10.2031,5.00861 L12.5251,5.00861 C12.7061,7.54961 14.5971,9.29161 17.2501,9.29161 C20.0411,9.29161 21.9901,7.36561 21.9901,4.60761 C21.9901,1.89461 20.0411,0.00061 17.2501,0.00061"/></g></g></g></g></g></svg>