<svg fill="#ffffff" width="64px" height="64px" viewBox="0 0 24.00 24.00" id="leaderboard-podium-2" data-name="Flat Color" xmlns="http://www.w3.org/2000/svg" class="icon flat-color" stroke="#ffffff" stroke-width="1.032"><g id="SVGRepo_bgCarrier" stroke-width="0"></g><g id="SVGRepo_tracerCarrier" stroke-linecap="round" stroke-linejoin="round" stroke="#CCCCCC" stroke-width="0.096"></g><g id="SVGRepo_iconCarrier"><path id="primary" d="M21,15H16V10a1,1,0,0,0-1-1H9a1,1,0,0,0-1,1v3H3a1,1,0,0,0-1,1v7a1,1,0,0,0,1,1H21a1,1,0,0,0,1-1V16A1,1,0,0,0,21,15Z" style="fill: #4d9de0;"></path><path id="secondary" d="M12.93,6.85a1,1,0,0,1-.47-.11L12,6.5l-.46.24a1,1,0,0,1-1.45-1.06l.09-.51L9.8,4.81a1,1,0,0,1,.56-1.71L10.87,3l.23-.47a1,1,0,0,1,1.8,0l.23.47.51.07a1,1,0,0,1,.56,1.71l-.38.36.09.51a1,1,0,0,1-.4,1A1,1,0,0,1,12.93,6.85Z" style="fill: #4d9de0;"></path></g></svg>