<svg width="400" height="217" viewBox="0 0 400 217" fill="none" xmlns="http://www.w3.org/2000/svg">
    <path fill-rule="evenodd" clip-rule="evenodd" d="M181.917 208.15H327.872C306.034 69.3834 286.242 0 268.496 0C241.877 0 232.132 43.2032 217.531 59.8884C202.93 76.5735 194.44 83.9406 170.566 71.9145C146.693 59.8884 97.0137 64.9879 97.0137 105.29C97.0137 132.157 103.995 166.4 117.959 208.019L181.917 208.15Z" fill="#EFFDFF"/>
    <path fill-rule="evenodd" clip-rule="evenodd" d="M306.63 107.147C337.321 107.147 395.279 98.3421 395.279 134.79C395.279 171.238 396.592 197.299 365.9 197.299L365.938 197.298L272.588 197.299H216.06C330.839 164.259 277.043 108.28 305.735 107.164L306.63 107.147Z" fill="#E4F0FA"/>
    <path fill-rule="evenodd" clip-rule="evenodd" d="M26.4308 209.465C-2.50899e-06 177.03 -6.60771 153.649 6.60771 139.32C26.4308 117.827 46.6521 102.924 72.7786 102.924C98.905 102.924 165.808 139.606 171.284 162.986C174.935 178.574 164.472 194.067 139.893 209.465H26.4308Z" fill="#458CC8"/>
    <path fill-rule="evenodd" clip-rule="evenodd" d="M15.5626 164.187C15.5063 164.198 15.4172 164.191 15.36 164.23C14.0242 165.149 12.863 166.241 12.0392 167.655C11.6613 168.304 11.4235 168.992 11.5528 169.761C11.9001 171.832 12.1451 173.927 12.6196 175.969C13.4549 179.566 14.8844 182.961 16.4528 186.294C19.0129 191.734 22.5324 196.492 26.9098 200.593C31.6473 205.031 37.4819 207.235 43.7174 208.551C43.946 208.599 44.1936 208.557 44.606 208.557C29.2559 197.329 20.1501 182.242 15.5626 164.187ZM46.2111 208.597C46.1904 208.418 46.2016 208.359 46.1769 208.329C46.0434 208.168 45.9073 208.008 45.7606 207.859C42.6269 204.671 40.0766 201.048 37.8371 197.199C36.3017 194.561 35.1398 191.74 33.9217 188.947C32.3771 185.407 30.9722 181.812 29.8498 178.115C28.9191 175.052 28.1026 171.953 27.1999 168.881C26.7493 167.346 26.328 165.788 25.7009 164.323C24.6663 161.905 22.6205 161.008 20.0876 161.663C18.8732 161.977 17.8185 162.612 16.7576 163.246C16.3508 163.489 16.2449 163.756 16.3765 164.215C16.9457 166.207 17.3795 168.246 18.056 170.2C19.7318 175.042 21.6103 179.8 24.1342 184.285C29.4756 193.776 36.4697 201.777 45.3844 208.07C45.6287 208.243 45.8895 208.393 46.2111 208.597ZM41.79 138.239C41.9853 138.612 42.1123 138.867 42.2507 139.116C43.6543 141.646 44.9575 144.221 45.905 146.964C47.4868 151.543 48.6763 156.218 49.2932 161.026C49.5974 163.396 49.8302 165.774 50.0976 168.148C50.4652 171.414 50.6987 174.689 50.6698 177.976C50.633 182.207 50.3189 186.425 49.9565 190.639C49.6477 194.226 49.2774 197.804 48.6618 201.353C48.6434 201.46 48.6766 201.577 48.6861 201.688C48.8561 201.51 48.9377 201.323 48.9985 201.129C50.0292 197.847 51.0937 194.576 52.0783 191.281C54.1603 184.313 55.53 177.204 56.0614 169.946C56.4097 165.194 56.3331 160.449 55.8296 155.701C55.0765 148.597 52.8057 142.039 49.0466 135.98C48.717 135.449 48.6842 135.4 48.1034 135.581C47.278 135.837 46.4558 136.119 45.6626 136.461C44.3883 137.01 43.1386 137.616 41.79 138.239ZM41.0803 138.583C40.1651 139.054 39.2949 139.475 38.4507 139.943C37.4135 140.517 36.4335 141.176 35.6147 142.051C34.2933 143.461 33.7921 145.119 34.266 146.99C34.5091 147.949 34.8728 148.895 35.3088 149.785C37.0801 153.4 38.5994 157.116 39.9526 160.904C42.5592 168.2 44.5307 175.645 45.3758 183.367C45.9622 188.725 46.3141 194.098 46.4183 199.485C46.464 201.847 46.4262 204.212 46.4262 206.629C46.4821 206.645 46.6239 206.685 46.8008 206.736C46.8679 206.521 46.935 206.353 46.9731 206.179C47.8094 202.352 48.4221 198.488 48.817 194.592C49.0979 191.823 49.3258 189.047 49.5283 186.27C49.8477 181.892 50.115 177.509 49.7664 173.12C49.5583 170.502 49.2735 167.89 49.04 165.274C48.6851 161.29 48.0419 157.357 47.0856 153.473C45.8609 148.498 44.1209 143.728 41.5154 139.298C41.3861 139.078 41.2503 138.862 41.0803 138.583ZM16.0687 162.778C16.7076 162.41 17.2003 162.113 17.7057 161.839C19.0669 161.101 20.4895 160.622 22.0746 160.742C23.5617 160.855 24.7232 161.527 25.6184 162.691C26.2024 163.451 26.5921 164.316 26.8592 165.228C27.6849 168.052 28.5166 170.874 29.297 173.71C30.9255 179.628 33.1512 185.32 35.5992 190.941C37.6174 195.576 40.1503 199.883 43.2751 203.847C43.8766 204.611 44.528 205.334 45.1608 206.073C45.2252 206.148 45.316 206.202 45.509 206.359C45.5613 206.004 45.6333 205.739 45.6337 205.474C45.6363 202.793 45.6541 200.111 45.6123 197.431C45.585 195.697 45.4646 193.964 45.3883 192.231C44.9131 181.442 42.9337 170.954 39.1571 160.815C37.7802 157.118 36.2977 153.473 34.5893 149.916C34.1269 148.953 33.7412 147.923 33.5172 146.882C33.0844 144.875 33.6425 143.093 35.0556 141.581C35.93 140.646 36.9692 139.941 38.0778 139.329C38.9029 138.873 39.7441 138.448 40.658 137.966C40.4114 137.507 40.1756 137.078 39.949 136.643C39.8158 136.387 39.6606 136.134 39.5886 135.86C39.5537 135.728 39.6882 135.552 39.7461 135.397C39.8773 135.455 40.0608 135.476 40.1309 135.576C40.491 136.093 40.8208 136.632 41.1632 137.161C41.2467 137.291 41.3381 137.415 41.4628 137.595C41.787 137.447 42.0912 137.307 42.3974 137.17C43.7881 136.549 45.1693 135.904 46.5755 135.32C47.1267 135.091 47.7288 134.97 48.3178 134.849C48.8617 134.738 49.2745 134.956 49.5747 135.445C52.7442 140.601 55.0301 146.096 56.0489 152.09C56.9115 157.165 57.1845 162.274 56.9579 167.41C56.6152 175.163 55.2909 182.755 53.1938 190.222C51.7652 195.309 50.0992 200.318 48.3997 205.318C48.1376 206.089 47.8877 206.865 47.6663 207.649C47.2674 209.061 46.7002 209.394 45.2778 209.429C44.1916 209.455 43.0738 209.255 42.01 208.994C38.1956 208.054 34.5077 206.76 31.1166 204.734C28.3854 203.102 26.0439 201.004 23.8984 198.666C18.8916 193.21 15.4498 186.863 13.0287 179.904C11.9938 176.93 11.5051 173.857 10.9516 170.78C10.5734 168.674 11.3068 167.065 12.6564 165.629C13.3359 164.906 14.1199 164.271 14.9062 163.661C15.3228 163.337 15.4715 163.028 15.31 162.529C15.2061 162.206 15.1459 161.864 15.115 161.525C15.0906 161.265 14.9246 160.877 15.3445 160.81C15.7053 160.752 15.6961 161.143 15.7612 161.373C15.8799 161.794 15.9516 162.228 16.0687 162.778Z" fill="#263238"/>
    <path fill-rule="evenodd" clip-rule="evenodd" d="M381.925 156.493C382.075 156.195 382.16 156.038 382.235 155.875C383.359 153.436 384.66 151.097 386.191 148.888C387.104 147.57 388.015 146.251 388.895 144.912C389.326 144.256 389.733 143.574 390.066 142.865C390.466 142.01 390.242 141.419 389.333 141.144C388.132 140.78 386.893 140.536 385.663 140.28C385.161 140.176 384.728 140.402 384.427 140.815C384.164 141.175 383.911 141.546 383.695 141.935C382.487 144.107 381.85 146.453 381.702 148.921C381.604 150.545 381.569 152.175 381.575 153.802C381.578 154.655 381.503 155.537 381.925 156.493ZM353.784 77.1893C352.824 77.7709 352.028 78.4481 351.242 79.1367C351.167 79.2015 351.094 79.3032 351.081 79.3963C350.986 80.0668 350.915 80.7398 350.822 81.4105C350.688 82.3794 351.048 83.2805 351.197 84.2097C351.43 85.6664 351.781 87.0973 352.362 88.4565C353.219 90.4603 354.141 92.437 354.976 94.4502C356.174 97.3362 357.325 100.242 358.484 103.144C360.688 108.66 363.195 114.035 365.954 119.296C367.93 123.065 369.941 126.812 372.239 130.399C372.307 130.506 372.408 130.592 372.534 130.733C372.551 130.59 372.574 130.535 372.559 130.491C371.714 127.923 370.884 125.349 370.012 122.79C369.03 119.906 367.975 117.047 367.014 114.156C365.681 110.145 364.442 106.102 363.099 102.094C360.635 94.7484 357.866 87.5137 355.036 80.3029C354.635 79.282 354.218 78.2677 353.784 77.1893ZM372.57 127.616C372.621 127.597 372.671 127.578 372.721 127.56C372.507 126.132 372.242 124.709 372.086 123.274C371.56 118.414 371.024 113.554 370.583 108.686C370.169 104.107 369.888 99.516 369.518 94.9324C369.149 90.366 368.536 85.8385 367.111 81.4599C366.434 79.378 365.589 77.3671 364.283 75.5929C363.132 74.029 361.771 73.5553 359.922 74.1547C358.655 74.5657 357.433 75.1294 356.213 75.6748C355.623 75.9388 355.084 76.318 354.504 76.6553C354.574 76.9265 354.608 77.1321 354.681 77.3222C356.638 82.3938 358.642 87.4476 360.545 92.5393C362.044 96.549 363.453 100.593 364.837 104.645C365.964 107.95 366.963 111.3 368.078 114.61C369.336 118.344 370.66 122.056 371.953 125.778C372.165 126.389 372.365 127.003 372.57 127.616ZM353.446 76.3143C352.92 74.9503 352.41 73.658 351.924 72.3559C351.703 71.7629 351.729 71.7282 352.145 71.2243C352.291 71.5002 352.438 71.729 352.539 71.9763C353.015 73.1426 353.478 74.3146 353.951 75.4828C353.988 75.5756 354.062 75.6536 354.164 75.8038C354.833 75.4384 355.484 75.0695 356.147 74.7231C357.385 74.0766 358.664 73.5412 360.033 73.2267C361.872 72.8041 363.414 73.2645 364.627 74.724C365.922 76.2806 366.766 78.0909 367.485 79.9593C368.3 82.0724 368.851 84.2622 369.298 86.4817C370.116 90.5402 370.411 94.6538 370.68 98.774C370.879 101.842 371.123 104.909 371.427 107.969C371.964 113.383 372.501 118.799 373.16 124.2C373.493 126.935 374.082 129.639 374.579 132.352C374.653 132.752 374.863 133.127 375.003 133.516C375.046 133.637 375.092 133.767 375.091 133.892C375.08 135.658 375.607 137.319 376.141 138.964C377.251 142.386 378.43 145.786 379.578 149.196C379.88 150.091 380.17 150.99 380.47 151.886C380.517 152.027 380.584 152.161 380.759 152.296C380.786 152.139 380.833 151.982 380.836 151.824C380.881 149.641 380.964 147.466 381.55 145.34C382.002 143.705 382.666 142.174 383.568 140.737C384.182 139.759 385.01 139.297 386.158 139.557C387.333 139.823 388.529 140.042 389.66 140.439C390.952 140.892 391.33 141.838 390.763 143.08C390.35 143.982 389.81 144.832 389.273 145.669C387.84 147.904 386.307 150.076 384.951 152.355C383.973 153.998 383.207 155.769 382.371 157.495C382.269 157.706 382.25 158.006 382.306 158.238C383.248 162.179 383.954 166.162 384.473 170.178C384.919 173.62 385.224 177.074 385.325 180.545C385.379 182.383 385.502 184.221 385.504 186.058C385.506 189.076 385.44 192.093 385.395 195.11C385.346 198.366 385.268 201.622 385.242 204.878C385.225 207.031 385.255 209.185 385.311 211.339C385.328 211.984 385.493 212.627 385.615 213.266C385.661 213.513 385.729 213.764 385.456 213.883C385.165 214.01 384.926 213.847 384.826 213.577C384.708 213.26 384.617 212.923 384.581 212.589C384.498 211.831 384.425 211.07 384.404 210.308C384.268 205.45 384.291 200.592 384.403 195.732C384.495 191.742 384.503 187.748 384.462 183.756C384.403 177.859 383.81 172.001 382.882 166.181C382.029 160.828 380.764 155.573 378.977 150.447C377.792 147.05 376.628 143.643 375.542 140.213C375.028 138.591 374.724 136.903 374.313 135.248C374.252 135.003 374.177 134.736 374.028 134.54C370.688 130.15 368.112 125.297 365.559 120.439C363.923 117.325 362.333 114.178 360.903 110.966C359.152 107.034 357.602 103.013 355.941 99.0408C354.806 96.3283 353.671 93.6134 352.456 90.9367C351.237 88.2543 350.49 85.4507 350.063 82.553C349.98 81.9874 350.02 81.4003 350.037 80.8244C350.046 80.5185 350.178 80.2439 349.822 79.9915C349.561 79.8074 349.74 79.4963 349.931 79.3058C350.415 78.824 350.897 78.3368 351.418 77.8975C352.058 77.3577 352.737 76.8642 353.446 76.3143Z" fill="#263238"/>
    <path fill-rule="evenodd" clip-rule="evenodd" d="M246.049 35.8803C245.498 36.3394 244.972 36.7774 244.423 37.2341C245.21 38.1506 245.938 38.998 246.697 39.8819C247.279 39.339 247.803 38.85 248.363 38.3275C247.565 37.4837 246.832 36.7083 246.049 35.8803ZM223.039 26.8105C223.151 27.4737 223.238 28.6108 223.54 29.6874C225.324 36.0454 231.616 39.9351 238.282 38.7211C242.56 37.9421 245.823 35.6021 247.925 31.7841C251.283 25.6823 249.26 18.034 242.965 14.6569C238.232 12.1177 233.479 12.5123 229.062 15.401C225.192 17.932 223.178 21.661 223.039 26.8105ZM246.275 41.3682C247.058 42.234 247.777 43.0347 248.501 43.8318C251.294 46.9057 254.077 49.9885 256.886 53.0479C258.698 55.0226 260.525 56.986 262.396 58.9044C263.013 59.5361 263.783 60.0205 264.496 60.5561C264.993 60.9307 265.459 60.8152 265.928 60.4476C266.507 59.9945 266.883 59.4121 267.165 58.7558C261.044 52.1769 255.655 45.0231 250.206 37.8188C248.828 39.0624 247.507 40.2557 246.275 41.3682ZM246.647 35.2937C247.484 36.1098 248.27 36.875 249.084 37.6682C249.266 37.5317 249.448 37.389 249.637 37.2558C250.073 36.9487 250.291 36.9493 250.676 37.3272C250.956 37.6021 251.206 37.9115 251.447 38.2219C254.467 42.0982 257.433 46.0182 260.518 49.8422C262.513 52.315 264.677 54.6513 266.776 57.0403C267.069 57.374 267.414 57.6647 267.744 57.964C268.204 58.3803 268.28 58.6565 268.062 59.2184C268.043 59.2671 268.017 59.3135 267.991 59.3592C267.469 60.2947 266.699 60.9984 265.831 61.5939C265.286 61.9685 264.694 61.812 264.195 61.4897C263.491 61.0352 262.758 60.5834 262.175 59.9942C260.475 58.2757 258.811 56.5201 257.194 54.7243C253.817 50.9753 250.606 47.076 246.998 43.5385C246.453 43.0048 245.891 42.4892 245.351 41.9518C245.02 41.6224 245.023 41.5069 245.348 41.1643C245.581 40.9177 245.838 40.6937 246.125 40.4218C245.309 39.5093 244.513 38.6188 243.697 37.705C243.389 37.8671 243.116 38.0187 242.837 38.1578C237.734 40.7023 232.723 40.5954 227.967 37.3827C224.577 35.0928 222.669 31.7821 222.359 27.6904C221.938 22.1595 224.174 17.8469 228.677 14.6704C231.121 12.946 233.874 12.1186 236.83 12.1686C241.697 12.2515 245.644 14.2314 248.34 18.351C250.449 21.5739 250.907 25.1387 250.046 28.867C249.541 31.0508 248.541 33.005 247.087 34.7199C246.953 34.8787 246.833 35.0503 246.647 35.2937Z" fill="#263238"/>
    <path fill-rule="evenodd" clip-rule="evenodd" d="M225.107 26.4514C225.107 29.6477 226.194 32.378 228.617 34.4989C230.71 36.3305 233.12 37.4275 235.962 37.1661C238.985 36.8882 241.671 35.739 243.851 33.6029C246.949 30.5664 248.111 26.9112 246.981 22.6663C246.265 19.9738 244.679 17.9025 242.137 16.6635C239.981 15.6125 237.666 15.1739 235.287 15.0354C234.954 15.016 234.6 14.9595 234.443 15.4146C234.413 15.5024 234.119 15.5556 233.96 15.5329C233.296 15.4386 232.711 15.6378 232.156 15.964C231.59 16.2971 231.009 16.6102 230.474 16.989C227.208 19.302 225.117 22.2891 225.107 26.4514ZM248.412 25.4646C248.375 28.4741 247.496 30.8358 245.806 32.9554C244.906 34.0843 243.699 34.837 242.717 35.8531C242.529 36.0477 242.213 36.1178 241.96 36.2513C240.422 37.0612 238.832 37.6935 237.097 37.9845C234.123 38.4831 231.452 37.7698 229.054 36.0398C225.426 33.4227 223.891 29.8121 224.225 25.3834C224.497 21.7811 226.393 19.1011 229.114 16.913C229.869 16.3057 230.668 15.75 231.467 15.1998C232.398 14.5589 233.473 14.2101 234.574 14.1837C237.532 14.1124 240.387 14.6915 243.008 16.0841C245.944 17.6431 247.526 20.2356 248.181 23.4278C248.338 24.1947 248.36 24.9891 248.412 25.4646Z" fill="#263238"/>
    <path fill-rule="evenodd" clip-rule="evenodd" d="M245.567 26.5819C245.577 25.4724 244.148 24.4316 243.156 24.7963C242.908 24.8871 242.663 25.1116 242.521 25.3399C241.952 26.2553 242.057 27.2372 242.765 28.0886C243.34 28.7814 244.237 28.837 244.917 28.2329C245.436 27.7719 245.503 27.1471 245.567 26.5819ZM246.371 26.4454C246.342 27.2372 246.202 27.9458 245.759 28.5752C244.801 29.9343 242.922 29.9583 241.962 28.6048C241.283 27.6463 241.089 26.6121 241.463 25.4684C241.906 24.1166 243.017 23.7332 244.204 23.9999C244.604 24.09 244.992 24.2929 245.35 24.5059C246.091 24.9479 246.443 25.6171 246.371 26.4454Z" fill="#263238"/>
    <path fill-rule="evenodd" clip-rule="evenodd" d="M243.246 21.5412C243.266 21.1406 242.928 20.7829 242.523 20.7779C242.173 20.7733 241.876 21.0167 241.869 21.3123C241.861 21.698 242.273 22.0722 242.709 22.0762C243.037 22.0791 243.228 21.8887 243.246 21.5412ZM244.12 21.5471C244.124 22.38 243.623 22.9364 242.856 22.9505C241.903 22.9676 241.018 22.1584 241.013 21.2646C241.009 20.5948 241.733 20.0095 242.565 20.0108C243.437 20.0118 244.116 20.6829 244.12 21.5471Z" fill="#263238"/>
    <path fill-rule="evenodd" clip-rule="evenodd" d="M193.977 46.8923C194.112 46.8923 194.147 46.9 194.177 46.8906C194.241 46.8705 194.304 46.8448 194.364 46.8151C195.888 46.0626 197.262 45.1032 198.434 43.8746C198.662 43.6356 198.845 43.3659 198.921 43.016C199.022 42.5525 199.174 42.4883 199.667 42.4469C200.255 42.3973 200.849 42.3571 201.426 42.246C202.86 41.9702 203.891 41.1746 204.376 39.787C204.657 38.9835 204.878 38.1588 205.099 37.3362C205.332 36.4659 205.147 35.6454 204.711 34.8735C204.446 34.4047 204.056 34.045 203.554 33.8644C202.858 33.6139 202.15 33.3739 201.426 33.226C199.436 32.8186 197.41 32.6959 195.385 32.6292C192.379 32.5298 189.372 32.4685 186.366 32.4095C183.394 32.3511 180.421 32.309 177.449 32.2716C174.611 32.2362 171.774 32.2182 168.936 32.1883C167.619 32.1747 166.301 32.1515 164.984 32.1314C164.359 32.122 163.784 32.2178 163.327 32.7102C163.124 32.9284 162.842 33.0718 162.609 33.2655C162.456 33.3932 162.303 33.5342 162.193 33.6972C161.836 34.2252 161.498 34.7661 161.153 35.3016C160.565 36.2117 160.163 37.2029 159.869 38.237C159.778 38.5553 159.723 38.8945 159.722 39.2245C159.718 40.1551 160.328 40.936 161.22 41.1968C162.41 41.5443 163.635 41.7002 164.866 41.7634C166.67 41.8563 168.478 41.8992 170.286 41.934C174.745 42.02 179.206 42.0706 183.665 42.1713C187.449 42.2569 191.23 42.392 195.013 42.5078C195.11 42.5107 195.206 42.5402 195.375 42.5703C195.018 44.046 194.6 45.4729 193.977 46.8923ZM194.58 43.1521C193.88 43.1213 193.244 43.088 192.607 43.0661C189.94 42.974 187.275 42.867 184.608 42.8007C181.687 42.7285 178.766 42.7028 175.845 42.6429C172.52 42.5747 169.194 42.5004 165.869 42.4105C164.365 42.3696 162.876 42.1807 161.405 41.8519C160.1 41.5602 159.449 40.7852 159.198 39.42C159.102 38.8993 159.245 38.3875 159.4 37.892C159.777 36.6888 160.317 35.5686 161.008 34.5014C161.627 33.5432 162.339 32.7173 163.285 32.0596C163.686 31.7815 164.067 31.6325 164.537 31.6346C166.225 31.6415 167.914 31.6377 169.602 31.6486C172.305 31.6666 175.007 31.6821 177.709 31.7189C181.441 31.7698 185.173 31.8359 188.904 31.9033C190.965 31.9405 193.025 31.9694 195.084 32.0466C197.362 32.132 199.641 32.2362 201.878 32.725C202.354 32.829 202.819 32.9858 203.285 33.1299C204.7 33.5677 205.413 34.5792 205.659 35.9775C205.744 36.4626 205.735 36.9447 205.64 37.423C205.435 38.4576 205.164 39.4746 204.731 40.4424C204.244 41.5276 203.415 42.246 202.297 42.6436C201.577 42.8997 200.828 43.0267 200.065 43.0411C199.748 43.0468 199.536 43.129 199.382 43.4312C198.987 44.2111 198.345 44.7928 197.662 45.3141C196.526 46.1817 195.372 47.0315 193.997 47.5123C193.783 47.587 193.558 47.7929 193.341 47.6008C193.101 47.3878 193.29 47.1286 193.368 46.9017C193.707 45.9222 194.064 44.9487 194.399 43.9679C194.483 43.7229 194.513 43.4595 194.58 43.1521Z" fill="#263238"/>
    <path fill-rule="evenodd" clip-rule="evenodd" d="M180.623 36.0558C180.97 35.701 181.172 35.3455 181.073 34.9045C180.996 34.5626 180.76 34.338 180.349 34.2521C180.048 34.9251 180.377 35.4539 180.623 36.0558ZM185.96 37.1233C185.159 37.6085 184.356 37.8854 183.483 37.9611C182.388 38.056 181.396 37.8748 180.656 36.978C180.626 36.9424 180.573 36.9263 180.569 36.9238C180.057 37.1976 179.583 37.4861 179.08 37.7115C178.183 38.1137 177.279 38.0612 176.386 37.664C176.014 37.498 175.885 37.3562 175.958 37.1477C176.043 36.9078 176.367 36.7583 176.766 36.8177C176.67 36.9693 176.588 37.0964 176.507 37.2238C177.666 38.022 179.44 37.3074 180.265 36.4553C180.13 36.0696 179.969 35.6864 179.866 35.2879C179.797 35.0192 179.771 34.725 179.8 34.4496C179.851 33.9442 180.242 33.7467 180.717 33.9464C181.349 34.2119 181.667 34.8982 181.426 35.5665C181.309 35.8915 181.111 36.1882 180.931 36.5331C181.304 37.2247 181.966 37.5068 182.74 37.5462C183.759 37.5981 184.709 37.3414 185.583 36.8137C185.781 36.6943 185.888 36.5356 185.961 36.3131C186.037 36.084 186.18 35.8676 186.331 35.6745C186.458 35.5123 186.663 35.5027 186.834 35.6186C187.001 35.7314 186.991 35.9151 186.911 36.0696C186.82 36.2454 186.7 36.4092 186.577 36.5658C186.358 36.8433 186.352 36.9376 186.585 37.2107C186.839 37.5101 187.183 37.6312 187.564 37.6686C188.403 37.7511 189.209 37.6106 189.994 37.3193C190.183 37.2491 190.372 37.178 190.566 37.1217C190.949 37.0105 191.329 37.0112 191.705 37.1642C192 37.2845 192.302 37.3881 192.594 37.5153C192.653 37.541 192.72 37.6481 192.709 37.7036C192.699 37.7586 192.596 37.8295 192.531 37.8333C192.418 37.8402 192.298 37.812 192.188 37.7768C192.044 37.7305 191.903 37.6715 191.768 37.6037C191.349 37.3927 190.938 37.4186 190.497 37.5649C189.877 37.7707 189.245 37.9488 188.607 38.092C188.301 38.1606 187.968 38.1502 187.651 38.1262C186.944 38.0728 186.347 37.8016 185.96 37.1233Z" fill="#263238"/>
    <path fill-rule="evenodd" clip-rule="evenodd" d="M166.136 36.5707C165.486 36.676 164.822 36.7598 164.168 36.8999C163.839 36.9703 163.441 37.0475 163.583 37.6132C163.622 37.7689 163.437 37.8427 163.302 37.7392C163.077 37.5668 163.034 37.1282 163.277 36.8858C163.463 36.6996 163.713 36.5489 163.959 36.4722C164.886 36.1829 165.836 36.1218 166.8 36.2066C168.166 36.3263 169.473 36.6978 170.763 37.1683C171.907 37.5856 173.074 37.9138 174.286 38.0197C174.568 38.0443 174.854 38.0193 175.139 38.0175C175.255 38.0166 175.378 37.9945 175.486 38.0264C175.543 38.0434 175.597 38.152 175.609 38.2271C175.617 38.2699 175.546 38.3636 175.499 38.375C175.303 38.4216 175.104 38.4715 174.905 38.4731C173.925 38.4802 172.968 38.2878 172.029 38.0117C170.883 37.6748 169.755 37.2624 168.6 36.9659C167.806 36.7623 166.98 36.7007 166.136 36.5707Z" fill="#263238"/>
    <path fill-rule="evenodd" clip-rule="evenodd" d="M195.071 37.2777C194.934 37.3507 194.821 37.429 194.69 37.4733C194.619 37.4974 194.478 37.4888 194.437 37.45C194.376 37.3928 194.342 37.2901 194.359 37.216C194.402 37.0327 194.768 36.8378 195.039 36.8294C195.299 36.8214 195.594 36.9842 195.659 37.1948C195.682 37.27 195.668 37.4109 195.617 37.4293C195.524 37.4633 195.384 37.4443 195.276 37.4169C195.198 37.3968 195.14 37.3273 195.071 37.2777Z" fill="#263238"/>
    <path fill-rule="evenodd" clip-rule="evenodd" d="M316.362 80.2894L310.011 75.9306L306.634 81.0933L300.216 75.0577C296.416 72.1388 294.284 70.6794 293.818 70.6794C293.353 70.6794 292.386 70.9004 290.918 71.3424C287.82 74.0927 285.348 75.3311 283.502 75.0577C281.656 74.7842 280.451 74.3035 279.886 73.6156C279.019 72.1183 278.335 71.2546 277.834 71.0245C277.084 70.6794 275.238 70.3699 274.526 70.3699C273.813 70.3699 270.527 71.7661 269.667 72.6909C269.094 73.3074 266.21 75.9385 261.014 80.5843L255.75 73.1589L250.591 76.5295L256.623 87.416C258.083 89.8893 259.247 91.2368 260.114 91.4584C260.982 91.68 262.197 91.3206 263.761 90.3801L270.122 85.2585L271.034 90.3801L273.065 100.02L295.829 100.402C296.968 96.3772 297.537 94.2494 297.537 94.0191C297.537 93.7888 297.899 91.4048 298.622 86.8672L304.261 91.126C305.373 91.855 306.369 92.2195 307.249 92.2195C308.13 92.2195 309.868 90.5242 312.465 87.1335L316.362 80.2894Z" fill="white"/>
    <path fill-rule="evenodd" clip-rule="evenodd" d="M295.732 100.402H273.22V101.966C272.489 103.643 272.041 104.8 271.875 105.438C271.709 106.076 271.317 112.289 270.698 124.078L269.138 152.905L267.388 171.688L266.376 182.601L282.803 183.116L285.878 183.159L304.023 183.116L305.182 182.076L304.023 169.306C303.05 155.697 302.242 145.49 301.597 138.686C300.952 131.881 300.308 126.764 299.664 123.334C298.641 114.736 298.043 110.121 297.872 109.488C297.7 108.855 296.855 106.087 295.336 101.184L295.732 100.402Z" fill="white"/>
    <path fill-rule="evenodd" clip-rule="evenodd" d="M239.998 69.9934C240.949 69.7458 241.89 69.4605 242.878 69.1762C241.627 69.2189 240.41 69.2289 239.269 69.7255C239.27 69.8085 239.271 69.8915 239.273 69.9748C239.515 69.9844 239.773 70.0521 239.998 69.9934ZM244.68 70.7503C246.119 70.7677 247.312 71.3596 248.413 72.2418C248.983 72.699 249.388 73.2596 249.72 73.9062C250.043 74.5368 250.426 75.1364 250.808 75.7929C252.134 75.026 253.38 74.3061 254.695 73.5466C254.509 73.272 254.361 73.0283 254.188 72.8047C253.574 72.0085 252.959 71.2133 252.33 70.429C251.896 69.8871 251.355 69.5778 250.628 69.5998C249.474 69.6345 248.316 69.5702 247.165 69.6388C245.332 69.7478 243.503 69.9278 241.674 70.0904C241.422 70.1128 241.178 70.2077 240.931 70.2694C240.927 70.3241 240.924 70.3787 240.921 70.4334C241.23 70.497 241.537 70.5974 241.85 70.618C242.792 70.6807 243.736 70.739 244.68 70.7503ZM256.593 75.1C256.252 74.6238 255.955 74.2095 255.622 73.7436C253.923 74.7068 252.284 75.636 250.554 76.6168C250.935 77.287 251.232 77.8093 251.557 78.3819C253.251 77.278 254.876 76.2189 256.593 75.1ZM257.602 88.7124C258.084 89.4046 258.616 90.0718 259.197 90.6814C259.997 91.5236 260.975 91.8233 262.061 91.268C262.736 90.9231 263.428 90.5684 264.01 90.0902C265.847 88.5811 267.635 87.0103 269.445 85.4662C269.639 85.3002 269.85 85.1539 270.169 84.9103C270.699 86.647 270.801 88.3508 271.231 89.9775C271.672 91.6476 272.139 93.3124 272.517 94.9978C272.887 96.6516 273.158 98.3276 273.476 100.013H281.948C281.976 99.7721 282.017 99.5705 282.021 99.3682C282.088 95.853 282.121 92.3368 282.221 88.8224C282.32 85.3622 282.491 81.904 282.619 78.4449C282.645 77.7383 282.623 77.0304 282.623 76.1735C281.935 76.6011 281.363 76.9598 280.788 77.312C279.832 77.8973 279.838 77.8893 279.051 77.0611C277.775 75.7189 276.49 74.3871 275.21 73.0497C275.101 72.9353 274.997 72.8147 274.901 72.688C274.677 72.3901 274.744 72.1371 275.049 71.9552C275.495 71.6899 275.949 71.4396 276.486 71.1339C275.827 70.785 275.24 70.7687 274.64 70.829C273.014 70.9913 271.618 71.7182 270.356 72.709C269.569 73.327 268.815 74.0002 268.118 74.7198C266.549 76.3378 264.922 77.8826 263.136 79.2541C262.534 79.7157 261.987 80.2509 261.39 80.7752C261.606 81.1192 261.811 81.3958 261.96 81.7004C262.027 81.838 262.054 82.1053 261.974 82.185C261.776 82.3826 261.596 82.2127 261.464 82.0284C260.845 81.1668 260.219 80.3113 259.614 79.4397C258.813 78.2852 258.03 77.1177 257.24 75.9552C257.165 75.8463 257.095 75.7353 256.997 75.5866C255.264 76.7118 253.613 77.7833 251.981 78.8432C252.005 79.0125 251.996 79.0991 252.029 79.1611C253.814 82.3893 255.49 85.6825 257.602 88.7124ZM271.589 109.123C271.453 113.384 271.387 117.647 271.197 121.905C271.042 125.39 270.756 128.869 270.514 132.349C270.294 135.51 270.091 138.673 269.816 141.83C269.453 145.993 269.082 150.157 268.614 154.31C268.146 158.462 267.522 174.926 267.037 179.077C266.902 180.229 267.017 181.412 267.017 182.654H282.525C282.546 182.184 282.582 181.712 282.584 181.239C282.606 176.124 282.577 158.677 282.655 153.563C282.711 149.915 282.915 146.27 283.039 142.623C283.11 140.546 283.137 138.468 283.215 136.392C283.316 133.73 283.453 131.071 283.565 128.41C283.669 125.903 283.69 123.391 283.122 120.936C282.811 119.595 282.333 118.287 281.853 116.994C281.167 115.144 280.808 113.268 281.007 111.284C281.119 110.173 281.13 109.052 281.187 107.935C281.194 107.802 281.201 107.669 281.213 107.536C281.233 107.317 281.258 107.077 281.552 107.104C281.85 107.131 281.82 107.383 281.811 107.594C281.746 108.95 281.706 110.308 281.605 111.661C281.492 113.175 281.689 114.636 282.191 116.059C282.456 116.812 282.704 117.57 282.999 118.31C283.817 120.367 284.146 122.522 284.173 124.715C284.198 126.792 284.115 128.87 284.05 130.947C283.96 133.875 283.852 136.804 283.734 139.732C283.632 142.287 283.471 144.84 283.4 147.396C283.313 150.484 283.277 153.575 283.251 156.665C283.213 161.115 283.205 177.896 283.185 182.346C283.184 182.477 283.196 182.608 283.202 182.749C283.834 183.149 284.513 183.139 285.18 183.012C285.461 182.958 285.667 182.965 285.919 183.096C286.115 183.198 286.365 183.235 286.59 183.232C289.955 183.177 293.32 183.134 296.683 183.041C299.205 182.972 301.726 182.836 304.247 182.724C305 182.691 305.084 182.562 305.011 181.789C304.763 179.165 303.587 155.342 303.25 152.22C303.003 149.944 302.754 147.668 302.546 145.388C302.152 141.068 301.874 136.734 301.388 132.423C300.844 127.611 300.144 122.816 299.467 118.02C299.07 115.202 298.594 112.395 298.14 109.585C297.794 107.442 297.007 105.434 296.268 103.412C296.15 103.09 296.021 102.773 295.897 102.456C292.512 102.456 289.15 102.476 285.788 102.45C282.001 102.422 278.214 102.374 274.428 102.282C273.638 102.263 273.256 102.572 272.924 103.255C272.02 105.113 271.653 107.082 271.589 109.123ZM283.987 193.909C283.937 192.945 283.909 192.052 283.84 191.162C283.667 188.935 283.468 186.71 283.294 184.483C283.22 183.525 283.085 183.364 282.084 183.329C280.483 183.275 278.881 183.237 277.279 183.201C276.654 183.187 276.029 183.199 275.259 183.199C275.68 186.849 276.084 190.356 276.494 193.909H283.987ZM275.383 198.844C275.474 199.877 275.542 200.914 275.694 201.938C275.82 202.79 275.467 203.342 274.773 203.692C273.762 204.201 272.736 204.68 271.7 205.133C269.283 206.194 267.036 207.576 264.756 208.893C263.718 209.493 262.856 210.311 262.188 211.329C262.127 211.421 262.076 211.516 262.025 211.611C267.539 211.649 273.031 211.567 278.509 211.409C278.562 211.238 278.618 211.069 278.695 210.911C278.763 210.772 278.948 210.691 279.079 210.585C279.167 210.704 279.3 210.813 279.334 210.947C279.37 211.088 279.392 211.234 279.408 211.381C280.831 211.338 282.253 211.291 283.675 211.239C283.706 210.914 283.737 210.592 283.761 210.271C283.862 208.97 283.936 207.668 284.037 206.367C284.083 205.784 284.132 205.198 284.237 204.625C284.498 203.202 284.164 201.817 284.013 200.421C283.95 199.843 283.812 199.273 283.695 198.624C280.905 198.839 278.16 198.506 275.379 197.936C275.379 198.272 275.357 198.56 275.383 198.844ZM268.892 212.65C271.649 212.565 274.409 212.557 277.168 212.517C277.48 212.513 277.792 212.516 278.13 212.516C278.215 212.28 278.287 212.083 278.355 211.887C276.904 211.938 275.452 211.985 274 212.013C270.099 212.088 266.198 212.108 262.297 212.153C262.13 212.155 261.962 212.16 261.796 212.169C261.722 212.419 261.672 212.688 261.659 212.996C261.987 212.996 262.292 213.01 262.596 212.994C264.694 212.879 266.792 212.714 268.892 212.65ZM283.627 211.713C283.296 211.719 282.963 211.723 282.632 211.734C281.568 211.769 280.505 211.808 279.441 211.847C279.449 212.1 279.441 212.363 279.441 212.698C280.828 212.891 282.149 212.604 283.53 212.687C283.562 212.354 283.595 212.031 283.627 211.713ZM289.646 211.253C289.788 210.939 290.092 210.943 290.228 211.26C290.312 211.456 290.385 211.657 290.454 211.86C295.843 212.047 301.217 212.139 306.583 212.172C306.501 211.843 306.277 211.644 305.824 211.413C305.355 211.174 304.873 210.961 304.387 210.76C301.958 209.75 299.517 208.77 297.1 207.731C296.33 207.401 295.604 206.953 294.89 206.505C293.78 205.81 293.347 204.795 293.442 203.456C293.558 201.844 293.544 200.222 293.59 198.479C290.531 199.145 287.497 199.415 284.371 198.566C284.397 198.909 284.403 199.139 284.433 199.366C284.598 200.605 284.774 201.843 284.932 203.083C284.965 203.345 284.957 203.617 284.935 203.881C284.744 206.108 284.547 208.335 284.349 210.561C284.318 210.908 284.262 211.254 284.234 211.6C285.971 211.686 287.706 211.759 289.44 211.823C289.498 211.628 289.562 211.436 289.646 211.253ZM288.738 212.753C289.048 212.753 289.209 212.601 289.296 212.334C287.727 212.282 286.157 212.23 284.588 212.182C284.474 212.179 284.359 212.176 284.244 212.175C284.278 212.368 284.337 212.561 284.376 212.752C285.855 212.752 287.296 212.751 288.738 212.753ZM291.314 213.016C292.523 213.047 293.73 213.117 294.939 213.146C296.962 213.194 298.986 213.253 301.009 213.249C302.744 213.246 304.477 213.163 306.212 213.111C306.339 213.107 306.465 213.074 306.583 213.056C306.601 212.908 306.612 212.78 306.618 212.661C306.402 212.655 306.186 212.649 305.97 212.647C302.943 212.618 299.915 212.625 296.89 212.556C294.802 212.507 292.714 212.444 290.627 212.377C290.644 212.43 290.662 212.484 290.679 212.537C290.784 212.848 290.969 213.006 291.314 213.016ZM292.378 198.004C292.496 197.112 292.617 196.199 292.751 195.191C290.149 195.097 287.617 195.005 285.085 194.913C284.925 195.535 284.979 196.827 285.215 198.046C286.759 198.699 290.889 198.588 292.378 198.004ZM276.604 194.601C276.402 195.167 276.421 196.846 276.674 197.213C276.825 197.433 277.091 197.674 277.333 197.709C279.594 198.031 281.861 198.323 284.145 197.924C284.244 197.907 284.339 197.865 284.5 197.814C284.428 196.73 284.357 195.659 284.286 194.601H276.604ZM292.904 183.774C290.698 183.801 288.493 183.845 286.288 183.849C285.668 183.85 285.048 183.727 284.428 183.673C284.253 183.658 284.075 183.686 283.808 183.699C283.892 184.882 283.968 186.015 284.054 187.148C284.2 189.083 284.352 191.018 284.501 192.953C284.518 193.165 284.519 193.379 284.548 193.589C284.623 194.13 284.7 194.215 285.241 194.26C285.999 194.322 286.758 194.374 287.518 194.404C288.961 194.461 290.404 194.5 291.848 194.543C292.157 194.552 292.468 194.544 292.868 194.544C293.291 190.957 293.723 187.436 294.028 183.774C293.577 183.774 293.24 183.77 292.904 183.774ZM274.606 100.67C273.808 100.676 273.738 100.769 273.832 101.691C280.988 101.771 288.15 101.971 295.378 101.888C295.409 101.551 295.433 101.368 295.442 101.184C295.446 101.082 295.426 100.979 295.408 100.794C294.905 100.752 294.416 100.694 293.925 100.672C288.906 100.451 283.886 100.699 278.866 100.66C277.446 100.65 276.026 100.661 274.606 100.67ZM298.243 87.3073C298.264 87.1759 298.266 87.038 298.309 86.9143C298.406 86.6297 298.606 86.546 298.861 86.707C299.015 86.8047 299.139 86.9503 299.282 87.068C300.648 88.1931 301.977 89.3693 303.396 90.4205C304.191 91.0097 305.114 91.441 306.02 91.8509C306.845 92.2232 307.677 92.0479 308.425 91.5546C308.754 91.3383 309.076 91.096 309.351 90.8154C310.795 89.344 313.731 85.0566 314.64 83.1085C312.662 81.7004 310.674 80.2853 308.632 78.8308C308.039 79.7327 307.478 80.5942 306.907 81.4488C306.6 81.9094 306.286 82.3666 305.948 82.8042C305.876 82.8966 305.687 82.8962 305.552 82.9382C305.517 82.8006 305.428 82.6473 305.461 82.5283C305.516 82.3283 305.644 82.1477 305.749 81.963C306.092 81.3555 306.089 81.1598 305.624 80.6219C305.243 80.1816 304.842 79.757 304.423 79.3537C301.809 76.8368 299.072 74.4668 296.127 72.3518C295.285 71.7465 294.398 71.2219 293.333 71.1533C292.982 71.1309 292.627 71.1816 292.273 71.1989C292.256 71.2523 292.239 71.3059 292.222 71.3592C292.53 71.6365 292.833 71.9198 293.147 72.1891C293.549 72.5321 293.975 72.8474 294.364 73.2046C294.794 73.5996 294.745 73.8389 294.223 74.0812C292.042 75.094 289.99 76.3305 288.052 77.761C287.754 77.9803 287.472 78.2202 287.186 78.4555C286.699 78.8575 286.599 78.8735 286.118 78.4369C285.57 77.9393 285.052 77.4084 284.517 76.8958C284.161 76.5532 283.797 76.2175 283.354 75.8009C282.799 83.9167 282.812 91.9099 282.625 100.002C286.995 100.081 291.3 99.7214 295.644 100.196C295.736 99.9504 295.828 99.7394 295.896 99.5205C296.547 97.4068 296.961 95.2378 297.326 93.0594C297.647 91.1447 297.939 89.225 298.243 87.3073ZM310.075 76.5115C309.678 77.1351 309.342 77.6627 308.946 78.2842C310.96 79.7204 312.929 81.1252 314.918 82.5436C315.481 82.0464 315.653 81.3924 316.032 80.8392C314.048 79.3981 312.117 77.9949 310.075 76.5115ZM319.814 75.2977C320.435 74.7001 321.238 74.3831 322.091 74.2921C323.318 74.1612 324.553 74.0992 325.781 73.9759C326.589 73.8945 327.392 73.7662 328.194 73.6362C328.381 73.6059 328.554 73.4829 328.911 73.3226C328.543 73.169 328.348 73.0447 328.138 73.0087C327.673 72.9287 327.2 72.8504 326.73 72.8467C324.129 72.8254 321.528 72.8034 318.927 72.828C317.193 72.844 315.46 72.952 313.726 72.9903C312.796 73.011 312.061 73.2526 311.616 74.1952C311.326 74.8104 310.858 75.3393 310.418 75.9809C312.406 77.4364 314.254 78.9271 316.371 80.2456C316.754 79.5477 317.136 78.9211 317.452 78.2622C318.015 77.0851 318.902 76.1755 319.814 75.2977ZM324.097 72.2134C324.671 72.2134 325.244 72.1941 325.816 72.2181C326.574 72.2501 327.336 72.2771 328.086 72.3831C328.456 72.4354 328.846 72.6001 329.149 72.8227C329.512 73.089 329.798 73.0763 330.206 72.8124C329.239 71.9492 326.163 71.6342 324.097 72.2134ZM317.47 68.6066C315.887 69.6068 314.757 71.0226 313.339 72.3138C314.325 72.4401 315.101 72.4501 315.688 71.6375C316.15 70.9983 316.703 70.4274 317.176 69.7955C317.403 69.4918 317.614 69.1379 317.47 68.6066ZM284.388 75.4043C284.311 75.4176 284.237 75.4433 284.054 75.4916C284.844 76.4578 285.719 77.254 286.648 78.0883C288.837 76.3089 291.211 74.8704 293.824 73.5576C292.97 72.8304 292.204 72.1778 291.368 71.4662C290.461 72.1285 289.525 72.7187 288.696 73.4383C287.438 74.5318 285.991 75.125 284.388 75.4043ZM279.122 73.1553C278.819 72.6437 278.367 72.2154 277.951 71.7812C277.649 71.4662 277.28 71.4049 276.876 71.6415C276.446 71.8928 276 72.1145 275.473 72.3964C276.957 73.9832 278.388 75.5133 279.839 77.0651C280.747 76.7035 281.804 76.0066 282.192 75.537C282.168 75.4963 282.15 75.4263 282.118 75.42C280.771 75.1357 279.825 74.3395 279.122 73.1553ZM249.768 68.717C249.471 68.224 247.897 67.3628 246.798 67.1235C247.542 68.092 248.782 68.739 249.768 68.717ZM240.078 68.8473C241.664 68.54 243.264 68.5317 244.872 68.618C245.723 68.6636 246.578 68.626 247.481 68.626C247.03 68.208 246.587 67.8441 246.206 67.4228C246.055 67.2555 245.934 66.9296 245.99 66.7306C246.081 66.402 246.443 66.3913 246.73 66.4543C247.086 66.5323 247.46 66.6149 247.773 66.7932C249.235 67.6281 250.696 68.4693 252.121 69.3679C252.62 69.6832 253.026 70.1331 253.362 70.672C253.893 71.5225 254.556 72.2884 255.169 73.0983C255.393 73.0513 255.588 73.01 255.854 72.954C257.555 75.39 259.249 77.816 260.965 80.2729C261.138 80.1583 261.253 80.0993 261.348 80.017C263.729 77.9619 266.188 75.9982 268.332 73.6696C269.377 72.5351 270.62 71.6222 272.016 70.9586C273.323 70.3371 274.687 69.9468 276.14 70.2984C277.654 70.6643 278.921 71.4162 279.679 72.866C280.186 73.8372 280.929 74.5491 282.007 74.7347C284.19 75.1104 286.182 74.5584 287.968 73.2563C288.776 72.6674 289.542 72.0201 290.339 71.4149C291.409 70.6023 292.611 70.3037 293.913 70.629C294.493 70.7737 295.065 71.0093 295.59 71.2982C296.187 71.6275 296.746 72.0385 297.29 72.4554C300.503 74.9161 303.619 77.4903 306.33 80.5296C306.38 80.5856 306.461 80.6136 306.594 80.6959C306.749 80.4936 306.92 80.3016 307.058 80.0876C307.917 78.7478 308.733 77.3767 309.634 76.0666C310.576 74.6981 311.351 73.2076 312.656 72.1018C313.965 70.9923 315.181 69.7688 316.447 68.6056C316.658 68.411 316.898 68.225 317.158 68.1104C317.789 67.8318 318.229 68.1564 318.123 68.8423C318.064 69.2272 317.934 69.6292 317.731 69.9568C317.411 70.4717 317.007 70.933 316.63 71.4109C316.425 71.6699 316.205 71.9162 315.92 72.2528C316.383 72.2528 316.698 72.2831 317.005 72.2474C318.622 72.0605 320.238 71.8675 321.851 71.6555C324.046 71.3672 326.245 71.1043 328.451 71.4396C329.112 71.5399 329.774 71.7818 330.38 72.0768C330.989 72.3734 330.969 73.0173 330.395 73.4033C330.227 73.5163 330.012 73.5623 329.815 73.6256C329.666 73.6729 329.482 73.6569 329.364 73.7412C328.338 74.4748 327.141 74.4898 325.967 74.5934C324.711 74.7041 323.451 74.7814 322.195 74.9044C321.447 74.9777 320.748 75.2623 320.195 75.7703C319.317 76.5761 318.539 77.474 317.953 78.5372C317.005 80.2579 316.035 81.967 315.047 83.6648C313.603 86.1458 312.067 88.5677 310.178 90.7321C309.715 91.2633 309.155 91.7323 308.571 92.1252C307.77 92.6651 306.857 92.8138 305.93 92.4685C305.317 92.2399 304.703 91.9866 304.136 91.6609C302.503 90.7234 301.093 89.4773 299.673 88.2481C299.44 88.0458 299.201 87.8498 298.972 87.6582C298.878 87.7462 298.814 87.7762 298.806 87.8172C298.724 88.2608 298.64 88.7044 298.576 89.151C298.008 93.1054 297.369 97.0438 296.129 100.855C296.062 101.06 296.085 101.331 296.157 101.54C296.374 102.165 296.641 102.772 296.878 103.39C297.899 106.053 298.695 108.776 299.086 111.615C299.424 114.067 299.83 116.509 300.168 118.961C300.792 123.496 301.467 128.026 301.974 132.575C302.46 136.939 302.745 141.327 303.146 145.701C303.355 147.981 303.618 150.256 303.87 152.532C304.098 154.595 305.464 180.489 305.617 182.186C305.673 182.812 305.509 183.067 304.923 183.249C304.75 183.303 304.563 183.323 304.381 183.33C302.621 183.398 300.86 183.454 299.1 183.527C297.812 183.58 296.526 183.651 295.239 183.721C295.061 183.731 294.884 183.782 294.717 183.812C294.169 188.518 293.625 193.185 293.08 197.865C293.18 197.88 293.256 197.908 293.33 197.901C294.104 197.831 294.312 198.052 294.223 198.838C294.181 199.208 294.142 199.579 294.129 199.951C294.082 201.282 294.051 202.613 294.006 203.944C293.98 204.729 294.282 205.354 294.911 205.789C295.431 206.148 295.959 206.519 296.533 206.77C299.112 207.899 301.71 208.986 304.299 210.091C304.953 210.37 305.614 210.633 306.247 210.954C307.121 211.397 307.253 212.108 307.23 212.968C307.216 213.436 306.873 213.715 306.399 213.728C304.691 213.779 302.982 213.872 301.274 213.86C298.066 213.838 294.859 213.749 291.652 213.697C290.882 213.685 290.247 213.504 290.05 212.626C290.044 212.597 289.974 212.582 289.878 212.53C289.729 213.359 289.126 213.404 288.46 213.399C285.6 213.379 282.74 213.378 279.88 213.369C279.426 213.368 279.007 213.275 278.811 212.917C278.494 213.001 278.253 213.102 278.004 213.123C277.639 213.154 277.269 213.133 276.901 213.124C272.689 213.031 268.487 213.202 264.288 213.526C263.223 213.608 262.148 213.538 261.006 213.538C260.97 212.648 261.194 211.822 261.668 211.067C262.359 209.966 263.29 209.108 264.389 208.446C265.428 207.82 266.481 207.217 267.548 206.643C268.824 205.957 270.114 205.297 271.411 204.655C272.356 204.188 273.334 203.792 274.275 203.319C275.117 202.896 275.17 202.684 275.067 201.725C274.93 200.455 274.836 199.181 274.725 197.908C274.715 197.802 274.704 197.694 274.715 197.59C274.746 197.308 274.884 197.153 275.188 197.204C275.433 197.246 275.679 197.278 275.921 197.313C275.896 192.559 275.195 187.962 274.608 183.221C274.275 183.221 274.015 183.217 273.756 183.222C271.731 183.257 269.706 183.296 267.681 183.328C267.314 183.334 266.943 183.336 266.578 183.294C266.131 183.242 266.068 183.104 266.132 182.653C266.213 182.076 266.282 181.498 266.327 180.917C266.379 180.254 266.356 179.582 266.44 178.924C266.917 175.173 267.434 159.096 267.899 155.344C268.221 152.755 268.519 150.162 268.762 147.565C268.983 145.205 269.107 142.836 269.29 140.473C269.571 136.836 269.926 133.203 270.14 129.561C270.416 124.855 270.588 120.142 270.797 115.431C270.917 112.744 270.998 110.054 271.144 107.368C271.242 105.579 271.856 103.926 272.758 102.406C273.144 101.755 273.254 101.151 273.056 100.446C272.913 99.9347 272.784 99.4185 272.675 98.8989C272.242 96.8429 271.897 94.7638 271.37 92.7331C270.875 90.8267 270.341 88.9347 270.029 86.986C269.982 86.6887 269.891 86.3987 269.794 85.9984C269.358 86.3481 269.025 86.6007 268.708 86.873C267.242 88.1298 265.784 89.3943 264.319 90.6514C263.482 91.3697 262.534 91.8826 261.45 92.0786C261.103 92.1412 260.683 92.1589 260.378 92.0179C259.37 91.5536 258.383 91 257.75 90.0445C256.606 88.3204 255.471 86.5864 254.422 84.8026C253.117 82.5839 251.901 80.3119 250.652 78.0603C250.371 77.5547 250.108 77.0387 249.847 76.5442C250.015 76.3625 250.136 76.2305 250.25 76.1069C249.821 75.341 249.442 74.5771 248.984 73.8655C248.044 72.4061 246.748 71.4829 244.985 71.3566C244.304 71.3079 243.618 71.2503 242.937 71.2759C241.592 71.3272 240.361 70.85 239.098 70.511C238.999 70.4847 238.905 70.4227 238.821 70.3611C238.334 70.0064 238.346 69.4965 238.883 69.2365C239.258 69.0549 239.669 68.9263 240.078 68.8473Z" fill="#263238"/>
    <path fill-rule="evenodd" clip-rule="evenodd" d="M284.175 83.2407C284.157 83.3594 284.03 83.4614 283.913 83.619C283.785 83.48 283.625 83.3397 283.64 83.3181C283.727 83.1861 283.854 83.0811 283.969 82.9671C284.043 83.0591 284.187 83.1621 284.175 83.2407Z" fill="#263238"/>
    <path fill-rule="evenodd" clip-rule="evenodd" d="M283.859 94.5303C283.742 94.3433 283.604 94.2203 283.617 94.117C283.631 94.014 283.794 93.9304 283.892 93.8381C283.984 93.9454 284.135 94.0454 284.149 94.1623C284.16 94.2527 283.999 94.3636 283.859 94.5303Z" fill="#263238"/>
    <path fill-rule="evenodd" clip-rule="evenodd" d="M283.607 91.5249C283.604 91.4436 283.783 91.2706 283.833 91.2869C283.956 91.3276 284.125 91.4456 284.136 91.5479C284.147 91.6479 283.985 91.7672 283.842 91.9518C283.728 91.7595 283.613 91.6445 283.607 91.5249Z" fill="#263238"/>
    <path fill-rule="evenodd" clip-rule="evenodd" d="M284.137 96.8003C284.144 96.8893 284.018 96.9876 283.949 97.0816C283.841 96.9999 283.732 96.9183 283.569 96.7956C283.725 96.6843 283.824 96.5587 283.909 96.5677C283.998 96.577 284.131 96.7123 284.137 96.8003Z" fill="#263238"/>
    <path fill-rule="evenodd" clip-rule="evenodd" d="M283.716 86.0148C283.892 85.9248 284.016 85.8091 284.09 85.8361C284.202 85.8771 284.278 86.0168 284.37 86.1144C284.281 86.1827 284.174 86.3214 284.106 86.3041C283.984 86.2741 283.886 86.1491 283.716 86.0148Z" fill="#263238"/>
    <path fill-rule="evenodd" clip-rule="evenodd" d="M283.852 77.9445C283.883 77.8482 283.977 77.7725 284.045 77.6888C284.115 77.7528 284.227 77.8082 284.243 77.8841C284.257 77.9491 284.162 78.0378 284.087 78.1641C283.976 78.0645 283.84 77.9798 283.852 77.9445Z" fill="#263238"/>
    <path fill-rule="evenodd" clip-rule="evenodd" d="M283.948 80.0682C284.023 80.0942 284.07 80.1995 284.13 80.2708C284.058 80.3272 283.988 80.4245 283.913 80.4291C283.825 80.4348 283.732 80.3598 283.498 80.2578C283.797 80.1252 283.889 80.0475 283.948 80.0682Z" fill="#263238"/>
    <path fill-rule="evenodd" clip-rule="evenodd" d="M283.771 88.751C283.839 88.7727 283.923 88.8903 283.917 88.9593C283.911 89.024 283.803 89.118 283.73 89.1286C283.642 89.1409 283.543 89.0793 283.33 89.012C283.628 88.829 283.717 88.7337 283.771 88.751Z" fill="#263238"/>
    <path fill-rule="evenodd" clip-rule="evenodd" d="M315.085 81.223C315.012 81.305 314.944 81.4459 314.865 81.4529C314.772 81.4613 314.669 81.3533 314.506 81.258C314.648 81.1413 314.738 81.0117 314.82 81.0163C314.912 81.022 314.997 81.149 315.085 81.223Z" fill="#263238"/>
    <path fill-rule="evenodd" clip-rule="evenodd" d="M252.052 76.908C252.068 76.8107 252.194 76.6704 252.281 76.6631C252.371 76.6557 252.471 76.7874 252.566 76.858C252.484 76.9703 252.401 77.082 252.269 77.261C252.161 77.0947 252.039 76.9907 252.052 76.908Z" fill="#263238"/>
    <path fill-rule="evenodd" clip-rule="evenodd" d="M292.415 63.454C292.797 64.0258 292.339 64.2103 292.619 65.0268C292.676 65.1915 292.767 65.3217 292.88 65.4322C292.874 65.3165 292.881 65.1833 292.889 65.0386C292.914 64.575 292.945 63.9979 292.634 63.4221C292.446 63.0742 292.069 62.8749 291.518 62.8157C291.867 62.916 292.183 63.1061 292.415 63.454ZM295.641 66.8097C295.999 67.2112 296.186 67.6844 296.197 68.1474C296.251 67.6956 296.228 67.0636 295.832 66.5522C295.361 65.9449 294.481 65.9268 293.83 65.9179C294.454 66.1165 295.169 66.2799 295.641 66.8097ZM295.774 69.8708C296.259 69.5916 296.132 68.982 296.084 68.8087C295.954 69.1569 295.711 69.4739 295.346 69.7156C295.127 69.8596 294.896 69.9839 294.67 70.1184C294.497 70.2216 294.409 70.3443 294.382 70.5146C294.563 70.3815 294.829 70.2759 295.106 70.1677C295.339 70.0773 295.579 69.9839 295.774 69.8708ZM278.912 57.2976C279.155 56.2631 279.873 55.5637 280.934 55.6715C281.508 55.7301 282.245 55.6035 282.809 55.5558C284.465 55.4154 285.681 56.2499 286.804 57.4423C287.266 57.9319 287.553 58.4949 287.669 59.1716C287.771 59.7658 287.837 60.2919 287.819 60.8309C287.968 60.8052 288.043 60.801 288.111 60.7783C289.066 60.4623 289.794 60.9999 289.757 62.0058C289.744 62.3596 289.654 62.6733 289.496 62.941C289.522 62.9361 289.56 62.9278 289.612 62.916C289.836 62.8647 290.047 62.8246 290.249 62.7927C290.468 62.745 290.691 62.7144 290.928 62.7233C291.842 62.6786 292.443 62.895 292.706 63.3829C293.028 63.9791 292.995 64.594 292.971 65.0432C292.961 65.231 292.953 65.3918 292.97 65.5161C293.137 65.6502 293.346 65.7469 293.574 65.8308C293.649 65.8327 293.727 65.8341 293.809 65.8354C294.479 65.8442 295.397 65.8567 295.897 66.5019C296.58 67.3838 296.2 68.6045 296.152 68.7472C296.187 68.8593 296.395 69.6077 295.815 69.9421C295.615 70.0582 295.371 70.1529 295.136 70.2443C294.83 70.3634 294.539 70.4788 294.375 70.6258C294.374 70.6715 294.372 70.7152 294.379 70.7678C294.489 71.659 293.996 72.2782 293.106 72.4265C292.824 72.4735 292.532 72.4738 292.244 72.4695C291.51 72.4584 290.777 72.4146 290.044 72.4186C289.802 72.4199 289.593 72.3732 289.416 72.2834C289.41 72.4258 289.399 72.5715 289.399 72.7201C288.882 72.7024 288.902 72.3814 288.844 72.1098C288.296 69.5669 287.876 67.0044 287.646 64.4119C287.573 63.6016 287.583 63.5773 288.362 63.1735C288.961 62.8631 289.309 62.1962 289.095 61.6865C289.023 61.5129 288.844 61.2985 288.685 61.2705C288.543 61.2462 288.346 61.4369 288.202 61.5655C288.121 61.6388 287.776 62.0009 287.584 62.1502C287.511 62.3442 287.431 62.5027 287.323 62.847C287.099 62.5027 285.296 59.1759 283.457 58.0325C282.838 57.6478 282.397 57.241 281.79 56.8057C281.366 57.1897 281.361 57.4397 280.618 58.3857C280.3 58.7629 279.876 59.0776 279.477 59.458C279.487 59.6642 279.501 59.87 279.52 60.0749C279.718 62.2225 279.999 64.3576 280.969 66.3289C281.415 67.2368 281.883 67.4387 282.877 67.1326C283.609 66.9067 284.306 66.6085 284.897 66.1001C285.066 65.9547 285.278 65.7098 285.49 65.9912C285.684 66.2477 285.436 66.4342 285.253 66.5696C284.937 66.8021 284.614 67.0349 284.266 67.2112C283.394 67.6531 282.485 67.9741 281.49 67.7903C281.399 68.056 281.323 68.2506 281.265 68.4512C280.917 69.662 280.581 70.8767 280.224 72.0848C280.135 72.3847 280.156 72.7796 279.532 72.9358C279.58 72.5761 279.584 72.3229 279.649 72.0861C280.011 70.7701 280.394 69.4604 280.752 68.1434C280.83 67.856 280.997 67.5762 280.788 67.2441C279.961 65.9337 279.567 64.4661 279.285 62.9604C279.109 62.0157 278.97 61.0673 278.899 60.1144C278.898 60.1157 278.898 60.1163 278.897 60.1173C278.758 59.1568 278.729 58.0809 278.912 57.2976Z" fill="#263238"/>
    <path fill-rule="evenodd" clip-rule="evenodd" d="M281.866 60.105L281.363 62.0931L282.096 62.1664L281.866 60.105Z" fill="#263238"/>
    <path fill-rule="evenodd" clip-rule="evenodd" d="M281.863 60.1245L282.091 62.1623L281.367 62.09L281.863 60.1245ZM282.095 62.1699C282.096 62.1699 282.097 62.1692 282.098 62.1686C282.098 62.1679 282.099 62.1669 282.099 62.1659L281.868 60.1045C281.868 60.1032 281.867 60.1019 281.865 60.1019C281.863 60.1015 281.862 60.1028 281.861 60.1042L281.359 62.0919C281.359 62.0929 281.359 62.0939 281.36 62.0949C281.36 62.0956 281.361 62.0962 281.362 62.0962L282.095 62.1695L282.095 62.1699Z" fill="#263238"/>
    <path fill-rule="evenodd" clip-rule="evenodd" d="M282.317 58.5369C282.317 58.5369 282.263 59.1443 282.393 59.2771C282.908 59.1545 284.334 59.1972 285.115 59.7987C284.885 58.9345 282.317 58.5369 282.317 58.5369Z" fill="#263238"/>
    <path fill-rule="evenodd" clip-rule="evenodd" d="M282.319 58.5412C282.372 58.5494 282.991 58.6504 283.628 58.8473C284.017 58.9677 284.337 59.0995 284.578 59.24C284.875 59.4119 285.053 59.5971 285.108 59.7894C284.344 59.2084 282.938 59.1443 282.394 59.2735C282.273 59.1459 282.315 58.5922 282.319 58.5412ZM285.114 59.8023C285.115 59.8023 285.116 59.8016 285.116 59.8016C285.118 59.8006 285.118 59.799 285.118 59.7976C285.065 59.5997 284.885 59.4103 284.582 59.2337C284.34 59.0936 284.02 58.9608 283.63 58.8404C282.967 58.6356 282.323 58.5346 282.317 58.5339C282.316 58.5336 282.315 58.5339 282.314 58.5343C282.313 58.5349 282.312 58.5356 282.312 58.5366C282.31 58.5616 282.26 59.1472 282.39 59.2794C282.391 59.2804 282.392 59.2807 282.393 59.2804C282.937 59.1508 284.351 59.215 285.112 59.8013C285.113 59.8019 285.114 59.8023 285.114 59.8023Z" fill="#263238"/>
    <path fill-rule="evenodd" clip-rule="evenodd" d="M281.43 58.5353C281.43 58.5353 281.559 59.121 281.451 59.2531C280.871 59.0818 279.961 59.212 279.357 59.509C279.543 58.6465 281.43 58.5353 281.43 58.5353Z" fill="#263238"/>
    <path fill-rule="evenodd" clip-rule="evenodd" d="M280.845 59.1734C280.707 59.1734 280.561 59.1829 280.412 59.202C280.031 59.2507 279.659 59.3579 279.362 59.5026C279.406 59.3099 279.54 59.1392 279.761 58.9958C279.94 58.8794 280.177 58.7808 280.464 58.7022C280.932 58.574 281.386 58.5417 281.427 58.5391C281.437 58.5838 281.548 59.1215 281.449 59.249C281.278 59.1987 281.071 59.1734 280.845 59.1734ZM279.357 59.5124C279.358 59.5124 279.358 59.5121 279.358 59.5121C279.656 59.3658 280.03 59.2582 280.413 59.2089C280.806 59.1583 281.174 59.1754 281.45 59.2566C281.451 59.2569 281.453 59.2563 281.453 59.2553C281.498 59.1997 281.509 59.0616 281.484 58.8442C281.466 58.6831 281.433 58.5361 281.433 58.5348C281.433 58.5332 281.431 58.5319 281.43 58.5319H281.429C281.425 58.5322 280.952 58.5615 280.462 58.6953C280.174 58.7742 279.937 58.8735 279.757 58.9899C279.532 59.1363 279.396 59.3105 279.354 59.5085C279.353 59.5095 279.354 59.5108 279.355 59.5114C279.356 59.5121 279.356 59.5124 279.357 59.5124Z" fill="#263238"/>
    <path fill-rule="evenodd" clip-rule="evenodd" d="M282.289 63.0369C282.398 63.0369 282.502 63.0191 282.603 62.9839C283.026 62.834 283.209 62.4229 283.217 62.4055C283.232 62.3703 283.216 62.3292 283.181 62.3138C283.145 62.2986 283.104 62.3147 283.089 62.3499C283.088 62.3535 282.921 62.7241 282.555 62.8527C282.311 62.9382 282.032 62.9004 281.725 62.7399C281.691 62.7222 281.649 62.7353 281.631 62.7695C281.613 62.8037 281.626 62.8458 281.66 62.8636C281.882 62.979 282.092 63.0369 282.289 63.0369Z" fill="#263238"/>
    <path fill-rule="evenodd" clip-rule="evenodd" d="M283.507 61.0677C283.687 61.0786 283.867 61.0457 284.034 60.9911C283.974 61.0082 283.909 61.0177 283.841 61.0177C283.495 61.0177 283.213 60.7708 283.213 60.4669C283.213 60.3446 283.308 60.1983 283.398 60.097C282.954 60.1381 282.564 60.3689 282.421 60.464C282.55 60.6165 282.95 61.0335 283.507 61.0677ZM284.453 60.3157C284.463 60.368 284.47 60.4252 284.47 60.4669C284.47 60.6849 284.324 60.874 284.114 60.9631C284.438 60.8418 284.705 60.6494 284.82 60.559C284.753 60.5018 284.627 60.4058 284.453 60.3157ZM282.278 60.3933C282.301 60.3758 282.858 59.9595 283.513 59.9513C284.412 59.9408 284.954 60.4899 284.977 60.5133C284.99 60.5268 284.997 60.5455 284.996 60.5646C284.995 60.5837 284.987 60.6014 284.973 60.6139C284.944 60.6392 284.291 61.2094 283.579 61.2094C283.552 61.2094 283.525 61.2088 283.498 61.2068C282.752 61.1608 282.283 60.5169 282.263 60.4896C282.241 60.4587 282.248 60.4163 282.278 60.3933Z" fill="#263238"/>
    <path fill-rule="evenodd" clip-rule="evenodd" d="M280.441 60.9274C280.601 60.9385 280.761 60.8994 280.907 60.8382C280.882 60.8432 280.857 60.8465 280.831 60.8465C280.553 60.8465 280.326 60.6196 280.326 60.3407C280.326 60.219 280.368 60.1043 280.446 60.0139C280.414 60.0122 280.383 60.0109 280.351 60.0109C279.999 60.0109 279.677 60.2592 279.564 60.3568C279.664 60.4959 279.99 60.8948 280.441 60.9274ZM281.495 60.4538C281.458 60.4223 281.404 60.3785 281.333 60.3309C281.319 60.4479 281.269 60.5653 281.189 60.661C281.168 60.687 281.145 60.7097 281.121 60.7301C281.29 60.6304 281.425 60.517 281.495 60.4538ZM279.423 60.2963C279.441 60.2789 279.857 59.8715 280.351 59.8715C281.115 59.8715 281.626 60.3821 281.647 60.4035C281.674 60.4308 281.674 60.4739 281.647 60.5012C281.641 60.5074 281.496 60.6551 281.276 60.7988C281.001 60.978 280.74 61.0687 280.499 61.0687C280.476 61.0687 280.454 61.0681 280.432 61.0664C279.814 61.0221 279.429 60.4085 279.413 60.3825C279.396 60.3549 279.4 60.319 279.423 60.2963Z" fill="#263238"/>
    <path fill-rule="evenodd" clip-rule="evenodd" d="M139.022 114.761C144.74 112.941 148.366 112.008 149.902 111.962C152.205 111.893 157.638 112.515 164.5 113.113C169.075 113.512 172.316 113.105 174.223 111.893L188.793 148.361C189.515 149.914 189.875 150.935 189.875 151.423C189.875 151.911 190.436 162.433 191.558 182.988H193.369V187.029V187.824C189.037 187.824 186.385 187.824 185.41 187.824C184.436 187.824 181.471 188.283 176.515 189.202L176.204 184.694L177.453 184.155L173.25 152.328L168.787 143.351L159.807 126.709H155.856L155.081 129.907L153.783 186.419L155.808 187.029L156.349 193.867L143.775 194.766L133.517 194.681V189.202H134.988L139.022 114.761Z" fill="white"/>
    <path fill-rule="evenodd" clip-rule="evenodd" d="M149.759 73.0846C149.759 73.0846 138.004 76.2872 135.315 78.3468C132.018 80.8724 126.047 83.2981 126.047 83.2981L121.349 86.498C121.349 86.498 125.44 93.5485 128.23 98.7943C130.755 96.166 139.144 93.6022 139.543 93.5321C140.612 93.3446 139.335 113.658 139.335 113.658C139.231 114.959 143.418 110.32 153.248 111.39C159.598 112.081 175.6 110.126 175.6 110.126C175.6 110.126 174.869 108.119 173.62 102.216C173.602 102.131 154.514 105.944 147.852 99.2411C147.648 99.0355 147.901 96.844 147.621 96.738C147.319 96.6239 152.14 98.5592 151.831 98.4381C148.037 96.952 146.621 95.1198 146.418 93.5267C146.391 93.316 152.606 96.7672 152.479 96.5964C152.197 96.2187 147.205 92.5348 147.528 91.4489C147.866 90.3158 155.545 96.0131 156.18 94.7659C156.459 94.2157 153.072 93.3033 152.729 92.8531C151.658 91.4435 156.18 93.0192 158.64 93.6377C160.497 94.1047 173.353 91.7693 174.007 90.8438C178.847 91.148 185.147 86.2273 185.147 86.2273L169.615 69.9578C169.615 69.9578 160.532 70.5757 159.607 72.4647C160.324 74.5921 160.283 80.3565 156.642 80.4454C153.001 80.5343 149.759 73.0846 149.759 73.0846Z" fill="#4C9BDC"/>
    <path fill-rule="evenodd" clip-rule="evenodd" d="M175.939 193.977C175.939 193.977 179.079 200.352 178.819 201.761C178.559 203.169 177.262 209.742 177.262 209.742H207.927C207.927 209.742 209.223 203.011 205.795 201.414C202.367 199.818 192.681 198.452 192.852 197.607C193.024 196.762 193.542 192.103 193.542 192.103L175.939 193.977Z" fill="#70E9FF"/>
    <path fill-rule="evenodd" clip-rule="evenodd" d="M135.952 211.739C135.952 211.739 137.407 204.862 137.735 201.983C137.986 199.775 135.818 197.989 135.818 197.989L140.054 198.216L150.423 197.428C150.423 197.428 149.969 203.257 151.842 204.008C153.716 204.76 154.468 206.006 155.535 207.159C156.865 208.597 156.865 211.612 156.865 211.612L135.952 211.739Z" fill="#70E9FF"/>
    <path fill-rule="evenodd" clip-rule="evenodd" d="M137.215 212.642C136.915 212.447 136.683 212.485 136.38 212.586C136.652 213.034 136.889 212.905 137.215 212.642ZM137.778 212.515C138.515 213.205 138.998 213.163 139.51 212.515H137.778ZM145.337 199.906C145.336 199.972 145.336 200.037 145.335 200.102C145.83 200.171 146.326 200.241 146.893 200.321C146.851 200.025 146.828 199.856 146.795 199.629C146.278 199.727 145.807 199.817 145.337 199.906ZM147.223 201.889C147.149 201.621 147.06 201.302 146.978 201.007C146.158 200.858 145.395 200.788 144.675 200.57C143.687 200.27 142.839 200.561 141.998 200.96V202.929C143.719 202.586 145.403 202.251 147.223 201.889ZM146.926 198.936C146.614 198.416 146.468 197.871 146.122 197.652C144.68 196.736 143.145 196.813 141.615 197.465C141.206 197.639 141.123 198.005 141.213 198.4C141.31 198.826 141.313 199.344 141.886 199.452C142.784 199.621 143.665 199.788 144.587 199.462C145.294 199.212 146.055 199.124 146.926 198.936ZM151.132 202.958C150.892 202.022 150.573 201.167 150.473 200.285C150.372 199.384 150.486 198.457 150.506 197.554C149.625 197.716 148.776 197.862 147.931 198.03C147.497 198.116 147.483 198.175 147.62 198.794C147.953 198.761 148.29 198.7 148.626 198.704C148.778 198.706 148.929 198.837 149.081 198.909C148.995 199.061 148.942 199.26 148.815 199.351C148.691 199.439 148.493 199.425 148.325 199.438C148.054 199.458 147.783 199.463 147.463 199.476C147.495 199.835 147.519 200.092 147.543 200.358C147.922 200.451 148.242 200.609 148.462 200.158C148.487 200.107 148.732 200.167 148.946 200.181C148.76 200.555 148.636 200.807 148.509 201.062C148.351 201.071 148.222 201.076 148.093 201.087C147.971 201.096 147.849 201.112 147.722 201.126C147.942 202.187 147.943 202.183 148.886 202.369C149.194 202.429 149.497 202.519 149.801 202.6C150.247 202.718 150.692 202.84 151.132 202.958ZM173.91 90.9666C173.927 91.0079 173.945 91.0491 173.963 91.0903C174.599 90.9891 175.233 90.8453 175.873 90.7984C176.577 90.7468 177.186 90.4897 177.794 90.1536C179.663 89.1217 181.543 88.1096 183.426 87.1055C183.745 86.9352 184.114 86.8655 184.443 86.711C184.833 86.5284 185.301 86.4721 185.626 86.0146C185.447 85.7793 185.303 85.5179 185.092 85.3406C184.961 85.231 184.7 85.17 184.544 85.225C183.954 85.4311 183.373 85.6714 182.807 85.9388C179.853 87.335 176.962 88.8519 174.23 90.6677C174.111 90.7471 174.016 90.8661 173.91 90.9666ZM137.548 195.635C137.548 196.163 137.549 196.664 137.547 197.164C137.546 197.574 137.757 197.722 138.143 197.722C138.721 197.722 139.299 197.741 139.875 197.779C140.293 197.805 140.636 197.768 140.868 197.328C140.969 197.138 141.214 196.989 141.425 196.905C143.198 196.2 144.939 196.054 146.588 197.269C146.751 197.389 146.961 197.547 147.135 197.53C147.988 197.444 148.845 197.346 149.701 197.061V195.04C145.63 195.239 141.605 195.436 137.548 195.635ZM136.468 198.22C136.74 199.225 136.98 200.153 137.246 201.073C137.622 202.377 137.757 203.689 137.45 205.029C137.422 205.152 137.446 205.287 137.446 205.435C137.551 205.423 137.638 205.437 137.697 205.403C138.773 204.793 139.848 204.181 140.916 203.558C141.041 203.485 141.191 203.36 141.22 203.233C141.368 202.588 141.467 201.933 141.251 201.174C140.955 201.287 140.703 201.419 140.436 201.47C140.297 201.497 140.132 201.382 139.978 201.331C140.064 201.191 140.118 200.998 140.242 200.923C140.525 200.75 140.842 200.636 141.117 200.511C141.144 200.093 141.001 199.887 140.635 199.877C140.506 199.873 140.37 199.889 140.25 199.853C140.119 199.814 140.003 199.724 139.881 199.657C139.975 199.544 140.048 199.397 140.167 199.327C140.334 199.227 140.534 199.184 140.757 199.103C140.568 198.775 140.581 198.361 140.104 198.347C138.93 198.311 137.755 198.266 136.468 198.22ZM139.041 120.329C142.314 119.868 145.217 116.25 144.756 112.898C144.476 112.983 144.2 113.055 143.932 113.148C142.641 113.597 141.361 114.083 140.058 114.489C139.569 114.642 139.365 114.912 139.332 115.383C139.282 116.104 139.233 116.825 139.191 117.546C139.138 118.471 139.091 119.397 139.041 120.329ZM176.128 118.498C175.4 116.191 174.689 113.938 173.98 111.694C172.239 112.124 170.453 112.567 168.665 113.009C169.62 115.987 173.497 118.848 176.128 118.498ZM207.28 211.403C197.46 211.186 187.834 211.594 178.215 211.182C177.954 211.171 177.691 211.195 177.429 211.205C177.405 211.206 177.38 211.225 177.361 211.243C177.343 211.259 177.332 211.283 177.31 211.316C177.31 211.383 177.299 211.463 177.313 211.539C177.328 211.616 177.363 211.691 177.4 211.761C177.78 212.492 178.127 212.568 178.753 212.066C178.913 211.938 179.084 211.824 179.239 211.712C179.379 211.783 179.482 211.817 179.563 211.881C180.442 212.579 181.343 212.768 182.298 212.032C182.536 211.848 182.786 211.89 183.041 212.013C183.326 212.149 183.614 212.283 183.91 212.39C184.543 212.618 185.138 212.571 185.703 212.154C186.251 211.749 186.263 211.766 186.845 212.204C187.679 212.83 188.438 212.884 189.322 212.304C189.665 212.079 189.937 212.074 190.259 212.287C190.956 212.748 191.63 212.638 192.206 212.09C192.657 211.66 193.026 211.691 193.525 212.014C194.343 212.543 195.266 212.734 196.141 212.217C196.725 211.874 197.173 211.913 197.735 212.223C198.941 212.887 200.193 212.984 201.418 212.261C201.857 212.002 202.173 212.051 202.533 212.405C203.094 212.956 203.782 213.079 204.507 212.797C204.921 212.635 205.307 212.594 205.729 212.749C206.11 212.889 206.481 212.81 206.719 212.469C206.923 212.177 207.057 211.835 207.28 211.403ZM131.854 97.4573C129.669 92.8109 128.231 87.9001 125.134 83.7738C123.996 84.7709 122.909 85.7223 121.803 86.6912C124.581 90.593 126.543 94.8617 128.842 99.0198C129.844 98.5 130.794 98.0073 131.854 97.4573ZM176.625 189.451C177.118 189.367 177.476 189.308 177.832 189.245C179.745 188.91 181.646 188.486 183.571 188.257C186.357 187.925 189.155 187.651 191.971 187.731C192.243 187.739 192.517 187.668 192.821 187.629C192.768 186.077 192.718 184.622 192.666 183.112C191.961 183.175 191.336 183.217 190.713 183.289C188.733 183.517 186.753 183.749 184.774 183.993C182.171 184.314 179.57 184.652 176.966 184.968C176.573 185.015 176.399 185.207 176.409 185.588C176.428 186.363 176.447 187.137 176.486 187.911C176.509 188.385 176.569 188.856 176.625 189.451ZM133.036 97.1708V97.6015C131.616 98.3133 130.242 99.0024 128.86 99.6954C129.843 100.803 130.803 101.897 131.776 102.978C132.753 104.063 133.683 105.202 134.744 106.195C135.79 107.173 136.693 108.269 137.519 109.373C137.678 108.105 137.729 106.865 138.003 105.679C138.826 102.106 139.013 98.4826 138.999 94.8359C138.999 94.7169 138.965 94.5976 138.932 94.3935C136.956 95.3242 135.057 96.2187 133.036 97.1708ZM133.568 189.829C133.377 191.413 133.253 192.999 133.327 194.664C133.604 194.723 133.852 194.806 134.104 194.824C134.968 194.887 135.835 194.995 136.697 194.963C140.685 194.817 144.674 194.67 148.658 194.44C150.515 194.334 152.363 194.049 154.213 193.824C154.694 193.765 155.165 193.629 155.633 193.531C155.446 191.406 155.268 189.392 155.085 187.315C154.708 187.291 154.399 187.248 154.093 187.257C153.069 187.288 152.047 187.351 151.023 187.379C148.387 187.449 145.796 187.792 143.267 188.595C141.107 189.28 138.904 189.776 136.629 189.826C135.66 189.847 134.69 189.829 133.568 189.829ZM157.261 211.76C157.551 210.697 157.434 209.641 156.954 208.672C156.211 207.174 155.159 205.905 153.809 204.927C152.504 203.982 151.006 203.507 149.47 203.1C147.78 202.651 146.105 202.618 144.407 202.978C142.162 203.456 140.148 204.473 138.241 205.731C137.675 206.104 137.253 206.638 137.033 207.279C136.705 208.236 136.415 209.21 136.174 210.194C136.046 210.718 136.055 211.278 135.991 211.945C143.057 211.686 150.013 211.524 156.968 211.817C157.043 211.82 157.118 211.789 157.261 211.76ZM134.742 123.388C135.082 123.586 135.362 123.784 135.669 123.913C135.81 123.972 136.052 123.96 136.17 123.871C137.075 123.188 137.835 122.41 137.94 121.162C138.106 119.188 138.286 117.215 138.51 115.247C138.712 113.468 138.369 111.86 137.384 110.36C136.65 109.241 135.845 108.197 134.93 107.228C133.6 105.819 132.316 104.365 130.992 102.949C129.96 101.846 128.903 100.766 127.843 99.6904C127.603 99.4468 127.283 99.2859 127.042 99.0429C126.947 98.9461 126.966 98.7302 126.934 98.5687C127.076 98.5677 127.239 98.5214 127.356 98.5761C127.575 98.6779 127.768 98.8385 128.064 99.0362C127.51 97.2851 122.944 89.1374 122.134 88.4095C121.964 88.5208 121.785 88.6314 121.613 88.752C119.588 90.1754 117.884 91.967 116.164 93.7363C115.686 94.2286 115.249 94.7722 114.851 95.3349C113.614 97.0853 113.405 98.9879 114.228 100.966C115.373 103.714 117.284 105.787 119.918 107.06C122.93 108.515 126 109.848 129.062 111.192C131.232 112.145 133.433 113.025 135.616 113.948C135.83 114.038 136.024 114.187 136.212 114.33C136.57 114.603 136.955 114.858 136.649 115.432C136.577 115.567 136.688 115.795 136.695 115.982C136.74 117.237 136.784 118.493 136.819 119.749C136.834 120.277 136.581 120.646 136.157 120.946C135.251 121.588 134.366 122.261 133.475 122.923C133.297 123.055 133.047 123.154 133.197 123.541C133.42 123.412 133.624 123.311 133.81 123.184C134.856 122.466 135.894 121.736 136.947 121.029C137.072 120.945 137.271 120.975 137.435 120.952C137.412 121.113 137.435 121.302 137.358 121.429C137.097 121.861 136.802 122.272 136.52 122.691C136.308 123.005 136.034 123.207 135.653 123.05C135.299 122.903 135.048 123.017 134.742 123.388ZM191.499 201.784C191.555 201.41 191.552 201.151 191.633 200.924C192.459 198.612 192.455 196.256 192.019 193.874C191.899 193.218 191.778 193.129 191.114 193.186C190.983 193.197 190.854 193.231 190.724 193.245C188.372 193.495 186.023 193.772 183.668 193.982C181.914 194.138 180.152 194.201 178.395 194.316C178.123 194.334 177.855 194.412 177.551 194.468C177.619 194.855 177.662 195.145 177.72 195.431C178.075 197.164 178.315 198.91 178.403 200.68C178.553 203.699 178.266 206.672 177.588 209.611C177.52 209.906 177.505 210.214 177.456 210.59C187.329 210.999 197.1 210.597 206.88 210.788C207.061 210.115 207.24 209.557 207.36 208.986C207.897 206.426 206.984 204.308 204.784 202.986C202.832 201.813 200.646 201.315 198.491 200.73C198.449 200.719 198.394 200.757 198.321 200.78C197.989 201.343 198.063 202.111 197.5 202.715C196.929 201.88 197.799 201.215 197.599 200.43C197.069 200.279 196.502 200.119 195.903 199.949C195.852 200.166 195.821 200.293 195.794 200.421C195.713 200.814 195.659 201.215 195.541 201.595C195.5 201.727 195.302 201.809 195.177 201.913C195.107 201.762 194.988 201.613 194.981 201.458C194.973 201.28 195.078 201.099 195.109 200.916C195.171 200.554 195.215 200.189 195.269 199.806C194.425 199.415 193.647 199.054 192.803 198.663C192.659 199.272 192.573 199.828 192.393 200.35C192.228 200.832 192.29 201.477 191.499 201.784ZM182.631 90.3161C182.205 90.607 182.179 90.5856 181.235 90.7072C178.657 91.04 176.061 91.285 173.51 91.7723C169.28 92.5804 165.066 93.4913 160.875 94.4893C159.583 94.797 158.499 94.6961 157.332 94.1207C156.226 93.5761 155.035 93.2121 153.878 92.7784C153.63 92.6853 153.365 92.5887 153.008 92.7741C154.301 93.8941 156.029 94.0714 157.227 95.2863C156.908 95.6784 156.509 95.8071 156.105 95.8698C154.889 96.0588 153.714 95.8225 152.699 95.1566C151.332 94.2601 150.042 93.2396 148.718 92.2737C148.518 92.1272 148.31 91.9898 148.01 91.7814C148.001 92.3129 148.257 92.5489 148.473 92.7979C149.631 94.1311 150.967 95.2511 152.452 96.1835C152.811 96.409 153.002 96.65 152.826 97.1239C152.386 97.2217 152.009 97.077 151.644 96.8454C150.33 96.0109 149.015 95.175 147.694 94.3496C147.394 94.1619 147.07 94.0131 146.756 93.8465C146.717 93.8958 146.677 93.9447 146.637 93.994C146.786 94.1934 146.908 94.4236 147.088 94.5875C147.674 95.1224 148.26 95.662 148.887 96.1456C149.787 96.8407 150.725 97.4848 151.642 98.1585C151.848 98.31 152.03 98.4956 152.217 98.6608C151.819 99.2296 151.787 99.2554 151.25 98.9678C150.251 98.4326 149.267 97.8692 148.274 97.3226C148.115 97.2351 147.941 97.1762 147.774 97.1038C148.276 97.826 148.934 98.3029 149.622 98.7453C150.31 99.1887 150.993 99.6405 151.673 100.097C151.882 100.237 152.071 100.45 151.883 100.687C151.784 100.81 151.523 100.826 151.332 100.838C151.212 100.845 151.083 100.763 150.964 100.71C150.193 100.368 149.426 100.022 148.656 99.6814C148.484 99.6059 148.305 99.5483 148.017 99.4401C148.555 100.126 149.088 100.572 150.015 100.902C151.352 101.378 152.7 101.842 154.075 102.175C155.816 102.597 157.602 102.724 159.397 102.677C162.55 102.593 165.704 102.573 168.855 102.44C172.084 102.304 175.306 102.039 178.534 101.877C180.66 101.769 182.789 101.737 184.918 101.681C186.132 101.649 187.241 101.298 188.256 100.62C188.779 100.27 189.136 99.799 189.377 99.2101C189.85 98.0542 189.9 96.8977 189.597 95.6787C189.011 93.3234 187.884 91.2522 186.469 89.3368C185.939 88.6196 185.268 88.0114 184.645 87.3367C182.846 88.3297 180.973 88.9645 179.215 90.2451C179.539 90.2451 179.682 90.2561 179.823 90.2431C180.555 90.176 181.288 90.113 182.018 90.0269C182.298 89.9937 182.543 89.9619 182.631 90.3161ZM183.63 84.8309C183.358 84.4917 183.176 84.237 182.968 84.0081C181.322 82.2013 179.673 80.3986 178.021 78.5969C176.371 76.7958 174.753 74.9619 173.049 73.2148C172.355 72.503 171.508 71.9255 170.668 71.386C169.61 70.7053 168.412 70.4643 167.182 70.7478C165.084 71.2318 162.999 71.7774 160.911 72.3049C160.637 72.374 160.375 72.4892 160.084 72.5908C160.1 72.8854 160.112 73.1501 160.13 73.4146C160.213 74.6486 160.227 75.8792 159.95 77.0938C159.725 78.0757 159.35 78.9749 158.59 79.6683C158.14 80.0789 157.637 80.2887 157.024 80.3135C155.641 80.3698 154.612 79.6851 153.704 78.7366C152.307 77.2778 151.34 75.534 150.528 73.6904C150.448 73.5064 150.343 73.3328 150.252 73.1582C145.99 74.4314 141.778 75.6423 137.788 77.5516C133.809 79.4552 130.046 81.7264 126.358 84.0074C126.348 84.1857 126.322 84.2531 126.344 84.2899C128.649 88.0258 130.17 92.1443 131.929 96.1463C132.025 96.3634 132.144 96.5696 132.276 96.8269C134.398 95.8302 136.493 94.8466 138.588 93.8633C138.66 93.8294 138.734 93.8013 138.809 93.7765C139.329 93.6042 139.53 93.742 139.574 94.3144C139.588 94.5004 139.58 94.6894 139.576 94.8768C139.549 96.0276 139.508 97.1785 139.495 98.3297C139.476 100.048 139.315 101.75 139.001 103.44C138.732 104.886 138.429 106.332 138.281 107.793C138.181 108.793 138.127 109.877 138.405 110.814C138.706 111.83 139.164 112.794 139.177 113.886C139.307 113.893 139.39 113.919 139.46 113.897C140.687 113.518 141.911 113.132 143.138 112.751C144.189 112.425 145.231 112.063 146.295 111.792C147.954 111.369 149.639 111.096 151.353 111.021C153.547 110.924 155.7 111.227 157.858 111.587C159.983 111.942 162.117 112.28 164.261 112.451C167.72 112.727 171.058 112.037 174.295 110.804C174.68 110.657 175.066 110.511 175.47 110.357C175.438 110.083 175.427 109.871 175.386 109.665C175.25 108.984 175.13 108.297 174.955 107.625C174.605 106.282 174.277 104.928 173.836 103.614C173.486 102.569 173.52 102.741 172.604 102.778C172.262 102.792 171.92 102.797 171.58 102.83C168.252 103.155 164.918 103.307 161.576 103.276C161.261 103.273 160.945 103.288 160.631 103.306C159 103.396 157.373 103.368 155.763 103.068C154.833 102.894 153.905 102.7 152.988 102.462C152.073 102.225 151.145 101.995 150.278 101.628C149.461 101.283 148.706 100.78 147.944 100.31C147.706 100.163 147.478 99.9307 147.355 99.6814C147.251 99.4732 147.235 99.1572 147.312 98.936C147.41 98.6505 147.705 98.626 147.987 98.6974C148.117 98.7299 148.252 98.7396 148.531 98.7815C148.18 98.4675 147.933 98.2704 147.715 98.0452C147.382 97.703 147.038 97.3642 146.764 96.9768C146.654 96.8219 146.642 96.5092 146.718 96.3252C146.818 96.0813 147.085 96.0585 147.335 96.1637C147.52 96.2415 147.709 96.3098 147.896 96.3822C147.753 96.0554 147.511 95.8698 147.311 95.6459C146.889 95.174 146.47 94.6961 146.087 94.1914C145.898 93.9434 145.906 93.6267 146.12 93.3713C146.341 93.1079 146.64 93.1357 146.921 93.2359C147.143 93.315 147.345 93.4474 147.56 93.5486C147.736 93.632 147.917 93.7041 148.096 93.7815C148.046 93.5761 147.936 93.4621 147.85 93.3321C147.601 92.9577 147.336 92.5907 147.127 92.1936C146.962 91.8806 147.043 91.5642 147.315 91.3239C147.576 91.0927 147.864 91.0139 148.184 91.2036C148.388 91.3253 148.598 91.4389 148.791 91.5766C149.675 92.2057 150.536 92.8692 151.439 93.4665C152.185 93.9598 152.955 94.4293 153.759 94.8111C154.283 95.0594 154.886 95.1777 155.619 94.9136C155.329 94.7598 155.157 94.6626 154.98 94.5755C154.436 94.3077 153.877 94.0691 153.351 93.7688C153.06 93.6025 152.78 93.3693 152.581 93.1005C152.444 92.9145 152.376 92.5991 152.42 92.3706C152.478 92.0699 152.796 92.0056 153.064 92.0425C153.555 92.1102 154.062 92.1584 154.523 92.3267C155.66 92.7412 156.78 93.2054 157.896 93.6759C158.798 94.0563 159.696 94.1478 160.663 93.9239C163.991 93.1531 167.329 92.4235 170.663 91.6771C171.112 91.5769 171.559 91.471 172.042 91.3594C171.965 91.0293 171.918 90.7951 171.856 90.5645C171.466 89.1167 171.027 87.6869 170.284 86.3759C170.137 86.1175 169.985 85.846 170.465 85.6292C171.705 87.1675 171.962 89.1428 172.661 91.0022C176.111 88.4923 179.845 86.715 183.63 84.8309ZM154.915 126.802C154.501 126.712 154.22 126.649 153.939 126.59C152.68 126.323 151.418 126.066 150.164 125.78C150.032 125.75 149.936 125.553 149.823 125.432C149.957 125.337 150.082 125.183 150.226 125.162C150.396 125.136 150.582 125.23 150.762 125.265C152.36 125.574 153.949 125.95 155.559 126.165C156.538 126.296 157.549 126.187 158.545 126.168C159.695 126.145 160.556 126.562 161.11 127.656C162.291 129.987 163.562 132.271 164.723 134.611C166.169 137.526 167.504 140.498 168.96 143.408C170.022 145.53 171.208 147.587 172.329 149.678C172.965 150.865 173.361 152.125 173.518 153.478C173.991 157.545 174.481 161.61 174.994 165.672C175.653 170.874 176.338 176.072 177.02 181.271C177.147 182.244 177.314 183.211 177.465 184.196C182.199 183.66 186.832 183.136 191.514 182.606C191.496 182.327 191.484 182.145 191.473 181.963C191.343 180.012 191.2 178.061 191.088 176.109C190.949 173.702 190.85 171.293 190.707 168.886C190.533 165.945 190.322 163.007 190.146 160.066C190.016 157.9 189.903 155.733 189.806 153.566C189.728 151.839 189.435 150.166 188.799 148.556C187.662 145.675 186.571 142.775 185.405 139.906C183.586 135.429 181.754 130.957 179.861 126.512C178.888 124.229 177.772 122.01 176.721 119.762C176.634 119.575 176.547 119.387 176.451 119.181C174.455 119.364 172.847 118.403 171.286 117.421C169.675 116.407 168.696 114.808 167.965 113.106C167.807 113.089 167.728 113.069 167.651 113.074C164.533 113.287 161.459 112.906 158.403 112.323C155.526 111.775 152.642 111.377 149.708 111.794C148.306 111.993 146.909 112.217 145.57 112.651C145.323 117.733 142.647 120.036 138.831 121.233C138.815 121.371 138.789 121.527 138.779 121.683C138.587 124.757 138.389 127.83 138.207 130.904C138.069 133.23 137.959 135.557 137.822 137.883C137.523 142.962 137.214 148.041 136.912 153.12C136.647 157.584 136.386 162.049 136.124 166.513C135.86 171.004 135.599 175.496 135.333 179.987C135.196 182.286 135.038 184.584 134.913 186.884C134.873 187.624 134.907 188.368 134.907 189.163C135.066 189.178 135.243 189.201 135.421 189.209C137.247 189.285 139.043 189.054 140.813 188.624C141.962 188.346 143.101 188.02 144.236 187.687C146.633 186.983 149.094 186.823 151.567 186.75C152.241 186.73 152.913 186.676 153.641 186.634C154.067 166.64 154.49 146.747 154.915 126.802ZM155.357 212.537C155.688 212.689 156.008 212.888 156.355 212.978C156.695 213.067 157.002 212.952 157.11 212.417C156.471 212.468 155.905 212.512 155.339 212.557C155.097 212.486 154.858 212.371 154.613 212.354C154.036 212.315 153.457 212.311 152.88 212.315C148.781 212.347 144.683 212.384 140.585 212.424C140.424 212.426 140.264 212.479 139.953 212.535C140.374 212.847 140.641 213.114 140.961 213.268C141.604 213.577 142.065 212.924 142.581 212.84C142.881 213.072 143.119 213.401 143.372 213.412C143.619 213.423 143.885 213.118 144.135 212.94C144.353 212.786 144.58 212.723 144.774 212.936C145.341 213.562 145.955 213.417 146.554 213.039C146.984 212.766 147.334 212.778 147.787 213.029C148.377 213.356 149.001 213.313 149.54 212.817C149.671 212.696 149.837 212.614 150.011 212.498C150.926 213.239 151.857 213.15 152.811 212.614C152.95 212.537 153.197 212.504 153.318 212.578C154.014 213.009 154.68 212.823 155.357 212.537ZM192.155 182.459C193.406 182.489 193.357 182.487 193.326 183.779C193.297 184.955 193.39 186.133 193.425 187.311C193.433 187.576 193.426 187.841 193.426 188.212C192.554 188.264 191.703 188.315 190.791 188.37C190.773 188.57 190.749 188.773 190.738 188.976C190.685 189.912 190.637 190.848 190.584 191.784C190.572 191.996 190.577 192.259 190.272 192.229C189.998 192.201 189.984 191.961 189.998 191.736C190.046 190.96 190.101 190.185 190.141 189.41C190.158 189.093 190.144 188.775 190.144 188.474C188.738 188.1 179.885 189.158 177.838 189.936C177.688 191.145 177.867 192.364 177.957 193.689C178.226 193.689 178.478 193.706 178.727 193.686C182.134 193.416 185.54 193.148 188.945 192.86C189.756 192.792 190.559 192.636 191.369 192.553C192.291 192.458 192.358 192.514 192.523 193.416C192.793 194.893 192.95 196.38 192.871 197.977C193.544 198.324 194.234 198.68 195.024 199.087C195.024 198.783 194.996 198.603 195.034 198.439C195.058 198.334 195.173 198.186 195.26 198.176C195.356 198.165 195.55 198.281 195.559 198.358C195.702 199.59 196.709 199.55 197.535 199.776C197.559 199.783 197.588 199.774 197.729 199.764C197.657 199.26 197.586 198.763 197.513 198.251C198.131 198.326 198.131 198.326 198.419 200.032C198.774 200.151 199.164 200.291 199.56 200.413C200.49 200.698 201.444 200.916 202.348 201.269C203.374 201.67 204.381 202.138 205.35 202.665C207.801 203.999 208.34 206.763 208.018 208.785C207.951 209.206 207.78 209.611 207.725 210.032C207.658 210.549 207.597 211.084 207.652 211.598C207.755 212.572 206.858 213.571 205.911 213.377C205.401 213.273 204.949 213.29 204.456 213.434C203.738 213.644 203.05 213.491 202.427 213.063C202.276 212.959 202.128 212.852 201.95 212.725C201.171 213.139 200.345 213.465 199.466 213.309C198.623 213.159 197.804 212.871 196.816 212.6C195.604 213.404 194.238 213.163 192.916 212.367C192.638 212.561 192.411 212.746 192.161 212.887C191.543 213.235 190.902 213.225 190.264 212.945C190.018 212.838 189.815 212.749 189.532 212.915C188.514 213.511 187.519 213.375 186.565 212.728C186.478 212.669 186.384 212.621 186.244 212.539C185.241 213.34 184.175 213.223 183.082 212.688C182.918 212.608 182.643 212.583 182.498 212.67C181.442 213.302 180.435 213.121 179.433 212.554C179.389 212.53 179.335 212.525 179.275 212.508C179.212 212.542 179.137 212.57 179.076 212.618C178.575 213.011 178.032 213.185 177.484 212.768C176.911 212.331 176.561 211.755 176.707 210.972C176.993 209.448 177.318 207.929 177.549 206.396C178.049 203.082 177.912 199.774 177.319 196.482C177.219 195.929 177.107 195.379 177.005 194.826C176.934 194.446 176.725 194.035 177.259 193.794C177.327 193.763 177.348 193.557 177.342 193.434C177.285 192.316 177.219 191.198 177.153 190.033C177.007 190.021 176.883 190.013 176.76 189.998C176.205 189.933 176.026 189.819 175.989 189.284C175.899 187.948 175.838 186.61 175.81 185.272C175.797 184.663 175.912 184.582 176.513 184.408C176.612 184.38 176.71 184.348 176.877 184.296C176.755 183.422 176.627 182.557 176.513 181.691C176.166 179.064 175.821 176.437 175.48 173.809C175.136 171.155 174.794 168.502 174.46 165.847C173.995 162.156 173.476 158.47 173.103 154.769C172.892 152.673 172.36 150.74 171.306 148.929C168.542 144.176 166.244 139.18 163.902 134.205C162.892 132.059 161.688 130.008 160.596 127.901C160.191 127.119 159.573 126.778 158.74 126.799C157.721 126.826 156.703 126.876 155.621 126.919C155.578 127.306 155.515 127.644 155.507 127.983C155.446 130.448 155.396 132.912 155.344 135.377C155.184 142.932 155.026 150.487 154.866 158.041C154.712 165.382 154.558 172.722 154.4 180.063C154.362 181.858 154.311 183.652 154.27 185.447C154.261 185.816 154.269 186.186 154.269 186.499C154.364 186.568 154.383 186.592 154.404 186.596C155.581 186.773 155.609 186.77 155.736 187.974C155.86 189.143 155.911 190.321 156.012 191.493C156.062 192.079 156.167 192.661 156.213 193.247C156.235 193.529 156.177 193.818 156.152 194.144C154.221 194.415 152.352 194.677 150.397 194.952C150.369 195.448 150.34 195.942 150.311 196.459C150.452 196.543 150.566 196.602 150.669 196.675C151.181 197.036 151.4 197.003 151.195 197.957C150.812 199.739 150.976 201.47 152.124 203C152.373 203.331 152.632 203.597 152.996 203.775C154.946 204.726 156.308 206.298 157.361 208.167C157.969 209.246 158.122 210.433 157.922 211.663C157.897 211.821 157.855 211.978 157.852 212.136C157.832 213.16 157.033 213.842 156.076 213.529C155.504 213.343 154.983 213.25 154.407 213.419C154.238 213.469 154.015 213.474 153.862 213.402C153.29 213.131 152.781 213.293 152.221 213.484C151.482 213.736 150.716 213.679 150.002 213.277C149.141 213.866 148.257 213.986 147.313 213.511C147.185 213.446 146.956 213.508 146.809 213.583C146.01 213.993 145.221 214.138 144.429 213.534C143.755 214.111 143.078 214.365 142.429 213.553C141.463 214.146 140.622 214.038 139.849 213.216C139.069 213.611 138.274 213.865 137.505 213.245C137.045 213.432 136.612 213.724 136.159 213.318C135.665 212.874 135.31 212.358 135.39 211.644C135.548 210.232 135.849 208.858 136.296 207.502C137.007 205.346 137.353 203.152 136.613 200.903C136.312 199.991 136.1 199.049 135.856 198.119C135.665 197.386 135.765 197.224 136.467 197.07C136.591 197.043 136.714 197.014 136.906 196.97C136.879 196.529 136.854 196.112 136.821 195.578C136.454 195.578 136.121 195.595 135.79 195.574C135.082 195.529 134.373 195.487 133.67 195.403C132.868 195.307 132.714 195.139 132.733 194.325C132.77 192.826 132.842 191.328 132.903 189.83C132.907 189.724 132.934 189.619 132.956 189.514C133.081 188.912 133.085 188.912 133.673 189.022C133.823 189.05 133.975 189.064 134.171 189.091C134.207 188.868 134.252 188.693 134.263 188.515C134.489 184.611 134.709 180.706 134.937 176.802C135.308 170.438 135.685 164.073 136.059 157.709C136.267 154.179 136.473 150.649 136.684 147.12C136.984 142.094 137.288 137.067 137.592 132.041C137.682 130.544 137.792 129.048 137.865 127.55C137.898 126.856 137.859 126.159 137.855 125.463C137.853 124.882 137.855 124.3 137.855 123.702C137.453 123.52 137.269 123.802 137.063 124.037C136.374 124.827 136.101 124.878 135.178 124.379C134.808 124.18 134.447 123.965 134.094 123.765C133.797 123.901 133.544 124.053 133.271 124.134C132.696 124.305 132.303 123.953 132.465 123.363C132.573 122.974 132.849 122.634 133.085 122.21C132.768 121.063 132.768 121.063 133.33 120.693C133.486 120.349 133.534 120 133.724 119.879C134.047 119.671 134.298 119.996 134.524 120.214C134.732 120.416 134.925 120.633 135.128 120.846C135.983 120.52 136.397 119.947 136.314 119.003C136.222 117.964 136.188 116.919 136.115 115.878C136.061 115.12 135.716 114.605 134.983 114.31C133.225 113.601 131.481 112.854 129.743 112.094C126.461 110.657 123.165 109.252 119.919 107.735C117.282 106.504 115.281 104.523 113.965 101.867C112.626 99.1636 112.876 96.6021 114.827 94.3221C116.799 92.0173 118.949 89.8872 121.426 88.13C121.552 88.0402 121.671 87.939 121.828 87.8153C121.698 87.6172 121.588 87.4443 121.471 87.2761C121.05 86.6688 121.041 86.5971 121.602 86.0722C122.222 85.4931 122.872 84.9465 123.508 84.3865C123.807 84.1237 124.117 83.8737 124.404 83.5992C125.077 82.9574 125.073 82.9527 125.879 83.5543C126.255 83.322 126.648 83.0657 127.054 82.8304C129.747 81.2649 132.389 79.5953 135.152 78.1702C138.43 76.4801 141.772 74.9076 145.373 74.0021C146.798 73.6441 148.185 73.133 149.585 72.6752C149.923 72.5643 150.241 72.3867 150.566 72.2406C150.937 73.0895 151.217 73.93 151.653 74.677C152.308 75.8008 153.011 76.9094 153.814 77.9263C154.276 78.5128 154.922 79.0051 155.578 79.3657C156.936 80.1134 158.171 79.6935 158.902 78.306C159.61 76.9627 159.699 75.4935 159.615 74.0068C159.591 73.5798 159.518 73.1558 159.464 72.7309C159.395 72.1843 159.445 72.0676 159.956 71.9168C160.459 71.7683 160.978 71.6738 161.487 71.5445C163.117 71.1312 164.748 70.7227 166.374 70.2934C168.588 69.7082 170.568 70.2465 172.269 71.7114C173.551 72.8153 174.753 74.0269 175.905 75.2716C178.324 77.882 180.687 80.5454 183.071 83.1887C183.267 83.4055 183.461 83.6254 183.635 83.8593C183.95 84.2816 184.261 84.5916 184.879 84.4434C185.331 84.3352 186.412 85.2883 186.392 85.7538C186.38 86.0347 186.173 86.3383 185.982 86.5702C185.823 86.7626 185.559 86.8648 185.257 87.0632C185.531 87.3676 185.77 87.6373 186.012 87.9034C188.309 90.4197 189.869 93.3395 190.34 96.7509C190.593 98.5787 189.967 100.188 188.346 101.241C187.278 101.935 186.103 102.265 184.838 102.296C183.05 102.34 181.263 102.396 179.475 102.456C177.898 102.509 176.322 102.574 174.746 102.64C174.572 102.647 174.399 102.693 174.245 102.717C174.227 102.821 174.197 102.881 174.213 102.922C175.059 105.07 175.481 107.334 175.982 109.578C176.05 109.878 176.21 110.157 176.344 110.485C175.965 110.994 175.268 110.956 174.731 111.413C174.804 111.877 174.833 112.412 174.978 112.913C176.115 116.855 177.648 120.629 179.471 124.298C180.621 126.613 181.603 129.017 182.585 131.413C184.662 136.478 186.715 141.554 188.722 146.647C189.298 148.107 189.725 149.632 190.138 151.151C190.326 151.838 190.342 152.58 190.385 153.3C190.572 156.455 190.737 159.612 190.915 162.768C191.176 167.394 191.437 172.021 191.708 176.646C191.805 178.304 191.928 179.96 192.045 181.617C192.064 181.883 192.113 182.146 192.155 182.459Z" fill="#263238"/>
    <path fill-rule="evenodd" clip-rule="evenodd" d="M155.931 122.211C155.775 121.737 155.991 121.629 156.294 121.601C156.743 121.56 157.193 121.528 157.642 121.492C157.827 121.477 158.013 121.466 158.197 121.446C159.206 121.339 159.343 121.177 159.189 120.171C158.923 118.44 158.64 116.713 158.364 114.985C158.288 114.507 158.199 114.031 158.142 113.551C158.13 113.443 158.229 113.225 158.276 113.225C158.41 113.224 158.605 113.274 158.663 113.373C158.766 113.55 158.806 113.774 158.839 113.984C159.15 115.979 159.455 117.976 159.757 119.972C159.793 120.211 159.817 120.455 159.823 120.696C159.844 121.456 159.71 121.726 159.041 121.904C158.017 122.177 156.961 122.178 155.931 122.211Z" fill="#263238"/>
    <path fill-rule="evenodd" clip-rule="evenodd" d="M192.053 198.135C191.893 198.274 191.764 198.453 191.705 198.423C191.583 198.361 191.497 198.188 191.396 198.06C191.484 197.954 191.594 197.743 191.657 197.762C191.784 197.801 191.886 197.966 192.053 198.135Z" fill="#263238"/>
    <path fill-rule="evenodd" clip-rule="evenodd" d="M191.394 196.43C191.255 196.266 191.161 196.156 191.066 196.046C191.208 195.945 191.34 195.814 191.498 195.765C191.543 195.751 191.732 195.98 191.724 196.088C191.716 196.194 191.541 196.287 191.394 196.43Z" fill="#263238"/>
    <path fill-rule="evenodd" clip-rule="evenodd" d="M158.524 51.3726C158.22 51.1582 157.83 51.2802 157.309 51.3262C158.076 50.9349 158.831 51.0717 159.274 52.0783C158.952 51.7313 158.795 51.564 158.524 51.3726ZM152.725 52.0937C152.7 51.9711 152.667 51.8399 152.656 51.7281C152.598 51.1237 152.707 50.4479 153.084 49.8951C153.221 49.6946 153.494 49.3891 153.732 49.3167C154.276 49.1507 154.524 49.0461 155.141 49.3779C153.564 49.6298 153.095 50.7807 152.725 52.0937ZM150.409 58.3586C150.217 58.2498 149.274 57.6154 148.894 57.063C148.748 56.8503 148.645 56.3222 149.228 55.4238C149.265 55.5898 149.304 55.6757 149.302 55.7605C149.264 57.0354 149.939 57.822 151.054 58.2896C151.418 58.4425 151.747 58.6013 151.979 59.1277C151.305 58.9521 150.873 58.621 150.409 58.3586ZM150.588 53.3903C150.885 52.612 151.165 52.4173 151.807 52.5166C151.36 52.6978 150.995 53.4212 151.203 53.9322C151.012 53.774 150.873 53.6872 150.481 53.9805C150.519 53.7586 150.523 53.5626 150.588 53.3903ZM162.5 54.2531C162.64 53.8523 162.787 53.488 162.893 53.1121C163.067 52.4955 162.942 51.905 162.623 51.368C162.088 50.4657 160.584 50.6206 160.106 51.2532C159.857 51.5844 159.766 51.901 159.783 52.219C159.504 51.7468 159.278 51.4476 158.856 51.1237C158.33 50.7205 157.553 50.9326 157.019 51.1852C157.078 50.8984 156.903 50.4325 156.718 50.1921C156.487 49.8912 156.059 49.4516 155.337 49.1852C154.419 48.8468 153.742 48.9323 153.073 49.6827C152.714 50.0862 152.492 50.6011 152.421 51.0602C152.362 51.4384 152.42 51.8379 152.342 52.2282C152.194 52.2407 152.092 52.2644 151.995 52.2552C151.17 52.1763 150.912 52.3019 150.553 53.0046C150.434 53.2361 150.325 53.4801 150.264 53.731C150.114 54.3439 149.698 54.7891 149.26 55.1666C148.595 55.7401 148.56 56.6872 148.732 57.086C148.732 57.086 149.079 57.8808 150.856 58.842C151.108 58.9788 151.354 59.1383 151.619 59.2488C152.037 59.4227 152 59.8624 151.608 60.107C151.484 60.1839 151.31 60.1833 151.159 60.2126C150.402 60.3579 150.025 60.8219 150.044 61.5923C150.06 62.3102 150.41 62.8366 150.995 63.2217C151.166 63.3338 151.348 63.4272 151.567 63.5528C151.453 64.6633 151.382 65.7649 151.217 66.8517C150.988 68.3561 150.686 69.849 150.421 71.3481C150.38 71.5786 150.346 71.8167 150.36 72.0485C150.366 72.1488 150.49 72.3024 150.582 72.3201C150.676 72.3379 150.838 72.2455 150.896 72.1541C150.975 72.0278 150.991 71.8591 151.021 71.7059C151.284 70.3399 151.581 68.9789 151.794 67.605C151.987 66.3604 152.103 65.1029 152.222 63.8484C152.291 63.1207 152.253 63.0829 151.588 62.786C151.121 62.5769 150.816 62.248 150.73 61.7393C150.656 61.3056 150.844 60.6979 151.425 60.8436C151.899 60.9623 152.081 61.6075 152.197 62.053C152.262 62.0395 152.326 62.0261 152.391 62.0126C152.452 61.7791 152.534 61.5489 152.57 61.3122C152.676 60.6111 152.72 59.8975 152.869 59.2067C153.109 58.1008 153.82 57.3261 154.881 57.0084C155.669 56.772 156.521 56.7486 157.345 56.6345C157.394 56.6276 157.45 56.6487 157.497 56.6694C158.212 56.9805 158.885 56.8072 159.527 56.4757C160.128 56.8233 160.369 57.3011 160.362 57.9814C160.342 59.9367 160.103 61.8636 159.615 63.7508C159.4 64.5821 159.015 65.3699 158.7 66.1749C158.511 66.657 158.113 66.8471 157.632 66.8142C157.297 66.7915 156.94 66.7323 156.644 66.5863C156.013 66.2749 155.422 65.8846 154.8 65.5551C154.67 65.4867 154.475 65.5419 154.31 65.54C154.332 65.7017 154.294 65.9352 154.387 66.0128C154.746 66.3143 155.124 66.6093 155.537 66.827C156.402 67.2837 157.319 67.5873 158.37 67.4222C158.776 68.8588 159.158 70.2212 159.546 71.5819C159.618 71.8331 159.691 72.0886 159.805 72.3211C159.847 72.4066 160.029 72.4931 160.115 72.4678C160.202 72.4421 160.299 72.2813 160.303 72.1767C160.31 71.9985 160.259 71.814 160.21 71.6385C159.851 70.3484 159.496 69.0575 159.12 67.7724C158.997 67.3538 159.002 67.0118 159.217 66.5879C159.629 65.7731 160.02 64.9188 160.227 64.0359C160.55 62.66 160.726 61.2484 160.937 59.8479C161.019 59.3063 161.027 58.7539 161.07 58.207C161.188 58.1412 161.272 58.0784 161.368 58.0429C162.069 57.7825 162.538 57.3524 162.527 56.5389C162.526 56.4182 162.583 56.2768 162.657 56.1785C163.187 55.4807 163.176 54.8306 162.5 54.2531Z" fill="#263238"/>
    <path fill-rule="evenodd" clip-rule="evenodd" d="M157.961 59.9361L158.524 62.162L157.703 62.2439L157.961 59.9361Z" fill="#263238"/>
    <path fill-rule="evenodd" clip-rule="evenodd" d="M157.961 59.9361L158.524 62.162L157.703 62.2439L157.961 59.9361Z" stroke="#263238" stroke-width="0.231481" stroke-linejoin="round"/>
    <path fill-rule="evenodd" clip-rule="evenodd" d="M157.962 63.6743C157.939 63.6743 157.916 63.6738 157.895 63.6724C157.29 63.6365 156.72 63.1274 156.595 62.513C156.587 62.4763 156.616 62.4416 156.658 62.4351C156.701 62.4291 156.741 62.4534 156.749 62.4898C156.859 63.0368 157.379 63.5076 157.906 63.5389C158.217 63.5569 158.797 63.4345 159.181 62.4054C159.195 62.3702 159.239 62.351 159.28 62.3623C159.321 62.3735 159.343 62.4111 159.33 62.4461C158.938 63.4957 158.33 63.6743 157.962 63.6743Z" fill="#263238"/>
    <path fill-rule="evenodd" clip-rule="evenodd" d="M156.202 60.4063C155.544 60.4063 155.133 61.0307 154.915 61.5062C155.967 61.1323 156.973 61.2093 157.345 61.2576C157.209 61.0008 156.849 60.4464 156.272 60.4086C156.248 60.4069 156.225 60.4063 156.202 60.4063ZM154.771 61.7222C154.751 61.7222 154.731 61.7144 154.716 61.6996C154.694 61.6772 154.687 61.6443 154.699 61.6154C154.912 61.0817 155.403 60.1948 156.282 60.2527C156.635 60.276 156.968 60.4704 157.243 60.815C157.447 61.0708 157.548 61.3175 157.552 61.3276C157.563 61.3543 157.558 61.3845 157.54 61.4062C157.522 61.4283 157.493 61.4391 157.465 61.4335C157.452 61.4309 156.116 61.1869 154.8 61.7163C154.791 61.7203 154.781 61.7222 154.771 61.7222Z" fill="#263238"/>
    <path fill-rule="evenodd" clip-rule="evenodd" d="M159.009 61.1095C159.576 61.1095 160.241 61.2453 160.511 61.3068C160.446 61.05 160.246 60.4548 159.772 60.3818C159.462 60.3348 159.191 60.3897 158.985 60.541C158.805 60.6729 158.681 60.8774 158.621 61.1365C158.74 61.1174 158.872 61.1095 159.009 61.1095ZM160.614 61.489C160.607 61.489 160.601 61.4884 160.595 61.4867C160.581 61.4834 159.216 61.1457 158.542 61.3114C158.517 61.3177 158.49 61.3108 158.471 61.2934C158.452 61.2756 158.442 61.25 158.446 61.224C158.499 60.8702 158.654 60.5906 158.893 60.415C159.132 60.2388 159.444 60.1737 159.796 60.2276C160.096 60.274 160.346 60.4936 160.52 60.8632C160.647 61.1335 160.689 61.3881 160.691 61.3986C160.695 61.4246 160.686 61.4509 160.666 61.4686C160.652 61.4821 160.633 61.489 160.614 61.489Z" fill="#263238"/>
    <path fill-rule="evenodd" clip-rule="evenodd" d="M158.681 61.0398C158.681 60.7015 158.902 60.4272 159.174 60.4272C159.446 60.4272 159.667 60.7015 159.667 61.0398C159.667 61.1168 159.654 61.2467 159.633 61.3147C159.397 61.225 158.9 61.1286 158.709 61.202C158.691 61.1464 158.681 61.0908 158.681 61.0398Z" fill="#263238"/>
    <path fill-rule="evenodd" clip-rule="evenodd" d="M155.116 61.1529C155.116 60.8145 155.411 60.5403 155.774 60.5403C156.137 60.5403 156.432 60.8914 156.432 61.2298C155.978 61.3304 155.429 61.3745 155.223 61.4475C155.162 61.3515 155.116 61.2449 155.116 61.1529Z" fill="#263238"/>
    <path fill-rule="evenodd" clip-rule="evenodd" d="M157.202 58.5809C157.202 58.5809 157.439 59.21 157.325 59.3843C156.734 59.3632 154.943 59.1879 154.275 60.1738C154.498 58.626 157.202 58.5809 157.202 58.5809Z" fill="#263238"/>
    <path d="M157.24 58.5663L157.201 58.5397L157.107 58.5434L157.073 58.5453C156.972 58.5513 156.859 58.5609 156.737 58.575C156.39 58.6152 156.043 58.683 155.719 58.785C154.876 59.0501 154.331 59.4966 154.235 60.1678C154.229 60.211 154.285 60.2328 154.31 60.1967C154.591 59.7809 155.096 59.5455 155.775 59.4499L155.894 59.4347C156.211 59.398 156.526 59.3928 156.919 59.4072L157.324 59.4252L157.36 59.4066C157.411 59.3285 157.407 59.1877 157.367 58.9961C157.354 58.9353 157.338 58.8712 157.318 58.8053C157.289 58.7039 157.26 58.6184 157.24 58.5663ZM157.3 59.3419L157.073 59.3314C156.553 59.3072 156.167 59.3118 155.764 59.3685L155.66 59.3844C155.114 59.475 154.682 59.6608 154.39 59.9661L154.354 60.0065L154.362 59.9761C154.527 59.4539 155.018 59.0916 155.744 58.8635C156.063 58.7632 156.405 58.6963 156.747 58.6566C156.867 58.6428 156.978 58.6333 157.078 58.6273L157.173 58.6224L157.206 58.7179C157.217 58.7514 157.228 58.7885 157.239 58.8281C157.258 58.8923 157.274 58.9545 157.286 59.0131L157.297 59.0681C157.319 59.1925 157.321 59.288 157.3 59.3419Z" fill="#263238"/>
    <path fill-rule="evenodd" clip-rule="evenodd" d="M158.319 59.3897C158.811 59.3219 160.292 59.0059 160.913 59.9362C160.625 58.4104 158.369 58.5784 158.369 58.5784C158.369 58.5784 158.213 59.2246 158.319 59.3897Z" fill="#263238"/>
    <path d="M158.419 58.5346L158.366 58.5374L158.329 58.5688L158.304 58.6808C158.298 58.7116 158.291 58.7459 158.285 58.7827C158.271 58.8573 158.26 58.9299 158.253 58.9985C158.23 59.1957 158.236 59.3379 158.284 59.4119L158.324 59.4304L158.643 59.3829C159.031 59.3279 159.354 59.3083 159.671 59.3376C160.213 59.3878 160.626 59.5815 160.878 59.959C160.903 59.9962 160.961 59.9725 160.953 59.9286C160.831 59.283 160.364 58.8823 159.667 58.6788C159.239 58.5537 158.792 58.5194 158.419 58.5346ZM159.727 58.7831C160.269 58.959 160.651 59.2642 160.814 59.7255L160.824 59.7565L160.799 59.729C160.53 59.4484 160.149 59.2993 159.678 59.2557C159.395 59.2295 159.107 59.2415 158.776 59.2823L158.547 59.3138L158.342 59.3444L158.335 59.3216C158.319 59.2554 158.319 59.1459 158.334 59.0076C158.342 58.941 158.353 58.8701 158.366 58.7972L158.375 58.7451C158.385 58.6951 158.394 58.6517 158.402 58.6177L158.422 58.6168C158.787 58.6019 159.226 58.6356 159.644 58.7577L159.727 58.7831Z" fill="#263238"/>
    <path d="M156.043 60.9982C156.224 60.9982 156.372 60.851 156.372 60.6694C156.372 60.4878 156.224 60.3405 156.043 60.3405C155.861 60.3405 155.714 60.4878 155.714 60.6694C155.714 60.851 155.861 60.9982 156.043 60.9982Z" fill="white"/>
    <path d="M159.661 60.9982C159.843 60.9982 159.99 60.851 159.99 60.6694C159.99 60.4878 159.843 60.3405 159.661 60.3405C159.479 60.3405 159.332 60.4878 159.332 60.6694C159.332 60.851 159.479 60.9982 159.661 60.9982Z" fill="white"/>
    <path d="M159.989 60.9982C160.171 60.9982 160.318 60.851 160.318 60.6694C160.318 60.4878 160.171 60.3405 159.989 60.3405C159.807 60.3405 159.66 60.4878 159.66 60.6694C159.66 60.851 159.807 60.9982 159.989 60.9982Z" fill="white"/>
    </svg>
    