<svg width="400" height="217" fill="none" xmlns="http://www.w3.org/2000/svg"><path fill-rule="evenodd" clip-rule="evenodd" d="M181.917 208.15h145.955C306.034 69.383 286.242 0 268.496 0c-26.619 0-36.364 43.203-50.965 59.888-14.601 16.685-23.091 24.053-46.965 12.027-23.873-12.027-73.552-6.927-73.552 33.375 0 26.867 6.981 61.11 20.945 102.729l63.958.131z" fill="#EFFDFF"/><path fill-rule="evenodd" clip-rule="evenodd" d="M306.63 107.147c30.691 0 88.649-8.805 88.649 27.643s1.313 62.509-29.379 62.509l.038-.001-93.35.001H216.06c114.779-33.04 60.983-89.019 89.675-90.135l.895-.017z" fill="#E4F0FA"/><path fill-rule="evenodd" clip-rule="evenodd" d="M26.43 209.465C0 177.03-6.607 153.649 6.609 139.32c19.823-21.493 40.044-36.396 66.17-36.396 26.127 0 93.03 36.682 98.506 60.062 3.651 15.588-6.812 31.081-31.391 46.479H26.431z" fill="#458CC8"/><path fill-rule="evenodd" clip-rule="evenodd" d="M15.563 164.187c-.057.011-.146.004-.203.043-1.336.919-2.497 2.011-3.32 3.425-.379.649-.616 1.337-.487 2.106.347 2.071.592 4.166 1.067 6.208.835 3.597 2.264 6.992 3.833 10.325 2.56 5.44 6.08 10.198 10.457 14.299 4.737 4.438 10.572 6.642 16.807 7.958.229.048.477.006.889.006-15.35-11.228-24.456-26.315-29.043-44.37zm30.648 44.41c-.02-.179-.01-.238-.034-.268a7.37 7.37 0 00-.416-.47c-3.134-3.188-5.684-6.811-7.924-10.66-1.535-2.638-2.697-5.459-3.915-8.252-1.545-3.54-2.95-7.135-4.072-10.832-.93-3.063-1.747-6.162-2.65-9.234-.45-1.535-.872-3.093-1.5-4.558-1.034-2.418-3.08-3.315-5.612-2.66-1.215.314-2.27.949-3.33 1.583-.407.243-.513.51-.381.969.569 1.992 1.003 4.031 1.679 5.985 1.676 4.842 3.554 9.6 6.078 14.085 5.342 9.491 12.336 17.492 21.25 23.785.245.173.505.323.827.527zm-4.421-70.358c.195.373.322.628.46.877 1.404 2.53 2.708 5.105 3.655 7.848 1.582 4.579 2.771 9.254 3.388 14.062.304 2.37.537 4.748.805 7.122.367 3.266.6 6.541.572 9.828-.037 4.231-.351 8.449-.714 12.663-.308 3.587-.679 7.165-1.294 10.714-.019.107.015.224.024.335.17-.178.252-.365.313-.559 1.03-3.282 2.095-6.553 3.08-9.848 2.081-6.968 3.451-14.077 3.982-21.335a79.593 79.593 0 00-.231-14.245c-.753-7.104-3.024-13.662-6.783-19.721-.33-.531-.363-.58-.944-.399-.825.256-1.647.538-2.44.88-1.275.549-2.524 1.155-3.873 1.778zm-.71.344c-.915.471-1.785.892-2.63 1.36-1.037.574-2.017 1.233-2.835 2.108-1.322 1.41-1.823 3.068-1.349 4.939a14.52 14.52 0 001.043 2.795c1.771 3.615 3.29 7.331 4.644 11.119 2.606 7.296 4.578 14.741 5.423 22.463.586 5.358.938 10.731 1.042 16.118.046 2.362.008 4.727.008 7.144l.375.107c.067-.215.134-.383.172-.557a102.793 102.793 0 001.844-11.587c.28-2.769.509-5.545.711-8.322.32-4.378.587-8.761.238-13.15-.208-2.618-.492-5.23-.726-7.846a78.346 78.346 0 00-1.954-11.801c-1.225-4.975-2.965-9.745-5.57-14.175-.13-.22-.266-.436-.436-.715zM16.07 162.778c.639-.368 1.131-.665 1.637-.939 1.36-.738 2.784-1.217 4.369-1.097 1.487.113 2.648.785 3.543 1.949.584.76.974 1.625 1.241 2.537.826 2.824 1.658 5.646 2.438 8.482 1.628 5.918 3.854 11.61 6.302 17.231 2.018 4.635 4.551 8.942 7.676 12.906.602.764 1.253 1.487 1.886 2.226.064.075.155.129.348.286.052-.355.124-.62.125-.885.002-2.681.02-5.363-.022-8.043-.027-1.734-.147-3.467-.224-5.2-.475-10.789-2.454-21.277-6.23-31.416-1.378-3.697-2.86-7.342-4.569-10.899-.462-.963-.848-1.993-1.072-3.034-.433-2.007.125-3.789 1.539-5.301.874-.935 1.913-1.64 3.022-2.252.825-.456 1.666-.881 2.58-1.363-.247-.459-.482-.888-.709-1.323-.133-.256-.288-.509-.36-.783-.035-.132.1-.308.157-.463.131.058.315.079.385.179.36.517.69 1.056 1.032 1.585.084.13.175.254.3.434.324-.148.628-.288.934-.425 1.391-.621 2.772-1.266 4.178-1.85.552-.229 1.154-.35 1.743-.471.544-.111.957.107 1.257.596 3.17 5.156 5.455 10.651 6.474 16.645.862 5.075 1.136 10.184.909 15.32-.343 7.753-1.667 15.345-3.764 22.812-1.429 5.087-3.095 10.096-4.794 15.096a46.596 46.596 0 00-.734 2.331c-.399 1.412-.966 1.745-2.388 1.78-1.086.026-2.204-.174-3.268-.435-3.814-.94-7.502-2.234-10.893-4.26-2.732-1.632-5.073-3.73-7.219-6.068-5.006-5.456-8.448-11.803-10.87-18.762-1.034-2.974-1.523-6.047-2.076-9.124-.379-2.106.355-3.715 1.704-5.151.68-.723 1.464-1.358 2.25-1.968.417-.324.566-.633.404-1.132a4.681 4.681 0 01-.195-1.004c-.024-.26-.19-.648.23-.715.36-.058.351.333.416.563.119.421.19.855.308 1.405zM381.925 156.493c.15-.298.235-.455.31-.618 1.124-2.439 2.425-4.778 3.956-6.987a197.125 197.125 0 002.704-3.976c.431-.656.838-1.338 1.171-2.047.4-.855.176-1.446-.733-1.721-1.201-.364-2.44-.608-3.67-.864-.502-.104-.935.122-1.236.535-.263.36-.516.731-.732 1.12-1.208 2.172-1.845 4.518-1.993 6.986a76.4 76.4 0 00-.127 4.881c.003.853-.072 1.735.35 2.691zm-28.141-79.304c-.96.582-1.756 1.26-2.542 1.948a.473.473 0 00-.161.26c-.095.67-.166 1.343-.259 2.013-.134.97.226 1.87.375 2.8.233 1.456.584 2.887 1.165 4.247.857 2.003 1.779 3.98 2.614 5.993 1.198 2.886 2.349 5.792 3.508 8.694 2.204 5.516 4.711 10.891 7.47 16.152 1.976 3.769 3.987 7.516 6.285 11.103.068.107.169.193.295.334.017-.143.04-.198.025-.242-.845-2.568-1.675-5.142-2.547-7.701-.982-2.884-2.037-5.743-2.998-8.634-1.333-4.011-2.572-8.054-3.915-12.062-2.464-7.346-5.233-14.58-8.063-21.791-.401-1.021-.818-2.035-1.252-3.114zm18.786 50.427l.151-.056c-.214-1.428-.479-2.851-.635-4.286-.526-4.86-1.062-9.72-1.503-14.588-.414-4.579-.695-9.17-1.065-13.754-.369-4.566-.982-9.094-2.407-13.472-.677-2.082-1.522-4.093-2.828-5.867-1.151-1.564-2.512-2.038-4.361-1.438-1.267.41-2.489.974-3.709 1.52-.59.264-1.129.643-1.709.98.07.272.104.477.177.667 1.957 5.072 3.961 10.126 5.864 15.217 1.499 4.01 2.908 8.054 4.292 12.106 1.127 3.305 2.126 6.655 3.241 9.965 1.258 3.734 2.582 7.446 3.875 11.168.212.611.412 1.225.617 1.838zm-19.124-51.302c-.526-1.364-1.036-2.656-1.522-3.958-.221-.593-.195-.628.221-1.132.146.276.293.505.394.752.476 1.167.939 2.339 1.412 3.507.037.093.111.17.213.32.669-.365 1.32-.733 1.983-1.08 1.238-.646 2.517-1.182 3.886-1.496 1.839-.423 3.381.037 4.594 1.497 1.295 1.557 2.139 3.367 2.858 5.235.815 2.113 1.366 4.303 1.813 6.523.818 4.058 1.113 8.172 1.382 12.292.199 3.068.443 6.135.747 9.195.537 5.414 1.074 10.83 1.733 16.231.333 2.735.922 5.439 1.419 8.152.074.4.284.775.424 1.164.043.121.089.251.088.376-.011 1.766.516 3.427 1.05 5.072 1.11 3.422 2.289 6.822 3.437 10.232.302.895.592 1.794.892 2.69a.789.789 0 00.289.41c.027-.157.074-.314.077-.472.045-2.183.128-4.358.714-6.484a17.219 17.219 0 012.018-4.603c.614-.978 1.442-1.44 2.59-1.18 1.175.266 2.371.485 3.502.882 1.292.453 1.67 1.399 1.103 2.641-.413.902-.953 1.752-1.49 2.589-1.433 2.235-2.966 4.407-4.322 6.686-.978 1.643-1.744 3.414-2.58 5.14a1.194 1.194 0 00-.065.743 114.343 114.343 0 012.167 11.94c.446 3.442.751 6.896.852 10.367.054 1.838.177 3.676.179 5.513.002 3.018-.064 6.035-.109 9.052-.049 3.256-.127 6.512-.153 9.768-.017 2.153.013 4.307.069 6.461.017.645.182 1.288.304 1.927.046.247.114.498-.159.617-.291.127-.53-.036-.63-.306a4.143 4.143 0 01-.245-.988 28.097 28.097 0 01-.177-2.281c-.136-4.858-.113-9.716-.001-14.576.092-3.99.1-7.984.059-11.976-.059-5.897-.652-11.755-1.58-17.575-.853-5.353-2.118-10.608-3.905-15.734-1.185-3.397-2.349-6.804-3.435-10.234-.514-1.622-.818-3.31-1.229-4.965-.061-.245-.136-.512-.285-.708-3.34-4.39-5.916-9.243-8.469-14.101-1.636-3.114-3.226-6.261-4.656-9.473-1.751-3.932-3.301-7.953-4.962-11.925-1.135-2.713-2.27-5.428-3.485-8.104-1.219-2.683-1.966-5.486-2.393-8.384-.083-.566-.043-1.153-.026-1.729.009-.305.141-.58-.215-.832-.261-.185-.082-.496.109-.686.484-.482.966-.97 1.487-1.409.64-.54 1.319-1.033 2.028-1.583zM246.049 35.88l-1.626 1.354 2.274 2.648 1.666-1.554-2.314-2.448zm-23.01-9.07c.112.664.199 1.8.501 2.877 1.784 6.358 8.076 10.248 14.742 9.034 4.278-.779 7.541-3.119 9.643-6.937 3.358-6.102 1.335-13.75-4.96-17.127-4.733-2.54-9.486-2.145-13.903.744-3.87 2.531-5.884 6.26-6.023 11.41zm23.236 14.558c.783.866 1.502 1.667 2.226 2.464 2.793 3.074 5.576 6.157 8.385 9.216a264.307 264.307 0 005.51 5.856c.617.632 1.387 1.116 2.1 1.652.497.375.963.26 1.432-.108.579-.453.955-1.036 1.237-1.692-6.121-6.58-11.51-13.733-16.959-20.937-1.378 1.243-2.699 2.437-3.931 3.55zm.372-6.074l2.437 2.374c.182-.136.364-.279.553-.412.436-.307.654-.307 1.039.071.28.275.53.584.771.895 3.02 3.876 5.986 7.796 9.071 11.62 1.995 2.473 4.159 4.81 6.258 7.198.293.334.638.625.968.924.46.416.536.693.318 1.254a1.092 1.092 0 01-.071.141c-.522.936-1.292 1.64-2.16 2.235-.545.374-1.137.218-1.636-.104-.704-.455-1.437-.907-2.02-1.496a154.56 154.56 0 01-4.981-5.27c-3.377-3.749-6.588-7.648-10.196-11.185-.545-.534-1.107-1.05-1.647-1.587-.331-.33-.328-.445-.003-.788.233-.246.49-.47.777-.742l-2.428-2.717c-.308.162-.581.314-.86.453-5.103 2.544-10.114 2.437-14.87-.775-3.39-2.29-5.298-5.6-5.608-9.693-.421-5.53 1.815-9.843 6.318-13.02 2.444-1.724 5.197-2.551 8.153-2.501 4.867.082 8.814 2.062 11.51 6.182 2.109 3.223 2.567 6.788 1.706 10.516-.505 2.184-1.505 4.138-2.959 5.853-.134.159-.254.33-.44.574z" fill="#263238"/><path fill-rule="evenodd" clip-rule="evenodd" d="M225.107 26.451c0 3.197 1.087 5.927 3.51 8.048 2.093 1.831 4.503 2.928 7.345 2.667 3.023-.278 5.709-1.427 7.889-3.563 3.098-3.037 4.26-6.692 3.13-10.937-.716-2.692-2.302-4.764-4.844-6.003-2.156-1.05-4.471-1.49-6.85-1.628-.333-.019-.687-.075-.844.38-.03.087-.324.14-.483.118-.664-.094-1.249.105-1.804.431-.566.333-1.147.646-1.682 1.025-3.266 2.313-5.357 5.3-5.367 9.462zm23.305-.986c-.037 3.01-.916 5.37-2.606 7.49-.9 1.13-2.107 1.882-3.089 2.898-.188.195-.504.265-.757.398-1.538.81-3.128 1.443-4.863 1.733-2.974.5-5.645-.214-8.043-1.944-3.628-2.617-5.163-6.228-4.829-10.657.272-3.602 2.168-6.282 4.889-8.47.755-.607 1.554-1.163 2.353-1.713a5.712 5.712 0 013.107-1.016c2.958-.072 5.813.508 8.434 1.9 2.936 1.56 4.518 4.152 5.173 7.344.157.767.179 1.561.231 2.037z" fill="#263238"/><path fill-rule="evenodd" clip-rule="evenodd" d="M245.567 26.582c.01-1.11-1.419-2.15-2.411-1.786-.248.091-.493.316-.635.544-.569.915-.464 1.897.244 2.749.575.692 1.472.748 2.152.144.519-.461.586-1.086.65-1.651zm.804-.137c-.029.792-.169 1.5-.612 2.13-.958 1.36-2.837 1.383-3.797.03-.679-.959-.873-1.993-.499-3.137.443-1.351 1.554-1.735 2.741-1.468.4.09.788.293 1.146.506.741.442 1.093 1.111 1.021 1.94zM243.246 21.541a.743.743 0 00-.723-.763c-.35-.005-.647.239-.654.534-.008.386.404.76.84.764.328.003.519-.187.537-.535zm.874.006c.004.833-.497 1.39-1.264 1.404-.953.017-1.838-.793-1.843-1.686-.004-.67.72-1.256 1.552-1.254a1.53 1.53 0 011.555 1.536zM193.977 46.892c.135 0 .17.008.2-.001.064-.02.127-.046.187-.076 1.524-.752 2.898-1.712 4.07-2.94.228-.24.411-.51.487-.859.101-.463.253-.528.746-.57.588-.049 1.182-.089 1.759-.2 1.434-.276 2.465-1.071 2.95-2.459.281-.803.502-1.628.723-2.45.233-.871.048-1.692-.388-2.464-.265-.468-.655-.828-1.157-1.009-.696-.25-1.404-.49-2.128-.638-1.99-.407-4.016-.53-6.041-.597-3.006-.1-6.013-.16-9.019-.22-2.972-.058-5.945-.1-8.917-.137-2.838-.036-5.675-.054-8.513-.084-1.317-.013-2.635-.037-3.952-.057-.625-.009-1.2.087-1.657.58-.203.217-.485.36-.718.555a2.17 2.17 0 00-.416.431c-.357.528-.695 1.07-1.04 1.605-.588.91-.99 1.9-1.284 2.935a3.679 3.679 0 00-.147.987c-.004.931.606 1.712 1.498 1.973 1.19.347 2.415.503 3.646.566 1.804.093 3.612.136 5.42.171 4.459.086 8.92.137 13.379.237 3.784.086 7.565.221 11.348.337.097.003.193.032.362.062-.357 1.476-.775 2.903-1.398 4.322zm.603-3.74c-.7-.03-1.336-.064-1.973-.086-2.667-.092-5.332-.199-7.999-.265-2.921-.073-5.842-.098-8.763-.158-3.325-.068-6.651-.143-9.976-.233a23.336 23.336 0 01-4.464-.558c-1.305-.292-1.956-1.067-2.207-2.432-.096-.52.047-1.032.202-1.528a13.79 13.79 0 011.608-3.39c.619-.959 1.331-1.785 2.277-2.442.401-.279.782-.428 1.252-.425 1.688.006 3.377.003 5.065.014 2.703.018 5.405.033 8.107.07 3.732.05 7.464.117 11.195.184 2.061.038 4.121.066 6.18.144 2.278.085 4.557.19 6.794.678.476.104.941.26 1.407.405 1.415.438 2.128 1.45 2.374 2.847.085.486.076.968-.019 1.446-.205 1.035-.476 2.052-.909 3.02-.487 1.085-1.316 1.803-2.434 2.2a7.025 7.025 0 01-2.232.398c-.317.006-.529.088-.683.39-.395.78-1.037 1.362-1.72 1.883-1.136.868-2.29 1.718-3.665 2.198-.214.075-.439.28-.656.089-.24-.213-.051-.472.027-.7.339-.979.696-1.952 1.031-2.933.084-.245.114-.509.181-.816z" fill="#263238"/><path fill-rule="evenodd" clip-rule="evenodd" d="M180.623 36.056c.347-.355.549-.71.45-1.151-.077-.342-.313-.567-.724-.653-.301.673.028 1.202.274 1.804zm5.337 1.067c-.801.486-1.604.762-2.477.838-1.095.095-2.087-.086-2.827-.983-.03-.036-.083-.052-.087-.054-.512.274-.986.562-1.489.788-.897.402-1.801.35-2.694-.048-.372-.166-.501-.308-.428-.516.085-.24.409-.39.808-.33l-.259.406c1.159.798 2.933.083 3.758-.769-.135-.385-.296-.769-.399-1.167a2.418 2.418 0 01-.066-.838c.051-.506.442-.703.917-.504.632.266.95.952.709 1.62-.117.325-.315.622-.495.967.373.692 1.035.974 1.809 1.013 1.019.052 1.969-.205 2.843-.732.198-.12.305-.278.378-.5.076-.23.219-.446.37-.64.127-.162.332-.171.503-.055.167.112.157.296.077.45-.091.176-.211.34-.334.497-.219.277-.225.372.008.645.254.3.598.42.979.458.839.082 1.645-.058 2.43-.35.189-.07.378-.141.572-.197.383-.111.763-.11 1.139.042.295.12.597.224.889.351.059.026.126.133.115.189-.01.055-.113.126-.178.13a.966.966 0 01-.343-.057 2.956 2.956 0 01-.42-.173c-.419-.211-.83-.185-1.271-.04-.62.207-1.252.385-1.89.528-.306.069-.639.058-.956.034-.707-.053-1.304-.324-1.691-1.003zM166.136 36.57c-.65.106-1.314.19-1.968.33-.329.07-.727.148-.585.713.039.156-.146.23-.281.126-.225-.172-.268-.61-.025-.853.186-.186.436-.337.682-.414.927-.29 1.877-.35 2.841-.265 1.366.12 2.673.49 3.963.961 1.144.418 2.311.746 3.523.852.282.024.568 0 .853-.003.116 0 .239-.023.347.01.057.016.111.125.123.2.008.043-.063.137-.11.148-.196.047-.395.096-.594.098-.98.007-1.937-.185-2.876-.461-1.146-.337-2.274-.75-3.429-1.046-.794-.204-1.62-.265-2.464-.395zM195.071 37.278c-.137.073-.25.151-.381.195-.071.024-.212.016-.253-.023a.27.27 0 01-.078-.234c.043-.183.409-.378.68-.387.26-.008.555.155.62.366.023.075.009.216-.042.234-.093.034-.233.015-.341-.012-.078-.02-.136-.09-.205-.14z" fill="#263238"/><path fill-rule="evenodd" clip-rule="evenodd" d="M316.362 80.29l-6.351-4.36-3.377 5.163-6.418-6.035c-3.8-2.92-5.932-4.379-6.398-4.379-.465 0-1.432.221-2.9.663-3.098 2.75-5.57 3.99-7.416 3.716s-3.051-.755-3.616-1.442c-.867-1.498-1.551-2.361-2.052-2.591-.75-.346-2.596-.655-3.308-.655-.713 0-3.999 1.396-4.859 2.32-.573.617-3.457 3.249-8.653 7.894l-5.264-7.425-5.159 3.37 6.032 10.887c1.46 2.473 2.624 3.82 3.491 4.042.868.222 2.083-.137 3.647-1.078l6.361-5.121.912 5.121 2.031 9.64 22.764.382c1.139-4.025 1.708-6.153 1.708-6.383 0-.23.362-2.614 1.085-7.152l5.639 4.259c1.112.729 2.108 1.093 2.988 1.093.881 0 2.619-1.695 5.216-5.085l3.897-6.845zM295.732 100.402H273.22v1.564c-.731 1.677-1.179 2.834-1.345 3.472-.166.638-.558 6.851-1.177 18.64l-1.56 28.827-1.75 18.783-1.012 10.913 16.427.515 3.075.043 18.145-.043 1.159-1.04-1.159-12.77c-.973-13.609-1.781-23.816-2.426-30.62-.645-6.805-1.289-11.922-1.933-15.352-1.023-8.598-1.621-13.213-1.792-13.846-.172-.633-1.017-3.401-2.536-8.304l.396-.782z" fill="#fff"/><path fill-rule="evenodd" clip-rule="evenodd" d="M239.998 69.993c.951-.247 1.892-.532 2.88-.817-1.251.043-2.468.053-3.609.55l.004.249c.242.01.5.077.725.018zm4.682.757c1.439.018 2.632.61 3.733 1.492.57.457.975 1.018 1.307 1.664.323.63.706 1.23 1.088 1.887a7438.78 7438.78 0 013.887-2.246c-.186-.275-.334-.519-.507-.742a158.363 158.363 0 00-1.858-2.376c-.434-.542-.975-.851-1.702-.83-1.154.035-2.312-.029-3.463.04-1.833.109-3.662.289-5.491.451-.252.023-.496.118-.743.18l-.01.163c.309.064.616.164.929.185.942.063 1.886.121 2.83.132zm11.913 4.35l-.971-1.356-5.068 2.873 1.003 1.765 5.036-3.282zm1.009 13.612c.482.693 1.014 1.36 1.595 1.97.8.842 1.778 1.141 2.864.586.675-.345 1.367-.7 1.949-1.178 1.837-1.509 3.625-3.08 5.435-4.624.194-.166.405-.312.724-.556.53 1.737.632 3.44 1.062 5.068.441 1.67.908 3.334 1.286 5.02.37 1.654.641 3.33.959 5.015h8.472c.028-.24.069-.443.073-.645.067-3.515.1-7.031.2-10.546.099-3.46.27-6.918.398-10.377.026-.707.004-1.415.004-2.271-.688.427-1.26.786-1.835 1.138-.956.585-.95.577-1.737-.25-1.276-1.343-2.561-2.675-3.841-4.012a4.224 4.224 0 01-.309-.362c-.224-.298-.157-.55.148-.733.446-.265.9-.515 1.437-.821-.659-.349-1.246-.365-1.846-.305-1.626.162-3.022.89-4.284 1.88a22.256 22.256 0 00-2.238 2.01c-1.569 1.619-3.196 3.164-4.982 4.535-.602.462-1.149.997-1.746 1.521.216.344.421.62.57.925.067.138.094.405.014.485-.198.198-.378.028-.51-.157-.619-.861-1.245-1.717-1.85-2.588-.801-1.155-1.584-2.322-2.374-3.485-.075-.109-.145-.22-.243-.368l-5.016 3.256c.024.17.015.256.048.318 1.785 3.228 3.461 6.522 5.573 9.551zm13.987 20.411c-.136 4.261-.202 8.524-.392 12.782-.155 3.485-.441 6.964-.683 10.444-.22 3.161-.423 6.324-.698 9.481-.363 4.163-.734 8.327-1.202 12.48-.468 4.152-1.092 20.616-1.577 24.767-.135 1.152-.02 2.335-.02 3.577h15.508c.021-.47.057-.942.059-1.415.022-5.115-.007-22.562.071-27.676.056-3.648.26-7.293.384-10.94.071-2.077.098-4.155.176-6.231.101-2.662.238-5.321.35-7.982.104-2.507.125-5.019-.443-7.474-.311-1.341-.789-2.649-1.269-3.942-.686-1.85-1.045-3.726-.846-5.71.112-1.111.123-2.232.18-3.349.007-.133.014-.266.026-.399.02-.219.045-.459.339-.432.298.027.268.279.259.49-.065 1.356-.105 2.714-.206 4.067a10.673 10.673 0 00.586 4.398c.265.753.513 1.511.808 2.251.818 2.057 1.147 4.212 1.174 6.405.025 2.077-.058 4.155-.123 6.232-.09 2.928-.198 5.857-.316 8.785-.102 2.555-.263 5.108-.334 7.664a469.423 469.423 0 00-.149 9.269c-.038 4.45-.046 21.231-.066 25.681-.001.131.011.262.017.403.632.4 1.311.39 1.978.263.281-.054.487-.047.739.084.196.102.446.139.671.136 3.365-.055 6.73-.098 10.093-.191 2.522-.069 5.043-.205 7.564-.317.753-.033.837-.162.764-.935-.248-2.624-1.424-26.447-1.761-29.569-.247-2.276-.496-4.552-.704-6.832-.394-4.32-.672-8.654-1.158-12.965-.544-4.812-1.244-9.607-1.921-14.403-.397-2.818-.873-5.625-1.327-8.435-.346-2.143-1.133-4.151-1.872-6.173-.118-.322-.247-.639-.371-.956-3.385 0-6.747.02-10.109-.006a672.21 672.21 0 01-11.36-.168c-.79-.019-1.172.29-1.504.973-.904 1.858-1.271 3.827-1.335 5.868zm12.398 84.786c-.05-.964-.078-1.857-.147-2.747-.173-2.227-.372-4.452-.546-6.679-.074-.958-.209-1.119-1.21-1.154a427.382 427.382 0 00-4.805-.128c-.625-.014-1.25-.002-2.02-.002l1.235 10.71h7.493zm-8.604 4.935c.091 1.033.159 2.07.311 3.094.126.852-.227 1.404-.921 1.754a62.636 62.636 0 01-3.073 1.441c-2.417 1.061-4.664 2.443-6.944 3.76a7.59 7.59 0 00-2.568 2.436c-.061.092-.112.187-.163.282 5.514.038 11.006-.044 16.484-.202a3.49 3.49 0 01.186-.498c.068-.139.253-.22.384-.326.088.119.221.228.255.362.036.141.058.287.074.434 1.423-.043 2.845-.09 4.267-.142.031-.325.062-.647.086-.968.101-1.301.175-2.603.276-3.904.046-.583.095-1.169.2-1.742.261-1.423-.073-2.808-.224-4.204-.063-.578-.201-1.148-.318-1.797-2.79.215-5.535-.118-8.316-.688 0 .336-.022.624.004.908zm-6.491 13.806c2.757-.085 5.517-.093 8.276-.133.312-.004.624-.001.962-.001.085-.236.157-.433.225-.629-1.451.051-2.903.098-4.355.126-3.901.075-7.802.095-11.703.14-.167.002-.335.007-.501.016a3.37 3.37 0 00-.137.827c.328 0 .633.014.937-.002 2.098-.115 4.196-.28 6.296-.344zm14.735-.937c-.331.006-.664.01-.995.021-1.064.035-2.127.074-3.191.113.008.253 0 .516 0 .851 1.387.193 2.708-.094 4.089-.011.032-.333.065-.656.097-.974zm6.019-.46c.142-.314.446-.31.582.007.084.196.157.397.226.6a565.06 565.06 0 0016.129.312c-.082-.329-.306-.528-.759-.759a19.957 19.957 0 00-1.437-.653c-2.429-1.01-4.87-1.99-7.287-3.029-.77-.33-1.496-.778-2.21-1.226-1.11-.695-1.543-1.71-1.448-3.049.116-1.612.102-3.234.148-4.977-3.059.666-6.093.936-9.219.087.026.343.032.573.062.8.165 1.239.341 2.477.499 3.717.033.262.025.534.003.798a2122.85 2122.85 0 01-.586 6.68c-.031.347-.087.693-.115 1.039 1.737.086 3.472.159 5.206.223.058-.195.122-.387.206-.57zm-.908 1.5c.31 0 .471-.152.558-.419-1.569-.052-3.139-.104-4.708-.152a19.536 19.536 0 00-.344-.007c.034.193.093.386.132.577 1.479 0 2.92-.001 4.362.001zm2.576.263c1.209.031 2.416.101 3.625.13 2.023.048 4.047.107 6.07.103 1.735-.003 3.468-.086 5.203-.138.127-.004.253-.037.371-.055.018-.148.029-.276.035-.395-.216-.006-.432-.012-.648-.014-3.027-.029-6.055-.022-9.08-.091a726.133 726.133 0 01-6.263-.179l.052.16c.105.311.29.469.635.479zm1.064-15.012l.373-2.813-7.666-.278c-.16.622-.106 1.914.13 3.133 1.544.653 5.674.542 7.163-.042zm-15.774-3.403c-.202.566-.183 2.245.07 2.612.151.22.417.461.659.496 2.261.322 4.528.614 6.812.215.099-.017.194-.059.355-.11l-.214-3.213h-7.682zm16.3-10.827c-2.206.027-4.411.071-6.616.075-.62.001-1.24-.122-1.86-.176-.175-.015-.353.013-.62.026.084 1.183.16 2.316.246 3.449.146 1.935.298 3.87.447 5.805.017.212.018.426.047.636.075.541.152.626.693.671.758.062 1.517.114 2.277.144 1.443.057 2.886.096 4.33.139.309.009.62.001 1.02.001.423-3.587.855-7.108 1.16-10.77-.451 0-.788-.004-1.124 0zm-18.298-83.104c-.798.006-.868.099-.774 1.021 7.156.08 14.318.28 21.546.197.031-.337.055-.52.064-.704.004-.102-.016-.205-.034-.39-.503-.042-.992-.1-1.483-.122-5.019-.221-10.039.027-15.059-.012-1.42-.01-2.84.001-4.26.01zm23.637-13.363c.021-.131.023-.269.066-.393.097-.284.297-.368.552-.207.154.098.278.243.421.361 1.366 1.125 2.695 2.301 4.114 3.353.795.589 1.718 1.02 2.624 1.43.825.372 1.657.197 2.405-.296a5.59 5.59 0 00.926-.74c1.444-1.471 4.38-5.758 5.289-7.706l-6.008-4.278c-.593.902-1.154 1.763-1.725 2.618-.307.46-.621.918-.959 1.355-.072.093-.261.092-.396.134-.035-.137-.124-.29-.091-.41.055-.2.183-.38.288-.565.343-.607.34-.803-.125-1.341-.381-.44-.782-.865-1.201-1.268-2.614-2.517-5.351-4.887-8.296-7.002-.842-.606-1.729-1.13-2.794-1.199-.351-.022-.706.029-1.06.046l-.051.16c.308.278.611.56.925.83.402.343.828.658 1.217 1.016.43.395.381.634-.141.876a35.7 35.7 0 00-6.171 3.68c-.298.22-.58.46-.866.695-.487.401-.587.418-1.068-.02-.548-.497-1.066-1.028-1.601-1.54-.356-.343-.72-.678-1.163-1.095-.555 8.116-.542 16.109-.729 24.201 4.37.079 8.675-.28 13.019.194.092-.246.184-.457.252-.675.651-2.114 1.065-4.283 1.43-6.462.321-1.914.613-3.834.917-5.752zm11.832-10.796l-1.129 1.773 5.972 4.26c.563-.498.735-1.152 1.114-1.705-1.984-1.44-3.915-2.844-5.957-4.328zm9.739-1.213c.621-.598 1.424-.915 2.277-1.006 1.227-.13 2.462-.193 3.69-.316.808-.082 1.611-.21 2.413-.34.187-.03.36-.153.717-.313-.368-.154-.563-.278-.773-.314-.465-.08-.938-.159-1.408-.162-2.601-.022-5.202-.044-7.803-.019-1.734.016-3.467.124-5.201.162-.93.021-1.665.263-2.11 1.205-.29.615-.758 1.144-1.198 1.786 1.988 1.455 3.836 2.946 5.953 4.265.383-.698.765-1.325 1.081-1.984.563-1.177 1.45-2.087 2.362-2.964zm4.283-3.085c.574 0 1.147-.019 1.719.005.758.032 1.52.06 2.27.165.37.052.76.217 1.063.44.363.266.649.253 1.057-.01-.967-.864-4.043-1.179-6.109-.6zm-6.627-3.606c-1.583 1-2.713 2.416-4.131 3.707.986.126 1.762.136 2.349-.676.462-.64 1.015-1.21 1.488-1.843.227-.303.438-.657.294-1.188zm-33.082 6.797c-.077.014-.151.04-.334.088.79.966 1.665 1.762 2.594 2.596 2.189-1.78 4.563-3.218 7.176-4.53l-2.456-2.092c-.907.663-1.843 1.253-2.672 1.972-1.258 1.094-2.705 1.687-4.308 1.966zm-5.266-2.249c-.303-.511-.755-.94-1.171-1.374-.302-.315-.671-.376-1.075-.14-.43.252-.876.474-1.403.755l4.366 4.67c.908-.362 1.965-1.06 2.353-1.529-.024-.04-.042-.11-.074-.117-1.347-.284-2.293-1.08-2.996-2.265zm-29.354-4.438c-.297-.493-1.871-1.354-2.97-1.593.744.968 1.984 1.615 2.97 1.593zm-9.69.13c1.586-.307 3.186-.315 4.794-.229.851.046 1.706.008 2.609.008-.451-.418-.894-.782-1.275-1.203-.151-.168-.272-.493-.216-.692.091-.329.453-.34.74-.277.356.078.73.16 1.043.34 1.462.834 2.923 1.675 4.348 2.574.499.315.905.765 1.241 1.304.531.85 1.194 1.616 1.807 2.426l.685-.144 5.111 7.319c.173-.115.288-.174.383-.256 2.381-2.055 4.84-4.019 6.984-6.347a11.984 11.984 0 013.684-2.711c1.307-.622 2.671-1.012 4.124-.66 1.514.365 2.781 1.117 3.539 2.567.507.971 1.25 1.683 2.328 1.869 2.183.375 4.175-.177 5.961-1.479.808-.589 1.574-1.236 2.371-1.841 1.07-.813 2.272-1.111 3.574-.786.58.145 1.152.38 1.677.67.597.328 1.156.74 1.7 1.156 3.213 2.461 6.329 5.035 9.04 8.075.05.056.131.084.264.166.155-.202.326-.394.464-.608.859-1.34 1.675-2.711 2.576-4.021.942-1.369 1.717-2.86 3.022-3.965 1.309-1.11 2.525-2.333 3.791-3.496a2.69 2.69 0 01.711-.496c.631-.278 1.071.046.965.732a3.033 3.033 0 01-.392 1.115c-.32.515-.724.976-1.101 1.454-.205.259-.425.505-.71.842.463 0 .778.03 1.085-.006a312.79 312.79 0 004.846-.591c2.195-.289 4.394-.552 6.6-.216.661.1 1.323.342 1.929.637.609.296.589.94.015 1.326-.168.113-.383.16-.58.223-.149.047-.333.03-.451.115-1.026.734-2.223.749-3.397.852-1.256.111-2.516.188-3.772.311-.748.074-1.447.358-2 .866-.878.806-1.656 1.704-2.242 2.767a251.23 251.23 0 01-2.906 5.128c-1.444 2.48-2.98 4.903-4.869 7.067a8.24 8.24 0 01-1.607 1.393c-.801.54-1.714.689-2.641.344-.613-.23-1.227-.482-1.794-.808-1.633-.938-3.043-2.184-4.463-3.413-.233-.202-.472-.398-.701-.59-.094.088-.158.118-.166.16-.082.443-.166.886-.23 1.333-.568 3.954-1.207 7.893-2.447 11.704-.067.205-.044.476.028.685.217.625.484 1.232.721 1.85 1.021 2.663 1.817 5.386 2.208 8.225.338 2.452.744 4.894 1.082 7.346.624 4.535 1.299 9.065 1.806 13.614.486 4.364.771 8.752 1.172 13.126.209 2.28.472 4.555.724 6.831.228 2.063 1.594 27.957 1.747 29.654.056.626-.108.881-.694 1.063-.173.054-.36.074-.542.081-1.76.068-3.521.124-5.281.197-1.288.053-2.574.124-3.861.194-.178.01-.355.061-.522.091l-1.637 14.053c.1.015.176.043.25.036.774-.07.982.151.893.937-.042.37-.081.741-.094 1.113-.047 1.331-.078 2.662-.123 3.993-.026.785.276 1.41.905 1.845.52.359 1.048.73 1.622.981 2.579 1.129 5.177 2.216 7.766 3.321.654.279 1.315.542 1.948.863.874.443 1.006 1.154.983 2.014-.014.468-.357.747-.831.76-1.708.051-3.417.144-5.125.132-3.208-.022-6.415-.111-9.622-.163-.77-.012-1.405-.193-1.602-1.071-.006-.029-.076-.044-.172-.096-.149.829-.752.874-1.418.869-2.86-.02-5.72-.021-8.58-.03-.454-.001-.873-.094-1.069-.452-.317.084-.558.185-.807.206-.365.031-.735.01-1.103.001-4.212-.093-8.414.078-12.613.402-1.065.082-2.14.012-3.282.012a4.234 4.234 0 01.662-2.471c.691-1.101 1.622-1.959 2.721-2.621a74.705 74.705 0 013.159-1.803 129.114 129.114 0 013.863-1.988c.945-.467 1.923-.863 2.864-1.336.842-.423.895-.635.792-1.594-.137-1.27-.231-2.544-.342-3.817-.01-.106-.021-.214-.01-.318.031-.282.169-.437.473-.386.245.042.491.074.733.109-.025-4.754-.726-9.351-1.313-14.092-.333 0-.593-.004-.852.001-2.025.035-4.05.074-6.075.106a8.459 8.459 0 01-1.103-.034c-.447-.052-.51-.19-.446-.641.081-.577.15-1.155.195-1.736.052-.663.029-1.335.113-1.993.477-3.751.994-19.828 1.459-23.58.322-2.589.62-5.182.863-7.779.221-2.36.345-4.729.528-7.092.281-3.637.636-7.27.85-10.912.276-4.706.448-9.419.657-14.13.12-2.687.201-5.377.347-8.063.098-1.789.712-3.442 1.614-4.962.386-.651.496-1.255.298-1.96a24.186 24.186 0 01-.381-1.547c-.433-2.056-.778-4.135-1.305-6.166-.495-1.906-1.029-3.798-1.341-5.747-.047-.297-.138-.587-.235-.988-.436.35-.769.603-1.086.875-1.466 1.257-2.924 2.521-4.389 3.778-.837.719-1.785 1.232-2.869 1.428-.347.062-.767.08-1.072-.061-1.008-.464-1.995-1.018-2.628-1.974-1.144-1.724-2.279-3.458-3.328-5.241-1.305-2.22-2.521-4.491-3.77-6.743-.281-.505-.544-1.021-.805-1.516l.403-.437c-.429-.766-.808-1.53-1.266-2.242-.94-1.459-2.236-2.382-3.999-2.508-.681-.05-1.367-.107-2.048-.081-1.345.051-2.576-.426-3.839-.765a.873.873 0 01-.277-.15c-.487-.355-.475-.865.062-1.124.375-.182.786-.31 1.195-.39z" fill="#263238"/><path fill-rule="evenodd" clip-rule="evenodd" d="M284.175 83.24c-.018.12-.145.221-.262.379-.128-.139-.288-.28-.273-.3.087-.133.214-.238.329-.352.074.092.218.195.206.274zM283.859 94.53c-.117-.187-.255-.31-.242-.413.014-.103.177-.187.275-.279.092.107.243.207.257.324.011.09-.15.202-.29.368zM283.607 91.525c-.003-.081.176-.254.226-.238.123.04.292.159.303.26.011.1-.151.22-.294.405-.114-.192-.229-.308-.235-.427zM284.137 96.8c.007.09-.119.188-.188.282l-.38-.286c.156-.112.255-.237.34-.228.089.009.222.144.228.232zM283.716 86.015c.176-.09.3-.206.374-.179.112.041.188.18.28.278-.089.069-.196.207-.264.19-.122-.03-.22-.155-.39-.29zM283.852 77.945c.031-.097.125-.172.193-.256.07.064.182.12.198.195.014.065-.081.154-.156.28-.111-.1-.247-.184-.235-.22zM283.948 80.068c.075.026.122.132.182.203-.072.056-.142.153-.217.158-.088.006-.181-.07-.415-.171.299-.133.391-.21.45-.19zM283.771 88.751c.068.022.152.14.146.208-.006.065-.114.159-.187.17-.088.012-.187-.05-.4-.117.298-.183.387-.278.441-.261zM315.085 81.223c-.073.082-.141.223-.22.23-.093.008-.196-.1-.359-.195.142-.117.232-.246.314-.242.092.006.177.133.265.207zM252.052 76.908c.016-.097.142-.238.229-.245.09-.007.19.124.285.195l-.297.403c-.108-.166-.23-.27-.217-.353zM292.415 63.454c.382.572-.076.756.204 1.573.057.165.148.295.261.405a3.865 3.865 0 01.009-.393c.025-.464.056-1.041-.255-1.617-.188-.348-.565-.547-1.116-.606.349.1.665.29.897.638zm3.226 3.356c.358.401.545.874.556 1.337.054-.451.031-1.083-.365-1.595-.471-.607-1.351-.625-2.002-.634.624.198 1.339.362 1.811.892zm.133 3.06c.485-.278.358-.888.31-1.061a1.87 1.87 0 01-.738.907c-.219.144-.45.268-.676.402-.173.104-.261.226-.288.397.181-.133.447-.24.724-.347.233-.09.473-.184.668-.297zm-16.862-12.572c.243-1.035.961-1.734 2.022-1.627.574.06 1.311-.068 1.875-.115 1.656-.14 2.872.694 3.995 1.886.462.49.749 1.053.865 1.73.102.594.168 1.12.15 1.659.149-.026.224-.03.292-.053.955-.316 1.683.222 1.646 1.228a1.959 1.959 0 01-.261.935l.116-.025c.224-.051.435-.091.637-.123.219-.048.442-.079.679-.07.914-.044 1.515.172 1.778.66.322.596.289 1.211.265 1.66-.01.188-.018.349-.001.473.167.134.376.23.604.315l.235.004c.67.01 1.588.022 2.088.667.683.882.303 2.103.255 2.245.035.112.243.86-.337 1.195-.2.116-.444.21-.679.302-.306.12-.597.235-.761.382-.001.045-.003.09.004.142.11.891-.383 1.51-1.273 1.659a4.828 4.828 0 01-.862.042c-.734-.01-1.467-.054-2.2-.05a1.355 1.355 0 01-.628-.136c-.006.143-.017.288-.017.437-.517-.018-.497-.339-.555-.61-.548-2.543-.968-5.106-1.198-7.698-.073-.81-.063-.835.716-1.239.599-.31.947-.977.733-1.486-.072-.174-.251-.389-.41-.416-.142-.025-.339.166-.483.294-.081.074-.426.436-.618.585-.073.194-.153.353-.261.697-.224-.344-2.027-3.671-3.866-4.815-.619-.384-1.06-.791-1.667-1.226-.424.384-.429.634-1.172 1.58-.318.377-.742.692-1.141 1.072.01.206.024.412.043.617.198 2.147.479 4.283 1.449 6.254.446.908.914 1.11 1.908.804.732-.226 1.429-.524 2.02-1.033.169-.145.381-.39.593-.109.194.257-.054.443-.237.579-.316.232-.639.465-.987.641-.872.442-1.781.763-2.776.58-.091.265-.167.46-.225.66-.348 1.211-.684 2.426-1.041 3.634-.089.3-.068.695-.692.85.048-.359.052-.612.117-.849.362-1.316.745-2.626 1.103-3.943.078-.287.245-.567.036-.899-.827-1.31-1.221-2.778-1.503-4.284a26.169 26.169 0 01-.386-2.846l-.002.003c-.139-.96-.168-2.036.015-2.82z" fill="#263238"/><path fill-rule="evenodd" clip-rule="evenodd" d="M281.866 60.105l-.503 1.988.733.073-.23-2.061z" fill="#263238"/><path fill-rule="evenodd" clip-rule="evenodd" d="M281.863 60.124l.228 2.038-.724-.072.496-1.966zm.232 2.046l.003-.001.001-.003-.231-2.061c0-.002-.001-.003-.003-.003s-.003 0-.004.002l-.502 1.988.001.003.002.001.733.074zM282.317 58.537s-.054.607.076.74c.515-.123 1.941-.08 2.722.522-.23-.864-2.798-1.262-2.798-1.262z" fill="#263238"/><path fill-rule="evenodd" clip-rule="evenodd" d="M282.319 58.541c.053.008.672.11 1.309.306.389.12.709.252.95.393.297.172.475.357.53.55-.764-.582-2.17-.646-2.714-.517-.121-.127-.079-.68-.075-.732zm2.795 1.261h.002c.002-.001.002-.003.002-.004-.053-.198-.233-.388-.536-.564a4.706 4.706 0 00-.952-.394 10.49 10.49 0 00-1.316-.306l-.002.003c-.002.025-.052.61.078.742.001.001.002.002.003.001.544-.13 1.958-.065 2.719.521l.002.001zM281.43 58.535s.129.586.021.718c-.58-.171-1.49-.041-2.094.256.186-.862 2.073-.974 2.073-.974z" fill="#263238"/><path fill-rule="evenodd" clip-rule="evenodd" d="M280.845 59.173c-.138 0-.284.01-.433.029a3.462 3.462 0 00-1.05.3c.044-.192.178-.363.399-.506.179-.117.416-.215.703-.294.468-.128.922-.16.963-.163.01.045.121.582.022.71a2.18 2.18 0 00-.604-.076zm-1.488.34h.001a3.459 3.459 0 011.055-.304c.393-.05.761-.034 1.037.048.001 0 .003 0 .003-.002.045-.055.056-.193.031-.41-.018-.162-.051-.309-.051-.31 0-.002-.002-.003-.003-.003h-.001c-.004 0-.477.03-.967.163a2.55 2.55 0 00-.705.295c-.225.146-.361.32-.403.518-.001.002 0 .003.001.003l.002.001zM282.289 63.037a.945.945 0 00.314-.053c.423-.15.606-.561.614-.578a.07.07 0 00-.128-.056c-.001.003-.168.374-.534.503-.244.085-.523.047-.83-.113a.07.07 0 00-.065.124c.222.115.432.173.629.173zM283.507 61.068c.18.01.36-.022.527-.077a.705.705 0 01-.193.027c-.346 0-.628-.247-.628-.551 0-.122.095-.269.185-.37-.444.041-.834.272-.977.367.129.153.529.57 1.086.604zm.946-.752a.88.88 0 01.017.15c0 .219-.146.408-.356.497.324-.121.591-.314.706-.404a1.977 1.977 0 00-.367-.243zm-2.175.077c.023-.017.58-.434 1.235-.442a2.106 2.106 0 011.464.562c.013.014.02.032.019.052a.07.07 0 01-.023.049c-.029.025-.682.595-1.394.595-.027 0-.054 0-.081-.002-.746-.046-1.215-.69-1.235-.717a.07.07 0 01.015-.097zM280.441 60.927c.16.011.32-.028.466-.089a.385.385 0 01-.076.008.506.506 0 01-.385-.832 1.773 1.773 0 00-.095-.003c-.352 0-.674.248-.787.346.1.139.426.538.877.57zm1.054-.473a1.753 1.753 0 00-.162-.123.64.64 0 01-.212.4c.169-.1.304-.214.374-.277zm-2.072-.158c.018-.017.434-.425.928-.425.764 0 1.275.511 1.296.532a.069.069 0 010 .098 2.386 2.386 0 01-.371.298c-.275.179-.536.27-.777.27-.023 0-.045 0-.067-.003-.618-.044-1.003-.658-1.019-.684a.07.07 0 01.01-.086z" fill="#263238"/><path fill-rule="evenodd" clip-rule="evenodd" d="M139.022 114.761c5.718-1.82 9.344-2.753 10.88-2.799 2.303-.069 7.736.553 14.598 1.151 4.575.399 7.816-.008 9.723-1.22l14.57 36.468c.722 1.553 1.082 2.574 1.082 3.062s.561 11.01 1.683 31.565h1.811v4.836h-7.959c-.974 0-3.939.459-8.895 1.378l-.311-4.508 1.249-.539-4.203-31.827-4.463-8.977-8.98-16.642h-3.951l-.775 3.198-1.298 56.512 2.025.61.541 6.838-12.574.899-10.258-.085v-5.479h1.471l4.034-74.441z" fill="#fff"/><path fill-rule="evenodd" clip-rule="evenodd" d="M149.759 73.085s-11.755 3.202-14.444 5.262c-3.297 2.525-9.268 4.951-9.268 4.951l-4.698 3.2s4.091 7.05 6.881 12.296c2.525-2.628 10.914-5.192 11.313-5.262 1.069-.187-.208 20.126-.208 20.126-.104 1.301 4.083-3.338 13.913-2.268 6.35.691 22.352-1.264 22.352-1.264s-.731-2.007-1.98-7.91c-.018-.085-19.106 3.728-25.768-2.975-.204-.206.049-2.397-.231-2.503-.302-.114 4.519 1.821 4.21 1.7-3.794-1.486-5.21-3.318-5.413-4.911-.027-.211 6.188 3.24 6.061 3.07-.282-.378-5.274-4.062-4.951-5.148.338-1.133 8.017 4.564 8.652 3.317.279-.55-3.108-1.463-3.451-1.913-1.071-1.41 3.451.166 5.911.785 1.857.467 14.713-1.869 15.367-2.794 4.84.304 11.14-4.617 11.14-4.617l-15.532-16.27s-9.083.619-10.008 2.508c.717 2.127.676 7.891-2.965 7.98-3.641.09-6.883-7.36-6.883-7.36z" fill="#4C9BDC"/><path fill-rule="evenodd" clip-rule="evenodd" d="M175.939 193.977s3.14 6.375 2.88 7.784a1502.56 1502.56 0 01-1.557 7.981h30.665s1.296-6.731-2.132-8.328c-3.428-1.596-13.114-2.962-12.943-3.807.172-.845.69-5.504.69-5.504l-17.603 1.874zM135.952 211.739s1.455-6.877 1.783-9.756c.251-2.208-1.917-3.994-1.917-3.994l4.236.227 10.369-.788s-.454 5.829 1.419 6.58c1.874.752 2.626 1.998 3.693 3.151 1.33 1.438 1.33 4.453 1.33 4.453l-20.913.127z" fill="#70E9FF"/><path fill-rule="evenodd" clip-rule="evenodd" d="M137.215 212.642c-.3-.195-.532-.157-.835-.056.272.448.509.319.835.056zm.563-.127c.737.69 1.22.648 1.732 0h-1.732zm7.559-12.609l-.002.196 1.558.219-.098-.692-1.458.277zm1.886 1.983l-.245-.882c-.82-.149-1.583-.219-2.303-.437-.988-.3-1.836-.009-2.677.39v1.969l5.225-1.04zm-.297-2.953c-.312-.52-.458-1.065-.804-1.284-1.442-.916-2.977-.839-4.507-.187-.409.174-.492.54-.402.935.097.426.1.944.673 1.052.898.169 1.779.336 2.701.01.707-.25 1.468-.338 2.339-.526zm4.206 4.022c-.24-.936-.559-1.791-.659-2.673-.101-.901.013-1.828.033-2.731-.881.162-1.73.308-2.575.476-.434.086-.448.145-.311.764.333-.033.67-.094 1.006-.09.152.002.303.133.455.205-.086.152-.139.351-.266.442-.124.088-.322.074-.49.087-.271.02-.542.025-.862.038l.08.882c.379.093.699.251.919-.2.025-.051.27.009.484.023l-.437.881c-.158.009-.287.014-.416.025-.122.009-.244.025-.371.039.22 1.061.221 1.057 1.164 1.243.308.06.611.15.915.231.446.118.891.24 1.331.358zM173.91 90.967l.053.123c.636-.1 1.27-.245 1.91-.292.704-.051 1.313-.308 1.921-.644a439.381 439.381 0 015.632-3.048c.319-.17.688-.24 1.017-.395.39-.183.858-.239 1.183-.696-.179-.236-.323-.497-.534-.674-.131-.11-.392-.171-.548-.116-.59.206-1.171.446-1.737.714-2.954 1.396-5.845 2.913-8.577 4.729-.119.08-.214.198-.32.299zm-36.362 104.668c0 .528.001 1.029-.001 1.529-.001.41.21.558.596.558.578 0 1.156.019 1.732.057.418.026.761-.011.993-.451.101-.19.346-.339.557-.423 1.773-.705 3.514-.851 5.163.364.163.12.373.278.547.261.853-.086 1.71-.184 2.566-.469v-2.021l-12.153.595zm-1.08 2.585c.272 1.005.512 1.933.778 2.853.376 1.304.511 2.616.204 3.956-.028.123-.004.258-.004.406.105-.012.192.002.251-.032 1.076-.61 2.151-1.222 3.219-1.845.125-.073.275-.198.304-.325.148-.645.247-1.3.031-2.059-.296.113-.548.245-.815.296-.139.027-.304-.088-.458-.139.086-.14.14-.333.264-.408.283-.173.6-.287.875-.412.027-.418-.116-.624-.482-.634-.129-.004-.265.012-.385-.024-.131-.039-.247-.129-.369-.196.094-.113.167-.26.286-.33.167-.1.367-.143.59-.224-.189-.328-.176-.742-.653-.756-1.174-.036-2.349-.081-3.636-.127zm2.573-77.891c3.273-.461 6.176-4.079 5.715-7.431-.28.085-.556.157-.824.25-1.291.449-2.571.935-3.874 1.341-.489.153-.693.423-.726.894-.05.721-.099 1.442-.141 2.163-.053.925-.1 1.851-.15 2.783zm37.087-1.831l-2.148-6.804-5.315 1.315c.955 2.978 4.832 5.839 7.463 5.489zm31.152 92.905c-9.82-.217-19.446.191-29.065-.221-.261-.011-.524.013-.786.023-.024.001-.049.02-.068.038-.018.016-.029.04-.051.073 0 .067-.011.147.003.223.015.077.05.152.087.222.38.731.727.807 1.353.305.16-.128.331-.242.486-.354.14.071.243.105.324.169.879.698 1.78.887 2.735.151.238-.184.488-.142.743-.019.285.136.573.27.869.377.633.228 1.228.181 1.793-.236.548-.405.56-.388 1.142.05.834.626 1.593.68 2.477.1.343-.225.615-.23.937-.017.697.461 1.371.351 1.947-.197.451-.43.82-.399 1.319-.076.818.529 1.741.72 2.616.203.584-.343 1.032-.304 1.594.006 1.206.664 2.458.761 3.683.038.439-.259.755-.21 1.115.144.561.551 1.249.674 1.974.392.414-.162.8-.203 1.222-.048.381.14.752.061.99-.28.204-.292.338-.634.561-1.066zM131.854 97.457c-2.185-4.646-3.623-9.557-6.72-13.683l-3.331 2.917c2.778 3.902 4.74 8.17 7.039 12.329l3.012-1.563zm44.771 91.994c.493-.084.851-.143 1.207-.206 1.913-.335 3.814-.759 5.739-.988 2.786-.332 5.584-.606 8.4-.526.272.008.546-.063.85-.102l-.155-4.517c-.705.063-1.33.105-1.953.177-1.98.228-3.96.46-5.939.704-2.603.321-5.204.659-7.808.975-.393.047-.567.239-.557.62.019.775.038 1.549.077 2.323.023.474.083.945.139 1.54zm-43.589-92.28v.43l-4.176 2.094c.983 1.108 1.943 2.202 2.916 3.283.977 1.085 1.907 2.224 2.968 3.217 1.046.978 1.949 2.074 2.775 3.178.159-1.268.21-2.508.484-3.694.823-3.573 1.01-7.196.996-10.843 0-.12-.034-.238-.067-.442l-5.896 2.777zm.532 92.658c-.191 1.584-.315 3.17-.241 4.835.277.059.525.142.777.16.864.063 1.731.171 2.593.139 3.988-.146 7.977-.293 11.961-.523 1.857-.106 3.705-.391 5.555-.616.481-.059.952-.195 1.42-.293l-.548-6.216c-.377-.024-.686-.067-.992-.058-1.024.031-2.046.094-3.07.122-2.636.07-5.227.413-7.756 1.216-2.16.685-4.363 1.181-6.638 1.231-.969.021-1.939.003-3.061.003zm23.693 21.931a4.284 4.284 0 00-.307-3.088 10.124 10.124 0 00-3.145-3.745c-1.305-.945-2.803-1.42-4.339-1.827a10.72 10.72 0 00-5.063-.122c-2.245.478-4.259 1.495-6.166 2.753a3.019 3.019 0 00-1.208 1.548 33.814 33.814 0 00-.859 2.915c-.128.524-.119 1.084-.183 1.751 7.066-.259 14.022-.421 20.977-.128.075.003.15-.028.293-.057zm-22.519-88.372c.34.198.62.396.927.525.141.059.383.047.501-.042.905-.683 1.665-1.461 1.77-2.709.166-1.974.346-3.947.57-5.915.202-1.779-.141-3.387-1.126-4.887a22.501 22.501 0 00-2.454-3.132c-1.33-1.409-2.614-2.863-3.938-4.279a174.732 174.732 0 00-3.149-3.259c-.24-.243-.56-.404-.801-.647-.095-.097-.076-.313-.108-.474.142-.001.305-.048.422.007.219.102.412.263.708.46-.554-1.75-5.12-9.899-5.93-10.627-.17.112-.349.222-.521.343-2.025 1.423-3.729 3.215-5.449 4.984a13.414 13.414 0 00-1.313 1.599c-1.237 1.75-1.446 3.653-.623 5.631 1.145 2.748 3.056 4.821 5.69 6.094 3.012 1.455 6.082 2.788 9.144 4.132 2.17.953 4.371 1.833 6.554 2.756.214.09.408.239.596.382.358.273.743.528.437 1.102-.072.135.039.363.046.55.045 1.255.089 2.511.124 3.767.015.528-.238.897-.662 1.197-.906.642-1.791 1.315-2.682 1.977-.178.132-.428.231-.278.618.223-.129.427-.23.613-.357 1.046-.718 2.084-1.448 3.137-2.155.125-.084.324-.054.488-.077-.023.161 0 .35-.077.477-.261.432-.556.843-.838 1.262-.212.314-.486.516-.867.359-.354-.147-.605-.033-.911.338zm56.757 78.396c.056-.374.053-.633.134-.86.826-2.312.822-4.668.386-7.05-.12-.656-.241-.745-.905-.688-.131.011-.26.045-.39.059-2.352.25-4.701.527-7.056.737-1.754.156-3.516.219-5.273.334-.272.018-.54.096-.844.152.068.387.111.677.169.963a34.7 34.7 0 01.683 5.249 32.384 32.384 0 01-.815 8.931c-.068.295-.083.603-.132.979 9.873.409 19.644.007 29.424.198.181-.673.36-1.231.48-1.802.537-2.56-.376-4.678-2.576-6-1.952-1.173-4.138-1.671-6.293-2.256-.042-.011-.097.027-.17.05-.332.563-.258 1.331-.821 1.935-.571-.835.299-1.5.099-2.285l-1.696-.481c-.051.217-.082.344-.109.472-.081.393-.135.794-.253 1.174-.041.132-.239.214-.364.318-.07-.151-.189-.3-.196-.455-.008-.178.097-.359.128-.542.062-.362.106-.727.16-1.11l-2.466-1.143c-.144.609-.23 1.165-.41 1.687-.165.482-.103 1.127-.894 1.434zm-8.868-111.468c-.426.291-.452.27-1.396.391-2.578.333-5.174.578-7.725 1.065-4.23.808-8.444 1.72-12.635 2.717-1.292.308-2.376.207-3.543-.368-1.106-.545-2.297-.909-3.454-1.343-.248-.093-.513-.19-.87-.004 1.293 1.12 3.021 1.297 4.219 2.512-.319.392-.718.521-1.122.584-1.216.189-2.391-.047-3.406-.713-1.367-.897-2.657-1.917-3.981-2.883-.2-.147-.408-.284-.708-.493-.009.532.247.768.463 1.017a17.69 17.69 0 003.979 3.385c.359.226.55.467.374.94-.44.099-.817-.046-1.182-.278-1.314-.834-2.629-1.67-3.95-2.495-.3-.188-.624-.337-.938-.503l-.119.147c.149.2.271.43.451.594.586.534 1.172 1.074 1.799 1.558.9.695 1.838 1.339 2.755 2.013.206.151.388.337.575.502-.398.569-.43.594-.967.307-.999-.535-1.983-1.099-2.976-1.645-.159-.088-.333-.147-.5-.22.502.723 1.16 1.2 1.848 1.642.688.444 1.371.895 2.051 1.352.209.14.398.353.21.59-.099.123-.36.139-.551.151-.12.007-.249-.075-.368-.128-.771-.342-1.538-.688-2.308-1.029-.172-.075-.351-.133-.639-.24.538.685 1.071 1.131 1.998 1.461 1.337.476 2.685.94 4.06 1.273 1.741.422 3.527.549 5.322.502 3.153-.084 6.307-.104 9.458-.237 3.229-.136 6.451-.401 9.679-.563 2.126-.108 4.255-.14 6.384-.196a6.177 6.177 0 003.338-1.061c.523-.35.88-.821 1.121-1.41.473-1.156.523-2.312.22-3.531-.586-2.356-1.713-4.427-3.128-6.342-.53-.717-1.201-1.326-1.824-2-1.799.993-3.672 1.627-5.43 2.908.324 0 .467.011.608-.002.732-.067 1.465-.13 2.195-.216.28-.033.525-.065.613.29zm.999-5.485c-.272-.34-.454-.594-.662-.823-1.646-1.807-3.295-3.61-4.947-5.411-1.65-1.801-3.268-3.635-4.972-5.382-.694-.712-1.541-1.29-2.381-1.829-1.058-.68-2.256-.922-3.486-.638-2.098.484-4.183 1.03-6.271 1.557-.274.069-.536.184-.827.286.016.294.028.56.046.824.083 1.234.097 2.464-.18 3.679-.225.982-.6 1.88-1.36 2.574-.45.41-.953.62-1.566.645-1.383.057-2.412-.628-3.32-1.576-1.397-1.46-2.364-3.203-3.176-5.047-.08-.184-.185-.357-.276-.532-4.262 1.273-8.474 2.484-12.464 4.394-3.979 1.903-7.742 4.174-11.43 6.455-.01.179-.036.246-.014.283 2.305 3.736 3.826 7.854 5.585 11.856.096.217.215.424.347.68l6.312-2.963c.072-.034.146-.062.221-.087.52-.172.721-.034.765.538.014.186.006.375.002.563-.027 1.15-.068 2.302-.081 3.453a29.704 29.704 0 01-.494 5.11c-.269 1.446-.572 2.892-.72 4.353-.1 1-.154 2.084.124 3.021.301 1.016.759 1.98.772 3.072.13.007.213.033.283.011 1.227-.379 2.451-.765 3.678-1.146 1.051-.326 2.093-.688 3.157-.959a24.834 24.834 0 015.058-.771c2.194-.097 4.347.206 6.505.566 2.125.355 4.259.693 6.403.864 3.459.276 6.797-.414 10.034-1.647l1.175-.447c-.032-.274-.043-.486-.084-.692-.136-.681-.256-1.368-.431-2.04-.35-1.343-.678-2.697-1.119-4.011-.35-1.045-.316-.873-1.232-.836-.342.014-.684.019-1.024.052a93.89 93.89 0 01-10.004.446c-.315-.003-.631.012-.945.03-1.631.09-3.258.062-4.868-.238a41.196 41.196 0 01-2.775-.606c-.915-.237-1.843-.467-2.71-.834-.817-.345-1.572-.848-2.334-1.318a1.636 1.636 0 01-.589-.629 1.058 1.058 0 01-.043-.745c.098-.286.393-.31.675-.239.13.033.265.043.544.084-.351-.314-.598-.51-.816-.736-.333-.342-.677-.68-.951-1.068-.11-.155-.122-.468-.046-.652.1-.244.367-.267.617-.161.185.078.374.146.561.218-.143-.327-.385-.512-.585-.736-.422-.472-.841-.95-1.224-1.455-.189-.248-.181-.564.033-.82.221-.263.52-.235.801-.135.222.079.424.211.639.313.176.083.357.155.536.232-.05-.205-.16-.319-.246-.449-.249-.374-.514-.741-.723-1.138-.165-.313-.084-.63.188-.87.261-.231.549-.31.869-.12.204.121.414.235.607.373.884.629 1.745 1.292 2.648 1.89.746.493 1.516.962 2.32 1.344.524.248 1.127.367 1.86.103-.29-.154-.462-.251-.639-.338-.544-.268-1.103-.507-1.629-.807a2.542 2.542 0 01-.77-.669 1.037 1.037 0 01-.161-.73c.058-.3.376-.364.644-.328.491.068.998.116 1.459.285 1.137.414 2.257.878 3.373 1.349.902.38 1.8.472 2.767.248 3.328-.77 6.666-1.5 10-2.247.449-.1.896-.206 1.379-.318-.077-.33-.124-.564-.186-.794-.39-1.448-.829-2.878-1.572-4.19-.147-.257-.299-.529.181-.746 1.24 1.538 1.497 3.514 2.196 5.373 3.45-2.51 7.184-4.287 10.969-6.171zm-28.715 41.971c-.414-.09-.695-.153-.976-.212-1.259-.267-2.521-.524-3.775-.81-.132-.03-.228-.227-.341-.348.134-.095.259-.249.403-.27.17-.026.356.068.536.103 1.598.309 3.187.685 4.797.9.979.131 1.99.022 2.986.003 1.15-.023 2.011.394 2.565 1.488 1.181 2.331 2.452 4.615 3.613 6.955 1.446 2.915 2.781 5.887 4.237 8.797 1.062 2.122 2.248 4.179 3.369 6.27a10.524 10.524 0 011.189 3.8c.473 4.067.963 8.132 1.476 12.194.659 5.202 1.344 10.4 2.026 15.599.127.973.294 1.94.445 2.925l14.049-1.59-.041-.643c-.13-1.951-.273-3.902-.385-5.854-.139-2.407-.238-4.816-.381-7.223-.174-2.941-.385-5.879-.561-8.82-.13-2.166-.243-4.333-.34-6.5-.078-1.727-.371-3.4-1.007-5.01-1.137-2.881-2.228-5.781-3.394-8.65a868.924 868.924 0 00-5.544-13.394c-.973-2.283-2.089-4.502-3.14-6.75l-.27-.581c-1.996.183-3.604-.778-5.165-1.76-1.611-1.014-2.59-2.613-3.321-4.315-.158-.017-.237-.037-.314-.032-3.118.213-6.192-.168-9.248-.751-2.877-.548-5.761-.946-8.695-.529-1.402.199-2.799.423-4.138.857-.247 5.082-2.923 7.385-6.739 8.582-.016.138-.042.294-.052.45-.192 3.074-.39 6.147-.572 9.221-.138 2.326-.248 4.653-.385 6.979-.299 5.079-.608 10.158-.91 15.237-.265 4.464-.526 8.929-.788 13.393-.264 4.491-.525 8.983-.791 13.474-.137 2.299-.295 4.597-.42 6.897-.04.74-.006 1.484-.006 2.279.159.015.336.038.514.046 1.826.076 3.622-.155 5.392-.585a73.996 73.996 0 003.423-.937c2.397-.704 4.858-.864 7.331-.937.674-.02 1.346-.074 2.074-.116l1.274-59.832zm.442 85.735c.331.152.651.351.998.441.34.089.647-.026.755-.561l-1.771.14c-.242-.071-.481-.186-.726-.203a23.307 23.307 0 00-1.733-.039c-4.099.032-8.197.069-12.295.109-.161.002-.321.055-.632.111.421.312.688.579 1.008.733.643.309 1.104-.344 1.62-.428.3.232.538.561.791.572.247.011.513-.294.763-.472.218-.154.445-.217.639-.004.567.626 1.181.481 1.78.103.43-.273.78-.261 1.233-.01.59.327 1.214.284 1.753-.212.131-.121.297-.203.471-.319.915.741 1.846.652 2.8.116.139-.077.386-.11.507-.036.696.431 1.362.245 2.039-.041zm36.798-30.078c1.251.03 1.202.028 1.171 1.32-.029 1.176.064 2.354.099 3.532.008.265.001.53.001.901l-2.635.158c-.018.2-.042.403-.053.606-.053.936-.101 1.872-.154 2.808-.012.212-.007.475-.312.445-.274-.028-.288-.268-.274-.493.048-.776.103-1.551.143-2.326.017-.317.003-.635.003-.936-1.406-.374-10.259.684-12.306 1.462-.15 1.209.029 2.428.119 3.753.269 0 .521.017.77-.003 3.407-.27 6.813-.538 10.218-.826.811-.068 1.614-.224 2.424-.307.922-.095.989-.039 1.154.863.27 1.477.427 2.964.348 4.561l2.153 1.11c0-.304-.028-.484.01-.648.024-.105.139-.253.226-.263.096-.011.29.105.299.182.143 1.232 1.15 1.192 1.976 1.418.024.007.053-.002.194-.012l-.216-1.513c.618.075.618.075.906 1.781.355.119.745.259 1.141.381.93.285 1.884.503 2.788.856 1.026.401 2.033.869 3.002 1.396 2.451 1.334 2.99 4.098 2.668 6.12-.067.421-.238.826-.293 1.247-.067.517-.128 1.052-.073 1.566.103.974-.794 1.973-1.741 1.779a2.89 2.89 0 00-1.455.057c-.718.21-1.406.057-2.029-.371-.151-.104-.299-.211-.477-.338-.779.414-1.605.74-2.484.584-.843-.15-1.662-.438-2.65-.709-1.212.804-2.578.563-3.9-.233-.278.194-.505.379-.755.52-.618.348-1.259.338-1.897.058-.246-.107-.449-.196-.732-.03-1.018.596-2.013.46-2.967-.187-.087-.059-.181-.107-.321-.189-1.003.801-2.069.684-3.162.149-.164-.08-.439-.105-.584-.018-1.056.632-2.063.451-3.065-.116-.044-.024-.098-.029-.158-.046-.063.034-.138.062-.199.11-.501.393-1.044.567-1.592.15-.573-.437-.923-1.013-.777-1.796.286-1.524.611-3.043.842-4.576.5-3.314.363-6.622-.23-9.914-.1-.553-.212-1.103-.314-1.656-.071-.38-.28-.791.254-1.032.068-.031.089-.237.083-.36-.057-1.118-.123-2.236-.189-3.401-.146-.012-.27-.02-.393-.035-.555-.065-.734-.179-.771-.714a86.684 86.684 0 01-.179-4.012c-.013-.609.102-.69.703-.864.099-.028.197-.06.364-.112-.122-.874-.25-1.739-.364-2.605-.347-2.627-.692-5.254-1.033-7.882a2137.96 2137.96 0 01-1.02-7.962c-.465-3.691-.984-7.377-1.357-11.078-.211-2.096-.743-4.029-1.797-5.84-2.764-4.753-5.062-9.749-7.404-14.724-1.01-2.146-2.214-4.197-3.306-6.304-.405-.782-1.023-1.123-1.856-1.102-1.019.027-2.037.077-3.119.12-.043.387-.106.725-.114 1.064-.061 2.465-.111 4.929-.163 7.394l-.478 22.664c-.154 7.341-.308 14.681-.466 22.022-.038 1.795-.089 3.589-.13 5.384-.009.369-.001.739-.001 1.052.095.069.114.093.135.097 1.177.177 1.205.174 1.332 1.378.124 1.169.175 2.347.276 3.519.05.586.155 1.168.201 1.754.022.282-.036.571-.061.897l-5.755.808-.086 1.507c.141.084.255.143.358.216.512.361.731.328.526 1.282-.383 1.782-.219 3.513.929 5.043.249.331.508.597.872.775 1.95.951 3.312 2.523 4.365 4.392.608 1.079.761 2.266.561 3.496-.025.158-.067.315-.07.473-.02 1.024-.819 1.706-1.776 1.393-.572-.186-1.093-.279-1.669-.11-.169.05-.392.055-.545-.017-.572-.271-1.081-.109-1.641.082a2.656 2.656 0 01-2.219-.207c-.861.589-1.745.709-2.689.234-.128-.065-.357-.003-.504.072-.799.41-1.588.555-2.38-.049-.674.577-1.351.831-2 .019-.966.593-1.807.485-2.58-.337-.78.395-1.575.649-2.344.029-.46.187-.893.479-1.346.073-.494-.444-.849-.96-.769-1.674.158-1.412.459-2.786.906-4.142.711-2.156 1.057-4.35.317-6.599-.301-.912-.513-1.854-.757-2.784-.191-.733-.091-.895.611-1.049.124-.027.247-.056.439-.1l-.085-1.392c-.367 0-.7.017-1.031-.004-.708-.045-1.417-.087-2.12-.171-.802-.096-.956-.264-.937-1.078.037-1.499.109-2.997.17-4.495.004-.106.031-.211.053-.316.125-.602.129-.602.717-.492.15.028.302.042.498.069.036-.223.081-.398.092-.576.226-3.904.446-7.809.674-11.713.371-6.364.748-12.729 1.122-19.093.208-3.53.414-7.06.625-10.589.3-5.026.604-10.053.908-15.079.09-1.497.2-2.993.273-4.491.033-.694-.006-1.391-.01-2.087-.002-.581 0-1.163 0-1.761-.402-.182-.586.1-.792.335-.689.79-.962.841-1.885.342-.37-.199-.731-.414-1.084-.614-.297.136-.55.288-.823.369-.575.171-.968-.181-.806-.771.108-.389.384-.729.62-1.153-.317-1.147-.317-1.147.245-1.517.156-.344.204-.693.394-.814.323-.208.574.117.8.335.208.202.401.419.604.632.855-.326 1.269-.899 1.186-1.843-.092-1.039-.126-2.084-.199-3.125-.054-.758-.399-1.273-1.132-1.568a197.033 197.033 0 01-5.24-2.216c-3.282-1.437-6.578-2.842-9.824-4.359-2.637-1.231-4.638-3.212-5.954-5.868-1.339-2.703-1.089-5.265.862-7.545 1.972-2.305 4.122-4.435 6.599-6.192.126-.09.245-.191.402-.315-.13-.198-.24-.37-.357-.539-.421-.607-.43-.679.131-1.204.62-.579 1.27-1.126 1.906-1.686.299-.262.609-.512.896-.787.673-.642.669-.646 1.475-.045.376-.232.769-.488 1.175-.724 2.693-1.565 5.335-3.235 8.098-4.66 3.278-1.69 6.62-3.262 10.221-4.168 1.425-.358 2.812-.869 4.212-1.327.338-.11.656-.288.981-.434.371.849.651 1.689 1.087 2.436.655 1.124 1.358 2.232 2.161 3.25.462.586 1.108 1.078 1.764 1.439 1.358.747 2.593.328 3.324-1.06.708-1.343.797-2.813.713-4.3-.024-.426-.097-.85-.151-1.275-.069-.547-.019-.663.492-.814.503-.149 1.022-.243 1.531-.373 1.63-.413 3.261-.821 4.887-1.25 2.214-.586 4.194-.047 5.895 1.417 1.282 1.104 2.484 2.316 3.636 3.56 2.419 2.611 4.782 5.274 7.166 7.918.196.217.39.436.564.67.315.423.626.733 1.244.584.452-.108 1.533.845 1.513 1.31-.012.282-.219.585-.41.817-.159.193-.423.295-.725.493.274.305.513.574.755.84 2.297 2.517 3.857 5.436 4.328 8.848.253 1.828-.373 3.437-1.994 4.49-1.068.694-2.243 1.024-3.508 1.055a573.012 573.012 0 00-10.092.344c-.174.007-.347.053-.501.077-.018.104-.048.164-.032.205.846 2.148 1.268 4.412 1.769 6.656.068.3.228.579.362.907-.379.509-1.076.471-1.613.928.073.464.102.999.247 1.5 1.137 3.942 2.67 7.716 4.493 11.385 1.15 2.315 2.132 4.719 3.114 7.115 2.077 5.065 4.13 10.141 6.137 15.234.576 1.46 1.003 2.985 1.416 4.504.188.687.204 1.429.247 2.149.187 3.155.352 6.312.53 9.468.261 4.626.522 9.253.793 13.878.097 1.658.22 3.314.337 4.971.019.266.068.529.11.842z" fill="#263238"/><path fill-rule="evenodd" clip-rule="evenodd" d="M155.931 122.211c-.156-.474.06-.582.363-.61.449-.041.899-.073 1.348-.109.185-.015.371-.026.555-.046 1.009-.107 1.146-.269.992-1.275-.266-1.731-.549-3.458-.825-5.186-.076-.478-.165-.954-.222-1.434-.012-.108.087-.326.134-.326.134-.001.329.049.387.148.103.177.143.401.176.611.311 1.995.616 3.992.918 5.988.036.239.06.483.066.724.021.76-.113 1.03-.782 1.208-1.024.273-2.08.274-3.11.307zM192.053 198.135c-.16.139-.289.318-.348.288-.122-.062-.208-.235-.309-.363.088-.106.198-.317.261-.298.127.039.229.204.396.373zM191.394 196.43a52.052 52.052 0 00-.328-.384c.142-.101.274-.232.432-.281.045-.014.234.215.226.323-.008.106-.183.199-.33.342zM158.524 51.373c-.304-.215-.694-.093-1.215-.047.767-.391 1.522-.254 1.965.752-.322-.347-.479-.514-.75-.705zm-5.799.72c-.025-.122-.058-.253-.069-.365-.058-.604.051-1.28.428-1.833.137-.2.41-.506.648-.578.544-.166.792-.27 1.409.06-1.577.253-2.046 1.404-2.416 2.717zm-2.316 6.266c-.192-.11-1.135-.744-1.515-1.296-.146-.213-.249-.74.334-1.64.037.167.076.253.074.337-.038 1.275.637 2.062 1.752 2.53.364.153.693.311.925.838-.674-.176-1.106-.507-1.57-.77zm.179-4.969c.297-.778.577-.973 1.219-.873-.447.18-.812.904-.604 1.415-.191-.158-.33-.245-.722.048.038-.221.042-.417.107-.59zm11.912.863c.14-.4.287-.765.393-1.14.174-.617.049-1.208-.27-1.745-.535-.902-2.039-.747-2.517-.115-.249.331-.34.648-.323.966-.279-.472-.505-.771-.927-1.095-.526-.404-1.303-.191-1.837.061.059-.287-.116-.753-.301-.993a3.05 3.05 0 00-1.381-1.007c-.918-.338-1.595-.253-2.264.498a2.775 2.775 0 00-.652 1.377c-.059.378-.001.778-.079 1.168-.148.013-.25.036-.347.027-.825-.079-1.083.047-1.442.75a3.348 3.348 0 00-.289.726c-.15.613-.566 1.058-1.004 1.436-.665.573-.7 1.52-.528 1.919 0 0 .347.795 2.124 1.756.252.137.498.296.763.407.418.174.381.613-.011.858-.124.077-.298.076-.449.106-.757.145-1.134.609-1.115 1.38.016.717.366 1.244.951 1.629.171.112.353.205.572.33-.114 1.111-.185 2.213-.35 3.3-.229 1.504-.531 2.997-.796 4.496-.041.23-.075.469-.061.7.006.1.13.254.222.272.094.018.256-.074.314-.166.079-.126.095-.295.125-.448.263-1.366.56-2.727.773-4.101.193-1.245.309-2.502.428-3.757.069-.727.031-.765-.634-1.062-.467-.21-.772-.538-.858-1.047-.074-.433.114-1.041.695-.895.474.118.656.764.772 1.209l.194-.04c.061-.234.143-.464.179-.7.106-.702.15-1.416.299-2.106.24-1.106.951-1.88 2.012-2.199.788-.236 1.64-.26 2.464-.373a.301.301 0 01.152.034c.715.312 1.388.138 2.03-.193.601.347.842.825.835 1.505a23.946 23.946 0 01-.747 5.77c-.215.831-.6 1.619-.915 2.424-.189.482-.587.672-1.068.64-.335-.023-.692-.083-.988-.229-.631-.311-1.222-.701-1.844-1.03-.13-.07-.325-.014-.49-.016.022.162-.016.395.077.473.359.301.737.596 1.15.814.865.457 1.782.76 2.833.595.406 1.437.788 2.8 1.176 4.16.072.251.145.507.259.74.042.085.224.171.31.146.087-.026.184-.187.188-.291.007-.178-.044-.363-.093-.539-.359-1.29-.714-2.58-1.09-3.866-.123-.418-.118-.76.097-1.184.412-.815.803-1.67 1.01-2.552.323-1.376.499-2.788.71-4.188.082-.542.09-1.094.133-1.641.118-.066.202-.129.298-.164.701-.26 1.17-.69 1.159-1.504a.64.64 0 01.13-.36c.53-.698.519-1.348-.157-1.926z" fill="#263238"/><path fill-rule="evenodd" clip-rule="evenodd" d="M157.961 59.936l.563 2.226-.821.082.258-2.308z" fill="#263238"/><path clip-rule="evenodd" d="M157.961 59.936l.563 2.226-.821.082.258-2.308z" stroke="#263238" stroke-width=".231" stroke-linejoin="round"/><path fill-rule="evenodd" clip-rule="evenodd" d="M157.962 63.674c-.023 0-.046 0-.067-.002-.605-.035-1.175-.545-1.3-1.159-.008-.037.021-.071.063-.078.043-.006.083.018.091.055.11.547.63 1.018 1.157 1.049.311.018.891-.105 1.275-1.134.014-.035.058-.054.099-.043.041.011.063.05.05.084-.392 1.05-1 1.228-1.368 1.228zM156.202 60.406c-.658 0-1.069.625-1.287 1.1 1.052-.374 2.058-.297 2.43-.248-.136-.257-.496-.812-1.073-.85a.981.981 0 00-.07-.002zm-1.431 1.316a.078.078 0 01-.072-.107c.213-.533.704-1.42 1.583-1.362.353.023.686.217.961.562.204.256.305.503.309.513a.077.077 0 01-.012.078.078.078 0 01-.075.028c-.013-.003-1.349-.247-2.665.282a.072.072 0 01-.029.006zM159.009 61.11c.567 0 1.232.135 1.502.197-.065-.257-.265-.852-.739-.925-.31-.047-.581.008-.787.159-.18.132-.304.336-.364.596.119-.02.251-.028.388-.028zm1.605.379c-.007 0-.013 0-.019-.002-.014-.004-1.379-.341-2.053-.176a.078.078 0 01-.071-.018.079.079 0 01-.025-.069c.053-.354.208-.633.447-.809.239-.176.551-.241.903-.187.3.046.55.266.724.635.127.27.169.525.171.536a.077.077 0 01-.025.07.075.075 0 01-.052.02z" fill="#263238"/><path fill-rule="evenodd" clip-rule="evenodd" d="M158.681 61.04c0-.338.221-.613.493-.613s.493.275.493.613c0 .077-.013.207-.034.275-.236-.09-.733-.186-.924-.113a.535.535 0 01-.028-.162zM155.116 61.153c0-.338.295-.613.658-.613.363 0 .658.351.658.69-.454.1-1.003.145-1.209.218a.594.594 0 01-.107-.295zM157.202 58.58s.237.63.123.804c-.591-.02-2.382-.196-3.05.79.223-1.548 2.927-1.593 2.927-1.593z" fill="#263238"/><path d="M157.24 58.566l-.039-.026-.094.003-.034.002a6.085 6.085 0 00-1.354.24c-.843.265-1.388.712-1.484 1.383-.006.043.05.065.075.029.281-.416.786-.652 1.465-.747l.119-.015a6.588 6.588 0 011.025-.028l.405.018.036-.018c.051-.078.047-.22.007-.41a3.059 3.059 0 00-.127-.43zm.06.776l-.227-.01c-.52-.025-.906-.02-1.309.036l-.104.016c-.546.091-.978.277-1.27.582l-.036.04.008-.03c.165-.522.656-.884 1.382-1.112.319-.1.661-.168 1.003-.207.12-.014.231-.024.331-.03l.095-.005.033.096c.011.033.022.07.033.11.019.064.035.127.047.185l.011.055c.022.125.024.22.003.274z" fill="#263238"/><path fill-rule="evenodd" clip-rule="evenodd" d="M158.319 59.39c.492-.068 1.973-.384 2.594.546-.288-1.526-2.544-1.358-2.544-1.358s-.156.647-.05.812z" fill="#263238"/><path d="M158.419 58.535l-.053.002-.037.032-.025.112-.019.102a2.624 2.624 0 00-.032.215c-.023.198-.017.34.031.414l.04.018.319-.047a4.355 4.355 0 011.028-.045c.542.05.955.243 1.207.621.025.037.083.013.075-.03-.122-.646-.589-1.047-1.286-1.25a3.972 3.972 0 00-1.248-.144zm1.308.248c.542.176.924.481 1.087.942l.01.032-.025-.028c-.269-.28-.65-.43-1.121-.473a4.146 4.146 0 00-.902.026l-.229.032-.205.03-.007-.022a1.027 1.027 0 01-.001-.314c.008-.067.019-.138.032-.21l.009-.053.027-.127.02-.001c.365-.015.804.019 1.222.14l.083.026z" fill="#263238"/><path d="M156.043 60.998a.33.33 0 100-.658.33.33 0 000 .658zM159.661 60.998a.329.329 0 100-.657.329.329 0 000 .657z" fill="#fff"/><path d="M159.989 60.998a.329.329 0 100-.657.329.329 0 000 .657z" fill="#fff"/></svg>