<svg width="46" height="44" viewBox="0 0 46 44" fill="none" xmlns="http://www.w3.org/2000/svg">
    <path d="M22.049 1.92664C22.3483 1.00537 23.6517 1.00537 23.951 1.92664L28.3888 15.583C28.5227 15.995 28.9066 16.2739 29.3398 16.2739L43.6991 16.2745C44.6678 16.2745 45.0706 17.514 44.2869 18.0835L32.6703 26.5241C32.3199 26.7787 32.1732 27.23 32.3071 27.642L36.7438 41.2987C37.0431 42.22 35.9887 42.9861 35.205 42.4167L23.5878 33.977C23.2373 33.7224 22.7627 33.7224 22.4122 33.977L10.795 42.4167C10.0113 42.9861 8.95689 42.22 9.25619 41.2987L13.6929 27.642C13.8268 27.23 13.6801 26.7787 13.3297 26.5241L1.71309 18.0835C0.929433 17.514 1.33219 16.2745 2.30087 16.2745L16.6602 16.2739C17.0934 16.2739 17.4773 15.995 17.6112 15.583L22.049 1.92664Z" fill="#4D9DE0" stroke="#4D9DE0" stroke-width="2"/>
    </svg>
    