<svg width="50" height="50" viewBox="0 0 50 50" fill="none" xmlns="http://www.w3.org/2000/svg">
<g clip-path="url(#clip0_89_33)">
<path d="M24.049 2.92664C24.3483 2.00537 25.6517 2.00537 25.951 2.92664L30.3888 16.583C30.5227 16.995 30.9066 17.2739 31.3398 17.2739L45.6991 17.2745C46.6678 17.2745 47.0706 18.514 46.2869 19.0835L34.6703 27.5241C34.3199 27.7787 34.1732 28.23 34.3071 28.642L38.7438 42.2987C39.0431 43.22 37.9887 43.9861 37.205 43.4167L25.5878 34.977C25.2373 34.7224 24.7627 34.7224 24.4122 34.977L12.795 43.4167C12.0113 43.9861 10.9569 43.22 11.2562 42.2987L15.6929 28.642C15.8268 28.23 15.6801 27.7787 15.3297 27.5241L3.71309 19.0835C2.92943 18.514 3.33219 17.2745 4.30087 17.2745L18.6602 17.2739C19.0934 17.2739 19.4773 16.995 19.6112 16.583L24.049 2.92664Z" stroke="#4D9DE0" stroke-width="2"/>
</g>
<defs>
<clipPath id="clip0_89_33">
<rect width="50" height="50" fill="white"/>
</clipPath>
</defs>
</svg>
