<svg width="500" height="500" viewBox="0 0 500 500" fill="none" xmlns="http://www.w3.org/2000/svg">
    <g clip-path="url(#clip0_17_2524)">
    <rect x="1" y="21" width="500" height="460" rx="40" fill="#4D9DE0"/>
    <path d="M449.9 398.49H416.78V398.74H449.9V398.49Z" fill="#EBEBEB"/>
    <path d="M331.22 401.21H322.53V401.46H331.22V401.21Z" fill="#EBEBEB"/>
    <path d="M415.78 389.21H396.59V389.46H415.78V389.21Z" fill="#EBEBEB"/>
    <path d="M95.65 390.89H52.46V391.14H95.65V390.89Z" fill="#EBEBEB"/>
    <path d="M110.89 390.89H104.56V391.14H110.89V390.89Z" fill="#EBEBEB"/>
    <path d="M225.15 395.11H131.47V395.36H225.15V395.11Z" fill="#EBEBEB"/>
    <path d="M500 382.4H0V382.65H500V382.4Z" fill="#EBEBEB"/>
    <path d="M375 375.47L346.92 369.59V224.24H337.92V369.59L309.84 375.47C308.248 375.805 306.819 376.678 305.794 377.941C304.769 379.205 304.21 380.783 304.21 382.41H380.59C380.592 380.788 380.039 379.215 379.022 377.952C378.004 376.689 376.585 375.813 375 375.47Z" fill="#E0E0E0"/>
    <path d="M341.76 137.35H357.76C364.905 137.35 371.757 140.188 376.809 145.241C381.862 150.293 384.7 157.145 384.7 164.29V201.22C384.7 204.758 384.003 208.261 382.649 211.529C381.295 214.798 379.311 217.768 376.809 220.269C374.308 222.771 371.338 224.755 368.069 226.109C364.801 227.463 361.298 228.16 357.76 228.16H341.76V137.36V137.35Z" fill="#E6E6E6"/>
    <path d="M357.81 217.19H341.76V228.19H357.81C364.953 228.187 371.803 225.348 376.853 220.296C381.903 215.244 384.74 208.393 384.74 201.25V190.25C384.74 197.393 381.903 204.244 376.853 209.296C371.803 214.348 364.953 217.187 357.81 217.19Z" fill="#E0E0E0"/>
    <path d="M343.66 137.35H319.57C311.297 137.35 304.59 144.057 304.59 152.33V213.17C304.59 221.443 311.297 228.15 319.57 228.15H343.66C351.933 228.15 358.64 221.443 358.64 213.17V152.33C358.64 144.057 351.933 137.35 343.66 137.35Z" fill="#F0F0F0"/>
    <path d="M331.62 178.62C341.511 178.62 349.53 170.601 349.53 160.71C349.53 150.819 341.511 142.8 331.62 142.8C321.729 142.8 313.71 150.819 313.71 160.71C313.71 170.601 321.729 178.62 331.62 178.62Z" fill="#E0E0E0"/>
    <path d="M331.62 221.46C341.511 221.46 349.53 213.441 349.53 203.55C349.53 193.659 341.511 185.64 331.62 185.64C321.729 185.64 313.71 193.659 313.71 203.55C313.71 213.441 321.729 221.46 331.62 221.46Z" fill="#E0E0E0"/>
    <path d="M331.62 175.64C339.866 175.64 346.55 168.956 346.55 160.71C346.55 152.464 339.866 145.78 331.62 145.78C323.374 145.78 316.69 152.464 316.69 160.71C316.69 168.956 323.374 175.64 331.62 175.64Z" fill="#EBEBEB"/>
    <path d="M337.59 160.71C337.59 161.897 337.238 163.057 336.579 164.043C335.92 165.03 334.982 165.799 333.886 166.253C332.79 166.707 331.583 166.826 330.419 166.595C329.256 166.363 328.186 165.792 327.347 164.953C326.508 164.113 325.937 163.044 325.705 161.88C325.474 160.717 325.593 159.51 326.047 158.414C326.501 157.317 327.27 156.38 328.257 155.721C329.243 155.062 330.403 154.71 331.59 154.71C333.181 154.71 334.707 155.342 335.833 156.467C336.958 157.593 337.59 159.119 337.59 160.71Z" fill="#E0E0E0"/>
    <path d="M331.62 218.48C339.866 218.48 346.55 211.796 346.55 203.55C346.55 195.304 339.866 188.62 331.62 188.62C323.374 188.62 316.69 195.304 316.69 203.55C316.69 211.796 323.374 218.48 331.62 218.48Z" fill="#EBEBEB"/>
    <path d="M337.59 203.55C337.59 204.737 337.238 205.897 336.579 206.883C335.92 207.87 334.982 208.639 333.886 209.093C332.79 209.547 331.583 209.666 330.419 209.435C329.256 209.203 328.186 208.632 327.347 207.793C326.508 206.954 325.937 205.884 325.705 204.721C325.474 203.557 325.593 202.35 326.047 201.254C326.501 200.158 327.27 199.221 328.257 198.561C329.243 197.902 330.403 197.55 331.59 197.55C333.181 197.55 334.707 198.182 335.833 199.307C336.958 200.433 337.59 201.959 337.59 203.55Z" fill="#E0E0E0"/>
    <path d="M430.56 82.55H68.78C68.4154 82.5513 68.0541 82.4807 67.7169 82.342C67.3797 82.2034 67.0731 81.9996 66.8149 81.7423C66.5566 81.4849 66.3517 81.1791 66.2118 80.8424C66.072 80.5056 66 80.1446 66 79.78C65.9987 79.4146 66.0697 79.0525 66.2089 78.7146C66.3482 78.3767 66.5529 78.0697 66.8113 77.8113C67.0697 77.5529 67.3767 77.3482 67.7146 77.2089C68.0525 77.0697 68.4146 76.9987 68.78 77H430.56C430.925 76.9987 431.288 77.0697 431.625 77.2089C431.963 77.3482 432.27 77.5529 432.529 77.8113C432.787 78.0697 432.992 78.3767 433.131 78.7146C433.27 79.0525 433.341 79.4146 433.34 79.78C433.34 80.1446 433.268 80.5056 433.128 80.8424C432.988 81.1791 432.783 81.4849 432.525 81.7423C432.267 81.9996 431.96 82.2034 431.623 82.342C431.286 82.4807 430.925 82.5513 430.56 82.55Z" fill="#E6E6E6"/>
    <path d="M129.17 116.1C128.265 117.006 127.19 117.724 126.007 118.214C124.824 118.704 123.556 118.956 122.275 118.956C120.994 118.956 119.726 118.704 118.543 118.214C117.36 117.724 116.285 117.006 115.38 116.1L111.77 112.49C109.944 110.662 108.919 108.184 108.919 105.6C108.919 103.016 109.944 100.538 111.77 98.7101C112.675 97.8045 113.75 97.0861 114.933 96.596C116.116 96.1059 117.384 95.8536 118.665 95.8536C119.946 95.8536 121.214 96.1059 122.397 96.596C123.58 97.0861 124.655 97.8045 125.56 98.7101L129.17 102.31C130.076 103.215 130.794 104.29 131.284 105.473C131.774 106.656 132.026 107.924 132.026 109.205C132.026 110.486 131.774 111.754 131.284 112.937C130.794 114.12 130.076 115.195 129.17 116.1Z" fill="#E0E0E0"/>
    <path d="M119.15 112.19C118.683 112.648 118.311 113.194 118.056 113.797C117.801 114.399 117.668 115.046 117.665 115.7C117.661 116.355 117.788 117.003 118.037 117.608C118.286 118.213 118.652 118.763 119.114 119.226C119.577 119.688 120.127 120.055 120.732 120.303C121.337 120.552 121.985 120.679 122.64 120.675C123.294 120.672 123.941 120.539 124.544 120.284C125.146 120.029 125.692 119.657 126.15 119.19L132.27 113.07C132.737 112.612 133.109 112.066 133.364 111.464C133.619 110.861 133.752 110.214 133.755 109.56C133.759 108.905 133.632 108.257 133.383 107.652C133.135 107.047 132.768 106.497 132.306 106.035C131.843 105.572 131.293 105.206 130.688 104.957C130.083 104.708 129.435 104.581 128.78 104.585C128.126 104.588 127.479 104.721 126.877 104.976C126.274 105.231 125.728 105.603 125.27 106.07L119.15 112.19Z" fill="#F5F5F5"/>
    <path d="M119.91 100C119.91 101.077 119.482 102.109 118.721 102.871C117.959 103.632 116.927 104.06 115.85 104.06C114.773 104.06 113.741 103.632 112.979 102.871C112.218 102.109 111.79 101.077 111.79 100V81.85H119.91V100Z" fill="#F0F0F0"/>
    <path d="M118.08 100C118.08 100.441 117.949 100.872 117.704 101.239C117.459 101.606 117.111 101.891 116.703 102.06C116.296 102.229 115.848 102.273 115.415 102.187C114.982 102.101 114.585 101.889 114.273 101.577C113.961 101.265 113.749 100.868 113.663 100.435C113.577 100.002 113.621 99.5541 113.79 99.1466C113.959 98.7392 114.244 98.3909 114.611 98.1458C114.978 97.9008 115.409 97.77 115.85 97.77C116.143 97.77 116.433 97.8277 116.703 97.9398C116.974 98.0518 117.22 98.2161 117.427 98.4232C117.634 98.6302 117.798 98.8761 117.91 99.1466C118.022 99.4172 118.08 99.7072 118.08 100Z" fill="#E0E0E0"/>
    <path d="M217.85 116.1C216.945 117.006 215.87 117.724 214.687 118.214C213.504 118.704 212.236 118.956 210.955 118.956C209.674 118.956 208.406 118.704 207.223 118.214C206.04 117.724 204.965 117.006 204.06 116.1L200.45 112.49C198.624 110.662 197.599 108.184 197.599 105.6C197.599 103.016 198.624 100.538 200.45 98.7101C201.355 97.8045 202.43 97.0861 203.613 96.596C204.796 96.1059 206.064 95.8536 207.345 95.8536C208.626 95.8536 209.894 96.1059 211.077 96.596C212.26 97.0861 213.335 97.8045 214.24 98.7101L217.85 102.31C218.756 103.215 219.474 104.29 219.964 105.473C220.454 106.656 220.706 107.924 220.706 109.205C220.706 110.486 220.454 111.754 219.964 112.937C219.474 114.12 218.756 115.195 217.85 116.1Z" fill="#E0E0E0"/>
    <path d="M207.83 112.19C207.363 112.648 206.991 113.194 206.736 113.797C206.481 114.399 206.348 115.046 206.345 115.7C206.341 116.355 206.468 117.003 206.717 117.608C206.965 118.213 207.332 118.763 207.794 119.226C208.257 119.688 208.807 120.055 209.412 120.303C210.017 120.552 210.665 120.679 211.32 120.675C211.974 120.672 212.621 120.539 213.223 120.284C213.826 120.029 214.372 119.657 214.83 119.19L220.95 113.07C221.417 112.612 221.789 112.066 222.044 111.464C222.299 110.861 222.432 110.214 222.435 109.56C222.439 108.905 222.312 108.257 222.063 107.652C221.814 107.047 221.448 106.497 220.985 106.035C220.523 105.572 219.973 105.206 219.368 104.957C218.763 104.708 218.115 104.581 217.46 104.585C216.806 104.588 216.159 104.721 215.556 104.976C214.954 105.231 214.408 105.603 213.95 106.07L207.83 112.19Z" fill="#F5F5F5"/>
    <path d="M208.59 100C208.59 101.077 208.162 102.109 207.401 102.871C206.639 103.632 205.607 104.06 204.53 104.06C203.453 104.06 202.421 103.632 201.659 102.871C200.898 102.109 200.47 101.077 200.47 100V81.85H208.59V100Z" fill="#F0F0F0"/>
    <path d="M206.76 100C206.76 100.441 206.629 100.872 206.384 101.239C206.139 101.606 205.791 101.891 205.383 102.06C204.976 102.229 204.528 102.273 204.095 102.187C203.662 102.101 203.265 101.889 202.953 101.577C202.641 101.265 202.429 100.868 202.343 100.435C202.257 100.002 202.301 99.5541 202.47 99.1466C202.639 98.7392 202.924 98.3909 203.291 98.1458C203.658 97.9008 204.089 97.77 204.53 97.77C205.121 97.77 205.689 98.005 206.107 98.4232C206.525 98.8414 206.76 99.4086 206.76 100Z" fill="#E0E0E0"/>
    <path d="M379.11 116.1C380.015 117.006 381.09 117.724 382.273 118.214C383.456 118.704 384.724 118.956 386.005 118.956C387.286 118.956 388.554 118.704 389.737 118.214C390.92 117.724 391.995 117.006 392.9 116.1L396.5 112.49C397.405 111.586 398.123 110.511 398.613 109.329C399.103 108.147 399.356 106.88 399.356 105.6C399.356 104.32 399.103 103.053 398.613 101.871C398.123 100.689 397.405 99.6146 396.5 98.7101C395.595 97.8048 394.521 97.0866 393.339 96.5967C392.157 96.1067 390.89 95.8545 389.61 95.8545C388.33 95.8545 387.063 96.1067 385.881 96.5967C384.699 97.0866 383.625 97.8048 382.72 98.7101L379.11 102.31C378.204 103.215 377.486 104.29 376.996 105.473C376.506 106.656 376.254 107.924 376.254 109.205C376.254 110.486 376.506 111.754 376.996 112.937C377.486 114.12 378.204 115.195 379.11 116.1Z" fill="#E0E0E0"/>
    <path d="M389.13 112.19C389.597 112.648 389.969 113.194 390.224 113.796C390.479 114.399 390.612 115.046 390.615 115.7C390.619 116.355 390.492 117.003 390.243 117.608C389.995 118.213 389.628 118.763 389.166 119.226C388.703 119.688 388.153 120.054 387.548 120.303C386.943 120.552 386.295 120.679 385.64 120.675C384.986 120.672 384.339 120.539 383.737 120.284C383.134 120.029 382.588 119.657 382.13 119.19L376.05 113C375.583 112.542 375.211 111.996 374.956 111.394C374.701 110.791 374.568 110.144 374.565 109.49C374.561 108.835 374.688 108.187 374.937 107.582C375.186 106.977 375.552 106.427 376.015 105.964C376.477 105.502 377.027 105.136 377.632 104.887C378.237 104.638 378.885 104.511 379.54 104.515C380.194 104.518 380.841 104.651 381.444 104.906C382.046 105.161 382.592 105.533 383.05 106L389.13 112.19Z" fill="#F5F5F5"/>
    <path d="M388.37 100C388.37 101.077 388.798 102.109 389.559 102.871C390.321 103.632 391.353 104.06 392.43 104.06C393.507 104.06 394.539 103.632 395.301 102.871C396.062 102.109 396.49 101.077 396.49 100V81.85H388.37V100Z" fill="#F0F0F0"/>
    <path d="M390.2 100C390.2 100.441 390.331 100.872 390.576 101.239C390.821 101.606 391.169 101.891 391.577 102.06C391.984 102.229 392.432 102.273 392.865 102.187C393.298 102.101 393.695 101.889 394.007 101.577C394.319 101.265 394.531 100.868 394.617 100.435C394.703 100.002 394.659 99.5541 394.49 99.1466C394.321 98.7392 394.036 98.3909 393.669 98.1458C393.302 97.9008 392.871 97.77 392.43 97.77C392.137 97.77 391.847 97.8277 391.577 97.9398C391.306 98.0518 391.06 98.2161 390.853 98.4232C390.646 98.6302 390.482 98.8761 390.37 99.1466C390.258 99.4172 390.2 99.7072 390.2 100Z" fill="#E0E0E0"/>
    <path d="M290.43 116.1C291.335 117.006 292.41 117.724 293.593 118.214C294.776 118.704 296.044 118.956 297.325 118.956C298.606 118.956 299.874 118.704 301.057 118.214C302.24 117.724 303.315 117.006 304.22 116.1L307.82 112.49C308.725 111.586 309.443 110.511 309.933 109.329C310.423 108.147 310.676 106.88 310.676 105.6C310.676 104.32 310.423 103.053 309.933 101.871C309.443 100.689 308.725 99.6146 307.82 98.7101C306.915 97.8048 305.841 97.0866 304.659 96.5967C303.477 96.1067 302.21 95.8545 300.93 95.8545C299.65 95.8545 298.383 96.1067 297.201 96.5967C296.019 97.0866 294.945 97.8048 294.04 98.7101L290.43 102.31C289.524 103.215 288.806 104.29 288.316 105.473C287.826 106.656 287.574 107.924 287.574 109.205C287.574 110.486 287.826 111.754 288.316 112.937C288.806 114.12 289.524 115.195 290.43 116.1Z" fill="#E0E0E0"/>
    <path d="M300.45 112.19C300.917 112.648 301.289 113.194 301.544 113.796C301.799 114.399 301.932 115.046 301.935 115.7C301.939 116.355 301.812 117.003 301.563 117.608C301.314 118.213 300.948 118.763 300.486 119.226C300.023 119.688 299.473 120.054 298.868 120.303C298.263 120.552 297.615 120.679 296.96 120.675C296.306 120.672 295.659 120.539 295.056 120.284C294.454 120.029 293.908 119.657 293.45 119.19L287.37 113C286.903 112.542 286.531 111.996 286.276 111.394C286.021 110.791 285.888 110.144 285.885 109.49C285.881 108.835 286.008 108.187 286.257 107.582C286.506 106.977 286.872 106.427 287.334 105.964C287.797 105.502 288.347 105.136 288.952 104.887C289.557 104.638 290.205 104.511 290.86 104.515C291.514 104.518 292.161 104.651 292.764 104.906C293.366 105.161 293.912 105.533 294.37 106L300.45 112.19Z" fill="#F5F5F5"/>
    <path d="M299.69 100C299.69 101.077 300.118 102.109 300.879 102.871C301.64 103.632 302.673 104.06 303.75 104.06C304.827 104.06 305.859 103.632 306.621 102.871C307.382 102.109 307.81 101.077 307.81 100V81.85H299.69V100Z" fill="#F0F0F0"/>
    <path d="M301.52 100C301.52 100.441 301.651 100.872 301.896 101.239C302.141 101.606 302.489 101.891 302.897 102.06C303.304 102.229 303.753 102.273 304.185 102.187C304.618 102.101 305.015 101.889 305.327 101.577C305.639 101.265 305.851 100.868 305.937 100.435C306.023 100.002 305.979 99.5541 305.81 99.1466C305.641 98.7392 305.356 98.3909 304.989 98.1458C304.622 97.9008 304.191 97.77 303.75 97.77C303.159 97.77 302.591 98.005 302.173 98.4232C301.755 98.8414 301.52 99.4086 301.52 100Z" fill="#E0E0E0"/>
    <path d="M250.81 427.01C370.556 427.01 467.63 421.942 467.63 415.69C467.63 409.438 370.556 404.37 250.81 404.37C131.064 404.37 33.99 409.438 33.99 415.69C33.99 421.942 131.064 427.01 250.81 427.01Z" fill="#F5F5F5"/>
    <path opacity="0.3" d="M425.45 300.28C438.24 300.28 447.35 309.81 446.68 322.51L445.21 350.27C445.103 352.324 444.215 354.259 442.728 355.679C441.24 357.099 439.266 357.898 437.21 357.91H385.81L396.43 322.51C400.18 309.81 412.65 300.28 425.45 300.28Z" fill="white"/>
    <path d="M162.18 403.97H43.88V415.48H162.18V403.97Z" fill="#F3722C"/>
    <path opacity="0.3" d="M162.18 403.97H43.88V415.48H162.18V403.97Z" fill="white"/>
    <path d="M344 403.97H152.2V415.48H344V403.97Z" fill="#F3722C"/>
    <path opacity="0.7" d="M344 403.97H152.2V415.48H344V403.97Z" fill="white"/>
    <path d="M87.16 403.72C86.8962 403.697 86.6523 403.57 86.4817 403.368C86.3111 403.166 86.2278 402.904 86.25 402.64L106.37 161.57H108.37V163.57H108.21L88.21 402.81C88.187 403.068 88.0647 403.307 87.8688 403.477C87.673 403.647 87.4188 403.734 87.16 403.72Z" fill="#263238"/>
    <path d="M176.57 403.72C176.701 403.71 176.83 403.674 176.947 403.614C177.065 403.554 177.169 403.472 177.255 403.371C177.34 403.271 177.405 403.155 177.445 403.029C177.486 402.904 177.501 402.771 177.49 402.64L157.37 161.57H155.37V163.57H155.54L168.4 317.73H103.67L90.6699 161.57H88.6699V163.57H88.8299L108.83 402.81C108.853 403.074 108.979 403.318 109.182 403.488C109.384 403.659 109.646 403.742 109.91 403.72C110.174 403.697 110.418 403.57 110.588 403.368C110.759 403.166 110.842 402.904 110.82 402.64L103.9 319.73H168.63L175.56 402.81C175.583 403.061 175.699 403.294 175.887 403.463C176.074 403.632 176.318 403.723 176.57 403.72Z" fill="#263238"/>
    <path d="M181.2 285.89H85.6099L73.5399 141.27H169.13L181.2 285.89Z" fill="#F3722C"/>
    <path opacity="0.8" d="M181.2 285.89H85.6099L73.5399 141.27H169.13L181.2 285.89Z" fill="white"/>
    <path d="M169.05 144.67H73.39C72.5492 144.67 71.7429 144.336 71.1484 143.741C70.5539 143.147 70.22 142.341 70.22 141.5C70.22 140.659 70.5539 139.853 71.1484 139.258C71.7429 138.664 72.5492 138.33 73.39 138.33H169.05C169.891 138.33 170.697 138.664 171.292 139.258C171.886 139.853 172.22 140.659 172.22 141.5C172.22 142.341 171.886 143.147 171.292 143.741C170.697 144.336 169.891 144.67 169.05 144.67Z" fill="#F3722C"/>
    <path opacity="0.5" d="M169.05 144.67H73.39C72.5492 144.67 71.7429 144.336 71.1484 143.741C70.5539 143.147 70.22 142.341 70.22 141.5C70.22 140.659 70.5539 139.853 71.1484 139.258C71.7429 138.664 72.5492 138.33 73.39 138.33H169.05C169.891 138.33 170.697 138.664 171.292 139.258C171.886 139.853 172.22 140.659 172.22 141.5C172.22 142.341 171.886 143.147 171.292 143.741C170.697 144.336 169.891 144.67 169.05 144.67Z" fill="white"/>
    <path d="M129.71 231.42L128.29 214.49C128.279 214.359 128.294 214.226 128.335 214.101C128.375 213.975 128.44 213.859 128.525 213.759C128.611 213.658 128.715 213.576 128.833 213.516C128.95 213.456 129.078 213.42 129.21 213.41C129.474 213.388 129.736 213.471 129.938 213.642C130.14 213.812 130.267 214.056 130.29 214.32L131.7 231.25C131.722 231.514 131.639 231.776 131.468 231.978C131.298 232.181 131.054 232.307 130.79 232.33C130.526 232.352 130.264 232.269 130.062 232.098C129.859 231.928 129.733 231.684 129.71 231.42Z" fill="#F3722C"/>
    <path d="M113.68 214.9C101.25 214.9 90.2499 204.78 89.1599 192.35C88.8473 189.48 89.149 186.577 90.0449 183.834C90.9408 181.09 92.4105 178.568 94.3562 176.436C96.3019 174.304 98.6791 172.61 101.33 171.468C103.98 170.325 106.844 169.76 109.73 169.81C115.864 169.926 121.743 172.283 126.26 176.435C130.777 180.586 133.619 186.247 134.25 192.35C134.561 195.219 134.258 198.122 133.361 200.866C132.465 203.61 130.995 206.131 129.05 208.264C127.105 210.396 124.729 212.091 122.079 213.235C119.429 214.379 116.566 214.946 113.68 214.9ZM109.82 170.81C107.062 170.764 104.327 171.305 101.794 172.398C99.2616 173.49 96.9904 175.108 95.1312 177.145C93.2719 179.182 91.8671 181.591 91.0101 184.213C90.153 186.834 89.8632 189.608 90.1599 192.35C90.7577 198.184 93.4711 203.598 97.7879 207.568C102.105 211.539 107.726 213.791 113.59 213.9C116.348 213.946 119.085 213.404 121.618 212.312C124.152 211.219 126.423 209.599 128.283 207.561C130.142 205.523 131.547 203.113 132.403 200.49C133.26 197.867 133.548 195.093 133.25 192.35C132.65 186.517 129.935 181.106 125.619 177.138C121.302 173.169 115.682 170.918 109.82 170.81Z" fill="#F3722C"/>
    <path d="M145 214.9C132.57 214.9 121.57 204.78 120.48 192.35C120.169 189.481 120.472 186.578 121.368 183.835C122.265 181.092 123.735 178.571 125.68 176.439C127.625 174.308 130.002 172.614 132.652 171.471C135.302 170.328 138.164 169.762 141.05 169.81C147.184 169.926 153.063 172.283 157.58 176.435C162.097 180.587 164.939 186.247 165.57 192.35C165.882 195.22 165.581 198.123 164.685 200.868C163.789 203.612 162.32 206.134 160.374 208.267C158.429 210.4 156.051 212.094 153.401 213.238C150.75 214.382 147.886 214.948 145 214.9ZM141.14 170.81C138.382 170.764 135.647 171.305 133.114 172.398C130.582 173.49 128.31 175.108 126.451 177.145C124.592 179.182 123.187 181.591 122.33 184.213C121.473 186.834 121.183 189.608 121.48 192.35C122.078 198.184 124.791 203.598 129.108 207.569C133.425 211.539 139.046 213.791 144.91 213.9C147.668 213.946 150.405 213.404 152.938 212.312C155.472 211.219 157.743 209.6 159.603 207.561C161.462 205.523 162.867 203.113 163.723 200.49C164.58 197.867 164.868 195.093 164.57 192.35C163.97 186.519 161.257 181.109 156.943 177.141C152.628 173.173 147.011 170.921 141.15 170.81H141.14Z" fill="#F3722C"/>
    <path d="M121 192.77L130.46 182.41C130.28 182.1 130.08 181.79 129.89 181.49L120.89 191.34C120.89 191.68 120.89 192.02 120.95 192.34C121 192.49 121 192.63 121 192.77Z" fill="#F3722C"/>
    <path d="M131.69 184.66C131.53 184.32 131.37 183.98 131.19 183.66L121.29 194.51C121.36 194.94 121.45 195.36 121.55 195.77L131.69 184.66Z" fill="#F3722C"/>
    <path d="M132.66 187.14C132.54 186.76 132.41 186.39 132.27 186.02L122 197.29C122.12 197.67 122.25 198.04 122.38 198.41L132.66 187.14Z" fill="#F3722C"/>
    <path d="M129.14 180.35L128.49 179.51L121.1 187.61C121.02 188.18 120.97 188.75 120.94 189.33L129.14 180.35Z" fill="#F3722C"/>
    <path d="M127.61 178.47C127.38 178.21 127.14 177.96 126.89 177.71L122.41 182.63C122.088 183.422 121.817 184.233 121.6 185.06L127.61 178.47Z" fill="#F3722C"/>
    <path d="M132.59 201.42C132.863 200.667 133.094 199.899 133.28 199.12L127 206C127.23 206.26 127.47 206.52 127.71 206.77L132.59 201.42Z" fill="#F3722C"/>
    <path d="M130.09 206.16L128.63 207.76L128.73 207.86C129.213 207.318 129.667 206.751 130.09 206.16Z" fill="#F3722C"/>
    <path d="M133.39 189.89C133.31 189.47 133.21 189.06 133.11 188.65L122.94 199.8C123.093 200.14 123.253 200.473 123.42 200.8L133.39 189.89Z" fill="#F3722C"/>
    <path d="M133.7 196.65C133.76 196.1 133.8 195.54 133.81 194.98L125.45 204.14C125.66 204.43 125.87 204.71 126.09 204.99L133.7 196.65Z" fill="#F3722C"/>
    <path d="M133.79 193C133.79 192.78 133.79 192.56 133.79 192.34L133.7 191.58L124.14 202.06C124.32 202.373 124.51 202.683 124.71 202.99L133.79 193Z" fill="#F3722C"/>
    <path d="M163.24 241.5H100.32C99.4283 241.483 98.5739 241.139 97.918 240.535C97.2622 239.931 96.8502 239.107 96.76 238.22C96.7224 237.804 96.7721 237.385 96.9059 236.989C97.0398 236.593 97.2548 236.23 97.5372 235.922C97.8196 235.614 98.1632 235.369 98.546 235.201C98.9287 235.034 99.3422 234.948 99.76 234.95H162.68C163.57 234.967 164.423 235.309 165.079 235.911C165.735 236.513 166.147 237.335 166.24 238.22C166.279 238.637 166.23 239.057 166.097 239.454C165.964 239.851 165.749 240.216 165.467 240.525C165.184 240.834 164.84 241.08 164.457 241.248C164.073 241.416 163.659 241.502 163.24 241.5Z" fill="#F3722C"/>
    <path d="M156.58 254.77H112.66C111.768 254.753 110.914 254.409 110.258 253.805C109.602 253.201 109.19 252.377 109.1 251.49C109.062 251.074 109.112 250.655 109.246 250.259C109.38 249.863 109.595 249.5 109.877 249.192C110.16 248.884 110.503 248.639 110.886 248.471C111.269 248.304 111.682 248.218 112.1 248.22H156C156.891 248.235 157.745 248.576 158.401 249.179C159.057 249.781 159.47 250.604 159.56 251.49C159.599 251.905 159.551 252.324 159.419 252.719C159.287 253.115 159.074 253.479 158.793 253.787C158.513 254.096 158.171 254.343 157.79 254.512C157.409 254.681 156.997 254.769 156.58 254.77Z" fill="#F3722C"/>
    <path d="M163.24 241.5H100.32C99.4283 241.483 98.5739 241.139 97.918 240.535C97.2622 239.931 96.8502 239.107 96.76 238.22C96.7224 237.804 96.7721 237.385 96.9059 236.989C97.0398 236.593 97.2548 236.23 97.5372 235.922C97.8196 235.614 98.1632 235.369 98.546 235.201C98.9287 235.034 99.3422 234.948 99.76 234.95H162.68C163.57 234.967 164.423 235.309 165.079 235.911C165.735 236.513 166.147 237.335 166.24 238.22C166.279 238.637 166.23 239.057 166.097 239.454C165.964 239.851 165.749 240.216 165.467 240.525C165.184 240.834 164.84 241.08 164.457 241.248C164.073 241.416 163.659 241.502 163.24 241.5Z" fill="#F3722C"/>
    <path d="M156.58 254.77H112.66C111.768 254.753 110.914 254.409 110.258 253.805C109.602 253.201 109.19 252.377 109.1 251.49C109.062 251.074 109.112 250.655 109.246 250.259C109.38 249.863 109.595 249.5 109.877 249.192C110.16 248.884 110.503 248.639 110.886 248.471C111.269 248.304 111.682 248.218 112.1 248.22H156C156.891 248.235 157.745 248.576 158.401 249.179C159.057 249.781 159.47 250.604 159.56 251.49C159.599 251.905 159.551 252.324 159.419 252.719C159.287 253.115 159.074 253.479 158.793 253.787C158.513 254.096 158.171 254.343 157.79 254.512C157.409 254.681 156.997 254.769 156.58 254.77Z" fill="#F3722C"/>
    <path d="M234.62 394.33L240.86 392.36L238.34 378.03L232.09 380L234.62 394.33Z" fill="#CE7A63"/>
    <path d="M241 391.55L234 393.76C233.882 393.797 233.781 393.874 233.715 393.979C233.649 394.083 233.623 394.208 233.64 394.33L234.58 399.83C234.608 399.974 234.667 400.111 234.754 400.229C234.841 400.348 234.952 400.446 235.081 400.517C235.21 400.588 235.353 400.629 235.5 400.638C235.646 400.647 235.793 400.624 235.93 400.57C238.36 399.76 239.5 399.25 242.59 398.28C244.49 397.68 252.59 395.28 255.23 394.49C257.87 393.7 257.23 391.17 256.01 391.29C250.79 391.84 244.27 392.37 242.19 391.58C241.809 391.434 241.388 391.423 241 391.55Z" fill="#263238"/>
    <path opacity="0.2" d="M232.09 380L238.34 378.03L239.64 385.42L233.39 387.39L232.09 380Z" fill="black"/>
    <path d="M230 235C230 235 234.08 287 235.05 305.14C236.11 325.01 242.05 383.14 242.05 383.14L230.5 386.26C230.5 386.26 219.31 329.96 216.44 310.65C213.32 289.65 207.19 235.04 207.19 235.04L230 235Z" fill="#263238"/>
    <path d="M230.14 386.39L242.51 383.06L242.71 378.14L228.7 382.85L230.14 386.39Z" fill="#263238"/>
    <path d="M243.49 391.91C242.929 392.072 242.352 392.176 241.77 392.22C241.743 392.221 241.716 392.213 241.693 392.199C241.67 392.185 241.652 392.164 241.64 392.14C241.624 392.116 241.615 392.089 241.615 392.06C241.615 392.031 241.624 392.003 241.64 391.98C241.81 391.78 243.3 390.05 244.13 390.1C244.223 390.103 244.314 390.131 244.391 390.182C244.469 390.234 244.531 390.305 244.57 390.39C244.644 390.516 244.683 390.659 244.683 390.805C244.683 390.951 244.644 391.094 244.57 391.22C244.301 391.569 243.919 391.813 243.49 391.91ZM242.13 391.91C243.3 391.77 244.13 391.48 244.34 391.1C244.386 391.018 244.411 390.925 244.411 390.83C244.411 390.735 244.386 390.642 244.34 390.56C244.321 390.519 244.292 390.485 244.255 390.46C244.218 390.435 244.175 390.421 244.13 390.42C243.66 390.37 242.74 391.21 242.13 391.89V391.91Z" fill="#F3722C"/>
    <path d="M241.81 392.21H241.74C241.716 392.204 241.694 392.193 241.675 392.177C241.656 392.162 241.641 392.142 241.63 392.12C241.63 392.04 241.05 390.34 241.54 389.55C241.605 389.449 241.69 389.362 241.79 389.295C241.889 389.228 242.002 389.182 242.12 389.16C242.237 389.121 242.365 389.126 242.479 389.173C242.593 389.221 242.686 389.309 242.74 389.42C243.05 390.04 242.41 391.6 241.88 392.16L241.81 392.21ZM242.08 389.48C241.96 389.517 241.858 389.595 241.79 389.7C241.587 390.375 241.605 391.096 241.84 391.76C242.313 391.137 242.537 390.36 242.47 389.58C242.47 389.5 242.37 389.42 242.15 389.46L242.08 389.48Z" fill="#F3722C"/>
    <path opacity="0.6" d="M215.63 251.08C213.25 241.8 210.82 244.02 209.09 248.08C209.27 250.93 209.46 253.93 209.67 257.08C211.09 269.27 212.89 284.36 214.46 296.56C217.4 284.34 219 264 215.63 251.08Z" fill="black"/>
    <path d="M187.53 397.12H193.92L196.04 382.33H189.66L187.53 397.12Z" fill="#CE7A63"/>
    <path d="M194.32 396.38H187.14C187.017 396.381 186.898 396.426 186.804 396.506C186.711 396.587 186.649 396.698 186.63 396.82L185.79 402.5C185.771 402.642 185.783 402.786 185.825 402.923C185.867 403.059 185.938 403.186 186.033 403.293C186.127 403.4 186.244 403.485 186.375 403.543C186.505 403.602 186.647 403.631 186.79 403.63C189.29 403.63 190.49 403.44 193.65 403.44C195.59 403.44 203.83 403.65 206.51 403.65C209.19 403.65 209.35 401 208.23 400.75C203.23 399.68 197.05 398.19 195.37 396.75C195.073 396.51 194.702 396.379 194.32 396.38Z" fill="#263238"/>
    <path opacity="0.2" d="M189.65 382.33H196.04L194.95 389.96H188.56L189.65 382.33Z" fill="black"/>
    <path d="M218.52 234.62C218.52 234.62 214.86 283.44 212.22 301.73C209.34 321.73 197.85 388.12 197.85 388.12H186.15C186.15 388.12 192.15 323.38 193.15 303.55C194.27 282.03 196.43 234.62 196.43 234.62H218.52Z" fill="#263238"/>
    <path d="M185.68 388.12H198.32L199.41 383.68L185.39 384.37L185.68 388.12Z" fill="#263238"/>
    <path d="M196.49 397.5C195.923 397.487 195.359 397.41 194.81 397.27C194.781 397.264 194.755 397.249 194.736 397.228C194.716 397.206 194.703 397.179 194.7 397.15C194.701 397.12 194.708 397.092 194.722 397.065C194.736 397.039 194.756 397.017 194.78 397C194.99 396.86 196.91 395.62 197.66 395.93C197.747 395.963 197.822 396.02 197.877 396.094C197.932 396.169 197.964 396.257 197.97 396.35C198 396.495 197.993 396.645 197.949 396.787C197.905 396.929 197.826 397.057 197.72 397.16C197.363 397.414 196.927 397.534 196.49 397.5ZM195.23 397.05C195.981 397.313 196.805 397.277 197.53 396.95C197.597 396.881 197.646 396.796 197.672 396.704C197.698 396.611 197.701 396.514 197.68 396.42C197.679 396.374 197.664 396.329 197.637 396.292C197.61 396.254 197.573 396.226 197.53 396.21C197.13 396 196 396.58 195.23 397.05Z" fill="#F3722C"/>
    <path d="M194.84 397.27H194.77C194.749 397.257 194.732 397.239 194.72 397.219C194.708 397.198 194.701 397.174 194.7 397.15C194.7 397.07 194.7 395.23 195.42 394.61C195.506 394.529 195.609 394.467 195.721 394.431C195.834 394.395 195.953 394.384 196.07 394.4C196.193 394.404 196.311 394.451 196.403 394.533C196.494 394.616 196.553 394.728 196.57 394.85C196.65 395.55 195.57 396.85 194.92 397.26C194.895 397.272 194.867 397.275 194.84 397.27ZM195.94 394.68C195.818 394.682 195.701 394.729 195.61 394.81C195.214 395.401 195.005 396.098 195.01 396.81C195.61 396.34 196.33 395.33 196.27 394.87C196.27 394.79 196.22 394.68 196.01 394.66L195.94 394.68Z" fill="#F3722C"/>
    <path d="M232.64 182.65C234.2 186.26 235.97 190.02 237.84 193.5C238.77 195.26 239.77 196.95 240.84 198.5C241.744 199.959 242.822 201.302 244.05 202.5C244.26 202.696 244.484 202.877 244.72 203.04C244.9 203.17 245.02 203.22 245.02 203.23C245.02 203.24 244.9 203.28 245.02 203.29C245.178 203.297 245.336 203.266 245.48 203.2C246.119 202.938 246.71 202.574 247.23 202.12C247.936 201.565 248.604 200.964 249.23 200.32C251.896 197.364 254.327 194.205 256.5 190.87L260.5 192.75C259.132 197.01 257.159 201.052 254.64 204.75C253.945 205.746 253.176 206.689 252.34 207.57C251.359 208.603 250.234 209.489 249 210.2C248.221 210.657 247.379 210.994 246.5 211.2C245.458 211.416 244.382 211.416 243.34 211.2C241.677 210.834 240.122 210.084 238.8 209.01C236.864 207.429 235.151 205.592 233.71 203.55C232.383 201.726 231.158 199.829 230.04 197.87C228.95 195.94 227.92 194.01 226.99 192.04C226.06 190.07 225.16 188.14 224.33 186.04L232.64 182.65Z" fill="#CE7A63"/>
    <path d="M243.21 198L233.12 205.53C233.12 205.53 232.73 205.11 232.12 204.37C231.65 203.82 231.05 203.1 230.35 202.26C226.43 197.48 220.7 188.76 220.65 184.49C220.58 178.12 227.19 177.18 234.65 183.69C237.85 186.5 239.53 191.17 241.15 194.06C241.69 195.01 242.15 195.85 242.5 196.5C242.93 197.41 243.21 198 243.21 198Z" fill="#F3722C"/>
    <path opacity="0.6" d="M243.21 198L233.12 205.53C233.12 205.53 232.73 205.11 232.12 204.37C231.65 203.82 231.05 203.1 230.35 202.26C226.43 197.48 220.7 188.76 220.65 184.49C220.58 178.12 227.19 177.18 234.65 183.69C237.85 186.5 239.53 191.17 241.15 194.06C241.69 195.01 242.15 195.85 242.5 196.5C242.93 197.41 243.21 198 243.21 198Z" fill="white"/>
    <path opacity="0.3" d="M220.55 185.19C222.83 183.68 224.5 187.59 229.01 190.88C231.01 192.35 235.42 201.94 235.06 204.05L233.11 205.5C233.11 205.5 220.5 191.54 220.55 185.19Z" fill="black"/>
    <path d="M255.93 191.13L258.13 184.13L263.83 188.32C263.83 188.32 260.72 194.58 258.61 194.01L255.93 191.13Z" fill="#CE7A63"/>
    <path d="M243.21 196.99L232.18 205.24L233.55 206.68L244.05 198.93L243.21 196.99Z" fill="#F3722C"/>
    <path opacity="0.8" d="M243.21 196.99L232.18 205.24L233.55 206.68L244.05 198.93L243.21 196.99Z" fill="white"/>
    <path d="M230.61 235H196.44C196.2 232 196.9 222 196.38 209.38C196.051 200.009 194.913 190.685 192.98 181.51C192.83 180.82 192.67 180.14 192.51 179.45C192.51 179.45 194.24 179.1 196.72 178.74C198.78 178.44 201.37 178.12 203.9 178C208.736 177.73 213.584 177.73 218.42 178C220.65 178.21 222.83 178.58 224.57 178.92C226.8 179.37 228.11 179.75 228.11 179.75C228.11 179.75 236.53 199 230.61 235Z" fill="#F3722C"/>
    <path opacity="0.6" d="M230.61 235H196.44C196.2 232 196.9 222 196.38 209.38C196.051 200.009 194.913 190.685 192.98 181.51C192.83 180.82 192.67 180.14 192.51 179.45C192.51 179.45 194.24 179.1 196.72 178.74C198.78 178.44 201.37 178.12 203.9 178C208.736 177.73 213.584 177.73 218.42 178C220.65 178.21 222.83 178.58 224.57 178.92C226.8 179.37 228.11 179.75 228.11 179.75C228.11 179.75 236.53 199 230.61 235Z" fill="white"/>
    <path d="M264.14 181.41L267.35 185.35L263.83 188.28L258.13 184.1L264.14 181.41Z" fill="#CE7A63"/>
    <path d="M197.59 186.07C197.25 188.24 196.81 190.23 196.34 192.29C195.87 194.35 195.34 196.36 194.68 198.4C194.041 200.467 193.297 202.5 192.45 204.49C191.542 206.668 190.388 208.735 189.01 210.65C188.122 211.86 187.032 212.908 185.79 213.75C184.956 214.299 184.032 214.695 183.06 214.92C181.971 215.17 180.839 215.17 179.75 214.92C178.066 214.452 176.554 213.503 175.4 212.19C174.538 211.238 173.796 210.183 173.19 209.05C172.127 207.085 171.282 205.009 170.67 202.86C170.36 201.86 170.11 200.79 169.89 199.75C169.67 198.71 169.46 197.75 169.32 196.59L173.62 195.41C175.141 198.848 177.004 202.124 179.18 205.19C179.631 205.78 180.144 206.319 180.71 206.8C181.18 207.19 181.59 207.27 181.47 207.16C181.374 207.11 181.268 207.083 181.16 207.08C181.08 207.08 181.08 207.08 181.16 207C181.542 206.632 181.878 206.219 182.16 205.77C183.048 204.339 183.778 202.817 184.34 201.23C184.99 199.53 185.55 197.72 186.07 195.88C187.07 192.22 187.99 188.33 188.71 184.63L197.59 186.07Z" fill="#CE7A63"/>
    <path d="M174.13 195.77L171.94 188.77L166.23 192.96C166.23 192.96 169.35 199.22 171.46 198.65L174.13 195.77Z" fill="#CE7A63"/>
    <path d="M165.92 186.05L162.71 189.99L166.23 192.93L171.94 188.74L165.92 186.05Z" fill="#CE7A63"/>
    <path opacity="0.3" d="M196.38 209.33C196.051 199.959 194.913 190.635 192.98 181.46C195.27 181.27 199.17 181.46 199.82 185.18C200.51 189.14 199.64 198.47 196.38 209.33Z" fill="black"/>
    <path d="M200.66 190.37C199.267 194.717 197.617 198.978 195.72 203.13C195.31 204.07 194.93 204.9 194.62 205.57L193.73 207.47L180.94 201C180.94 201 181.08 200.47 181.34 199.57C181.53 198.89 181.78 198.01 182.1 196.98C183.98 190.98 187.89 180.18 192.1 179.43C198.28 178.25 202.94 182.77 200.66 190.37Z" fill="#F3722C"/>
    <path opacity="0.6" d="M200.66 190.37C199.267 194.717 197.617 198.978 195.72 203.13C195.31 204.07 194.93 204.9 194.62 205.57L193.73 207.47L180.94 201C180.94 201 181.08 200.47 181.34 199.57C181.53 198.89 181.78 198.01 182.1 196.98C183.98 190.98 187.89 180.18 192.1 179.43C198.28 178.25 202.94 182.77 200.66 190.37Z" fill="white"/>
    <path d="M212.27 182.75C203.83 182.52 202.56 178.4 202.51 178.22V178.04L203.95 177.95C208.786 177.68 213.634 177.68 218.47 177.95L219.29 178.04C219.642 178.335 219.914 178.714 220.081 179.143C220.247 179.571 220.302 180.035 220.24 180.49C219.87 181.93 217.89 182.41 216.16 182.61L212.27 182.75Z" fill="white"/>
    <path d="M181.24 198.65L195.22 205.8L193.64 207.74L180.64 200.99L181.24 198.65Z" fill="#F3722C"/>
    <path opacity="0.8" d="M181.24 198.65L195.22 205.8L193.64 207.74L180.64 200.99L181.24 198.65Z" fill="white"/>
    <path d="M211.56 183.38L217.22 182.75L215.97 186.55C215.97 186.55 219.86 206.81 220.62 213.63C221.07 217.72 221.47 230.05 221.47 230.05L218.52 233.3L214.14 231.22C214.14 231.22 214.24 217.34 214.22 212.72C214.22 206.17 213.89 186.55 213.89 186.55L211.35 184.1L211.56 183.38Z" fill="#263238"/>
    <path d="M210.18 187.11L214.3 183.36L219.38 186.86C219.38 186.86 224.64 181.86 220.73 178.23C219.98 178.12 219.21 178.03 218.42 177.95C213.584 177.68 208.736 177.68 203.9 177.95C202.9 178 201.9 178.08 200.9 178.18C201.23 179.59 202.72 184.22 210.18 187.11Z" fill="#F3722C"/>
    <path opacity="0.8" d="M210.18 187.11L214.3 183.36L219.38 186.86C219.38 186.86 224.64 181.86 220.73 178.23C219.98 178.12 219.21 178.03 218.42 177.95C213.584 177.68 208.736 177.68 203.9 177.95C202.9 178 201.9 178.08 200.9 178.18C201.23 179.59 202.72 184.22 210.18 187.11Z" fill="white"/>
    <path d="M212.54 181.9C204.41 181.76 203.34 177.99 203.34 177.99C206.5 174.87 205.29 166.35 204.21 161.67L208.1 164.89L213.39 169.29C213.229 169.992 213.115 170.703 213.05 171.42C212.77 174.29 213.51 176.9 217.73 177.9C217.73 177.9 222.73 181.22 215.31 181.82L212.54 181.9Z" fill="#CE7A63"/>
    <path opacity="0.2" d="M213.39 169.29C213.229 169.992 213.115 170.703 213.05 171.42C211.05 171.03 208.44 168.92 208.17 166.91C208.072 166.248 208.048 165.577 208.1 164.91L213.39 169.29Z" fill="black"/>
    <path d="M202.61 154.94C203.96 161.15 204.43 164.84 208.1 167.68C209.286 168.614 210.706 169.205 212.204 169.39C213.703 169.574 215.223 169.345 216.601 168.727C217.979 168.108 219.161 167.125 220.019 165.883C220.877 164.641 221.379 163.187 221.47 161.68C221.96 155.9 219.67 146.68 213.13 144.95C211.72 144.528 210.223 144.485 208.791 144.827C207.359 145.169 206.043 145.883 204.975 146.896C203.908 147.91 203.127 149.188 202.711 150.6C202.296 152.013 202.261 153.51 202.61 154.94Z" fill="#CE7A63"/>
    <path d="M212.41 155.55C212.49 156.06 212.82 156.44 213.16 156.4C213.5 156.36 213.7 155.92 213.62 155.4C213.54 154.88 213.21 154.51 212.87 154.55C212.53 154.59 212.33 155 212.41 155.55Z" fill="#263238"/>
    <path d="M218.19 154.87C218.27 155.38 218.61 155.76 218.94 155.72C219.27 155.68 219.48 155.23 219.41 154.72C219.34 154.21 218.99 153.83 218.66 153.87C218.33 153.91 218.12 154.36 218.19 154.87Z" fill="#263238"/>
    <path d="M216.39 155.34C217.245 156.829 218.295 158.197 219.51 159.41C219.194 159.701 218.818 159.918 218.408 160.046C217.998 160.174 217.565 160.21 217.14 160.15L216.39 155.34Z" fill="#BA4D3C"/>
    <path d="M210.33 153.91C210.284 153.925 210.235 153.925 210.19 153.91C210.155 153.891 210.124 153.866 210.099 153.835C210.074 153.804 210.055 153.768 210.044 153.73C210.033 153.692 210.03 153.652 210.034 153.612C210.038 153.573 210.051 153.535 210.07 153.5C210.29 153.077 210.612 152.716 211.006 152.449C211.401 152.182 211.856 152.017 212.33 151.97C212.37 151.966 212.41 151.97 212.448 151.982C212.486 151.994 212.521 152.014 212.551 152.04C212.581 152.066 212.605 152.099 212.622 152.135C212.639 152.171 212.649 152.21 212.65 152.25C212.653 152.29 212.647 152.331 212.634 152.369C212.621 152.407 212.6 152.442 212.573 152.472C212.546 152.501 212.513 152.526 212.476 152.542C212.44 152.559 212.4 152.569 212.36 152.57C211.99 152.616 211.637 152.751 211.33 152.964C211.024 153.176 210.773 153.46 210.6 153.79C210.568 153.83 210.527 153.862 210.48 153.883C210.433 153.904 210.381 153.913 210.33 153.91Z" fill="#263238"/>
    <path d="M220.37 152.59C220.321 152.588 220.274 152.575 220.23 152.553C220.187 152.531 220.149 152.499 220.12 152.46C219.912 152.133 219.632 151.858 219.301 151.657C218.969 151.455 218.596 151.333 218.21 151.3C218.13 151.3 218.054 151.268 217.998 151.212C217.942 151.156 217.91 151.08 217.91 151C217.91 150.92 217.942 150.844 217.998 150.788C218.054 150.732 218.13 150.7 218.21 150.7C218.693 150.732 219.162 150.877 219.579 151.124C219.996 151.37 220.349 151.712 220.61 152.12C220.633 152.153 220.648 152.19 220.657 152.229C220.665 152.267 220.665 152.308 220.658 152.347C220.65 152.386 220.635 152.423 220.613 152.456C220.591 152.489 220.563 152.518 220.53 152.54C220.482 152.57 220.427 152.587 220.37 152.59Z" fill="#263238"/>
    <path d="M204.87 160C204.87 160 207.62 161.81 207.37 159.62C207.12 157.43 206.12 150.06 206.12 150.06L209.18 147.56C209.18 147.56 222.18 147.65 221.38 141.04C220.58 134.43 214.49 139.66 214.49 139.66C214.49 139.66 215.73 135.93 211.36 136C210.178 135.982 209.03 136.397 208.133 137.167C207.235 137.937 206.651 139.009 206.49 140.18C206.49 140.18 202.37 137.75 200.34 139.93C199.727 140.684 199.274 141.556 199.009 142.491C198.745 143.427 198.673 144.406 198.8 145.37C198.8 145.37 188.8 146.78 195.3 156.37C201.8 165.96 206.62 167.11 204.87 160Z" fill="#263238"/>
    <path d="M201.18 161.42C202.184 162.633 203.576 163.463 205.12 163.77C207.12 164.1 207.52 162.28 206.52 160.53C205.63 158.95 203.52 156.88 201.78 157.34C200.04 157.8 199.91 159.89 201.18 161.42Z" fill="#CE7A63"/>
    <path d="M210.3 168.16C209.41 165.9 208.18 161.92 209.49 158.49C210.8 155.06 215.62 160.99 217.3 160.99C218.98 160.99 220.41 158.36 221.42 160.17C222.43 161.98 218.12 172.39 217.21 169.66C217.21 169.66 215.99 171.53 214.87 169.82C214.87 169.82 214.11 171.26 212.93 169.82C212.93 169.82 211.25 170.56 210.3 168.16Z" fill="#263238"/>
    <path opacity="0.3" d="M210.3 168.16C209.41 165.9 208.18 161.92 209.49 158.49C210.8 155.06 215.62 160.99 217.3 160.99C218.98 160.99 220.41 158.36 221.42 160.17C222.43 161.98 218.12 172.39 217.21 169.66C217.21 169.66 215.99 171.53 214.87 169.82C214.87 169.82 214.11 171.26 212.93 169.82C212.93 169.82 211.25 170.56 210.3 168.16Z" fill="white"/>
    <path d="M218.87 161.84C216.482 161.4 214.058 161.189 211.63 161.21C212.21 162.83 213.34 164.21 216.08 164.21C216.421 164.25 216.767 164.22 217.096 164.12C217.424 164.021 217.729 163.855 217.991 163.632C218.253 163.41 218.466 163.136 218.617 162.828C218.768 162.519 218.854 162.183 218.87 161.84Z" fill="#263238"/>
    <path d="M214.85 162.92C215.916 162.883 216.966 163.184 217.85 163.78C217.331 164.099 216.728 164.252 216.12 164.22C215.053 164.271 213.998 163.969 213.12 163.36C213.637 163.036 214.242 162.882 214.85 162.92Z" fill="#A02724"/>
    <path d="M218.62 161.79C218.563 161.986 218.452 162.162 218.3 162.298C218.148 162.434 217.961 162.525 217.76 162.56C216.16 162.509 214.568 162.321 213 162C212.75 161.974 212.511 161.885 212.305 161.742C212.098 161.598 211.932 161.405 211.82 161.18C214.099 161.202 216.373 161.406 218.62 161.79Z" fill="white"/>
    <path d="M408 237.59C407.62 237.5 407.15 237.84 407 238.41C406.85 238.98 406.94 239.57 407.32 239.66C407.7 239.75 408.17 239.41 408.32 238.84C408.47 238.27 408.33 237.68 408 237.59Z" fill="#2E353A"/>
    <path d="M405.91 243.77C405.483 243.726 405.07 243.589 404.702 243.368C404.334 243.147 404.019 242.847 403.78 242.49C405.251 241.6 406.596 240.517 407.78 239.27L405.91 243.77Z" fill="#A02724"/>
    <path d="M410.5 236.71C410.425 236.284 410.251 235.881 409.992 235.534C409.733 235.187 409.397 234.905 409.01 234.71C408.967 234.693 408.929 234.668 408.896 234.636C408.863 234.604 408.836 234.565 408.818 234.523C408.782 234.438 408.781 234.341 408.815 234.255C408.85 234.169 408.917 234.1 409.002 234.063C409.088 234.027 409.184 234.026 409.27 234.06C409.776 234.296 410.216 234.653 410.551 235.099C410.886 235.546 411.106 236.068 411.19 236.62C411.205 236.71 411.184 236.802 411.131 236.877C411.079 236.952 411 237.003 410.91 237.02H410.72C410.659 236.993 410.606 236.95 410.567 236.896C410.528 236.841 410.505 236.777 410.5 236.71Z" fill="#2E353A"/>
    <path d="M424.63 264.48C425.02 266.21 425.28 267.03 423.73 267.78C420.532 269.459 416.879 270.065 413.31 269.51C409.62 268.88 408.96 267.56 409.11 266.51C409.238 266.104 409.458 265.733 409.752 265.426C410.047 265.119 410.409 264.884 410.81 264.74C411.629 264.385 412.325 263.797 412.811 263.048C413.297 262.298 413.55 261.423 413.54 260.53C413.691 259.581 413.67 258.612 413.48 257.67L420.08 253.3L425.08 247.75C423.834 253.243 423.681 258.928 424.63 264.48Z" fill="#B55B52"/>
    <path d="M403.87 268.34C403.87 268.34 406.31 261.61 410.27 260.05C414.23 258.49 426.1 259.37 426.1 259.37C426.659 261.799 427.401 264.183 428.32 266.5L403.87 268.34Z" fill="#F3722C"/>
    <path d="M428.1 240.3C428.066 238.979 427.771 237.677 427.232 236.471C426.692 235.265 425.919 234.177 424.956 233.271C423.994 232.366 422.862 231.66 421.625 231.194C420.388 230.729 419.071 230.513 417.75 230.56C410.11 230.84 405.64 240.65 404.96 247.34C404.2 254.76 411.51 260.99 418.52 257.61C423.18 255.36 424.52 251.3 427.28 244.61C427.869 243.252 428.149 241.78 428.1 240.3Z" fill="#B55B52"/>
    <path opacity="0.2" d="M426.88 262.3C427.3 263.72 427.78 265.12 428.32 266.5L405.73 268.2C406.289 266.865 406.99 265.595 407.82 264.41C413.28 262.2 422.82 262.19 426.88 262.3Z" fill="black"/>
    <path d="M422.74 254.71C421.536 254.457 420.293 254.457 419.09 254.71C418.5 254.837 417.884 254.763 417.341 254.501C416.797 254.238 416.357 253.801 416.09 253.26L412.52 245.84C412.52 245.84 407.4 244.14 413.67 233.91C413.67 233.91 401.74 229.96 410.55 221.85C419.36 213.74 413.67 224.71 413.67 224.71C413.67 224.71 424.81 218.71 419.24 226.31C419.24 226.31 436.24 227.17 432.05 236.39C432.05 236.39 439.05 236.53 425.34 253.73C425.041 254.119 424.639 254.417 424.179 254.59C423.72 254.763 423.222 254.805 422.74 254.71Z" fill="#263238"/>
    <path d="M415.2 241.06C413.28 240.78 411.2 242.71 410.54 244.43C409.79 246.43 410.77 248.63 412.79 248.09C414.349 247.642 415.69 246.639 416.56 245.27C417.64 243.56 417.12 241.34 415.2 241.06Z" fill="#B55B52"/>
    <path d="M425.37 273.21C426.24 274.95 427.21 276.86 428.08 278.7C428.95 280.54 429.83 282.43 430.62 284.3C431.41 286.17 432.19 288.03 432.83 289.87C433.456 291.569 433.934 293.319 434.26 295.1C434.373 295.703 434.43 296.316 434.43 296.93C434.427 296.983 434.427 297.037 434.43 297.09L434.48 297C434.01 297.488 433.512 297.948 432.99 298.38C432.28 298.86 431.48 299.38 430.64 299.84C427.24 301.75 423.32 303.46 419.54 305.2L420.81 310.48C423.054 310.312 425.285 310.002 427.49 309.55C429.744 309.115 431.966 308.527 434.14 307.79C435.306 307.398 436.445 306.931 437.55 306.39C438.878 305.764 440.118 304.967 441.24 304.02C442.047 303.309 442.724 302.463 443.24 301.52C443.325 301.374 443.401 301.224 443.47 301.07L443.64 300.68C443.75 300.42 443.83 300.18 443.91 299.93C444.058 299.468 444.175 298.997 444.26 298.52C444.517 297.004 444.571 295.46 444.42 293.93C444.159 291.463 443.667 289.025 442.95 286.65C442.29 284.4 441.52 282.25 440.7 280.14C439.88 278.03 439 276 438.06 274C437.12 272 436.14 270 434.99 268L425.37 273.21Z" fill="#B55B52"/>
    <path d="M422 305.41L413.87 303.32L413.2 310.63C413.2 310.63 418.68 312.89 422.06 309.35L422 305.41Z" fill="#B55B52"/>
    <path d="M410.64 304.39L408.91 310.29L413.24 310.63L413.91 303.32L410.64 304.39Z" fill="#B55B52"/>
    <path d="M442.63 281.82L428.78 288.69C428.78 288.69 428.05 288.5 422.57 279.74C416.22 269.55 419.7 263.82 427.36 263.54C435.19 263.25 438 272.94 442.63 281.82Z" fill="#F3722C"/>
    <path opacity="0.2" d="M438.32 283.95L431.69 287.24L428.32 283.26L432.06 273.27L433.1 272.13L435.7 271.75L438.32 283.95Z" fill="black"/>
    <path d="M352.34 390.19L345.45 387.2L340.15 403.8L347.05 406.79L352.34 390.19Z" fill="#B55B52"/>
    <path opacity="0.2" d="M352.34 390.19L345.45 387.2L342.81 395.5L349.77 398.23L352.34 390.19Z" fill="black"/>
    <path d="M339.38 400.88C337.32 402.61 333.12 403.88 329.89 404.05C327.41 404.17 327.2 407.05 330.31 407.55C333.42 408.05 338.84 407.83 341.12 407.92C344.82 408.06 346.12 408.67 349 408.62C349.35 408.602 349.679 408.447 349.917 408.189C350.154 407.931 350.281 407.59 350.27 407.24L349.65 400.6C349.637 400.46 349.571 400.329 349.465 400.236C349.359 400.143 349.221 400.094 349.08 400.1L340.65 400.37C340.184 400.402 339.739 400.581 339.38 400.88Z" fill="#263238"/>
    <path d="M415.29 321.7C415.29 321.7 421.07 328.56 416.41 339.42C411.14 351.73 383.19 346.32 367.93 350.24C365.75 371.98 353.07 394.24 353.07 394.24L342.46 390.08C342.46 390.08 347.06 372.77 350.51 342.08C352.2 326.99 390.51 325.33 390.51 325.33L415.29 321.7Z" fill="#263238"/>
    <path d="M355.18 392.32L341.67 387.59L340.85 392.54L353.16 397.01L355.18 392.32Z" fill="#263238"/>
    <path d="M384.97 397.3L377.53 396.94L378.75 414.5L386.19 414.86L384.97 397.3Z" fill="#B55B52"/>
    <path d="M376.72 412.66C374.66 414.38 371.18 416.77 367.99 417.23C365.94 417.52 364.4 420.62 368.23 420.62C372.06 420.62 376.23 420.26 378.47 420.19C382.17 420.07 383.4 420.4 386.33 420.4C386.506 420.392 386.678 420.35 386.837 420.275C386.996 420.201 387.139 420.095 387.257 419.965C387.375 419.835 387.466 419.682 387.525 419.517C387.584 419.351 387.61 419.176 387.6 419L386.99 412.35C386.977 412.208 386.909 412.078 386.801 411.986C386.692 411.894 386.552 411.849 386.41 411.86L378 412.13C377.526 412.157 377.075 412.344 376.72 412.66Z" fill="#263238"/>
    <path opacity="0.2" d="M385.65 406.98L378.24 406.99L377.53 396.95L384.97 397.31L385.65 406.98Z" fill="black"/>
    <path d="M433.88 322.89C433.88 322.89 439.98 335.32 434.05 343.23C428.68 350.41 401.27 350.89 387.34 350.89C388.72 367.89 387.19 402.79 387.19 402.79L376 402.64C376 402.64 368.12 369.07 366.5 345.58C365.6 332.58 412.04 323.89 412.04 323.89L433.88 322.89Z" fill="#263238"/>
    <path d="M388.71 400.48L373.39 400.03L374.05 404.61L388.13 404.81L388.71 400.48Z" fill="#263238"/>
    <path d="M435.23 323.54L389.4 325.45L393.71 274C393.946 271.192 395.228 268.575 397.302 266.667C399.377 264.759 402.092 263.7 404.91 263.7H427.75C429.863 263.713 431.885 264.562 433.375 266.061C434.864 267.56 435.7 269.587 435.7 271.7L435.23 323.54Z" fill="#F3722C"/>
    <path d="M396.2 271.43L395 274.14C394.56 275.07 394.11 276 393.64 276.92C392.7 278.75 391.77 280.58 390.76 282.35C389.75 284.12 388.76 285.87 387.63 287.54C386.579 289.188 385.431 290.77 384.19 292.28C383.613 293.008 382.999 293.706 382.35 294.37C382.195 294.479 382.016 294.55 381.828 294.576C381.64 294.602 381.449 294.583 381.27 294.52C380.446 294.302 379.637 294.028 378.85 293.7C375.165 291.999 371.608 290.03 368.21 287.81L364.52 291.81C365.958 293.599 367.519 295.287 369.19 296.86C370.905 298.495 372.762 299.975 374.74 301.28C375.842 302.009 377.007 302.638 378.22 303.16C379.773 303.847 381.451 304.208 383.15 304.22C384.382 304.211 385.598 303.931 386.71 303.4C387.328 303.1 387.906 302.724 388.43 302.28L389.15 301.67C390.09 300.84 390.99 299.99 391.82 299.11C395.008 295.676 397.821 291.911 400.21 287.88C401.38 285.88 402.5 283.93 403.51 281.88C404.02 280.88 404.51 279.88 405 278.82C405.49 277.76 405.91 276.82 406.39 275.6L396.2 271.43Z" fill="#B55B52"/>
    <path d="M369.35 289.66L365.73 282.08L359.73 286.27C359.73 286.27 361.52 291.92 366.4 292.27L369.35 289.66Z" fill="#B55B52"/>
    <path d="M362.81 280.26L357.18 282.73L359.7 286.27L365.73 282.08L362.81 280.26Z" fill="#B55B52"/>
    <path d="M401.11 291L388.17 282.54C388.17 282.54 387.96 281.8 392.74 272.66C398.3 262.02 405 262.11 409.12 268.56C413.35 275.18 406.41 282.51 401.11 291Z" fill="#F3722C"/>
    <path d="M457 420.35C457.106 420.293 457.2 420.216 457.276 420.123C457.353 420.03 457.409 419.923 457.444 419.807C457.478 419.692 457.489 419.571 457.477 419.451C457.464 419.332 457.428 419.216 457.37 419.11L422.03 354.11C421.973 354.005 421.895 353.912 421.801 353.837C421.708 353.761 421.6 353.706 421.485 353.672C421.37 353.639 421.249 353.628 421.13 353.642C421.01 353.655 420.895 353.692 420.79 353.75C420.684 353.806 420.591 353.882 420.514 353.974C420.438 354.066 420.381 354.173 420.347 354.287C420.313 354.402 420.301 354.522 420.314 354.641C420.326 354.76 420.362 354.875 420.42 354.98L455.77 419.98C455.826 420.086 455.902 420.18 455.994 420.256C456.086 420.332 456.193 420.389 456.307 420.423C456.422 420.458 456.542 420.469 456.661 420.456C456.78 420.444 456.895 420.408 457 420.35Z" fill="#F3722C"/>
    <g opacity="0.2">
    <path d="M457 420.35C457.106 420.293 457.2 420.216 457.276 420.123C457.353 420.03 457.409 419.923 457.444 419.807C457.478 419.692 457.489 419.571 457.477 419.451C457.464 419.332 457.428 419.216 457.37 419.11L422.03 354.11C421.973 354.005 421.895 353.912 421.801 353.837C421.708 353.761 421.6 353.706 421.485 353.672C421.37 353.639 421.249 353.628 421.13 353.642C421.01 353.655 420.895 353.692 420.79 353.75C420.684 353.806 420.591 353.882 420.514 353.974C420.438 354.066 420.381 354.173 420.347 354.287C420.313 354.402 420.301 354.522 420.314 354.641C420.326 354.76 420.362 354.875 420.42 354.98L455.77 419.98C455.826 420.086 455.902 420.18 455.994 420.256C456.086 420.332 456.193 420.389 456.307 420.423C456.422 420.458 456.542 420.469 456.661 420.456C456.78 420.444 456.895 420.408 457 420.35Z" fill="black"/>
    </g>
    <path opacity="0.2" d="M439.9 390.86L436.79 385.12L437.83 383.2L440.94 388.94L439.9 390.86Z" fill="black"/>
    <path d="M406.46 420.35C406.566 420.293 406.66 420.216 406.736 420.123C406.812 420.03 406.869 419.923 406.904 419.807C406.938 419.692 406.949 419.571 406.937 419.451C406.924 419.332 406.888 419.216 406.83 419.11L371.49 354.11C371.433 354.005 371.355 353.912 371.261 353.837C371.168 353.761 371.06 353.706 370.945 353.672C370.83 353.639 370.709 353.628 370.59 353.642C370.47 353.655 370.355 353.692 370.25 353.75C370.144 353.806 370.05 353.882 369.974 353.974C369.898 354.066 369.841 354.173 369.807 354.287C369.773 354.402 369.761 354.522 369.774 354.641C369.786 354.76 369.822 354.875 369.88 354.98L405.23 419.98C405.286 420.086 405.362 420.18 405.454 420.256C405.546 420.332 405.653 420.389 405.767 420.423C405.882 420.458 406.002 420.469 406.121 420.456C406.24 420.444 406.355 420.408 406.46 420.35Z" fill="#F3722C"/>
    <g opacity="0.2">
    <path d="M406.46 420.35C406.566 420.293 406.66 420.216 406.736 420.123C406.812 420.03 406.869 419.923 406.904 419.807C406.938 419.692 406.949 419.571 406.937 419.451C406.924 419.332 406.888 419.216 406.83 419.11L371.49 354.11C371.433 354.005 371.355 353.912 371.261 353.837C371.168 353.761 371.06 353.706 370.945 353.672C370.83 353.639 370.709 353.628 370.59 353.642C370.47 353.655 370.355 353.692 370.25 353.75C370.144 353.806 370.05 353.882 369.974 353.974C369.898 354.066 369.841 354.173 369.807 354.287C369.773 354.402 369.761 354.522 369.774 354.641C369.786 354.76 369.822 354.875 369.88 354.98L405.23 419.98C405.286 420.086 405.362 420.18 405.454 420.256C405.546 420.332 405.653 420.389 405.767 420.423C405.882 420.458 406.002 420.469 406.121 420.456C406.24 420.444 406.355 420.408 406.46 420.35Z" fill="black"/>
    </g>
    <path opacity="0.2" d="M389.4 390.86L386.28 385.12L387.32 383.2L390.44 388.94L389.4 390.86Z" fill="black"/>
    <path d="M371.49 420L406.83 355C406.888 354.895 406.924 354.78 406.936 354.661C406.949 354.542 406.938 354.422 406.903 354.307C406.869 354.193 406.812 354.086 406.736 353.994C406.66 353.902 406.566 353.826 406.46 353.77C406.356 353.712 406.241 353.675 406.123 353.662C406.004 353.649 405.884 353.659 405.77 353.693C405.655 353.726 405.549 353.782 405.456 353.857C405.363 353.932 405.287 354.025 405.23 354.13L369.88 419.13C369.822 419.236 369.786 419.352 369.773 419.471C369.761 419.591 369.772 419.712 369.806 419.827C369.841 419.943 369.898 420.05 369.974 420.143C370.05 420.236 370.144 420.313 370.25 420.37C370.356 420.428 370.472 420.464 370.591 420.477C370.711 420.489 370.832 420.478 370.947 420.444C371.063 420.409 371.17 420.352 371.263 420.276C371.356 420.2 371.433 420.106 371.49 420Z" fill="#F3722C"/>
    <g opacity="0.2">
    <path d="M371.49 420L406.83 355C406.888 354.895 406.924 354.78 406.936 354.661C406.949 354.542 406.938 354.422 406.903 354.307C406.869 354.193 406.812 354.086 406.736 353.994C406.66 353.902 406.566 353.826 406.46 353.77C406.356 353.712 406.241 353.675 406.123 353.662C406.004 353.649 405.884 353.659 405.77 353.693C405.655 353.726 405.549 353.782 405.456 353.857C405.363 353.932 405.287 354.025 405.23 354.13L369.88 419.13C369.822 419.236 369.786 419.352 369.773 419.471C369.761 419.591 369.772 419.712 369.806 419.827C369.841 419.943 369.898 420.05 369.974 420.143C370.05 420.236 370.144 420.313 370.25 420.37C370.356 420.428 370.472 420.464 370.591 420.477C370.711 420.489 370.832 420.478 370.947 420.444C371.063 420.409 371.17 420.352 371.263 420.276C371.356 420.2 371.433 420.106 371.49 420Z" fill="black"/>
    </g>
    <path d="M422 420L457.34 355C457.398 354.895 457.434 354.78 457.446 354.661C457.459 354.542 457.448 354.422 457.413 354.307C457.379 354.193 457.322 354.086 457.246 353.994C457.17 353.902 457.076 353.826 456.97 353.77C456.866 353.712 456.751 353.675 456.633 353.662C456.514 353.649 456.394 353.659 456.28 353.693C456.165 353.726 456.059 353.782 455.966 353.857C455.873 353.932 455.797 354.025 455.74 354.13L420.39 419.13C420.332 419.236 420.296 419.352 420.283 419.471C420.271 419.591 420.282 419.712 420.316 419.827C420.351 419.943 420.408 420.05 420.484 420.143C420.56 420.236 420.654 420.313 420.76 420.37C420.866 420.428 420.982 420.464 421.101 420.477C421.221 420.489 421.342 420.478 421.457 420.444C421.573 420.409 421.68 420.352 421.773 420.276C421.866 420.2 421.943 420.106 422 420Z" fill="#F3722C"/>
    <g opacity="0.2">
    <path d="M422 420L457.34 355C457.398 354.895 457.434 354.78 457.446 354.661C457.459 354.542 457.448 354.422 457.413 354.307C457.379 354.193 457.322 354.086 457.246 353.994C457.17 353.902 457.076 353.826 456.97 353.77C456.866 353.712 456.751 353.675 456.633 353.662C456.514 353.649 456.394 353.659 456.28 353.693C456.165 353.726 456.059 353.782 455.966 353.857C455.873 353.932 455.797 354.025 455.74 354.13L420.39 419.13C420.332 419.236 420.296 419.352 420.283 419.471C420.271 419.591 420.282 419.712 420.316 419.827C420.351 419.943 420.408 420.05 420.484 420.143C420.56 420.236 420.654 420.313 420.76 420.37C420.866 420.428 420.982 420.464 421.101 420.477C421.221 420.489 421.342 420.478 421.457 420.444C421.573 420.409 421.68 420.352 421.773 420.276C421.866 420.2 421.943 420.106 422 420Z" fill="black"/>
    </g>
    <path d="M414.52 350.82H373.52C372.271 350.82 371.073 351.316 370.19 352.2C369.306 353.083 368.81 354.281 368.81 355.53H414.57L414.52 350.82Z" fill="#F3722C"/>
    <path d="M443.65 290.53C458.08 290.53 468.35 301.28 467.65 315.6L466 346.91C465.877 349.238 464.866 351.429 463.174 353.033C461.483 354.637 459.241 355.531 456.91 355.53H398.91L410.91 315.6C415.16 301.28 429.22 290.53 443.65 290.53Z" fill="#F3722C"/>
    <path opacity="0.3" d="M443.65 290.53C458.08 290.53 468.35 301.28 467.65 315.6L466 346.91C465.877 349.238 464.866 351.429 463.174 353.033C461.483 354.637 459.241 355.531 456.91 355.53H398.91L410.91 315.6C415.16 301.28 429.22 290.53 443.65 290.53Z" fill="white"/>
    <path d="M320.35 266.31C321.35 269.85 321.59 273.64 316.51 275.01C316.51 275.01 311.77 281.69 317.46 286.16C321.06 281.421 325.602 277.478 330.8 274.58C327.5 271.63 328.14 263.19 328.9 258.58L320.35 266.31Z" fill="#CE7A63"/>
    <path d="M314.05 248C313.66 247.9 313.18 248.26 312.99 248.85C312.8 249.44 312.99 250.05 313.35 250.15C313.71 250.25 314.22 249.89 314.41 249.3C314.6 248.71 314.43 248.06 314.05 248Z" fill="#2E353A"/>
    <path d="M312.92 247.18L314.21 248.05C313.29 248.54 312.92 247.18 312.92 247.18Z" fill="#2E353A"/>
    <path d="M312.66 254.35C312.267 254.33 311.884 254.223 311.538 254.036C311.192 253.85 310.892 253.588 310.66 253.27C311.91 252.395 313.034 251.352 314 250.17L312.66 254.35Z" fill="#BA4D3C"/>
    <path d="M315.45 244.08C315.831 244.341 316.143 244.69 316.361 245.098C316.578 245.505 316.695 245.958 316.7 246.42C316.699 246.467 316.707 246.513 316.724 246.557C316.741 246.601 316.766 246.64 316.799 246.674C316.832 246.708 316.871 246.734 316.914 246.753C316.957 246.771 317.003 246.78 317.05 246.78C317.144 246.78 317.234 246.744 317.301 246.678C317.368 246.613 317.407 246.524 317.41 246.43C317.417 245.841 317.279 245.26 317.009 244.737C316.738 244.214 316.344 243.765 315.86 243.43C315.783 243.373 315.686 243.349 315.591 243.362C315.496 243.375 315.409 243.424 315.35 243.5C315.32 243.555 315.305 243.617 315.305 243.68C315.305 243.743 315.32 243.805 315.35 243.86C315.351 243.902 315.36 243.943 315.377 243.981C315.394 244.018 315.419 244.052 315.45 244.08Z" fill="#2E353A"/>
    <path d="M336.14 248.34C335.904 245.587 334.583 243.041 332.47 241.262C330.357 239.482 327.623 238.615 324.87 238.85C316.79 239.46 312.31 249.96 311.77 257.01C311.17 264.84 319.32 269.85 326.67 266.01C331.6 263.45 332.55 260.37 335.39 253.23C336.034 251.685 336.291 250.007 336.14 248.34Z" fill="#CE7A63"/>
    <path d="M340.08 257.61C350.66 244.25 337.67 240.41 337.67 240.41C333.6 234.76 326.88 233.61 320.72 235.97C314.56 238.33 316.4 242.45 318.64 242.86C314.44 248.41 316.85 251.17 318.23 251.57C316.06 265.53 329.5 271 340.08 257.61Z" fill="#263238"/>
    <path d="M321.66 252C321.742 251.288 321.538 250.573 321.094 250.011C320.65 249.449 320.001 249.085 319.29 249C317.29 248.79 315.67 251.23 315.22 253C314.72 254.93 315.8 256.72 317.81 256.08C318.561 255.834 319.255 255.443 319.854 254.928C320.453 254.413 320.944 253.785 321.3 253.08C321.495 252.749 321.617 252.381 321.66 252Z" fill="#CE7A63"/>
    <path d="M332.76 275.6C332.126 275.177 331.61 274.6 331.26 273.923C330.911 273.246 330.738 272.492 330.76 271.73C330.76 271.73 315.95 269.57 312.87 272.91C312.87 272.91 317.32 272.68 315.55 276.35L332.76 275.6Z" fill="#F3722C"/>
    <path opacity="0.6" d="M332.76 275.6C332.126 275.177 331.61 274.6 331.26 273.923C330.911 273.246 330.738 272.492 330.76 271.73C330.76 271.73 315.95 269.57 312.87 272.91C312.87 272.91 317.32 272.68 315.55 276.35L332.76 275.6Z" fill="white"/>
    <path d="M317.43 319.22L317.34 323.04C321.984 323.603 326.663 323.831 331.34 323.72C333.809 323.687 336.27 323.423 338.69 322.93C339.405 322.77 340.107 322.556 340.79 322.29C341.212 322.132 341.62 321.937 342.01 321.71C342.562 321.408 343.061 321.02 343.49 320.56C343.799 320.22 344.061 319.84 344.27 319.43C344.388 319.186 344.491 318.936 344.58 318.68C344.639 318.409 344.682 318.136 344.71 317.86L344.84 316.98L345.11 315.23C345.63 310.57 345.9 305.99 346.11 301.4C346.32 296.81 346.43 292.24 346.41 287.63H338.6L338.38 301.2C338.27 305.72 338.18 310.2 337.95 314.66L337.85 316.13C337.569 316.267 337.278 316.384 336.98 316.48C334.964 317.054 332.908 317.478 330.83 317.75C326.43 318.42 321.9 318.81 317.43 319.22Z" fill="#CE7A63"/>
    <path d="M331.88 285.16C331.88 289.88 334.72 298.72 334.72 298.72L346.44 291.51C346.96 285.46 345.71 277.68 339.9 275.79C336 274.51 331.92 280.13 331.88 285.16Z" fill="#263238"/>
    <path opacity="0.6" d="M340.3 281.76L342.99 284.42L343.51 293.32L334.72 298.72C334.72 298.72 331.88 289.88 331.88 285.16C331.902 283.932 332.125 282.716 332.54 281.56L336.54 280.34L340.3 281.76Z" fill="black"/>
    <path d="M306.66 321.35C306.578 321.167 306.534 320.969 306.53 320.768C306.526 320.567 306.562 320.367 306.637 320.181C306.711 319.994 306.823 319.825 306.964 319.682C307.105 319.539 307.274 319.426 307.46 319.35L310.78 317.94C311.493 317.644 312.282 317.587 313.03 317.78L320.28 319.78L321.17 322.22C320.04 325.03 315.25 324.5 315.25 324.5L311.8 325.55C311.367 325.684 310.904 325.686 310.471 325.554C310.038 325.422 309.654 325.163 309.37 324.81L306.86 321.7C306.777 321.593 306.71 321.476 306.66 321.35Z" fill="#CE7A63"/>
    <path d="M311.94 275.67C313.45 275.42 315.02 275.18 316.56 274.99C321.281 274.512 326.029 274.368 330.77 274.56C333.1 274.61 335.39 274.78 337.4 274.99H337.56C338.424 275.105 339.256 275.388 340.01 275.825C340.764 276.261 341.425 276.842 341.954 277.534C342.483 278.226 342.871 279.015 343.095 279.857C343.319 280.699 343.375 281.577 343.26 282.44C340.42 302.71 339.18 311.34 340.01 322.93L308.63 323.88C305 305 303.48 293.73 303 287.1C302.798 284.423 303.602 281.768 305.256 279.653C306.91 277.539 309.293 276.119 311.94 275.67Z" fill="#263238"/>
    <path d="M275.52 392.01L268.11 391.31L263.12 409.56L270.53 410.26L275.52 392.01Z" fill="#CE7A63"/>
    <path d="M252.62 375.61L246.34 369.66L237.94 382.42L242.96 386.78L252.62 375.61Z" fill="#CE7A63"/>
    <path d="M337 323.19C337.743 323.183 338.468 323.425 339.057 323.879C339.646 324.332 340.066 324.97 340.25 325.69C344.49 342.23 339.7 352.22 327.99 352.22C316.99 352.22 287.07 342.42 277.66 339.37C269.78 362.14 247.04 382.52 247.04 382.52L241.04 377.04C241.04 377.04 254.29 351.52 263.44 328.86C268.7 315.86 319.5 323.36 319.5 323.36C319.5 323.36 329.67 323.19 337 323.19Z" fill="#F3722C"/>
    <path opacity="0.6" d="M337 323.19C337.743 323.183 338.468 323.425 339.057 323.879C339.646 324.332 340.066 324.97 340.25 325.69C344.49 342.23 339.7 352.22 327.99 352.22C316.99 352.22 287.07 342.42 277.66 339.37C269.78 362.14 247.04 382.52 247.04 382.52L241.04 377.04C241.04 377.04 254.29 351.52 263.44 328.86C268.7 315.86 319.5 323.36 319.5 323.36C319.5 323.36 329.67 323.19 337 323.19Z" fill="white"/>
    <path d="M329.37 322.93C341.29 338.68 340.37 352.18 328.03 352.18C317.03 352.18 303.37 352.82 288.51 351.88C285.24 375.78 272.79 403.63 272.79 403.63L264.58 402.86C264.58 402.86 272.07 367.92 272.65 343.48C273 328.71 314.7 330 314.7 330C314.7 330 322.05 323 329.37 322.93Z" fill="#F3722C"/>
    <path opacity="0.6" d="M329.37 322.93C341.29 338.68 340.37 352.18 328.03 352.18C317.03 352.18 303.37 352.82 288.51 351.88C285.24 375.78 272.79 403.63 272.79 403.63L264.58 402.86C264.58 402.86 272.07 367.92 272.65 343.48C273 328.71 314.7 330 314.7 330C314.7 330 322.05 323 329.37 322.93Z" fill="white"/>
    <path d="M339.9 320.84L308.12 321.84C307.81 321.84 307.6 322.02 307.6 322.21L308 325C308 325.17 308.27 325.29 308.55 325.29L340.84 324.34C341.21 324.34 341.46 324.11 341.34 323.89L340.45 321.1C340.396 321.006 340.314 320.93 340.216 320.883C340.118 320.837 340.007 320.822 339.9 320.84Z" fill="#263238"/>
    <path d="M282.69 308.51C285.737 310.474 288.926 312.208 292.23 313.7C293.957 314.492 295.738 315.161 297.56 315.7C298.637 316.019 299.748 316.21 300.87 316.27C301.719 316.319 302.57 316.211 303.38 315.95C304.067 315.715 304.695 315.333 305.22 314.83C305.38 314.675 305.527 314.508 305.66 314.33L305.86 314.05L306 313.84L306.19 313.5C308.152 310.087 309.528 306.369 310.26 302.5C310.64 300.66 310.92 298.8 311.1 296.93C311.18 295.93 311.25 295.06 311.3 294.12C311.35 293.18 311.36 292.29 311.3 291.24L303.52 291.35C303.52 292.03 303.47 292.92 303.43 293.72C303.39 294.52 303.33 295.36 303.25 296.18C303.1 297.82 302.9 299.45 302.65 301.08C302.381 302.657 302.03 304.219 301.6 305.76C301.248 307.005 300.803 308.221 300.27 309.4C299.827 309.391 299.386 309.348 298.95 309.27C297.35 308.99 295.768 308.619 294.21 308.16C290.96 307.23 287.63 306.16 284.35 305.04L282.69 308.51Z" fill="#CE7A63"/>
    <path d="M315.56 285.12C317.89 288.71 312.47 297.94 312.47 297.94L302.7 296.84C302.7 296.84 300.7 284.55 305.48 279.5C308.05 276.79 313.13 281.38 315.56 285.12Z" fill="#263238"/>
    <path d="M276.13 306.1C276.015 306.061 275.92 305.978 275.865 305.87C275.811 305.761 275.802 305.635 275.84 305.52L281 290.16C281.041 290.046 281.124 289.953 281.232 289.899C281.34 289.845 281.465 289.835 281.58 289.87C281.637 289.888 281.689 289.917 281.734 289.956C281.78 289.994 281.817 290.042 281.844 290.095C281.871 290.148 281.887 290.205 281.892 290.265C281.896 290.324 281.889 290.384 281.87 290.44L276.74 305.8C276.711 305.878 276.663 305.947 276.6 306.002C276.537 306.056 276.461 306.093 276.38 306.11C276.297 306.125 276.212 306.122 276.13 306.1Z" fill="#2E353A"/>
    <path d="M277.69 297.43C277.478 297.412 277.264 297.436 277.062 297.501C276.859 297.566 276.671 297.67 276.508 297.807C276.346 297.945 276.212 298.113 276.114 298.302C276.017 298.491 275.958 298.698 275.94 298.91L275.5 303.17C275.467 303.491 275.531 303.814 275.682 304.099C275.834 304.384 276.066 304.617 276.35 304.77L279.94 306.66C279.94 306.66 286.09 312.46 288.73 311L286.83 306.86L283.11 300.45C282.694 299.718 282.047 299.144 281.27 298.82L278.19 297.55C278.03 297.485 277.862 297.445 277.69 297.43Z" fill="#CE7A63"/>
    <path d="M237.84 379.6C235.34 379.4 231.71 377.49 229.44 375.51C227.7 373.97 225.7 375.74 227.44 378.12C229.18 380.5 232.96 383.87 234.44 385.43C236.82 387.93 237.26 389.16 239.24 391.04C239.479 391.267 239.799 391.39 240.128 391.382C240.458 391.375 240.771 391.237 241 391L244.92 386.16C245.005 386.057 245.046 385.925 245.035 385.793C245.023 385.66 244.961 385.537 244.86 385.45L239 380.09C238.676 379.806 238.269 379.634 237.84 379.6Z" fill="#F3722C"/>
    <path d="M262.5 409.1C260.74 410.89 257.74 413.43 254.81 414.16C252.93 414.62 251.81 417.64 255.35 417.29C258.89 416.94 262.71 416.21 264.81 415.93C268.24 415.48 269.42 415.67 272.14 415.4C272.301 415.378 272.457 415.324 272.597 415.242C272.737 415.159 272.86 415.05 272.957 414.92C273.055 414.789 273.126 414.641 273.166 414.483C273.206 414.325 273.214 414.161 273.19 414L272 407.89C271.973 407.761 271.899 407.647 271.791 407.571C271.683 407.495 271.551 407.462 271.42 407.48L263.63 408.48C263.193 408.55 262.794 408.769 262.5 409.1Z" fill="#F3722C"/>
    <path d="M360.33 420.51C360.435 420.453 360.528 420.375 360.603 420.281C360.679 420.188 360.735 420.08 360.768 419.965C360.801 419.85 360.812 419.729 360.798 419.61C360.785 419.49 360.748 419.375 360.69 419.27L325.35 354.27C325.232 354.059 325.036 353.903 324.804 353.836C324.572 353.769 324.323 353.795 324.11 353.91C323.897 354.026 323.739 354.222 323.67 354.454C323.601 354.686 323.626 354.936 323.74 355.15L359.09 420.15C359.208 420.361 359.404 420.517 359.636 420.584C359.868 420.652 360.117 420.625 360.33 420.51Z" fill="#F3722C"/>
    <g opacity="0.2">
    <path d="M360.33 420.51C360.435 420.453 360.528 420.375 360.603 420.281C360.679 420.188 360.735 420.08 360.768 419.965C360.801 419.85 360.812 419.729 360.798 419.61C360.785 419.49 360.748 419.375 360.69 419.27L325.35 354.27C325.232 354.059 325.036 353.903 324.804 353.836C324.572 353.769 324.323 353.795 324.11 353.91C323.897 354.026 323.739 354.222 323.67 354.454C323.601 354.686 323.626 354.936 323.74 355.15L359.09 420.15C359.208 420.361 359.404 420.517 359.636 420.584C359.868 420.652 360.117 420.625 360.33 420.51Z" fill="black"/>
    </g>
    <path opacity="0.2" d="M343.26 391.02L340.14 385.28L341.18 383.36L344.3 389.1L343.26 391.02Z" fill="black"/>
    <path d="M309.82 420.51C310.032 420.394 310.191 420.198 310.26 419.966C310.329 419.734 310.304 419.484 310.19 419.27L274.84 354.27C274.722 354.059 274.526 353.903 274.294 353.836C274.062 353.769 273.813 353.795 273.6 353.91C273.387 354.026 273.229 354.222 273.16 354.454C273.091 354.686 273.116 354.936 273.23 355.15L308.58 420.15C308.698 420.361 308.894 420.517 309.126 420.584C309.358 420.652 309.607 420.625 309.82 420.51Z" fill="#F3722C"/>
    <g opacity="0.2">
    <path d="M309.82 420.51C310.032 420.394 310.191 420.198 310.26 419.966C310.329 419.734 310.304 419.484 310.19 419.27L274.84 354.27C274.722 354.059 274.526 353.903 274.294 353.836C274.062 353.769 273.813 353.795 273.6 353.91C273.387 354.026 273.229 354.222 273.16 354.454C273.091 354.686 273.116 354.936 273.23 355.15L308.58 420.15C308.698 420.361 308.894 420.517 309.126 420.584C309.358 420.652 309.607 420.625 309.82 420.51Z" fill="black"/>
    </g>
    <path opacity="0.2" d="M292.75 391.02L289.63 385.28L290.67 383.36L293.79 389.1L292.75 391.02Z" fill="black"/>
    <path d="M274.84 420.15L310.19 355.15C310.304 354.936 310.329 354.686 310.26 354.454C310.191 354.222 310.032 354.026 309.82 353.91C309.607 353.795 309.358 353.769 309.126 353.836C308.894 353.903 308.698 354.059 308.58 354.27L273.23 419.27C273.116 419.484 273.091 419.734 273.16 419.966C273.229 420.198 273.387 420.394 273.6 420.51C273.813 420.625 274.062 420.652 274.294 420.584C274.526 420.517 274.722 420.361 274.84 420.15Z" fill="#F3722C"/>
    <g opacity="0.2">
    <path d="M274.84 420.15L310.19 355.15C310.304 354.936 310.329 354.686 310.26 354.454C310.191 354.222 310.032 354.026 309.82 353.91C309.607 353.795 309.358 353.769 309.126 353.836C308.894 353.903 308.698 354.059 308.58 354.27L273.23 419.27C273.116 419.484 273.091 419.734 273.16 419.966C273.229 420.198 273.387 420.394 273.6 420.51C273.813 420.625 274.062 420.652 274.294 420.584C274.526 420.517 274.722 420.361 274.84 420.15Z" fill="black"/>
    </g>
    <path d="M325.35 420.15L360.69 355.15C360.748 355.045 360.785 354.93 360.798 354.81C360.812 354.691 360.801 354.57 360.768 354.455C360.735 354.34 360.679 354.232 360.603 354.139C360.528 354.045 360.435 353.968 360.33 353.91C360.117 353.795 359.868 353.769 359.636 353.836C359.404 353.903 359.208 354.059 359.09 354.27L323.74 419.27C323.626 419.484 323.601 419.734 323.67 419.966C323.739 420.198 323.897 420.394 324.11 420.51C324.323 420.625 324.572 420.652 324.804 420.584C325.036 420.517 325.232 420.361 325.35 420.15Z" fill="#F3722C"/>
    <g opacity="0.2">
    <path d="M325.35 420.15L360.69 355.15C360.748 355.045 360.785 354.93 360.798 354.81C360.812 354.691 360.801 354.57 360.768 354.455C360.735 354.34 360.679 354.232 360.603 354.139C360.528 354.045 360.435 353.968 360.33 353.91C360.117 353.795 359.868 353.769 359.636 353.836C359.404 353.903 359.208 354.059 359.09 354.27L323.74 419.27C323.626 419.484 323.601 419.734 323.67 419.966C323.739 420.198 323.897 420.394 324.11 420.51C324.323 420.625 324.572 420.652 324.804 420.584C325.036 420.517 325.232 420.361 325.35 420.15Z" fill="black"/>
    </g>
    <path d="M317.87 351H276.87C276.251 350.999 275.637 351.12 275.065 351.356C274.492 351.592 273.972 351.938 273.533 352.376C273.095 352.813 272.747 353.333 272.51 353.905C272.272 354.477 272.15 355.091 272.15 355.71H317.91L317.87 351Z" fill="#F3722C"/>
    <path d="M347 290.69C361.43 290.69 371.7 301.44 370.95 315.76L369.3 347.08C369.177 349.407 368.165 351.597 366.474 353.2C364.782 354.802 362.54 355.693 360.21 355.69H302.21L314.21 315.76C318.51 301.44 332.58 290.69 347 290.69Z" fill="#F3722C"/>
    <path opacity="0.3" d="M347 290.69C361.43 290.69 371.7 301.44 370.95 315.76L369.3 347.08C369.177 349.407 368.165 351.597 366.474 353.2C364.782 354.802 362.54 355.693 360.21 355.69H302.21L314.21 315.76C318.51 301.44 332.58 290.69 347 290.69Z" fill="white"/>
    </g>
    <defs>
    <clipPath id="clip0_17_2524">
    <rect width="500" height="500" fill="white"/>
    </clipPath>
    </defs>
    </svg>
    