<svg width="500" height="500" fill="none" xmlns="http://www.w3.org/2000/svg"><g clip-path="url(#prefix__clip0_17_2524)"><rect x="1" y="21" width="500" height="460" rx="40" fill="#4D9DE0"/><path d="M449.9 398.49h-33.12v.25h33.12v-.25zM331.22 401.21h-8.69v.25h8.69v-.25zM415.78 389.21h-19.19v.25h19.19v-.25zM95.65 390.89H52.46v.25h43.19v-.25zM110.89 390.89h-6.33v.25h6.33v-.25zM225.15 395.11h-93.68v.25h93.68v-.25zM500 382.4H0v.25h500v-.25z" fill="#EBEBEB"/><path d="M375 375.47l-28.08-5.88V224.24h-9v145.35l-28.08 5.88a7.093 7.093 0 00-5.63 6.94h76.38a7.093 7.093 0 00-5.59-6.94z" fill="#E0E0E0"/><path d="M341.76 137.35h16a26.936 26.936 0 0119.049 7.891 26.936 26.936 0 017.891 19.049v36.93a26.933 26.933 0 01-7.891 19.049 26.933 26.933 0 01-19.049 7.891h-16v-90.81z" fill="#E6E6E6"/><path d="M357.81 217.19h-16.05v11h16.05a26.941 26.941 0 0026.93-26.94v-11a26.94 26.94 0 01-26.93 26.94z" fill="#E0E0E0"/><path d="M343.66 137.35h-24.09c-8.273 0-14.98 6.707-14.98 14.98v60.84c0 8.273 6.707 14.98 14.98 14.98h24.09c8.273 0 14.98-6.707 14.98-14.98v-60.84c0-8.273-6.707-14.98-14.98-14.98z" fill="#F0F0F0"/><path d="M331.62 178.62c9.891 0 17.91-8.019 17.91-17.91s-8.019-17.91-17.91-17.91-17.91 8.019-17.91 17.91 8.019 17.91 17.91 17.91zM331.62 221.46c9.891 0 17.91-8.019 17.91-17.91s-8.019-17.91-17.91-17.91-17.91 8.019-17.91 17.91 8.019 17.91 17.91 17.91z" fill="#E0E0E0"/><path d="M331.62 175.64c8.246 0 14.93-6.684 14.93-14.93 0-8.246-6.684-14.93-14.93-14.93-8.246 0-14.93 6.684-14.93 14.93 0 8.246 6.684 14.93 14.93 14.93z" fill="#EBEBEB"/><path d="M337.59 160.71a5.998 5.998 0 01-7.171 5.885 6.007 6.007 0 01-3.072-1.642 6.004 6.004 0 01.91-9.232 5.998 5.998 0 019.333 4.989z" fill="#E0E0E0"/><path d="M331.62 218.48c8.246 0 14.93-6.684 14.93-14.93 0-8.246-6.684-14.93-14.93-14.93-8.246 0-14.93 6.684-14.93 14.93 0 8.246 6.684 14.93 14.93 14.93z" fill="#EBEBEB"/><path d="M337.59 203.55a5.998 5.998 0 01-7.171 5.885 6.007 6.007 0 01-4.714-4.714 6.006 6.006 0 012.552-6.16 5.998 5.998 0 019.333 4.989z" fill="#E0E0E0"/><path d="M430.56 82.55H68.78A2.769 2.769 0 0166 79.78 2.771 2.771 0 0168.78 77h361.78a2.767 2.767 0 012.78 2.78 2.768 2.768 0 01-2.78 2.77z" fill="#E6E6E6"/><path d="M129.17 116.1a9.736 9.736 0 01-6.895 2.856 9.752 9.752 0 01-6.895-2.856l-3.61-3.61a9.748 9.748 0 0113.79-13.78l3.61 3.6a9.736 9.736 0 012.856 6.895 9.752 9.752 0 01-2.856 6.895z" fill="#E0E0E0"/><path d="M119.15 112.19a4.953 4.953 0 00-.036 7.036 4.951 4.951 0 007.036-.036l6.12-6.12a4.96 4.96 0 001.485-3.51 4.937 4.937 0 00-3.067-4.603 4.938 4.938 0 00-5.418 1.113l-6.12 6.12z" fill="#F5F5F5"/><path d="M119.91 100a4.063 4.063 0 01-4.06 4.06 4.063 4.063 0 01-4.06-4.06V81.85h8.12V100z" fill="#F0F0F0"/><path d="M118.08 100a2.232 2.232 0 01-3.807 1.577 2.228 2.228 0 01-.483-2.43 2.23 2.23 0 014.29.853zM217.85 116.1a9.736 9.736 0 01-6.895 2.856 9.752 9.752 0 01-6.895-2.856l-3.61-3.61a9.748 9.748 0 0113.79-13.78l3.61 3.6a9.736 9.736 0 012.856 6.895 9.752 9.752 0 01-2.856 6.895z" fill="#E0E0E0"/><path d="M207.83 112.19a4.953 4.953 0 00-.036 7.036 4.951 4.951 0 007.036-.036l6.12-6.12a4.96 4.96 0 001.485-3.51 4.933 4.933 0 00-1.45-3.525 4.94 4.94 0 00-3.525-1.45 4.946 4.946 0 00-3.51 1.485l-6.12 6.12z" fill="#F5F5F5"/><path d="M208.59 100a4.063 4.063 0 01-4.06 4.06 4.063 4.063 0 01-4.06-4.06V81.85h8.12V100z" fill="#F0F0F0"/><path d="M206.76 100a2.232 2.232 0 01-3.807 1.577 2.228 2.228 0 01-.483-2.43 2.23 2.23 0 014.29.853zM379.11 116.1a9.736 9.736 0 006.895 2.856 9.752 9.752 0 006.895-2.856l3.6-3.61a9.74 9.74 0 000-13.78 9.746 9.746 0 00-6.89-2.855 9.737 9.737 0 00-6.89 2.855l-3.61 3.6a9.736 9.736 0 00-2.856 6.895 9.752 9.752 0 002.856 6.895z" fill="#E0E0E0"/><path d="M389.13 112.19a4.96 4.96 0 011.485 3.51 4.951 4.951 0 01-3.067 4.603 4.938 4.938 0 01-5.418-1.113l-6.08-6.19a4.96 4.96 0 01-1.485-3.51 4.954 4.954 0 013.067-4.603A4.946 4.946 0 01383.05 106l6.08 6.19z" fill="#F5F5F5"/><path d="M388.37 100a4.063 4.063 0 004.06 4.06 4.063 4.063 0 004.06-4.06V81.85h-8.12V100z" fill="#F0F0F0"/><path d="M390.2 100a2.232 2.232 0 003.807 1.577 2.228 2.228 0 00.483-2.43 2.23 2.23 0 00-4.29.853zM290.43 116.1a9.736 9.736 0 006.895 2.856 9.752 9.752 0 006.895-2.856l3.6-3.61a9.74 9.74 0 000-13.78 9.746 9.746 0 00-6.89-2.855 9.737 9.737 0 00-6.89 2.855l-3.61 3.6a9.736 9.736 0 00-2.856 6.895 9.752 9.752 0 002.856 6.895z" fill="#E0E0E0"/><path d="M300.45 112.19a4.96 4.96 0 011.485 3.51 4.967 4.967 0 01-1.449 3.526 4.967 4.967 0 01-3.526 1.449 4.946 4.946 0 01-3.51-1.485l-6.08-6.19a4.96 4.96 0 01-1.485-3.51 4.967 4.967 0 011.449-3.526 4.967 4.967 0 013.526-1.449 4.946 4.946 0 013.51 1.485l6.08 6.19z" fill="#F5F5F5"/><path d="M299.69 100a4.063 4.063 0 004.06 4.06 4.063 4.063 0 004.06-4.06V81.85h-8.12V100z" fill="#F0F0F0"/><path d="M301.52 100a2.232 2.232 0 003.807 1.577 2.228 2.228 0 00.483-2.43 2.23 2.23 0 00-4.29.853z" fill="#E0E0E0"/><path d="M250.81 427.01c119.746 0 216.82-5.068 216.82-11.32 0-6.252-97.074-11.32-216.82-11.32s-216.82 5.068-216.82 11.32c0 6.252 97.074 11.32 216.82 11.32z" fill="#F5F5F5"/><path opacity=".3" d="M425.45 300.28c12.79 0 21.9 9.53 21.23 22.23l-1.47 27.76a8.059 8.059 0 01-8 7.64h-51.4l10.62-35.4c3.75-12.7 16.22-22.23 29.02-22.23z" fill="#fff"/><path d="M162.18 403.97H43.88v11.51h118.3v-11.51z" fill="#F3722C"/><path opacity=".3" d="M162.18 403.97H43.88v11.51h118.3v-11.51z" fill="#fff"/><path d="M344 403.97H152.2v11.51H344v-11.51z" fill="#F3722C"/><path opacity=".7" d="M344 403.97H152.2v11.51H344v-11.51z" fill="#fff"/><path d="M87.16 403.72a1.002 1.002 0 01-.91-1.08l20.12-241.07h2v2h-.16l-20 239.24a1 1 0 01-1.05.91z" fill="#263238"/><path d="M176.57 403.72a.994.994 0 00.875-.691.986.986 0 00.045-.389l-20.12-241.07h-2v2h.17l12.86 154.16h-64.73l-13-156.16h-2v2h.16l20 239.24a.998.998 0 101.99-.17l-6.92-82.91h64.73l6.93 83.08a1 1 0 001.01.91z" fill="#263238"/><path d="M181.2 285.89H85.61L73.54 141.27h95.59l12.07 144.62z" fill="#F3722C"/><path opacity=".8" d="M181.2 285.89H85.61L73.54 141.27h95.59l12.07 144.62z" fill="#fff"/><path d="M169.05 144.67H73.39a3.168 3.168 0 01-3.17-3.17 3.171 3.171 0 013.17-3.17h95.66c.841 0 1.647.334 2.242.928a3.173 3.173 0 010 4.483 3.17 3.17 0 01-2.242.929z" fill="#F3722C"/><path opacity=".5" d="M169.05 144.67H73.39a3.168 3.168 0 01-3.17-3.17 3.171 3.171 0 013.17-3.17h95.66c.841 0 1.647.334 2.242.928a3.173 3.173 0 010 4.483 3.17 3.17 0 01-2.242.929z" fill="#fff"/><path d="M129.71 231.42l-1.42-16.93a.992.992 0 01.543-.974.99.99 0 01.377-.106.998.998 0 011.08.91l1.41 16.93a.998.998 0 01-1.99.17zM113.68 214.9c-12.43 0-23.43-10.12-24.52-22.55a20.337 20.337 0 0112.17-20.882 20.322 20.322 0 018.4-1.658 25.128 25.128 0 0124.52 22.54 20.359 20.359 0 01-20.57 22.55zm-3.86-44.09a19.445 19.445 0 00-19.66 21.54 24 24 0 0023.43 21.55 19.461 19.461 0 0014.693-6.339 19.444 19.444 0 004.967-15.211 24 24 0 00-23.43-21.54z" fill="#F3722C"/><path d="M145 214.9c-12.43 0-23.43-10.12-24.52-22.55a20.36 20.36 0 015.2-15.911 20.355 20.355 0 0115.37-6.629 25.128 25.128 0 0124.52 22.54 20.357 20.357 0 01-5.196 15.917A20.354 20.354 0 01145 214.9zm-3.86-44.09a19.448 19.448 0 00-19.66 21.54 24.004 24.004 0 0023.43 21.55 19.461 19.461 0 0014.693-6.339 19.444 19.444 0 004.967-15.211 24.003 24.003 0 00-23.42-21.54h-.01z" fill="#F3722C"/><path d="M121 192.77l9.46-10.36c-.18-.31-.38-.62-.57-.92l-9 9.85c0 .34 0 .68.06 1 .05.15.05.29.05.43zM131.69 184.66c-.16-.34-.32-.68-.5-1l-9.9 10.85c.07.43.16.85.26 1.26l10.14-11.11zM132.66 187.14c-.12-.38-.25-.75-.39-1.12L122 197.29c.12.38.25.75.38 1.12l10.28-11.27zM129.14 180.35l-.65-.84-7.39 8.1c-.08.57-.13 1.14-.16 1.72l8.2-8.98zM127.61 178.47c-.23-.26-.47-.51-.72-.76l-4.48 4.92a19.78 19.78 0 00-.81 2.43l6.01-6.59zM132.59 201.42c.273-.753.504-1.521.69-2.3L127 206c.23.26.47.52.71.77l4.88-5.35zM130.09 206.16l-1.46 1.6.1.1a20.41 20.41 0 001.36-1.7zM133.39 189.89c-.08-.42-.18-.83-.28-1.24l-10.17 11.15c.153.34.313.673.48 1l9.97-10.91zM133.7 196.65c.06-.55.1-1.11.11-1.67l-8.36 9.16c.21.29.42.57.64.85l7.61-8.34zM133.79 193v-.66l-.09-.76-9.56 10.48c.18.313.37.623.57.93l9.08-9.99zM163.24 241.5h-62.92a3.65 3.65 0 01-3.56-3.28 3 3 0 013-3.27h62.92a3.651 3.651 0 013.56 3.27 3.003 3.003 0 01-3 3.28zM156.58 254.77h-43.92a3.65 3.65 0 01-3.56-3.28 2.99 2.99 0 01.777-2.298 3.012 3.012 0 012.223-.972H156a3.638 3.638 0 013.56 3.27 2.995 2.995 0 01-1.77 3.022 3.002 3.002 0 01-1.21.258z" fill="#F3722C"/><path d="M163.24 241.5h-62.92a3.65 3.65 0 01-3.56-3.28 3 3 0 013-3.27h62.92a3.651 3.651 0 013.56 3.27 3.003 3.003 0 01-3 3.28zM156.58 254.77h-43.92a3.65 3.65 0 01-3.56-3.28 2.99 2.99 0 01.777-2.298 3.012 3.012 0 012.223-.972H156a3.638 3.638 0 013.56 3.27 2.995 2.995 0 01-1.77 3.022 3.002 3.002 0 01-1.21.258z" fill="#F3722C"/><path d="M234.62 394.33l6.24-1.97-2.52-14.33-6.25 1.97 2.53 14.33z" fill="#CE7A63"/><path d="M241 391.55l-7 2.21a.52.52 0 00-.36.57l.94 5.5a.992.992 0 00.501.687.994.994 0 00.849.053c2.43-.81 3.57-1.32 6.66-2.29 1.9-.6 10-3 12.64-3.79 2.64-.79 2-3.32.78-3.2-5.22.55-11.74 1.08-13.82.29a1.78 1.78 0 00-1.19-.03z" fill="#263238"/><path opacity=".2" d="M232.09 380l6.25-1.97 1.3 7.39-6.25 1.97-1.3-7.39z" fill="#000"/><path d="M230 235s4.08 52 5.05 70.14c1.06 19.87 7 78 7 78l-11.55 3.12s-11.19-56.3-14.06-75.61c-3.12-21-9.25-75.61-9.25-75.61L230 235z" fill="#263238"/><path d="M230.14 386.39l12.37-3.33.2-4.92-14.01 4.71 1.44 3.54z" fill="#263238"/><path d="M243.49 391.91a8.518 8.518 0 01-1.72.31.14.14 0 01-.13-.08.14.14 0 010-.16c.17-.2 1.66-1.93 2.49-1.88a.503.503 0 01.44.29.819.819 0 010 .83 1.89 1.89 0 01-1.08.69zm-1.36 0c1.17-.14 2-.43 2.21-.81a.553.553 0 000-.54.243.243 0 00-.085-.1.232.232 0 00-.125-.04c-.47-.05-1.39.79-2 1.47v.02z" fill="#F3722C"/><path d="M241.81 392.21h-.07a.168.168 0 01-.11-.09c0-.08-.58-1.78-.09-2.57a.88.88 0 01.58-.39.511.511 0 01.62.26c.31.62-.33 2.18-.86 2.74l-.07.05zm.27-2.73a.532.532 0 00-.29.22 3.313 3.313 0 00.05 2.06c.473-.623.697-1.4.63-2.18 0-.08-.1-.16-.32-.12l-.07.02z" fill="#F3722C"/><path opacity=".6" d="M215.63 251.08c-2.38-9.28-4.81-7.06-6.54-3 .18 2.85.37 5.85.58 9 1.42 12.19 3.22 27.28 4.79 39.48 2.94-12.22 4.54-32.56 1.17-45.48z" fill="#000"/><path d="M187.53 397.12h6.39l2.12-14.79h-6.38l-2.13 14.79z" fill="#CE7A63"/><path d="M194.32 396.38h-7.18a.524.524 0 00-.51.44l-.84 5.68a.993.993 0 00.585 1.043c.13.059.272.088.415.087 2.5 0 3.7-.19 6.86-.19 1.94 0 10.18.21 12.86.21 2.68 0 2.84-2.65 1.72-2.9-5-1.07-11.18-2.56-12.86-4a1.665 1.665 0 00-1.05-.37z" fill="#263238"/><path opacity=".2" d="M189.65 382.33h6.39l-1.09 7.63h-6.39l1.09-7.63z" fill="#000"/><path d="M218.52 234.62s-3.66 48.82-6.3 67.11c-2.88 20-14.37 86.39-14.37 86.39h-11.7s6-64.74 7-84.57c1.12-21.52 3.28-68.93 3.28-68.93h22.09z" fill="#263238"/><path d="M185.68 388.12h12.64l1.09-4.44-14.02.69.29 3.75z" fill="#263238"/><path d="M196.49 397.5a7.496 7.496 0 01-1.68-.23.138.138 0 01-.074-.042.137.137 0 01-.036-.078.195.195 0 01.022-.085.19.19 0 01.058-.065c.21-.14 2.13-1.38 2.88-1.07a.484.484 0 01.31.42.875.875 0 01-.25.81 1.872 1.872 0 01-1.23.34zm-1.26-.45a3.102 3.102 0 002.3-.1.58.58 0 00.15-.53.228.228 0 00-.15-.21c-.4-.21-1.53.37-2.3.84z" fill="#F3722C"/><path d="M194.84 397.27h-.07a.152.152 0 01-.05-.051.153.153 0 01-.02-.069c0-.08 0-1.92.72-2.54a.796.796 0 01.65-.21.526.526 0 01.333.133c.091.083.15.195.167.317.08.7-1 2-1.65 2.41a.13.13 0 01-.08.01zm1.1-2.59a.51.51 0 00-.33.13 3.548 3.548 0 00-.6 2c.6-.47 1.32-1.48 1.26-1.94 0-.08-.05-.19-.26-.21l-.07.02z" fill="#F3722C"/><path d="M232.64 182.65c1.56 3.61 3.33 7.37 5.2 10.85.93 1.76 1.93 3.45 3 5a21.153 21.153 0 003.21 4c.21.196.434.377.67.54.18.13.3.18.3.19 0 .01-.12.05 0 .06a1 1 0 00.46-.09 6.283 6.283 0 001.75-1.08 20.189 20.189 0 002-1.8 76.318 76.318 0 007.27-9.45l4 1.88a46.651 46.651 0 01-5.86 12 24.294 24.294 0 01-2.3 2.82 14.788 14.788 0 01-3.34 2.63 8.995 8.995 0 01-2.5 1 7.786 7.786 0 01-3.16 0 10.925 10.925 0 01-4.54-2.19 27.585 27.585 0 01-5.09-5.46 61.314 61.314 0 01-3.67-5.68c-1.09-1.93-2.12-3.86-3.05-5.83-.93-1.97-1.83-3.9-2.66-6l8.31-3.39z" fill="#CE7A63"/><path d="M243.21 198l-10.09 7.53s-.39-.42-1-1.16c-.47-.55-1.07-1.27-1.77-2.11-3.92-4.78-9.65-13.5-9.7-17.77-.07-6.37 6.54-7.31 14-.8 3.2 2.81 4.88 7.48 6.5 10.37.54.95 1 1.79 1.35 2.44l.71 1.5z" fill="#F3722C"/><path opacity=".6" d="M243.21 198l-10.09 7.53s-.39-.42-1-1.16c-.47-.55-1.07-1.27-1.77-2.11-3.92-4.78-9.65-13.5-9.7-17.77-.07-6.37 6.54-7.31 14-.8 3.2 2.81 4.88 7.48 6.5 10.37.54.95 1 1.79 1.35 2.44l.71 1.5z" fill="#fff"/><path opacity=".3" d="M220.55 185.19c2.28-1.51 3.95 2.4 8.46 5.69 2 1.47 6.41 11.06 6.05 13.17l-1.95 1.45s-12.61-13.96-12.56-20.31z" fill="#000"/><path d="M255.93 191.13l2.2-7 5.7 4.19s-3.11 6.26-5.22 5.69l-2.68-2.88z" fill="#CE7A63"/><path d="M243.21 196.99l-11.03 8.25 1.37 1.44 10.5-7.75-.84-1.94z" fill="#F3722C"/><path opacity=".8" d="M243.21 196.99l-11.03 8.25 1.37 1.44 10.5-7.75-.84-1.94z" fill="#fff"/><path d="M230.61 235h-34.17c-.24-3 .46-13-.06-25.62a162.912 162.912 0 00-3.4-27.87c-.15-.69-.31-1.37-.47-2.06 0 0 1.73-.35 4.21-.71 2.06-.3 4.65-.62 7.18-.74 4.836-.27 9.684-.27 14.52 0 2.23.21 4.41.58 6.15.92 2.23.45 3.54.83 3.54.83s8.42 19.25 2.5 55.25z" fill="#F3722C"/><path opacity=".6" d="M230.61 235h-34.17c-.24-3 .46-13-.06-25.62a162.912 162.912 0 00-3.4-27.87c-.15-.69-.31-1.37-.47-2.06 0 0 1.73-.35 4.21-.71 2.06-.3 4.65-.62 7.18-.74 4.836-.27 9.684-.27 14.52 0 2.23.21 4.41.58 6.15.92 2.23.45 3.54.83 3.54.83s8.42 19.25 2.5 55.25z" fill="#fff"/><path d="M264.14 181.41l3.21 3.94-3.52 2.93-5.7-4.18 6.01-2.69zM197.59 186.07c-.34 2.17-.78 4.16-1.25 6.22-.47 2.06-1 4.07-1.66 6.11a63.255 63.255 0 01-2.23 6.09 30.91 30.91 0 01-3.44 6.16 13.137 13.137 0 01-3.22 3.1 8.416 8.416 0 01-2.73 1.17 7.398 7.398 0 01-3.31 0 9.001 9.001 0 01-4.35-2.73 15.734 15.734 0 01-2.21-3.14 30.658 30.658 0 01-2.52-6.19c-.31-1-.56-2.07-.78-3.11-.22-1.04-.43-2-.57-3.16l4.3-1.18a56.147 56.147 0 005.56 9.78c.451.59.964 1.129 1.53 1.61.47.39.88.47.76.36a.713.713 0 00-.31-.08c-.08 0-.08 0 0-.08a6.533 6.533 0 001-1.23 23.462 23.462 0 002.18-4.54c.65-1.7 1.21-3.51 1.73-5.35 1-3.66 1.92-7.55 2.64-11.25l8.88 1.44z" fill="#CE7A63"/><path d="M174.13 195.77l-2.19-7-5.71 4.19s3.12 6.26 5.23 5.69l2.67-2.88zM165.92 186.05l-3.21 3.94 3.52 2.94 5.71-4.19-6.02-2.69z" fill="#CE7A63"/><path opacity=".3" d="M196.38 209.33a162.912 162.912 0 00-3.4-27.87c2.29-.19 6.19 0 6.84 3.72.69 3.96-.18 13.29-3.44 24.15z" fill="#000"/><path d="M200.66 190.37a115.583 115.583 0 01-4.94 12.76c-.41.94-.79 1.77-1.1 2.44l-.89 1.9-12.79-6.47s.14-.53.4-1.43c.19-.68.44-1.56.76-2.59 1.88-6 5.79-16.8 10-17.55 6.18-1.18 10.84 3.34 8.56 10.94z" fill="#F3722C"/><path opacity=".6" d="M200.66 190.37a115.583 115.583 0 01-4.94 12.76c-.41.94-.79 1.77-1.1 2.44l-.89 1.9-12.79-6.47s.14-.53.4-1.43c.19-.68.44-1.56.76-2.59 1.88-6 5.79-16.8 10-17.55 6.18-1.18 10.84 3.34 8.56 10.94z" fill="#fff"/><path d="M212.27 182.75c-8.44-.23-9.71-4.35-9.76-4.53v-.18l1.44-.09c4.836-.27 9.684-.27 14.52 0l.82.09a2.714 2.714 0 01.95 2.45c-.37 1.44-2.35 1.92-4.08 2.12l-3.89.14z" fill="#fff"/><path d="M181.24 198.65l13.98 7.15-1.58 1.94-13-6.75.6-2.34z" fill="#F3722C"/><path opacity=".8" d="M181.24 198.65l13.98 7.15-1.58 1.94-13-6.75.6-2.34z" fill="#fff"/><path d="M211.56 183.38l5.66-.63-1.25 3.8s3.89 20.26 4.65 27.08c.45 4.09.85 16.42.85 16.42l-2.95 3.25-4.38-2.08s.1-13.88.08-18.5c0-6.55-.33-26.17-.33-26.17l-2.54-2.45.21-.72z" fill="#263238"/><path d="M210.18 187.11l4.12-3.75 5.08 3.5s5.26-5 1.35-8.63c-.75-.11-1.52-.2-2.31-.28-4.836-.27-9.684-.27-14.52 0-1 .05-2 .13-3 .23.33 1.41 1.82 6.04 9.28 8.93z" fill="#F3722C"/><path opacity=".8" d="M210.18 187.11l4.12-3.75 5.08 3.5s5.26-5 1.35-8.63c-.75-.11-1.52-.2-2.31-.28-4.836-.27-9.684-.27-14.52 0-1 .05-2 .13-3 .23.33 1.41 1.82 6.04 9.28 8.93z" fill="#fff"/><path d="M212.54 181.9c-8.13-.14-9.2-3.91-9.2-3.91 3.16-3.12 1.95-11.64.87-16.32l3.89 3.22 5.29 4.4a15.98 15.98 0 00-.34 2.13c-.28 2.87.46 5.48 4.68 6.48 0 0 5 3.32-2.42 3.92l-2.77.08z" fill="#CE7A63"/><path opacity=".2" d="M213.39 169.29a15.98 15.98 0 00-.34 2.13c-2-.39-4.61-2.5-4.88-4.51a8.923 8.923 0 01-.07-2l5.29 4.38z" fill="#000"/><path d="M202.61 154.94c1.35 6.21 1.82 9.9 5.49 12.74a8.273 8.273 0 008.501 1.047 8.273 8.273 0 004.869-7.047c.49-5.78-1.8-15-8.34-16.73a8.36 8.36 0 00-10.52 9.99z" fill="#CE7A63"/><path d="M212.41 155.55c.08.51.41.89.75.85.34-.04.54-.48.46-1-.08-.52-.41-.89-.75-.85-.34.04-.54.45-.46 1zM218.19 154.87c.08.51.42.89.75.85.33-.04.54-.49.47-1-.07-.51-.42-.89-.75-.85-.33.04-.54.49-.47 1z" fill="#263238"/><path d="M216.39 155.34a19.41 19.41 0 003.12 4.07 2.903 2.903 0 01-2.37.74l-.75-4.81z" fill="#BA4D3C"/><path d="M210.33 153.91a.223.223 0 01-.14 0 .3.3 0 01-.12-.41 2.87 2.87 0 012.26-1.53.294.294 0 01.221.07.289.289 0 01.099.21.301.301 0 01-.29.32 2.305 2.305 0 00-1.76 1.22.322.322 0 01-.27.12zM220.37 152.59a.343.343 0 01-.14-.037.318.318 0 01-.11-.093 2.523 2.523 0 00-1.91-1.16.3.3 0 010-.6 3.086 3.086 0 012.4 1.42c.023.033.038.07.047.109a.312.312 0 01.001.118.307.307 0 01-.128.193.335.335 0 01-.16.05z" fill="#263238"/><path d="M204.87 160s2.75 1.81 2.5-.38-1.25-9.56-1.25-9.56l3.06-2.5s13 .09 12.2-6.52c-.8-6.61-6.89-1.38-6.89-1.38s1.24-3.73-3.13-3.66a4.841 4.841 0 00-4.87 4.18s-4.12-2.43-6.15-.25a7.152 7.152 0 00-1.54 5.44s-10 1.41-3.5 11 11.32 10.74 9.57 3.63z" fill="#263238"/><path d="M201.18 161.42a6.85 6.85 0 003.94 2.35c2 .33 2.4-1.49 1.4-3.24-.89-1.58-3-3.65-4.74-3.19-1.74.46-1.87 2.55-.6 4.08z" fill="#CE7A63"/><path d="M210.3 168.16c-.89-2.26-2.12-6.24-.81-9.67 1.31-3.43 6.13 2.5 7.81 2.5 1.68 0 3.11-2.63 4.12-.82 1.01 1.81-3.3 12.22-4.21 9.49 0 0-1.22 1.87-2.34.16 0 0-.76 1.44-1.94 0 0 0-1.68.74-2.63-1.66z" fill="#263238"/><path opacity=".3" d="M210.3 168.16c-.89-2.26-2.12-6.24-.81-9.67 1.31-3.43 6.13 2.5 7.81 2.5 1.68 0 3.11-2.63 4.12-.82 1.01 1.81-3.3 12.22-4.21 9.49 0 0-1.22 1.87-2.34.16 0 0-.76 1.44-1.94 0 0 0-1.68.74-2.63-1.66z" fill="#fff"/><path d="M218.87 161.84a38.132 38.132 0 00-7.24-.63c.58 1.62 1.71 3 4.45 3a2.494 2.494 0 001.911-.578 2.491 2.491 0 00.879-1.792z" fill="#263238"/><path d="M214.85 162.92a5.053 5.053 0 013 .86 3.001 3.001 0 01-1.73.44 4.858 4.858 0 01-3-.86 2.916 2.916 0 011.73-.44z" fill="#A02724"/><path d="M218.62 161.79a1.09 1.09 0 01-.86.77A28.213 28.213 0 01213 162a1.489 1.489 0 01-1.18-.82c2.279.022 4.553.226 6.8.61z" fill="#fff"/><path d="M408 237.59c-.38-.09-.85.25-1 .82-.15.57-.06 1.16.32 1.25.38.09.85-.25 1-.82.15-.57.01-1.16-.32-1.25z" fill="#2E353A"/><path d="M405.91 243.77a2.93 2.93 0 01-2.13-1.28 19.274 19.274 0 004-3.22l-1.87 4.5z" fill="#A02724"/><path d="M410.5 236.71a2.77 2.77 0 00-.508-1.176 2.794 2.794 0 00-.982-.824.345.345 0 01-.192-.187.355.355 0 01-.003-.268.355.355 0 01.187-.192.355.355 0 01.268-.003 3.4 3.4 0 011.92 2.56.346.346 0 01-.059.257.346.346 0 01-.221.143h-.19a.368.368 0 01-.22-.31z" fill="#2E353A"/><path d="M424.63 264.48c.39 1.73.65 2.55-.9 3.3a16.847 16.847 0 01-10.42 1.73c-3.69-.63-4.35-1.95-4.2-3a2.762 2.762 0 011.7-1.77 4.534 4.534 0 002.73-4.21 8.061 8.061 0 00-.06-2.86l6.6-4.37 5-5.55a42.932 42.932 0 00-.45 16.73z" fill="#B55B52"/><path d="M403.87 268.34s2.44-6.73 6.4-8.29c3.96-1.56 15.83-.68 15.83-.68a49.374 49.374 0 002.22 7.13l-24.45 1.84z" fill="#F3722C"/><path d="M428.1 240.3a10.009 10.009 0 00-6.475-9.106 10.002 10.002 0 00-3.875-.634c-7.64.28-12.11 10.09-12.79 16.78-.76 7.42 6.55 13.65 13.56 10.27 4.66-2.25 6-6.31 8.76-13a10 10 0 00.82-4.31z" fill="#B55B52"/><path opacity=".2" d="M426.88 262.3c.42 1.42.9 2.82 1.44 4.2l-22.59 1.7a20.217 20.217 0 012.09-3.79c5.46-2.21 15-2.22 19.06-2.11z" fill="#000"/><path d="M422.74 254.71a8.871 8.871 0 00-3.65 0 2.713 2.713 0 01-3-1.45l-3.57-7.42s-5.12-1.7 1.15-11.93c0 0-11.93-3.95-3.12-12.06 8.81-8.11 3.12 2.86 3.12 2.86s11.14-6 5.57 1.6c0 0 17 .86 12.81 10.08 0 0 7 .14-6.71 17.34a2.633 2.633 0 01-2.6.98z" fill="#263238"/><path d="M415.2 241.06c-1.92-.28-4 1.65-4.66 3.37-.75 2 .23 4.2 2.25 3.66a6.64 6.64 0 003.77-2.82c1.08-1.71.56-3.93-1.36-4.21zM425.37 273.21c.87 1.74 1.84 3.65 2.71 5.49.87 1.84 1.75 3.73 2.54 5.6.79 1.87 1.57 3.73 2.21 5.57a31.567 31.567 0 011.43 5.23 9.939 9.939 0 01.17 1.99l.05-.09c-.47.488-.968.948-1.49 1.38-.71.48-1.51 1-2.35 1.46-3.4 1.91-7.32 3.62-11.1 5.36l1.27 5.28a52.946 52.946 0 006.68-.93 50.547 50.547 0 006.65-1.76 28.162 28.162 0 003.41-1.4 16.88 16.88 0 003.69-2.37 9.25 9.25 0 002-2.5c.085-.146.161-.296.23-.45l.17-.39c.11-.26.19-.5.27-.75.148-.462.265-.933.35-1.41a17.3 17.3 0 00.16-4.59 39.612 39.612 0 00-1.47-7.28c-.66-2.25-1.43-4.4-2.25-6.51-.82-2.11-1.7-4.14-2.64-6.14-.94-2-1.92-4-3.07-6l-9.62 5.21z" fill="#B55B52"/><path d="M422 305.41l-8.13-2.09-.67 7.31s5.48 2.26 8.86-1.28l-.06-3.94z" fill="#B55B52"/><path d="M410.64 304.39l-1.73 5.9 4.33.34.67-7.31-3.27 1.07z" fill="#B55B52"/><path d="M442.63 281.82l-13.85 6.87s-.73-.19-6.21-8.95c-6.35-10.19-2.87-15.92 4.79-16.2 7.83-.29 10.64 9.4 15.27 18.28z" fill="#F3722C"/><path opacity=".2" d="M438.32 283.95l-6.63 3.29-3.37-3.98 3.74-9.99 1.04-1.14 2.6-.38 2.62 12.2z" fill="#000"/><path d="M352.34 390.19l-6.89-2.99-5.3 16.6 6.9 2.99 5.29-16.6z" fill="#B55B52"/><path opacity=".2" d="M352.34 390.19l-6.89-2.99-2.64 8.3 6.96 2.73 2.57-8.04z" fill="#000"/><path d="M339.38 400.88c-2.06 1.73-6.26 3-9.49 3.17-2.48.12-2.69 3 .42 3.5s8.53.28 10.81.37c3.7.14 5 .75 7.88.7a1.342 1.342 0 001.27-1.38l-.62-6.64a.553.553 0 00-.57-.5l-8.43.27a2.224 2.224 0 00-1.27.51zM415.29 321.7s5.78 6.86 1.12 17.72c-5.27 12.31-33.22 6.9-48.48 10.82-2.18 21.74-14.86 44-14.86 44l-10.61-4.16s4.6-17.31 8.05-48c1.69-15.09 40-16.75 40-16.75l24.78-3.63z" fill="#263238"/><path d="M355.18 392.32l-13.51-4.73-.82 4.95 12.31 4.47 2.02-4.69z" fill="#263238"/><path d="M384.97 397.3l-7.44-.36 1.22 17.56 7.44.36-1.22-17.56z" fill="#B55B52"/><path d="M376.72 412.66c-2.06 1.72-5.54 4.11-8.73 4.57-2.05.29-3.59 3.39.24 3.39s8-.36 10.24-.43c3.7-.12 4.93.21 7.86.21a1.328 1.328 0 001.27-1.4l-.61-6.65a.542.542 0 00-.58-.49l-8.41.27a2.106 2.106 0 00-1.28.53z" fill="#263238"/><path opacity=".2" d="M385.65 406.98l-7.41.01-.71-10.04 7.44.36.68 9.67z" fill="#000"/><path d="M433.88 322.89s6.1 12.43.17 20.34c-5.37 7.18-32.78 7.66-46.71 7.66 1.38 17-.15 51.9-.15 51.9l-11.19-.15s-7.88-33.57-9.5-57.06c-.9-13 45.54-21.69 45.54-21.69l21.84-1z" fill="#263238"/><path d="M388.71 400.48l-15.32-.45.66 4.58 14.08.2.58-4.33z" fill="#263238"/><path d="M435.23 323.54l-45.83 1.91 4.31-51.45a11.244 11.244 0 0111.2-10.3h22.84a8 8 0 017.95 8l-.47 51.84z" fill="#F3722C"/><path d="M396.2 271.43l-1.2 2.71c-.44.93-.89 1.86-1.36 2.78-.94 1.83-1.87 3.66-2.88 5.43-1.01 1.77-2 3.52-3.13 5.19a48.734 48.734 0 01-3.44 4.74 26.848 26.848 0 01-1.84 2.09 1.192 1.192 0 01-1.08.15 18.774 18.774 0 01-2.42-.82 83.24 83.24 0 01-10.64-5.89l-3.69 4a49.696 49.696 0 004.67 5.05 39.843 39.843 0 005.55 4.42 22.246 22.246 0 003.48 1.88 12.403 12.403 0 004.93 1.06 8.406 8.406 0 003.56-.82 8.198 8.198 0 001.72-1.12l.72-.61c.94-.83 1.84-1.68 2.67-2.56a65.86 65.86 0 008.39-11.23c1.17-2 2.29-3.95 3.3-6 .51-1 1-2 1.49-3.06s.91-2 1.39-3.22l-10.19-4.17z" fill="#B55B52"/><path d="M369.35 289.66l-3.62-7.58-6 4.19s1.79 5.65 6.67 6l2.95-2.61zM362.81 280.26l-5.63 2.47 2.52 3.54 6.03-4.19-2.92-1.82z" fill="#B55B52"/><path d="M401.11 291l-12.94-8.46s-.21-.74 4.57-9.88c5.56-10.64 12.26-10.55 16.38-4.1 4.23 6.62-2.71 13.95-8.01 22.44zM457 420.35a.917.917 0 00.477-.899.918.918 0 00-.107-.341l-35.34-65a.902.902 0 00-1.24-.36.894.894 0 00-.476.891.884.884 0 00.106.339l35.35 65a.908.908 0 00.537.443.884.884 0 00.354.033.884.884 0 00.339-.106z" fill="#F3722C"/><path d="M457 420.35a.917.917 0 00.477-.899.918.918 0 00-.107-.341l-35.34-65a.902.902 0 00-1.24-.36.894.894 0 00-.476.891.884.884 0 00.106.339l35.35 65a.908.908 0 00.537.443.884.884 0 00.354.033.884.884 0 00.339-.106z" fill="#000" opacity=".2"/><path opacity=".2" d="M439.9 390.86l-3.11-5.74 1.04-1.92 3.11 5.74-1.04 1.92z" fill="#000"/><path d="M406.46 420.35a.917.917 0 00.477-.899.918.918 0 00-.107-.341l-35.34-65a.902.902 0 00-1.24-.36.908.908 0 00-.443.537.902.902 0 00.073.693l35.35 65a.908.908 0 00.537.443.884.884 0 00.354.033.884.884 0 00.339-.106z" fill="#F3722C"/><path d="M406.46 420.35a.917.917 0 00.477-.899.918.918 0 00-.107-.341l-35.34-65a.902.902 0 00-1.24-.36.908.908 0 00-.443.537.902.902 0 00.073.693l35.35 65a.908.908 0 00.537.443.884.884 0 00.354.033.884.884 0 00.339-.106z" fill="#000" opacity=".2"/><path opacity=".2" d="M389.4 390.86l-3.12-5.74 1.04-1.92 3.12 5.74-1.04 1.92z" fill="#000"/><path d="M371.49 420l35.34-65a.884.884 0 00.106-.339.894.894 0 00-.476-.891.895.895 0 00-1.004.087.902.902 0 00-.226.273l-35.35 65a.918.918 0 00-.074.697.917.917 0 001.684.173z" fill="#F3722C"/><path d="M371.49 420l35.34-65a.884.884 0 00.106-.339.894.894 0 00-.476-.891.895.895 0 00-1.004.087.902.902 0 00-.226.273l-35.35 65a.918.918 0 00-.074.697.917.917 0 001.684.173z" fill="#000" opacity=".2"/><path d="M422 420l35.34-65a.884.884 0 00.106-.339.894.894 0 00-.476-.891.895.895 0 00-1.004.087.902.902 0 00-.226.273l-35.35 65a.918.918 0 00-.074.697A.917.917 0 00422 420z" fill="#F3722C"/><path d="M422 420l35.34-65a.884.884 0 00.106-.339.894.894 0 00-.476-.891.895.895 0 00-1.004.087.902.902 0 00-.226.273l-35.35 65a.918.918 0 00-.074.697A.917.917 0 00422 420z" fill="#000" opacity=".2"/><path d="M414.52 350.82h-41a4.706 4.706 0 00-3.33 1.38 4.706 4.706 0 00-1.38 3.33h45.76l-.05-4.71z" fill="#F3722C"/><path d="M443.65 290.53c14.43 0 24.7 10.75 24 25.07L466 346.91a9.097 9.097 0 01-9.09 8.62h-58l12-39.93c4.25-14.32 18.31-25.07 32.74-25.07z" fill="#F3722C"/><path opacity=".3" d="M443.65 290.53c14.43 0 24.7 10.75 24 25.07L466 346.91a9.097 9.097 0 01-9.09 8.62h-58l12-39.93c4.25-14.32 18.31-25.07 32.74-25.07z" fill="#fff"/><path d="M320.35 266.31c1 3.54 1.24 7.33-3.84 8.7 0 0-4.74 6.68.95 11.15a43.126 43.126 0 0113.34-11.58c-3.3-2.95-2.66-11.39-1.9-16l-8.55 7.73z" fill="#CE7A63"/><path d="M314.05 248c-.39-.1-.87.26-1.06.85-.19.59 0 1.2.36 1.3.36.1.87-.26 1.06-.85.19-.59.02-1.24-.36-1.3z" fill="#2E353A"/><path d="M312.92 247.18l1.29.87c-.92.49-1.29-.87-1.29-.87z" fill="#2E353A"/><path d="M312.66 254.35a2.64 2.64 0 01-2-1.08 16.63 16.63 0 003.34-3.1l-1.34 4.18z" fill="#BA4D3C"/><path d="M315.45 244.08a2.875 2.875 0 011.25 2.34.357.357 0 00.099.254.351.351 0 00.251.106.361.361 0 00.36-.35 3.597 3.597 0 00-1.55-3 .369.369 0 00-.51.07.375.375 0 000 .36.307.307 0 00.1.22z" fill="#2E353A"/><path d="M336.14 248.34a10.417 10.417 0 00-11.27-9.49c-8.08.61-12.56 11.11-13.1 18.16-.6 7.83 7.55 12.84 14.9 9 4.93-2.56 5.88-5.64 8.72-12.78.644-1.545.901-3.223.75-4.89z" fill="#CE7A63"/><path d="M340.08 257.61c10.58-13.36-2.41-17.2-2.41-17.2-4.07-5.65-10.79-6.8-16.95-4.44-6.16 2.36-4.32 6.48-2.08 6.89-4.2 5.55-1.79 8.31-.41 8.71-2.17 13.96 11.27 19.43 21.85 6.04z" fill="#263238"/><path d="M321.66 252a2.709 2.709 0 00-2.37-3c-2-.21-3.62 2.23-4.07 4-.5 1.93.58 3.72 2.59 3.08a5.997 5.997 0 003.49-3 2.73 2.73 0 00.36-1.08z" fill="#CE7A63"/><path d="M332.76 275.6a4.5 4.5 0 01-2-3.87s-14.81-2.16-17.89 1.18c0 0 4.45-.23 2.68 3.44l17.21-.75z" fill="#F3722C"/><path opacity=".6" d="M332.76 275.6a4.5 4.5 0 01-2-3.87s-14.81-2.16-17.89 1.18c0 0 4.45-.23 2.68 3.44l17.21-.75z" fill="#fff"/><path d="M317.43 319.22l-.09 3.82c4.644.563 9.323.791 14 .68a39.463 39.463 0 007.35-.79 14.53 14.53 0 002.1-.64c.422-.158.83-.353 1.22-.58a5.886 5.886 0 001.48-1.15c.309-.34.571-.72.78-1.13a7 7 0 00.31-.75c.059-.271.102-.544.13-.82l.13-.88.27-1.75c.52-4.66.79-9.24 1-13.83.21-4.59.32-9.16.3-13.77h-7.81l-.22 13.57c-.11 4.52-.2 9-.43 13.46l-.1 1.47a6.613 6.613 0 01-.87.35 42.696 42.696 0 01-6.15 1.27c-4.4.67-8.93 1.06-13.4 1.47z" fill="#CE7A63"/><path d="M331.88 285.16c0 4.72 2.84 13.56 2.84 13.56l11.72-7.21c.52-6.05-.73-13.83-6.54-15.72-3.9-1.28-7.98 4.34-8.02 9.37z" fill="#263238"/><path opacity=".6" d="M340.3 281.76l2.69 2.66.52 8.9-8.79 5.4s-2.84-8.84-2.84-13.56a11.25 11.25 0 01.66-3.6l4-1.22 3.76 1.42z" fill="#000"/><path d="M306.66 321.35a1.496 1.496 0 01-.023-1.169 1.495 1.495 0 01.823-.831l3.32-1.41a3.551 3.551 0 012.25-.16l7.25 2 .89 2.44c-1.13 2.81-5.92 2.28-5.92 2.28l-3.45 1.05a2.263 2.263 0 01-2.43-.74l-2.51-3.11a1.43 1.43 0 01-.2-.35z" fill="#CE7A63"/><path d="M311.94 275.67c1.51-.25 3.08-.49 4.62-.68 4.721-.478 9.469-.622 14.21-.43 2.33.05 4.62.22 6.63.43h.16a6.627 6.627 0 015.535 4.867c.224.842.28 1.72.165 2.583-2.84 20.27-4.08 28.9-3.25 40.49l-31.38.95C305 305 303.48 293.73 303 287.1a10.771 10.771 0 018.94-11.43z" fill="#263238"/><path d="M275.52 392.01l-7.41-.7-4.99 18.25 7.41.7 4.99-18.25zM252.62 375.61l-6.28-5.95-8.4 12.76 5.02 4.36 9.66-11.17z" fill="#CE7A63"/><path d="M337 323.19a3.319 3.319 0 013.25 2.5c4.24 16.54-.55 26.53-12.26 26.53-11 0-40.92-9.8-50.33-12.85-7.88 22.77-30.62 43.15-30.62 43.15l-6-5.48s13.25-25.52 22.4-48.18c5.26-13 56.06-5.5 56.06-5.5s10.17-.17 17.5-.17z" fill="#F3722C"/><path opacity=".6" d="M337 323.19a3.319 3.319 0 013.25 2.5c4.24 16.54-.55 26.53-12.26 26.53-11 0-40.92-9.8-50.33-12.85-7.88 22.77-30.62 43.15-30.62 43.15l-6-5.48s13.25-25.52 22.4-48.18c5.26-13 56.06-5.5 56.06-5.5s10.17-.17 17.5-.17z" fill="#fff"/><path d="M329.37 322.93c11.92 15.75 11 29.25-1.34 29.25-11 0-24.66.64-39.52-.3-3.27 23.9-15.72 51.75-15.72 51.75l-8.21-.77s7.49-34.94 8.07-59.38C273 328.71 314.7 330 314.7 330s7.35-7 14.67-7.07z" fill="#F3722C"/><path opacity=".6" d="M329.37 322.93c11.92 15.75 11 29.25-1.34 29.25-11 0-24.66.64-39.52-.3-3.27 23.9-15.72 51.75-15.72 51.75l-8.21-.77s7.49-34.94 8.07-59.38C273 328.71 314.7 330 314.7 330s7.35-7 14.67-7.07z" fill="#fff"/><path d="M339.9 320.84l-31.78 1c-.31 0-.52.18-.52.37l.4 2.79c0 .17.27.29.55.29l32.29-.95c.37 0 .62-.23.5-.45l-.89-2.79a.54.54 0 00-.234-.217.537.537 0 00-.316-.043z" fill="#263238"/><path d="M282.69 308.51a73.256 73.256 0 009.54 5.19 40.025 40.025 0 005.33 2c1.077.319 2.188.51 3.31.57a6.89 6.89 0 002.51-.32 4.998 4.998 0 001.84-1.12c.16-.155.307-.322.44-.5l.2-.28.14-.21.19-.34a35.202 35.202 0 004.07-11c.38-1.84.66-3.7.84-5.57.08-1 .15-1.87.2-2.81.05-.94.06-1.83 0-2.88l-7.78.11c0 .68-.05 1.57-.09 2.37-.04.8-.1 1.64-.18 2.46-.15 1.64-.35 3.27-.6 4.9a46.512 46.512 0 01-1.05 4.68 26.02 26.02 0 01-1.33 3.64 8.469 8.469 0 01-1.32-.13c-1.6-.28-3.182-.651-4.74-1.11-3.25-.93-6.58-2-9.86-3.12l-1.66 3.47z" fill="#CE7A63"/><path d="M315.56 285.12c2.33 3.59-3.09 12.82-3.09 12.82l-9.77-1.1s-2-12.29 2.78-17.34c2.57-2.71 7.65 1.88 10.08 5.62z" fill="#263238"/><path d="M276.13 306.1a.462.462 0 01-.29-.58l5.16-15.36a.469.469 0 01.58-.29.433.433 0 01.154.086.455.455 0 01.136.484l-5.13 15.36a.494.494 0 01-.61.3z" fill="#2E353A"/><path d="M277.69 297.43a1.608 1.608 0 00-1.182.377 1.646 1.646 0 00-.394.495 1.636 1.636 0 00-.174.608l-.44 4.26a1.628 1.628 0 00.85 1.6l3.59 1.89s6.15 5.8 8.79 4.34l-1.9-4.14-3.72-6.41a3.8 3.8 0 00-1.84-1.63l-3.08-1.27a1.724 1.724 0 00-.5-.12z" fill="#CE7A63"/><path d="M237.84 379.6c-2.5-.2-6.13-2.11-8.4-4.09-1.74-1.54-3.74.23-2 2.61 1.74 2.38 5.52 5.75 7 7.31 2.38 2.5 2.82 3.73 4.8 5.61A1.25 1.25 0 00241 391l3.92-4.84a.51.51 0 00-.06-.71l-5.86-5.36a2 2 0 00-1.16-.49zM262.5 409.1c-1.76 1.79-4.76 4.33-7.69 5.06-1.88.46-3 3.48.54 3.13 3.54-.35 7.36-1.08 9.46-1.36 3.43-.45 4.61-.26 7.33-.53a1.238 1.238 0 00.817-.48 1.235 1.235 0 00.233-.92l-1.19-6.11a.519.519 0 00-.58-.41l-7.79 1c-.437.07-.836.289-1.13.62zM360.33 420.51a.898.898 0 00.273-.229.906.906 0 00.087-1.011l-35.34-65a.917.917 0 00-1.61.88l35.35 65a.917.917 0 001.24.36z" fill="#F3722C"/><path d="M360.33 420.51a.898.898 0 00.273-.229.906.906 0 00.087-1.011l-35.34-65a.917.917 0 00-1.61.88l35.35 65a.917.917 0 001.24.36z" fill="#000" opacity=".2"/><path opacity=".2" d="M343.26 391.02l-3.12-5.74 1.04-1.92 3.12 5.74-1.04 1.92z" fill="#000"/><path d="M309.82 420.51a.92.92 0 00.37-1.24l-35.35-65a.917.917 0 00-1.61.88l35.35 65a.917.917 0 001.24.36z" fill="#F3722C"/><path d="M309.82 420.51a.92.92 0 00.37-1.24l-35.35-65a.917.917 0 00-1.61.88l35.35 65a.917.917 0 001.24.36z" fill="#000" opacity=".2"/><path opacity=".2" d="M292.75 391.02l-3.12-5.74 1.04-1.92 3.12 5.74-1.04 1.92z" fill="#000"/><path d="M274.84 420.15l35.35-65a.921.921 0 00-.37-1.24.922.922 0 00-1.24.36l-35.35 65a.921.921 0 00.37 1.24.917.917 0 001.24-.36z" fill="#F3722C"/><path d="M274.84 420.15l35.35-65a.921.921 0 00-.37-1.24.922.922 0 00-1.24.36l-35.35 65a.921.921 0 00.37 1.24.917.917 0 001.24-.36z" fill="#000" opacity=".2"/><path d="M325.35 420.15l35.34-65a.903.903 0 00.078-.695.912.912 0 00-1.678-.185l-35.35 65a.921.921 0 00.37 1.24.917.917 0 001.24-.36z" fill="#F3722C"/><path d="M325.35 420.15l35.34-65a.903.903 0 00.078-.695.912.912 0 00-1.678-.185l-35.35 65a.921.921 0 00.37 1.24.917.917 0 001.24-.36z" fill="#000" opacity=".2"/><path d="M317.87 351h-41a4.715 4.715 0 00-4.36 2.905 4.7 4.7 0 00-.36 1.805h45.76l-.04-4.71z" fill="#F3722C"/><path d="M347 290.69c14.43 0 24.7 10.75 23.95 25.07l-1.65 31.32a9.094 9.094 0 01-2.826 6.12 9.093 9.093 0 01-6.264 2.49h-58l12-39.93c4.3-14.32 18.37-25.07 32.79-25.07z" fill="#F3722C"/><path opacity=".3" d="M347 290.69c14.43 0 24.7 10.75 23.95 25.07l-1.65 31.32a9.094 9.094 0 01-2.826 6.12 9.093 9.093 0 01-6.264 2.49h-58l12-39.93c4.3-14.32 18.37-25.07 32.79-25.07z" fill="#fff"/></g><defs><clipPath id="prefix__clip0_17_2524"><path fill="#fff" d="M0 0h500v500H0z"/></clipPath></defs></svg>