<svg width="503" height="500" viewBox="0 0 503 500" fill="none" xmlns="http://www.w3.org/2000/svg">
    <rect x="3" y="26" width="500" height="460" rx="40" fill="#4D9DE0"/>
    <path d="M437.24 381.57C440.16 370.89 449.67 335.04 456.13 298.73C463.83 255.38 470.57 195.67 439.75 170.62C408.93 145.57 368.47 175.44 347.28 165.81C326.09 156.18 325.13 108.01 268.28 93.57C211.43 79.13 179.66 129.2 154.62 156.17C129.58 183.14 101.62 164.84 65.04 193.74C28.84 222.32 59.54 351.74 86.31 381.57H437.24Z" fill="#F3722C"/>
    <path opacity="0.7" d="M437.24 381.57C440.16 370.89 449.67 335.04 456.13 298.73C463.83 255.38 470.57 195.67 439.75 170.62C408.93 145.57 368.47 175.44 347.28 165.81C326.09 156.18 325.13 108.01 268.28 93.57C211.43 79.13 179.66 129.2 154.62 156.17C129.58 183.14 101.62 164.84 65.04 193.74C28.84 222.32 59.54 351.74 86.31 381.57H437.24Z" fill="white"/>
    <path d="M447.21 178.71H368.71C368.329 178.713 367.964 178.865 367.695 179.135C367.425 179.404 367.273 179.769 367.27 180.15V382.15C367.27 382.533 367.421 382.9 367.691 383.172C367.961 383.443 368.327 383.597 368.71 383.6H447.21C447.595 383.6 447.963 383.447 448.235 383.175C448.507 382.903 448.66 382.535 448.66 382.15V180.15C448.657 179.767 448.503 179.401 448.232 179.131C447.96 178.861 447.593 178.71 447.21 178.71ZM445.77 380.71H370.16V181.6H445.77V380.71Z" fill="white"/>
    <path d="M375.64 223.16H440.29C440.48 223.16 440.668 223.122 440.843 223.049C441.019 222.976 441.178 222.869 441.312 222.735C441.446 222.6 441.552 222.44 441.623 222.264C441.695 222.088 441.731 221.9 441.73 221.71V187.58C441.731 187.39 441.695 187.203 441.623 187.027C441.551 186.852 441.445 186.693 441.311 186.559C441.177 186.425 441.018 186.319 440.843 186.247C440.667 186.175 440.48 186.139 440.29 186.14H375.64C375.45 186.139 375.262 186.175 375.086 186.247C374.91 186.318 374.75 186.424 374.615 186.558C374.481 186.692 374.374 186.851 374.301 187.027C374.228 187.202 374.19 187.39 374.19 187.58V221.71C374.19 222.094 374.343 222.463 374.615 222.735C374.887 223.007 375.256 223.16 375.64 223.16ZM377.08 189H438.84V220.24H377.08V189Z" fill="white"/>
    <path d="M375.64 271.64H440.29C440.48 271.641 440.667 271.605 440.843 271.533C441.018 271.461 441.177 271.355 441.311 271.221C441.445 271.087 441.551 270.928 441.623 270.753C441.695 270.577 441.731 270.389 441.73 270.2V236.07C441.731 235.88 441.695 235.692 441.623 235.516C441.552 235.34 441.446 235.18 441.312 235.045C441.178 234.911 441.019 234.804 440.843 234.731C440.668 234.658 440.48 234.62 440.29 234.62H375.64C375.256 234.62 374.887 234.773 374.615 235.045C374.343 235.317 374.19 235.685 374.19 236.07V270.2C374.19 270.39 374.228 270.578 374.301 270.753C374.374 270.929 374.481 271.088 374.615 271.222C374.75 271.356 374.91 271.461 375.086 271.533C375.262 271.605 375.45 271.641 375.64 271.64ZM377.08 237.51H438.84V268.76H377.08V237.51Z" fill="white"/>
    <path d="M375.64 320.13H440.29C440.672 320.13 441.038 319.978 441.308 319.708C441.578 319.438 441.73 319.072 441.73 318.69V284.55C441.73 284.168 441.578 283.802 441.308 283.532C441.038 283.262 440.672 283.11 440.29 283.11H375.64C375.257 283.11 374.89 283.261 374.618 283.531C374.347 283.801 374.193 284.167 374.19 284.55V318.69C374.193 319.073 374.347 319.439 374.618 319.709C374.89 319.979 375.257 320.13 375.64 320.13ZM377.08 286H438.84V317.24H377.08V286Z" fill="white"/>
    <path d="M375.64 368.62H440.29C440.48 368.62 440.668 368.582 440.843 368.509C441.019 368.436 441.178 368.329 441.312 368.195C441.446 368.06 441.551 367.9 441.623 367.724C441.695 367.548 441.731 367.36 441.73 367.17V333C441.731 332.81 441.695 332.623 441.623 332.447C441.551 332.272 441.445 332.113 441.311 331.979C441.177 331.845 441.018 331.739 440.843 331.667C440.667 331.595 440.479 331.559 440.29 331.56H375.64C375.45 331.559 375.262 331.595 375.086 331.667C374.91 331.738 374.75 331.844 374.615 331.978C374.481 332.112 374.374 332.271 374.301 332.447C374.228 332.622 374.19 332.81 374.19 333V367.13C374.185 367.324 374.218 367.517 374.289 367.697C374.359 367.878 374.465 368.042 374.6 368.181C374.735 368.32 374.897 368.431 375.076 368.506C375.254 368.581 375.446 368.62 375.64 368.62ZM377.08 334.49H438.84V365.73H377.08V334.49Z" fill="white"/>
    <path d="M348.88 107H137.44C137.065 107 136.705 107.146 136.436 107.408C136.167 107.669 136.01 108.025 136 108.4V213.72C136 213.91 136.038 214.098 136.111 214.273C136.184 214.449 136.291 214.608 136.425 214.742C136.56 214.876 136.72 214.982 136.896 215.053C137.072 215.125 137.26 215.161 137.45 215.16H348.88C349.069 215.161 349.257 215.125 349.433 215.053C349.608 214.981 349.767 214.875 349.901 214.741C350.035 214.607 350.141 214.448 350.213 214.273C350.285 214.097 350.321 213.91 350.32 213.72V108.4C350.312 108.024 350.157 107.667 349.887 107.405C349.618 107.143 349.256 106.997 348.88 107ZM347.43 109.89V207.61H138.88V109.85L347.43 109.89Z" fill="white"/>
    <path d="M396.43 315.28L391.88 384C391.855 384.349 391.699 384.676 391.443 384.915C391.187 385.155 390.85 385.288 390.5 385.29C390.316 385.29 390.134 385.253 389.964 385.181C389.794 385.109 389.641 385.004 389.513 384.871C389.385 384.739 389.285 384.582 389.22 384.41C389.154 384.238 389.123 384.054 389.13 383.87L391 315.28H396.43Z" fill="#263238" stroke="#263238" stroke-linecap="round" stroke-linejoin="round"/>
    <path d="M408.07 315.28L412.62 384C412.643 384.348 412.797 384.675 413.051 384.915C413.305 385.154 413.641 385.288 413.99 385.29C414.175 385.29 414.357 385.253 414.528 385.181C414.698 385.109 414.852 385.004 414.98 384.872C415.109 384.739 415.21 384.583 415.277 384.41C415.344 384.238 415.375 384.055 415.37 383.87L413.48 315.32L408.07 315.28Z" fill="#263238" stroke="#263238" stroke-linecap="round" stroke-linejoin="round"/>
    <path d="M362.45 315.28L367 384C367.023 384.348 367.177 384.675 367.431 384.915C367.685 385.154 368.021 385.288 368.37 385.29C368.555 385.29 368.737 385.253 368.908 385.181C369.078 385.109 369.232 385.004 369.36 384.872C369.489 384.739 369.59 384.583 369.657 384.41C369.724 384.238 369.755 384.055 369.75 383.87L367.85 315.32L362.45 315.28Z" fill="#263238" stroke="#263238" stroke-linecap="round" stroke-linejoin="round"/>
    <path d="M343.86 315.28L339.31 384C339.285 384.349 339.129 384.676 338.873 384.915C338.617 385.155 338.28 385.288 337.93 385.29C337.746 385.289 337.564 385.251 337.394 385.179C337.225 385.106 337.071 385.001 336.943 384.869C336.814 384.737 336.714 384.58 336.646 384.409C336.579 384.237 336.546 384.054 336.55 383.87L338.45 315.32L343.86 315.28Z" fill="#263238" stroke="#263238" stroke-linecap="round" stroke-linejoin="round"/>
    <path d="M423.13 246C423.13 246 377.73 244.3 373.89 244.3C370.05 244.3 369.16 246 369.16 246L362.68 291.69C362.68 291.69 342.53 285.94 338.58 286.69C334.63 287.44 340.53 316.11 340.53 316.11H363.33L363.74 314.39H415.22L428.89 249.27C428.06 246.29 423.13 246 423.13 246Z" fill="white" stroke="#263238" stroke-linecap="round" stroke-linejoin="round"/>
    <path d="M405.85 274.58C405.85 274.58 410.47 304.58 405.17 308.08C404.35 308.62 399.9 311.18 395.74 310.76C392.4 310.42 368.8 310.76 368.8 310.76C368.8 310.76 365.52 304.52 364.86 299.92C364.2 295.32 369.36 275.58 369.36 275.58L405.85 274.58Z" fill="white" stroke="#263238" stroke-linecap="round" stroke-linejoin="round"/>
    <path d="M367.2 290.65C367.2 290.65 333.04 294.2 331.43 295.16C329.82 296.12 322.43 302.57 323.7 306.76C324.97 310.95 321.77 311.27 324.7 311.92C327.63 312.57 369.16 312.56 369.16 312.56" fill="#F3722C"/>
    <path d="M367.2 290.65C367.2 290.65 333.04 294.2 331.43 295.16C329.82 296.12 322.43 302.57 323.7 306.76C324.97 310.95 321.77 311.27 324.7 311.92C327.63 312.57 369.16 312.56 369.16 312.56" stroke="#263238" stroke-linecap="round" stroke-linejoin="round"/>
    <path d="M336.13 316.06H417.3V310H336.13V316.06Z" fill="white" stroke="#263238" stroke-linecap="round" stroke-linejoin="round"/>
    <path d="M398.13 291.94H349.23C349.23 291.94 346.66 294.84 346.33 300.94C346 307.04 346.66 308.35 351.17 309.94C355.68 311.53 395.74 310.72 395.74 310.72" fill="#F3722C"/>
    <path d="M398.13 291.94H349.23C349.23 291.94 346.66 294.84 346.33 300.94C346 307.04 346.66 308.35 351.17 309.94C355.68 311.53 395.74 310.72 395.74 310.72" stroke="#263238" stroke-linecap="round" stroke-linejoin="round"/>
    <path d="M359.6 369.54L354.48 357.41L346.09 359L352.51 369.82L348.81 377.23L340.81 382.46C340.81 382.46 339.88 383.38 343.88 383.07C347.88 382.76 356.18 383.07 356.18 383.07L361.41 376.92C361.41 376.92 363.31 373.79 359.6 369.54Z" fill="white" stroke="#263238" stroke-linecap="round" stroke-linejoin="round"/>
    <path d="M361.84 374.84L362.05 382.77H360.8L359.13 378.81L361.84 374.84Z" fill="#263238" stroke="#263238" stroke-linecap="round" stroke-linejoin="round"/>
    <path d="M356.19 383.11L361.42 376.96C361.42 376.96 362.77 374.67 360.91 371.37C357.19 377.73 352.24 379.64 352.24 379.64L347.08 378.4L340.82 382.5C340.82 382.5 339.89 383.42 343.89 383.11C347.89 382.8 356.19 383.11 356.19 383.11Z" fill="#263238" stroke="#263238" stroke-linecap="round" stroke-linejoin="round"/>
    <path d="M339.49 307.73L356.64 359.58L344.47 361.74L320.47 307.74C320.47 307.74 318.54 299.68 323.69 297.11C328.84 294.54 343.99 293.24 343.99 293.24" fill="#F3722C"/>
    <path d="M339.49 307.73L356.64 359.58L344.47 361.74L320.47 307.74C320.47 307.74 318.54 299.68 323.69 297.11C328.84 294.54 343.99 293.24 343.99 293.24" stroke="#263238" stroke-linecap="round" stroke-linejoin="round"/>
    <path d="M394.5 316.05C394.5 316.05 388.59 287.34 392.55 286.63C396.51 285.92 416.65 291.63 416.65 291.63L423.13 246C423.13 246 429.97 244.92 430.69 251C431.41 257.08 417.3 316.05 417.3 316.05H394.5Z" fill="#263238" stroke="#263238" stroke-linecap="round" stroke-linejoin="round"/>
    <path d="M324.91 231.52L321.86 226.52C321.566 226.041 321.152 225.647 320.659 225.377C320.167 225.107 319.612 224.97 319.05 224.98L316.18 225.03L311.27 223.56C310.958 223.469 310.626 223.473 310.316 223.571C310.007 223.669 309.733 223.856 309.53 224.11L309.35 224.34L313.87 226.34L309.36 228L304.57 225.57C304.381 225.473 304.164 225.446 303.958 225.494C303.751 225.541 303.568 225.66 303.44 225.83C303.295 226.019 303.23 226.257 303.26 226.493C303.29 226.729 303.412 226.944 303.6 227.09L310.3 232.26C310.51 232.423 310.753 232.54 311.011 232.602C311.27 232.664 311.539 232.67 311.8 232.62L319.21 231.13L321.28 233.39L324.91 231.52Z" fill="white" stroke="#263238" stroke-linecap="round" stroke-linejoin="round"/>
    <path d="M376.57 221.26L349.1 249.99L322.88 228.8L319.26 231.43L348.11 264.12L373.12 250.65L376.57 221.26Z" fill="white" stroke="#263238" stroke-linecap="round" stroke-linejoin="round"/>
    <path d="M417.67 228.6L432.07 272.85L419.65 273.21L407.3 252.44C407.3 252.44 414.24 231.49 417.67 228.6Z" fill="white" stroke="#263238" stroke-linecap="round" stroke-linejoin="round"/>
    <path d="M402 221L417.67 228.65L404.55 265.34L406.1 275.57L369.36 275.63L373.74 259.15L370.74 248.59C370.351 247.22 370.33 245.771 370.68 244.39L376.56 221.31L392 218.83L402 221Z" fill="white" stroke="#263238" stroke-linecap="round" stroke-linejoin="round"/>
    <path d="M401.25 218.85C401.25 218.85 404.33 220.93 404.43 222.78C404.48 223.87 404.43 225.78 404.33 227.24C404.275 228.381 404.014 229.502 403.56 230.55L398.01 237.25L391.59 232.18L386.26 234.9C386.26 234.9 385.26 226.73 387.59 221.03C389.92 215.33 400.06 217.42 401.25 218.85Z" fill="white" stroke="#263238" stroke-linecap="round" stroke-linejoin="round"/>
    <path d="M405.66 203C405.66 203 404.4 207.53 403.81 210.53C403.22 213.53 402.03 219.53 402.14 221.78C402.25 224.03 392.78 233.61 391.59 232.18C390.4 230.75 389.15 222.44 389.15 222.44L390.33 209C390.33 209 402.67 195.33 405.66 203Z" fill="white" stroke="#263238" stroke-linecap="round" stroke-linejoin="round"/>
    <path d="M385.87 196C385.87 196 384.18 198.79 384.18 200C384.18 201.21 384.77 203.58 384.67 204.27C384.57 204.96 382.89 207.27 382.67 208.05C382.559 208.367 382.569 208.714 382.696 209.025C382.823 209.337 383.059 209.591 383.36 209.74C383.768 209.949 384.166 210.179 384.55 210.43C384.55 210.43 385.05 216.59 385.85 218.18C386.65 219.77 387.34 220.47 389.72 220.67C392.1 220.87 397.77 218.38 398.56 216.39C399.35 214.4 399.46 212.02 399.56 209.14C399.66 206.26 397.67 202.14 396.18 198.21C394.69 194.28 388.45 192.12 385.87 196Z" fill="white" stroke="#263238" stroke-linecap="round" stroke-linejoin="round"/>
    <path d="M411.52 216.34C415.734 216.34 419.15 212.924 419.15 208.71C419.15 204.496 415.734 201.08 411.52 201.08C407.306 201.08 403.89 204.496 403.89 208.71C403.89 212.924 407.306 216.34 411.52 216.34Z" fill="#263238" stroke="#263238" stroke-linecap="round" stroke-linejoin="round"/>
    <path d="M385.83 195.57C385.83 195.57 388.9 192.92 394.42 198.19C399.94 203.46 397.84 211.08 401.53 212.66C405.22 214.24 412.05 206.34 412.84 202.4C413.63 198.46 411.26 190.29 403.89 188.71C396.52 187.13 387.49 188.21 385.83 195.57Z" fill="#263238" stroke="#263238" stroke-linecap="round" stroke-linejoin="round"/>
    <path d="M385.83 195.57C385.765 194.95 385.841 194.324 386.054 193.738C386.267 193.153 386.611 192.623 387.059 192.19C387.508 191.758 388.049 191.433 388.641 191.24C389.234 191.048 389.863 190.993 390.48 191.08C395.48 191.35 396 199.24 398.63 202.4C401.26 205.56 402.58 205.03 402.58 205.03C402.58 205.03 398.11 206.34 395.21 204.76C392.31 203.18 390.91 194.27 385.83 195.57Z" fill="#263238" stroke="#263238" stroke-linecap="round" stroke-linejoin="round"/>
    <path d="M394 190.16C396.631 191.785 398.719 194.156 400 196.97C402.27 201.78 402.27 205.75 407.66 205.47C407.66 205.47 405.11 206.04 401.14 204.05C397.17 202.06 396.32 196.4 393.77 194.13C392.379 192.813 390.579 192.012 388.67 191.86" stroke="white" stroke-width="0.5" stroke-linecap="round" stroke-linejoin="round"/>
    <path d="M412.84 202.4C412.84 202.4 412.61 209.62 407.07 211.14" stroke="white" stroke-width="0.5" stroke-linecap="round" stroke-linejoin="round"/>
    <path d="M397.38 209.77C397.38 209.77 402.66 202.86 403.9 208.02C405.14 213.18 400.9 214.44 398.9 213.85C396.9 213.26 397.18 212.19 397.18 212.19" fill="white"/>
    <path d="M397.38 209.77C397.38 209.77 402.66 202.86 403.9 208.02C405.14 213.18 400.9 214.44 398.9 213.85C396.9 213.26 397.18 212.19 397.18 212.19" stroke="#263238" stroke-linecap="round" stroke-linejoin="round"/>
    <path d="M385.63 268.9C385.63 268.9 375.55 270.3 373.87 270.3C372.19 270.3 367.99 275.62 367.99 275.62H386.47L385.63 268.9Z" fill="white" stroke="#263238" stroke-linecap="round" stroke-linejoin="round"/>
    <path d="M428.45 262.12L432.07 270.28C432.232 270.76 432.279 271.272 432.206 271.774C432.133 272.276 431.942 272.753 431.65 273.167C431.358 273.582 430.971 273.921 430.523 274.158C430.075 274.394 429.577 274.522 429.07 274.53L385.37 274.78L385.65 268.9L419.53 263.54" fill="white"/>
    <path d="M428.45 262.12L432.07 270.28C432.232 270.76 432.279 271.272 432.206 271.774C432.133 272.276 431.942 272.753 431.65 273.167C431.358 273.582 430.971 273.921 430.523 274.158C430.075 274.394 429.577 274.522 429.07 274.53L385.37 274.78L385.65 268.9L419.53 263.54" stroke="#263238" stroke-linecap="round" stroke-linejoin="round"/>
    <path d="M369.96 374.84L370.17 382.77H368.92L367.25 378.81L369.96 374.84Z" fill="#263238" stroke="#263238" stroke-linecap="round" stroke-linejoin="round"/>
    <path d="M367.72 369.54L366.11 358L357.73 358.54L360.63 369.9L356.93 377.31L348.93 382.54C348.93 382.54 348.01 383.46 352.01 383.15C356.01 382.84 364.31 383.15 364.31 383.15L369.54 377C369.54 377 371.43 373.79 367.72 369.54Z" fill="white" stroke="#263238" stroke-linecap="round" stroke-linejoin="round"/>
    <path d="M364.31 383.11L369.54 376.96C369.54 376.96 370.89 374.67 369.02 371.37C365.3 377.73 360.35 379.64 360.35 379.64L355.2 378.4L348.93 382.5C348.93 382.5 348.01 383.42 352.01 383.11C356.01 382.8 364.31 383.11 364.31 383.11Z" fill="#263238" stroke="#263238" stroke-linecap="round" stroke-linejoin="round"/>
    <path d="M363.88 298.8L367.47 360.12L356.1 360.39L345 304.68C345 304.68 345.21 294.07 348.6 292.85C351.99 291.63 360.99 292.94 360.99 292.94" fill="#F3722C"/>
    <path d="M363.88 298.8L367.47 360.12L356.1 360.39L345 304.68C345 304.68 345.21 294.07 348.6 292.85C351.99 291.63 360.99 292.94 360.99 292.94" stroke="#263238" stroke-linecap="round" stroke-linejoin="round"/>
    <path d="M314.18 166.81L328.29 206.36C328.29 206.36 326.43 215.31 320.83 214.94C315.23 214.57 313.74 206.73 312.25 205.61C310.76 204.49 308.52 195.91 308.52 195.91L314.18 166.81Z" fill="white" stroke="#263238" stroke-linecap="round" stroke-linejoin="round"/>
    <path d="M277.68 158.88L254.74 167.16L263.54 230.77H304.93L314.18 166.81L289.42 159.06L277.68 158.88Z" fill="white" stroke="#263238" stroke-linecap="round" stroke-linejoin="round"/>
    <path d="M279.89 169.78L283.2 174.77L280.33 217.09L284.55 228.11L288.88 217.39L285.17 175.4L288.15 168.19L284.02 162.76L279.89 169.78Z" fill="#F3722C" stroke="#263238" stroke-linecap="round" stroke-linejoin="round"/>
    <path d="M284.47 167.72L278.56 172.15L274.67 160.6L277.38 154.75L289.47 154.46L292.42 157.11L291.83 171.85L284.47 167.72Z" fill="white" stroke="#263238" stroke-linecap="round" stroke-linejoin="round"/>
    <path d="M290.72 151.75L289.8 159.18L283.18 167.72L278.23 159.06V145.13C278.23 145.13 286.9 147.3 290.72 151.75Z" fill="white" stroke="#263238" stroke-linecap="round" stroke-linejoin="round"/>
    <path d="M274.83 136.31C274.83 129.56 279.75 124.09 285.83 124.09C291.91 124.09 295.28 129.86 295.28 136.61C295.28 138.79 294.83 142.53 294.65 144.52C294.34 147.92 293.31 149.36 291.3 152.41C284.71 162.41 279.3 147.74 276.53 142.81C275.409 140.828 274.823 138.587 274.83 136.31Z" fill="white" stroke="#263238" stroke-linecap="round" stroke-linejoin="round"/>
    <path d="M290.61 138.43L291.54 145.4L288.27 145.31" fill="white"/>
    <path d="M290.61 138.43L291.54 145.4L288.27 145.31" stroke="#263238" stroke-linecap="round" stroke-linejoin="round"/>
    <path d="M297.91 137.22L282.19 137.29C281.997 137.901 281.967 138.553 282.104 139.179C282.241 139.805 282.54 140.385 282.97 140.86C283.97 141.86 288.04 141.51 288.69 141.25C289.34 140.99 289.69 138.13 289.69 138.13H290.86C290.86 138.13 290.99 141.13 292.67 141.38C294.35 141.63 296.54 141.55 296.96 141.25C298.82 140 297.91 137.22 297.91 137.22Z" fill="white" stroke="#263238" stroke-linecap="round" stroke-linejoin="round"/>
    <path d="M276.77 143.94C276.77 143.94 280.31 151.19 281.15 153.7C281.99 156.21 286.15 158.17 290.36 156.77C294.57 155.37 293.43 149.14 293.43 149.14C293.43 149.14 288.96 145.32 288.13 146.14C287.3 146.96 282.82 150.61 282.54 149.77C282.26 148.93 280.31 143.91 280.31 143.91L279.4 140.35L281.27 139.15C281.54 138.925 281.716 138.607 281.762 138.259C281.808 137.91 281.722 137.558 281.52 137.27L280.64 136C280.532 135.844 280.455 135.669 280.416 135.483C280.376 135.298 280.374 135.106 280.41 134.92C280.64 133.83 281.27 131.57 282.73 130.92C284.73 130.09 287.16 131.3 289.4 131.86C291.64 132.42 294.07 130.4 294.07 130.4L295.07 133.72C297.287 131.639 298.863 128.967 299.61 126.02C300.73 121.27 289.28 119.32 285.61 119.32C281.94 119.32 276.12 121.32 274.44 126.58C272.76 131.84 275.78 143 276.77 143.94Z" fill="#263238" stroke="#263238" stroke-linecap="round" stroke-linejoin="round"/>
    <path d="M285.83 126.05C285.83 126.05 287.91 129.17 285.18 129.82C282.45 130.47 277.13 128.13 274.79 129.04" stroke="white" stroke-width="0.5" stroke-linecap="round" stroke-linejoin="round"/>
    <path d="M281.15 132.93C281.15 132.93 276.87 132.41 275.15 134.23" stroke="white" stroke-width="0.5" stroke-linecap="round" stroke-linejoin="round"/>
    <path d="M291.45 148.7C291.45 148.7 288.3 150.34 286.74 148.39" stroke="white" stroke-width="0.5" stroke-linecap="round" stroke-linejoin="round"/>
    <path d="M277.3 141.73C277.3 141.73 274.21 138.33 274.21 142.04C274.21 145.75 275.14 145.75 276.99 147.04C278.84 148.33 279.47 146.73 279.47 146.73" fill="white"/>
    <path d="M277.3 141.73C277.3 141.73 274.21 138.33 274.21 142.04C274.21 145.75 275.14 145.75 276.99 147.04C278.84 148.33 279.47 146.73 279.47 146.73" stroke="#263238" stroke-linecap="round" stroke-linejoin="round"/>
    <path d="M318.56 372.24H318.7L318.43 370.88L304.93 230.78H263.54L249.93 372.23H250.08L258.86 372.98C258.86 372.98 268.6 340.28 268.6 337.84C268.6 335.4 271.38 312.84 271.38 312.84L285.19 264.29L297.4 312.84C297.4 312.84 300.18 335.45 300.18 337.84C300.18 340.23 309.93 373 309.93 373L318.19 372.29H318.56V372.24Z" fill="#263238" stroke="#263238" stroke-linecap="round" stroke-linejoin="round"/>
    <path d="M301.84 239.02L292.63 252.17" stroke="white" stroke-width="0.5" stroke-linecap="round" stroke-linejoin="round"/>
    <path d="M296.91 241.98L291.32 251.19" stroke="white" stroke-width="0.5" stroke-linecap="round" stroke-linejoin="round"/>
    <path d="M270.61 241.33L278.82 250.2" stroke="white" stroke-width="0.5" stroke-linecap="round" stroke-linejoin="round"/>
    <path d="M269.95 244.61L281.78 256.45" stroke="white" stroke-width="0.5" stroke-linecap="round" stroke-linejoin="round"/>
    <path d="M266 232.12H302.5" stroke="white" stroke-width="0.5" stroke-linecap="round" stroke-linejoin="round"/>
    <path d="M250.08 372.23C250.08 372.23 244.81 376.38 241.77 377.52C238.73 378.66 233.05 381.69 233.05 381.69C233.05 381.69 233.05 383.59 237.98 383.59H257.33L257 372.23H250.08Z" fill="#263238" stroke="#263238" stroke-linecap="round" stroke-linejoin="round"/>
    <path d="M257.26 381.52C249.533 381.873 241.792 381.749 234.08 381.15L233.08 381.69C233.08 381.69 233.08 383.59 238.01 383.59H257.36L257.26 381.52Z" fill="white" stroke="#263238" stroke-linecap="round" stroke-linejoin="round"/>
    <path d="M317.76 372.23C317.76 372.23 323.04 376.38 326.07 377.52C329.1 378.66 334.8 381.69 334.8 381.69C334.8 381.69 334.8 383.59 329.86 383.59H310.52L310.87 372.23H317.76Z" fill="#263238" stroke="#263238" stroke-linecap="round" stroke-linejoin="round"/>
    <path d="M310.58 381.52C318.307 381.873 326.048 381.749 333.76 381.15L334.76 381.69C334.76 381.69 334.76 383.59 329.82 383.59H310.52L310.58 381.52Z" fill="white" stroke="#263238" stroke-linecap="round" stroke-linejoin="round"/>
    <path d="M254.74 167.16L239.5 207.85H254.12L259.58 196.75L254.74 167.16Z" fill="white" stroke="#263238" stroke-linecap="round" stroke-linejoin="round"/>
    <path d="M321.41 201.55C315.31 199.03 295.74 197.78 294.72 197.78C293.7 197.78 261.89 195.16 259.28 194.78C256.67 194.4 253.68 200.38 253.68 200.38L267.48 200L284.27 203.36C284.27 203.36 318.27 215.67 320.83 214.93C321.179 214.814 321.495 214.615 321.75 214.35" fill="white"/>
    <path d="M321.41 201.55C315.31 199.03 295.74 197.78 294.72 197.78C293.7 197.78 261.89 195.16 259.28 194.78C256.67 194.4 253.68 200.38 253.68 200.38L267.48 200L284.27 203.36C284.27 203.36 318.27 215.67 320.83 214.93C321.179 214.814 321.495 214.615 321.75 214.35" stroke="#263238" stroke-linecap="round" stroke-linejoin="round"/>
    <path d="M250.32 199.64L302.92 194.42L303.3 198.89L257.78 212.7C257.78 212.7 249.58 214.56 243.23 213.44C236.88 212.32 239.88 205.98 241.37 202.25" fill="white"/>
    <path d="M250.32 199.64L302.92 194.42L303.3 198.89L257.78 212.7C257.78 212.7 249.58 214.56 243.23 213.44C236.88 212.32 239.88 205.98 241.37 202.25" stroke="#263238" stroke-linecap="round" stroke-linejoin="round"/>
    <path d="M302.93 194.42L313 194.04L315.98 200.01L303.3 198.9L302.93 194.42Z" fill="white" stroke="#263238" stroke-linecap="round" stroke-linejoin="round"/>
    <path d="M370 282.16L378.59 384.43C378.613 384.582 378.666 384.729 378.747 384.86C378.829 384.991 378.936 385.103 379.062 385.191C379.188 385.28 379.332 385.341 379.483 385.371C379.634 385.402 379.789 385.402 379.94 385.37C380.197 385.306 380.423 385.152 380.575 384.935C380.728 384.718 380.797 384.454 380.77 384.19L374.92 282.19L370 282.16Z" fill="#263238" stroke="#263238" stroke-linecap="round" stroke-linejoin="round"/>
    <path d="M427.73 282.16L436.35 384.77C436.371 384.923 436.424 385.07 436.505 385.202C436.585 385.333 436.693 385.447 436.819 385.535C436.946 385.624 437.09 385.685 437.241 385.715C437.393 385.745 437.549 385.743 437.7 385.71C437.957 385.646 438.183 385.492 438.335 385.275C438.488 385.058 438.557 384.794 438.53 384.53L432.66 282.16H427.73Z" fill="#263238" stroke="#263238" stroke-linecap="round" stroke-linejoin="round"/>
    <path d="M189.49 282.16L185 383.54C184.975 383.806 185.046 384.072 185.2 384.29C185.354 384.508 185.581 384.664 185.84 384.73C185.989 384.768 186.144 384.774 186.295 384.747C186.445 384.72 186.589 384.661 186.715 384.574C186.841 384.486 186.947 384.373 187.026 384.241C187.104 384.11 187.153 383.962 187.17 383.81L194.44 282.16H189.49Z" fill="#263238" stroke="#263238" stroke-linecap="round" stroke-linejoin="round"/>
    <path d="M136.28 282.16L131.76 383.16C131.738 383.427 131.811 383.693 131.966 383.911C132.122 384.129 132.35 384.285 132.61 384.35C132.758 384.386 132.913 384.391 133.063 384.363C133.214 384.336 133.356 384.276 133.482 384.189C133.608 384.102 133.714 383.99 133.793 383.859C133.871 383.728 133.922 383.582 133.94 383.43L141.18 282.12L136.28 282.16Z" fill="#263238" stroke="#263238" stroke-linecap="round" stroke-linejoin="round"/>
    <path d="M438.97 276.49H133.08V285.27H438.97V276.49Z" fill="#F3722C" stroke="#263238" stroke-linecap="round" stroke-linejoin="round"/>
    <path d="M438.97 276.49H133.08V279.5H438.97V276.49Z" fill="#263238" stroke="#263238" stroke-linecap="round" stroke-linejoin="round"/>
    <path d="M438.96 276.49H362.42V285.27H438.96V276.49Z" fill="#263238" stroke="#263238" stroke-linecap="round" stroke-linejoin="round"/>
    <path d="M441.69 273.57H130.35V276.92H441.69V273.57Z" fill="#F3722C" stroke="#263238" stroke-linecap="round" stroke-linejoin="round"/>
    <path d="M441.68 273.57H365.61V276.92H441.68V273.57Z" fill="#263238" stroke="#263238" stroke-linecap="round" stroke-linejoin="round"/>
    <path d="M199.7 273.27H241.48C241.639 273.271 241.796 273.225 241.929 273.138C242.062 273.051 242.167 272.926 242.23 272.78L253.8 246.4C253.853 246.276 253.875 246.141 253.863 246.007C253.851 245.873 253.805 245.744 253.731 245.632C253.656 245.52 253.555 245.428 253.436 245.365C253.317 245.302 253.185 245.269 253.05 245.27H211.27C211.113 245.27 210.96 245.315 210.829 245.4C210.698 245.486 210.594 245.607 210.53 245.75L199 272.13C198.946 272.25 198.922 272.382 198.931 272.514C198.94 272.645 198.98 272.773 199.049 272.885C199.118 272.997 199.213 273.091 199.327 273.158C199.44 273.225 199.568 273.264 199.7 273.27Z" fill="white" stroke="#263238" stroke-linecap="round" stroke-linejoin="round"/>
    <path d="M203.62 271.21H239.27C239.403 271.21 239.534 271.171 239.646 271.098C239.758 271.026 239.846 270.922 239.9 270.8L249.77 248.29C249.823 248.184 249.848 248.066 249.843 247.947C249.837 247.828 249.801 247.713 249.737 247.612C249.674 247.512 249.586 247.429 249.481 247.373C249.376 247.316 249.259 247.288 249.14 247.29H213.49C213.354 247.289 213.22 247.328 213.106 247.403C212.992 247.478 212.903 247.585 212.85 247.71L203 270.24C202.954 270.344 202.934 270.458 202.943 270.572C202.951 270.686 202.988 270.796 203.049 270.892C203.111 270.988 203.195 271.067 203.294 271.123C203.394 271.178 203.506 271.208 203.62 271.21Z" fill="#F3722C" stroke="#263238" stroke-linecap="round" stroke-linejoin="round"/>
    <path d="M242.06 271.52H179.29V273.57H242.06V271.52Z" fill="white" stroke="#263238" stroke-linecap="round" stroke-linejoin="round"/>
    <path d="M242.07 271.52H211.64V273.57H242.07V271.52Z" fill="white" stroke="#263238" stroke-linecap="round" stroke-linejoin="round"/>
    <path d="M262.23 257.25H251.16V273.61H262.23V257.25Z" fill="white" stroke="#263238" stroke-linecap="round" stroke-linejoin="round"/>
    <path d="M261.74 271.38H260.58C260.339 271.38 260.107 271.284 259.936 271.113C259.766 270.943 259.67 270.711 259.67 270.47C259.67 270.229 259.766 269.997 259.936 269.827C260.107 269.656 260.339 269.56 260.58 269.56H261.74C262.198 269.557 262.636 269.374 262.96 269.05C263.284 268.727 263.467 268.288 263.47 267.83V263.83C263.467 263.372 263.284 262.934 262.96 262.61C262.636 262.286 262.198 262.103 261.74 262.1H260.25C260.13 262.1 260.012 262.076 259.902 262.031C259.791 261.985 259.691 261.918 259.607 261.833C259.522 261.749 259.455 261.649 259.409 261.538C259.364 261.428 259.34 261.31 259.34 261.19C259.34 261.071 259.364 260.952 259.409 260.842C259.455 260.731 259.522 260.631 259.607 260.547C259.691 260.462 259.791 260.395 259.902 260.349C260.012 260.304 260.13 260.28 260.25 260.28H261.74C262.206 260.28 262.668 260.372 263.099 260.55C263.529 260.729 263.921 260.99 264.25 261.32C264.58 261.649 264.841 262.041 265.02 262.471C265.198 262.902 265.29 263.364 265.29 263.83V267.83C265.29 268.296 265.198 268.758 265.02 269.189C264.841 269.619 264.58 270.011 264.25 270.34C263.921 270.67 263.529 270.931 263.099 271.11C262.668 271.288 262.206 271.38 261.74 271.38Z" fill="white" stroke="#263238" stroke-linecap="round" stroke-linejoin="round"/>
    <path d="M348.72 273.27H306.94C306.782 273.269 306.628 273.222 306.497 273.135C306.365 273.048 306.262 272.925 306.2 272.78L294.63 246.4C294.577 246.277 294.556 246.143 294.567 246.01C294.579 245.876 294.623 245.748 294.696 245.636C294.77 245.524 294.87 245.432 294.987 245.368C295.105 245.305 295.236 245.271 295.37 245.27H337.15C337.308 245.269 337.463 245.314 337.596 245.399C337.729 245.484 337.834 245.606 337.9 245.75L349.47 272.13C349.523 272.254 349.544 272.39 349.532 272.524C349.519 272.659 349.474 272.788 349.4 272.901C349.326 273.014 349.225 273.106 349.106 273.171C348.988 273.235 348.855 273.269 348.72 273.27Z" fill="white" stroke="#263238" stroke-linecap="round" stroke-linejoin="round"/>
    <path d="M306.36 273.57H369.13V271.52H306.36V273.57Z" fill="white" stroke="#263238" stroke-linecap="round" stroke-linejoin="round"/>
    <path d="M306.36 273.57H349.64V271.52H306.36V273.57Z" fill="white" stroke="#263238" stroke-linecap="round" stroke-linejoin="round"/>
    <path d="M322.74 256.22C322.966 256.648 323.061 257.134 323.013 257.616C322.965 258.098 322.775 258.554 322.468 258.929C322.161 259.304 321.751 259.579 321.288 259.722C320.825 259.864 320.33 259.866 319.866 259.728C319.401 259.591 318.988 259.319 318.677 258.947C318.367 258.575 318.173 258.12 318.12 257.639C318.067 257.157 318.158 256.671 318.38 256.241C318.602 255.81 318.947 255.455 319.37 255.22C319.95 254.907 320.63 254.836 321.262 255.024C321.893 255.211 322.425 255.641 322.74 256.22Z" fill="white" stroke="#263238" stroke-linecap="round" stroke-linejoin="round"/>
    <path d="M127.37 178.57L130.45 209L144.45 249.53L139.66 252.27L123.22 215.17L115.01 183.32C115.01 183.32 114.32 173.74 117.75 172.32C121.18 170.9 126 172.41 127.37 178.57Z" fill="white" stroke="#263238" stroke-linecap="round" stroke-linejoin="round"/>
    <path d="M144.49 249.57C144.49 249.57 147.57 256.08 147.92 257.79C148.27 259.5 148.62 262.99 147.27 264.55C145.64 266.43 144.15 264.98 144.15 264.98C144.15 264.98 140.04 263.98 140.04 260.53C140.04 257.08 139.7 252.31 139.7 252.31L144.49 249.57Z" fill="white" stroke="#263238" stroke-linecap="round" stroke-linejoin="round"/>
    <path d="M141.13 259.78L146.9 261.28" stroke="#263238" stroke-linecap="round" stroke-linejoin="round"/>
    <path d="M142.51 255.89L144.15 258.47C144.15 258.47 140.33 265 142.38 263.29C144.43 261.58 148.26 259.5 147.92 257.79C147.341 255.996 146.577 254.266 145.64 252.63" fill="white"/>
    <path d="M142.51 255.89L144.15 258.47C144.15 258.47 140.33 265 142.38 263.29C144.43 261.58 148.26 259.5 147.92 257.79C147.341 255.996 146.577 254.266 145.64 252.63" stroke="#263238" stroke-linecap="round" stroke-linejoin="round"/>
    <path d="M111 142C111 142 107.48 138.2 99.3601 140.64C91.2401 143.08 89.3601 156.08 89.6101 162.57C89.8601 169.06 96.1101 176.38 94.2201 179.63C92.3301 182.88 85.2801 190.46 85.8201 198.63C86.3601 206.8 93.1301 213.25 102.88 210.27C112.63 207.29 111 195.36 109.06 191C107.12 186.64 111.23 184.77 112.58 175.29C113.93 165.81 105.27 157.96 105.27 151.19C105.27 144.42 112.27 145.51 112.27 145.51L111 142Z" fill="#263238" stroke="#263238" stroke-linecap="round" stroke-linejoin="round"/>
    <path d="M98.8001 167.7C100.08 170.34 101.57 173.16 103.05 176.2C107.99 186.28 104.13 189.92 96.6201 195.5C89.1101 201.08 90.8301 207.94 92.7601 209" stroke="white" stroke-width="0.5" stroke-linecap="round" stroke-linejoin="round"/>
    <path d="M108.42 144.67C108.42 144.67 98.34 145.53 95.76 151.96C94.2 155.87 95.4 160.25 97.7 165.35" stroke="white" stroke-width="0.5" stroke-linecap="round" stroke-linejoin="round"/>
    <path d="M101.05 206.49C101.826 206.781 102.653 206.911 103.48 206.87" stroke="white" stroke-width="0.5" stroke-linecap="round" stroke-linejoin="round"/>
    <path d="M111 144C111 144 101.56 145.71 99.42 152.57C97.28 159.43 109.93 169.57 110.57 177.03C111.21 184.49 102.2 188.85 99 194.64C96.75 198.7 97 203.17 99.37 205.42" stroke="white" stroke-width="0.5" stroke-linecap="round" stroke-linejoin="round"/>
    <path d="M135.22 282.07C135.22 282.07 132.89 302.19 130.55 308.61C128.21 315.03 122.97 365.48 122.68 368.4C122.39 371.32 130.26 378.02 133.47 380.07C136.68 382.12 135.22 382.69 131.72 382.98C128.22 383.27 124.14 382.69 122.39 379.48C120.64 376.27 116.55 375.4 116.55 375.4L115.97 382.4H114.8L113.93 373.65C113.633 371.663 113.936 369.633 114.8 367.82C116.26 364.61 116.8 357.9 116.8 348.82C116.8 339.74 115.05 325.19 115.92 318.19C116.79 311.19 120.3 305.94 120.3 300.11C120.3 294.28 120.59 285.53 120.59 285.53L135.22 282.07Z" fill="white" stroke="#263238" stroke-linecap="round" stroke-linejoin="round"/>
    <path d="M113.93 373.65C113.698 372.145 113.825 370.606 114.3 369.16C116.11 372.22 121.3 376.37 125.3 378.02C127.469 378.959 129.833 379.357 132.19 379.18C132.66 379.53 133.1 379.83 133.47 380.07C136.68 382.07 135.22 382.69 131.72 382.98C128.22 383.27 124.14 382.69 122.39 379.48C120.64 376.27 116.55 375.4 116.55 375.4L115.97 382.4H114.8L113.93 373.65Z" fill="#263238" stroke="#263238" stroke-linecap="round" stroke-linejoin="round"/>
    <path d="M118.3 285.28C118.3 285.28 113.3 300.15 108.68 312.98C104.06 325.81 92.93 355.27 91.76 360.52C90.59 365.77 90.01 375.4 86.76 380.36C83.51 385.32 80.34 387.65 80.92 378.9C81.5 370.15 86.76 363.73 87.92 357.02C89.08 350.31 89.67 326.11 93.75 315.32C97.83 304.53 102.21 295.78 102.75 292.57C103.149 289.376 103.343 286.159 103.33 282.94L118.3 285.28Z" fill="white" stroke="#263238" stroke-linecap="round" stroke-linejoin="round"/>
    <path d="M81.52 375.15C81.5631 376.799 82.0766 378.402 83 379.77C84.68 381.65 87.39 378 88.8 375.77C88.3387 377.378 87.6661 378.918 86.8 380.35C83.59 385.3 80.38 387.64 80.96 378.89C81.0564 377.631 81.2436 376.381 81.52 375.15Z" fill="#263238" stroke="#263238" stroke-linecap="round" stroke-linejoin="round"/>
    <path d="M116 167.9C116 167.9 114.25 169.36 113.08 179.28C111.91 189.2 119.21 220.11 119.21 220.11C119.21 220.11 106.67 240.65 103.75 250.86C100.83 261.07 99.0801 299.32 99.0801 299.32C99.0801 299.32 105.21 301.66 117.75 302.53C130.29 303.4 137 300.2 137 300.2C137 300.2 137.58 245.61 137.58 237.2C137.58 228.79 138.17 209.66 139.04 207.33C139.91 205 142.54 198.87 142.54 196.54C142.54 194.21 125 169.36 125 169.36L116 167.9Z" fill="white" stroke="#263238" stroke-linecap="round" stroke-linejoin="round"/>
    <path d="M103.72 250.86C106.02 242.86 115.54 221.58 118.94 217.92C124.11 219.64 133.54 221.34 137.75 220.08C137.62 223.08 137.55 234.28 137.55 237.15C137.55 245.61 136.97 300.15 136.97 300.15C136.97 300.15 130.26 303.36 117.72 302.48C105.18 301.6 99.05 299.27 99.05 299.27C99.05 299.27 100.8 261.07 103.72 250.86Z" fill="#263238" stroke="#263238" stroke-linecap="round" stroke-linejoin="round"/>
    <path d="M122.47 133.52C122.47 133.52 125.6 126.7 131.79 126.7C137.98 126.7 140.73 132.2 139.36 137.01C137.99 141.82 143.48 140.45 144.17 143.55C144.86 146.65 139.7 148.7 136.95 148.7C134.2 148.7 122.47 133.52 122.47 133.52Z" fill="#263238" stroke="#263238" stroke-linecap="round" stroke-linejoin="round"/>
    <path d="M131.51 132.82C133.35 131.82 135.51 131.1 136.51 132.66C138.44 135.66 132.44 138.02 134.37 141.24C136.3 144.46 141.02 143.6 140.8 144.67C140.58 145.74 137.59 146.38 137.59 146.38" stroke="white" stroke-width="0.5" stroke-linecap="round" stroke-linejoin="round"/>
    <path d="M128.36 135C128.36 135 128.95 134.49 129.83 133.87" stroke="white" stroke-width="0.5" stroke-linecap="round" stroke-linejoin="round"/>
    <path d="M138.34 149.39C137.902 149.065 137.557 148.63 137.34 148.13C136.84 144.44 135.76 140.81 133.72 138.77C130.634 135.865 126.698 134.025 122.49 133.52C121.244 133.336 119.972 133.453 118.78 133.86C113.47 135.72 108.91 139.39 109.89 148.24C110.97 157.99 118.56 160.43 118.56 160.43L119.1 166.43L126.68 169.95L126.95 163.45C126.95 163.45 132.09 165.61 133.95 165.34C135.81 165.07 136.39 162.63 137.2 159.11C137.497 157.504 137.645 155.873 137.64 154.24L139.91 151.98C141.2 150.67 139.93 150.35 138.34 149.39Z" fill="white" stroke="#263238" stroke-linecap="round" stroke-linejoin="round"/>
    <path d="M109.87 148.24C108.87 139.39 113.45 135.72 118.76 133.86C119.952 133.453 121.224 133.336 122.47 133.52C125.339 133.904 128.101 134.863 130.59 136.34C129.07 136.03 131.66 140.5 129.28 143.34C127.196 145.976 124.539 148.104 121.51 149.56C121.51 149.56 118.81 147.39 117.99 150.37C117.17 153.35 117.45 155.51 119.62 156.06C121.79 156.61 122.62 156.06 122.62 156.06C122.62 156.06 121.18 159.47 118.62 160.88V160.39C118.62 160.39 111 158 109.87 148.24Z" fill="#263238" stroke="#263238" stroke-linecap="round" stroke-linejoin="round"/>
    <path d="M130.55 168.19L129.1 176.07L113.64 167.9L115.1 160.61L130.55 168.19Z" fill="white" stroke="#263238" stroke-linecap="round" stroke-linejoin="round"/>
    <path d="M123.08 234.63C124.681 234.972 126.306 235.193 127.94 235.29C129.21 235.21 130.94 233.78 132.22 234.39C133.5 235 135.29 238.85 135.29 238.85C135.29 238.85 136.99 239.71 136.5 240.62C136.01 241.53 133.91 242.37 133.91 242.37C133.91 242.37 131.91 244.26 130.75 244.45C129.59 244.64 122.52 239.45 122.52 239.45L123.08 234.63Z" fill="white" stroke="#263238" stroke-linecap="round" stroke-linejoin="round"/>
    <path d="M123.83 238.37C124.064 238.089 124.232 237.759 124.322 237.404C124.412 237.049 124.421 236.679 124.349 236.321C124.277 235.962 124.126 235.624 123.906 235.331C123.687 235.039 123.404 234.799 123.08 234.63L103.65 216.43L124.81 183.53C125.754 181.79 125.983 179.751 125.449 177.846C124.915 175.94 123.659 174.317 121.948 173.322C120.238 172.327 118.206 172.037 116.285 172.515C114.365 172.992 112.706 174.199 111.66 175.88L93.32 212.33C92.3665 213.255 91.8152 214.519 91.7852 215.847C91.7553 217.176 92.2491 218.462 93.16 219.43L93.23 219.5C95.07 222.34 115.31 237.19 121.23 239.13C121.69 239.276 122.183 239.281 122.646 239.146C123.109 239.01 123.521 238.74 123.83 238.37Z" fill="white" stroke="#263238" stroke-linecap="round" stroke-linejoin="round"/>
    <path d="M200.71 188C200.71 188 203.22 195.77 203.22 197.28C203.202 198.371 203.118 199.459 202.97 200.54L205.18 203.97C205.31 204.191 205.35 204.453 205.292 204.702C205.234 204.951 205.083 205.169 204.87 205.31L201.46 207.31C201.46 207.31 200.96 215.31 200.46 216.31C199.96 217.31 191.46 217.07 191.46 217.07L188.7 222.33L174.4 216.82L178.16 206.53L177.38 191C177.38 191 186.16 183.24 200.71 188Z" fill="white" stroke="#263238" stroke-linecap="round" stroke-linejoin="round"/>
    <path d="M190.92 206.9C190.92 206.9 188.43 209.24 186.56 209.4C184.69 209.56 178.61 208.15 178.14 207.53C177.67 206.91 173.47 198.18 173.62 193.97C173.77 189.76 173.94 183.53 178.45 181.51C182.96 179.49 190.14 180.1 193.88 177.77C197.62 175.44 203.54 173.56 206.66 177.61C209.78 181.66 207.44 187.27 204.95 189.61C202.46 191.95 199.34 192.61 199.65 193.61C199.96 194.61 201.83 195.79 200.74 197.35C199.65 198.91 195.74 200.35 195.74 200.93C195.74 201.51 196.68 203.74 195.59 204.05C194.5 204.36 193.4 201.87 192.31 201.87C191.22 201.87 188.9 204.88 190.92 206.9Z" fill="#263238" stroke="#263238" stroke-linecap="round" stroke-linejoin="round"/>
    <path d="M184.41 199.75C183.961 200.253 183.578 200.81 183.27 201.41" stroke="white" stroke-width="0.5" stroke-linecap="round" stroke-linejoin="round"/>
    <path d="M204.89 183.6C204.692 185.316 204.067 186.955 203.071 188.367C202.075 189.779 200.741 190.918 199.19 191.68C195.19 193.75 189.86 195.44 186.32 198.04" stroke="white" stroke-width="0.5" stroke-linecap="round" stroke-linejoin="round"/>
    <path d="M199.65 193.66C199.65 193.66 196.1 196.66 192.3 199.75C189.707 201.757 186.824 203.359 183.75 204.5" stroke="white" stroke-width="0.5" stroke-linecap="round" stroke-linejoin="round"/>
    <path d="M190.67 207.32L192.67 207.82C192.549 208.755 192.62 209.705 192.88 210.611C193.14 211.518 193.582 212.361 194.18 213.09" fill="white"/>
    <path d="M190.67 207.32L192.67 207.82C192.549 208.755 192.62 209.705 192.88 210.611C193.14 211.518 193.582 212.361 194.18 213.09" stroke="#263238" stroke-linecap="round" stroke-linejoin="round"/>
    <path d="M192.99 201.95L207.11 198.45" stroke="#263238" stroke-linecap="round" stroke-linejoin="round"/>
    <path d="M203.48 198.17L206.7 198.31C206.7 198.31 207.81 201.95 204.46 202.37" stroke="#263238" stroke-linecap="round" stroke-linejoin="round"/>
    <path d="M189.24 371.06C189.24 371.06 202.24 379.27 204.53 379.27C206.82 379.27 207.96 381.33 206.82 381.56C205.68 381.79 198.6 382.01 193.82 382.24C189.04 382.47 185.82 382.01 183.09 382.01C180.36 382.01 177.15 382.24 175.78 381.56C174.41 380.88 176.7 373.11 176.7 371.74C176.7 370.37 187.64 370.14 189.24 371.06Z" fill="#263238" stroke="#263238" stroke-linecap="round" stroke-linejoin="round"/>
    <path d="M206 379.61C200.95 381.27 192.76 380.18 187.84 379.73C183.95 379.38 177.84 379.3 175.35 379.28C175.25 380.45 175.35 381.34 175.74 381.56C177.11 382.24 180.31 382.01 183.05 382.01C185.79 382.01 188.98 382.47 193.78 382.24C198.58 382.01 205.65 381.78 206.78 381.56C207.67 381.38 207.25 380.2 206 379.61Z" fill="white" stroke="#263238" stroke-linecap="round" stroke-linejoin="round"/>
    <path d="M199.51 314.66L189.25 366.11L191.39 371.45C189.854 373.674 187.537 375.238 184.9 375.83C181.968 376.407 178.989 376.714 176 376.75C176 376.75 174.86 371.04 175.55 370.35C176.24 369.66 176.46 366.93 176.46 366.93L182.39 315.11L199.51 314.66Z" fill="#F3722C" stroke="#263238" stroke-linecap="round" stroke-linejoin="round"/>
    <path d="M230.78 369.32C230.78 369.32 238.78 375.94 242.43 377.08C246.08 378.22 249.96 379.36 249.96 380.5C249.96 381.64 241.29 382.78 234.67 382.1C228.05 381.42 218 378.45 215.72 378.45C213.44 378.45 213.89 372.51 213.89 371.6C213.89 370.69 225.08 363.38 230.78 369.32Z" fill="#263238" stroke="#263238" stroke-linecap="round" stroke-linejoin="round"/>
    <path d="M250 380.5C250 380.09 249.49 379.68 248.68 379.27C242.146 380.144 235.521 380.097 229 379.13C222.43 378.19 216.93 376.93 214.12 376.23C214.36 377.46 214.83 378.45 215.76 378.45C218.04 378.45 228.09 381.45 234.71 382.1C241.33 382.75 250 381.64 250 380.5Z" fill="white" stroke="#263238" stroke-linecap="round" stroke-linejoin="round"/>
    <path d="M191.07 291.6C197.915 291.076 204.795 291.23 211.61 292.06C223.25 293.43 249.26 295.06 249.71 298C250.16 300.94 229.53 362.73 229.53 364.32C229.53 365.91 231.35 367.52 231.81 368.43C232.1 369.079 232.257 369.779 232.27 370.49C232.27 370.49 226.68 376.49 222.34 378.12C218 379.75 214.34 378.22 213.44 378.22C212.54 378.22 212.53 372.06 213.22 369.09C213.91 366.12 215.04 358.59 215.27 357.91C215.5 357.23 228 313.29 228 313.29C228 313.29 194 318.77 173.69 316.48C153.38 314.19 151.32 311.01 150.18 306.21C149.04 301.41 151.32 291.83 151.32 291.83L191.07 291.6Z" fill="#F3722C" stroke="#263238" stroke-linecap="round" stroke-linejoin="round"/>
    <path d="M188.5 306.39C188.039 307.057 187.524 307.686 186.96 308.27" stroke="#263238" stroke-linecap="round" stroke-linejoin="round"/>
    <path d="M194.72 294.11C193.408 297.396 191.895 300.599 190.19 303.7" stroke="#263238" stroke-linecap="round" stroke-linejoin="round"/>
    <path d="M192 296.4C189.246 300.944 185.075 304.457 180.13 306.4" stroke="#263238" stroke-linecap="round" stroke-linejoin="round"/>
    <path d="M243.82 309C244.6 308.7 245.35 308.39 246.06 308.07L243.82 309Z" fill="white"/>
    <path d="M243.82 309C244.6 308.7 245.35 308.39 246.06 308.07" stroke="#263238" stroke-linecap="round" stroke-linejoin="round"/>
    <path d="M228 313.29C232.392 312.442 236.733 311.343 241 310L228 313.29Z" fill="white"/>
    <path d="M228 313.29C232.392 312.442 236.733 311.343 241 310" stroke="#263238" stroke-linecap="round" stroke-linejoin="round"/>
    <path d="M254.39 237.48C254.87 235.57 255.67 235.72 255.03 235.09C254.15 234.21 253.44 235.25 250.89 236.68C248.34 238.11 245.8 239.86 245.8 239.86C245.856 239.329 246.076 238.829 246.43 238.43C247.075 237.376 247.42 236.166 247.43 234.93C247.43 233.93 246.63 234.13 246.31 235.09C245.99 236.05 243.13 237.79 242.97 238.59C242.81 239.39 242.24 242.53 242.24 242.53C241.33 243.9 241.33 250.29 241.33 250.29L222.8 264.21L213.44 275.21C213.44 275.21 217.55 281.83 219.83 280.92C222.11 280.01 223.25 279.09 228.73 274.52C233.37 270.65 245 252.8 245 252.8C247.026 251.528 248.942 250.089 250.73 248.5C252.792 246.167 254.011 243.209 254.19 240.1C254.147 239.222 254.214 238.342 254.39 237.48Z" fill="white" stroke="#263238" stroke-linecap="round" stroke-linejoin="round"/>
    <path d="M168.65 216.36C168.65 216.36 170.41 209.76 177.89 211.08C185.37 212.4 191.09 218.56 192.41 220.76C193.73 222.96 168.21 219.88 168.21 219.88L168.65 216.36Z" fill="white" stroke="#263238" stroke-linecap="round" stroke-linejoin="round"/>
    <path d="M211.77 274C211.77 274 210.03 275.88 211.77 278.84C212.96 280.89 215.06 282.46 219.08 281.77C222.84 281.11 228.49 271.77 228.49 265.2C228.49 258.63 223.65 258.2 221.89 259.48C220.13 260.76 211.77 274 211.77 274Z" fill="white" stroke="#263238" stroke-linecap="round" stroke-linejoin="round"/>
    <path d="M171.89 215.59C171.89 215.59 154.09 224.04 151.58 225.59C149.07 227.14 147.47 247.04 147.47 250.47C147.47 253.9 149.98 287.47 150.66 293.15C151.34 298.83 173.26 302.74 180.57 300.68C187.88 298.62 195 293.43 195 291.6C195 289.77 194.31 274.26 194.77 271.29C195.23 268.32 199.33 255.77 199.33 255.77L211.79 275.65C211.79 275.65 213.1 278.09 217.73 276.17C224.35 273.43 224.9 262.84 224.9 262.84C224.9 262.84 217.6 250.06 215.54 243.67C213.48 237.28 212.54 232.48 211.66 231.34C210.78 230.2 190.2 220.61 186.55 218.1C184.483 216.543 182.075 215.504 179.524 215.067C176.974 214.63 174.357 214.81 171.89 215.59Z" fill="white" stroke="#263238" stroke-linecap="round" stroke-linejoin="round"/>
    <path d="M199.28 255.77L193.35 247.09" stroke="#263238" stroke-linecap="round" stroke-linejoin="round"/>
    <path d="M198.32 254.53L187.87 249.38" stroke="#263238" stroke-linecap="round" stroke-linejoin="round"/>
    <path d="M167.35 320L176.47 384.82C176.491 384.97 176.543 385.114 176.623 385.243C176.703 385.372 176.809 385.483 176.934 385.569C177.059 385.654 177.201 385.713 177.35 385.741C177.499 385.768 177.652 385.765 177.8 385.73C178.056 385.667 178.282 385.514 178.436 385.3C178.59 385.085 178.662 384.823 178.64 384.56L172.21 318.93L167.35 320Z" fill="#263238" stroke="#263238" stroke-linecap="round" stroke-linejoin="round"/>
    <path d="M141.15 320.51L125.91 384.17C125.875 384.318 125.872 384.471 125.899 384.62C125.927 384.769 125.986 384.911 126.071 385.036C126.157 385.161 126.268 385.267 126.397 385.347C126.526 385.427 126.67 385.479 126.82 385.5C127.081 385.539 127.347 385.481 127.568 385.337C127.789 385.194 127.95 384.974 128.02 384.72L145.72 322.94L141.15 320.51Z" fill="#263238" stroke="#263238" stroke-linecap="round" stroke-linejoin="round"/>
    <path d="M168.83 319.72L159.13 384.45C159.108 384.599 159.116 384.751 159.155 384.897C159.194 385.043 159.262 385.179 159.356 385.297C159.45 385.415 159.567 385.513 159.7 385.584C159.833 385.655 159.98 385.698 160.13 385.71C160.393 385.724 160.652 385.643 160.86 385.482C161.068 385.32 161.21 385.088 161.26 384.83L173.57 321.75L168.83 319.72Z" fill="#263238" stroke="#263238" stroke-linecap="round" stroke-linejoin="round"/>
    <path d="M203.17 320L212.29 384.82C212.311 384.97 212.363 385.114 212.443 385.243C212.523 385.372 212.629 385.483 212.754 385.569C212.879 385.654 213.021 385.713 213.17 385.741C213.319 385.769 213.472 385.765 213.62 385.73C213.876 385.667 214.102 385.514 214.256 385.3C214.41 385.085 214.482 384.823 214.46 384.56L208 318.91L203.17 320Z" fill="#263238" stroke="#263238" stroke-linecap="round" stroke-linejoin="round"/>
    <path d="M126.72 252.73L137.82 324.9H216.76C216.76 324.9 217.93 304.1 214.45 296.75C210.97 289.4 168 305.16 166.45 304.75C165.3 304.46 167 267.2 169.11 252.64C169.258 251.615 169.183 250.57 168.892 249.577C168.6 248.583 168.098 247.664 167.42 246.881C166.742 246.099 165.903 245.471 164.961 245.042C164.019 244.612 162.995 244.389 161.96 244.39H133.86C132.816 244.389 131.785 244.614 130.837 245.05C129.889 245.486 129.047 246.122 128.368 246.915C127.689 247.707 127.191 248.638 126.906 249.642C126.622 250.645 126.558 251.699 126.72 252.73Z" fill="#F3722C" stroke="#263238" stroke-linecap="round" stroke-linejoin="round"/>
    <path d="M214.45 296.75C210.97 289.4 168 305.16 166.45 304.75C165.3 304.46 167 267.2 169.11 252.64C169.294 251.628 169.254 250.588 168.99 249.594C168.727 248.599 168.248 247.675 167.587 246.887C166.926 246.099 166.1 245.466 165.167 245.034C164.234 244.601 163.216 244.38 162.188 244.385C161.159 244.39 160.145 244.622 159.216 245.064C158.287 245.506 157.467 246.147 156.814 246.942C156.161 247.737 155.692 248.666 155.439 249.663C155.186 250.66 155.155 251.7 155.35 252.71L166.45 324.88H216.76C216.76 324.88 217.93 304.1 214.45 296.75Z" fill="#263238" stroke="#263238" stroke-linecap="round" stroke-linejoin="round"/>
    <path d="M254.39 237.48C254.39 237.48 253.12 238.75 251.21 240.98L254.39 237.48Z" fill="white"/>
    <path d="M254.39 237.48C254.39 237.48 253.12 238.75 251.21 240.98" stroke="#263238" stroke-linecap="round" stroke-linejoin="round"/>
    <path d="M254.19 240.06C254.19 240.06 252.64 243.21 251.69 244.64L254.19 240.06Z" fill="white"/>
    <path d="M254.19 240.06C254.19 240.06 252.64 243.21 251.69 244.64" stroke="#263238" stroke-linecap="round" stroke-linejoin="round"/>
    <path d="M40.3599 276.54C42.0199 277.26 46.0699 277.17 46.0799 277.17C46.0899 277.17 45.2099 274.52 45.1299 274.36C44.2399 272.49 41.4199 269.42 39.1299 269.73C38.7509 269.792 38.3891 269.933 38.0682 270.144C37.7474 270.355 37.4747 270.632 37.268 270.955C37.0613 271.279 36.9253 271.643 36.8687 272.023C36.8122 272.402 36.8365 272.79 36.9399 273.16C37.3199 274.74 38.9399 275.92 40.3599 276.54Z" fill="#263238"/>
    <path d="M93.51 262.73C91.21 262.48 88.51 265.63 87.64 267.52C87.57 267.68 86.73 270.36 86.77 270.36C86.33 270.85 85.87 271.36 85.38 271.98C84.48 273.08 83.48 274.34 82.47 275.78C81.3821 277.323 80.3806 278.926 79.47 280.58C78.4436 282.435 77.5803 284.376 76.89 286.38C76.8943 286.403 76.8943 286.427 76.89 286.45C76.89 285.78 76.89 283.88 76.89 283.74C76.62 281.69 74.89 277.89 72.63 277.47C72.2535 277.409 71.8684 277.428 71.4996 277.525C71.1308 277.622 70.7865 277.796 70.4887 278.034C70.191 278.272 69.9466 278.57 69.7711 278.909C69.5956 279.248 69.493 279.619 69.47 280C69.33 281.63 70.47 283.26 71.66 284.28C72.96 285.44 76.56 286.56 76.85 286.65C76.1961 288.729 75.6882 290.85 75.33 293C75.1 294.24 74.92 295.49 74.75 296.75C74.75 296.16 74.75 295.64 74.75 295.57C74.49 293.52 72.75 289.72 70.5 289.3C70.1205 289.241 69.7328 289.262 69.362 289.362C68.9913 289.462 68.6457 289.639 68.3477 289.881C68.0497 290.124 67.8061 290.426 67.6324 290.768C67.4588 291.111 67.3592 291.486 67.34 291.87C67.21 293.5 68.34 295.13 69.54 296.16C70.74 297.19 73.75 298.22 74.54 298.47C74.48 298.96 74.41 299.47 74.35 299.92C74.08 302.24 73.81 304.56 73.48 306.82C73.36 307.62 73.22 308.4 73.08 309.18C73.08 308.66 73.08 308.23 73.08 308.18C72.81 306.13 71.08 302.33 68.82 301.91C68.4405 301.852 68.053 301.875 67.6828 301.976C67.3126 302.077 66.9678 302.256 66.6708 302.499C66.3738 302.742 66.1312 303.045 65.9588 303.388C65.7864 303.731 65.688 304.106 65.67 304.49C65.54 306.11 66.67 307.74 67.87 308.77C69.3631 309.757 70.9988 310.509 72.72 311C72.55 311.8 72.38 312.59 72.18 313.36C72.03 313.88 71.93 314.36 71.75 314.9C71.57 315.44 71.42 315.9 71.26 316.42C70.91 317.37 70.56 318.36 70.2 319.28C69.95 319.93 69.7 320.54 69.46 321.15C69.58 320.36 69.79 318.8 69.8 318.67C69.7718 316.853 69.2795 315.073 68.37 313.5C68.3948 313.301 68.3948 313.099 68.37 312.9C68.3246 312.515 68.1979 312.144 67.9981 311.812C67.7983 311.48 67.5301 311.194 67.2113 310.974C66.8925 310.753 66.5304 310.603 66.1491 310.534C65.7678 310.464 65.3761 310.476 65 310.57C62.76 311.16 61.35 315.08 61.24 317.14C61.24 317.26 61.32 318.59 61.38 319.43C61.27 318.94 61.16 318.43 61.04 317.97C60.81 316.97 60.54 315.97 60.27 314.97C60.11 314.46 59.96 313.97 59.8 313.44C59.64 312.91 59.44 312.44 59.26 311.88C58.82 310.67 58.32 309.47 57.78 308.27C58.64 308.06 61.7 307.27 62.93 306.34C64.16 305.41 65.45 303.86 65.44 302.23C65.4519 301.842 65.3808 301.455 65.2314 301.097C65.0821 300.738 64.8579 300.416 64.574 300.151C64.29 299.886 63.9528 299.684 63.5848 299.56C63.2168 299.436 62.8265 299.391 62.44 299.43C60.14 299.68 58.14 303.34 57.73 305.36C57.73 305.49 57.56 306.97 57.5 307.79C57.18 307.07 56.85 306.35 56.5 305.63C55.5 303.57 54.36 301.5 53.27 299.44L52.27 297.54C52.58 297.47 56.27 296.63 57.61 295.54C58.95 294.45 60.13 293.07 60.12 291.43C60.1302 291.042 60.058 290.657 59.9081 290.299C59.7582 289.941 59.5341 289.619 59.2505 289.354C58.9669 289.09 58.6303 288.888 58.263 288.763C57.8958 288.638 57.5061 288.593 57.12 288.63C54.82 288.88 52.83 292.54 52.41 294.56C52.41 294.72 52.18 296.85 52.16 297.4C51.44 296.01 50.73 294.61 50.09 293.21C49.2114 291.318 48.4564 289.37 47.83 287.38C47.97 287.38 51.83 286.48 53.21 285.38C54.43 284.44 55.73 282.9 55.71 281.27C55.7219 280.882 55.6508 280.495 55.5014 280.137C55.3521 279.778 55.1279 279.456 54.844 279.191C54.56 278.926 54.2228 278.724 53.8548 278.6C53.4868 278.476 53.0965 278.431 52.71 278.47C50.41 278.72 48.42 282.38 48 284.4C48 284.56 47.76 286.86 47.75 287.28C47.75 287.16 47.67 287.05 47.63 286.93C47.0616 284.918 46.6701 282.86 46.46 280.78C46.34 279.63 46.28 278.53 46.24 277.45C46.97 277.36 50.24 276.92 51.67 276.09C53.1 275.26 54.45 273.9 54.67 272.28C54.722 271.899 54.6935 271.512 54.5862 271.143C54.479 270.775 54.2954 270.433 54.0474 270.139C53.7994 269.846 53.4926 269.608 53.1468 269.441C52.8009 269.274 52.4238 269.182 52.04 269.17C49.72 269.17 47.34 272.59 46.7 274.55C46.7 274.66 46.44 275.78 46.28 276.6C46.28 276.12 46.28 275.6 46.28 275.15C46.28 273.4 46.39 271.8 46.5 270.39C46.57 269.58 46.65 268.85 46.73 268.17C47.4 267.71 50.07 265.83 50.89 264.48C51.71 263.13 52.35 261.26 51.75 259.74C51.6212 259.379 51.4178 259.049 51.153 258.772C50.8883 258.495 50.5682 258.276 50.2135 258.131C49.8588 257.986 49.4775 257.917 49.0944 257.929C48.7113 257.941 48.335 258.033 47.99 258.2C45.93 259.26 45.39 263.39 45.73 265.43C45.73 265.6 46.54 268.3 46.57 268.28C46.48 268.93 46.39 269.63 46.31 270.4C46.17 271.82 46.03 273.4 45.98 275.18C45.9197 277.068 45.9664 278.957 46.12 280.84C46.2673 282.952 46.6019 285.047 47.12 287.1C47.1243 287.123 47.1243 287.147 47.12 287.17C46.76 286.6 45.69 285.04 45.59 284.93C44.24 283.37 40.71 281.14 38.59 282.05C38.2404 282.208 37.9282 282.439 37.6738 282.726C37.4193 283.014 37.2283 283.351 37.1131 283.717C36.998 284.083 36.9614 284.47 37.0056 284.851C37.0499 285.232 37.174 285.6 37.37 285.93C38.16 287.36 40.04 288.07 41.57 288.29C43.29 288.54 46.91 287.49 47.2 287.41C47.7948 289.483 48.5264 291.514 49.39 293.49C49.89 294.64 50.39 295.79 50.98 296.93C50.65 296.44 50.35 296.01 50.31 295.93C48.96 294.37 45.43 292.14 43.31 293.05C42.9663 293.225 42.6637 293.471 42.422 293.771C42.1803 294.072 42.005 294.42 41.9077 294.794C41.8104 295.167 41.7932 295.556 41.8574 295.937C41.9216 296.317 42.0656 296.679 42.28 297C43.06 298.43 44.95 299.14 46.47 299.36C47.99 299.58 51.12 298.76 51.94 298.52C52.16 298.96 52.37 299.4 52.59 299.83C53.59 301.92 54.7 304 55.67 306.07C56.01 306.8 56.32 307.53 56.67 308.26L56.08 307.42C54.73 305.86 51.2 303.64 49.08 304.54C48.731 304.7 48.4196 304.933 48.1661 305.221C47.9126 305.51 47.7227 305.849 47.6086 306.215C47.4945 306.582 47.4588 306.969 47.5038 307.35C47.5488 307.732 47.6736 308.1 47.87 308.43C48.66 309.86 50.54 310.57 52.06 310.79C53.8671 310.797 55.6646 310.527 57.39 309.99C57.69 310.75 57.99 311.51 58.24 312.25C58.41 312.77 58.6 313.25 58.73 313.78C58.86 314.31 59.02 314.78 59.16 315.32C59.4 316.32 59.65 317.32 59.86 318.32C60.01 318.99 60.14 319.64 60.27 320.32C59.93 319.59 59.27 318.17 59.18 318.06C58.08 316.31 54.93 313.58 52.69 314.15C52.3214 314.256 51.9792 314.439 51.6857 314.686C51.3921 314.933 51.1538 315.239 50.986 315.584C50.8182 315.929 50.7247 316.305 50.7116 316.689C50.6985 317.072 50.7661 317.454 50.91 317.81C51.47 319.34 53.22 320.33 54.69 320.81C56.32 321.3 59.91 320.81 60.36 320.81C60.58 321.88 60.77 322.93 60.95 323.92C61.55 327.35 61.95 330.24 62.16 332.25C62.16 332.61 62.24 332.93 62.27 333.25H55.27L57.81 382.82H69.67L72.21 333.25H65.72L65.87 332.96C66.76 331.1 67.99 328.44 69.32 325.18C69.75 324.18 70.18 323.05 70.61 321.91C71.05 322 74.61 322.72 76.26 322.34C77.77 322 79.59 321.15 80.26 319.67C80.431 319.326 80.5274 318.95 80.543 318.566C80.5586 318.182 80.493 317.799 80.3505 317.442C80.2079 317.085 79.9917 316.763 79.7159 316.495C79.4401 316.228 79.111 316.021 78.75 315.89C76.56 315.15 73.22 317.64 71.99 319.3C71.92 319.4 71.25 320.55 70.84 321.3L71.37 319.9C71.72 318.95 72.04 317.98 72.37 316.95L72.82 315.42C72.99 314.91 73.1 314.36 73.24 313.82C73.53 312.57 73.77 311.29 73.99 309.99C74.82 310.29 77.81 311.33 79.35 311.22C80.89 311.11 82.82 310.55 83.71 309.22C83.9356 308.904 84.0916 308.544 84.1676 308.164C84.2436 307.783 84.2379 307.391 84.151 307.013C84.064 306.635 83.8977 306.279 83.6631 305.97C83.4284 305.661 83.1308 305.405 82.79 305.22C80.79 304.22 77.05 306.12 75.59 307.57C75.5 307.67 74.59 308.83 74.07 309.48C74.19 308.7 74.31 307.92 74.41 307.12C74.7 304.83 74.91 302.5 75.14 300.18C75.21 299.47 75.29 298.76 75.36 298.05C75.66 298.16 79.18 299.47 80.91 299.35C82.44 299.24 84.37 298.68 85.26 297.35C85.4856 297.034 85.6416 296.674 85.7176 296.294C85.7936 295.913 85.7879 295.521 85.701 295.143C85.614 294.765 85.4477 294.409 85.2131 294.1C84.9784 293.791 84.6808 293.535 84.34 293.35C82.34 292.3 78.61 294.25 77.14 295.7C77.03 295.81 75.69 297.49 75.37 297.93C75.54 296.37 75.72 294.82 75.96 293.29C76.2679 291.229 76.7122 289.192 77.29 287.19C77.43 287.19 81.09 288.62 82.87 288.5C84.4 288.39 86.33 287.82 87.22 286.5C87.4472 286.185 87.6045 285.825 87.6814 285.444C87.7583 285.063 87.753 284.67 87.666 284.292C87.5789 283.913 87.412 283.557 87.1764 283.248C86.9408 282.939 86.642 282.684 86.3 282.5C84.3 281.44 80.57 283.39 79.1 284.85C78.99 284.96 77.55 286.77 77.31 287.11L77.4 286.76C78.0349 284.766 78.8447 282.832 79.82 280.98C80.35 279.98 80.91 278.98 81.47 278.08C82.13 278.41 85.15 279.88 86.75 279.94C88.35 280 90.27 279.65 91.31 278.39C91.5571 278.103 91.7418 277.767 91.8521 277.405C91.9625 277.042 91.9962 276.66 91.951 276.284C91.9059 275.908 91.7829 275.545 91.5899 275.219C91.3969 274.893 91.1381 274.611 90.83 274.39C88.9 273.11 85.03 274.64 83.42 275.93C83.33 276 82.51 276.81 81.93 277.41C82.19 277 82.45 276.57 82.71 276.19C83.71 274.73 84.65 273.46 85.53 272.33C86.03 271.7 86.53 271.14 86.94 270.62C87.75 270.62 91.02 270.5 92.45 269.83C93.88 269.16 95.45 267.95 95.78 266.36C95.9183 265.972 95.967 265.558 95.9225 265.148C95.878 264.739 95.7415 264.345 95.5232 263.996C95.3048 263.647 95.0103 263.351 94.6616 263.132C94.313 262.913 93.9193 262.775 93.51 262.73ZM68.06 324.48C66.67 327.68 65.39 330.29 64.48 332.1L63.97 333.1H63.82C63.82 332.75 63.72 332.36 63.66 331.93C63.38 329.93 62.94 326.99 62.25 323.54C62.04 322.45 61.79 321.29 61.52 320.1C62.6008 319.664 63.6558 319.166 64.68 318.61C66.0711 319.817 67.6225 320.827 69.29 321.61C68.88 322.58 68.46 323.56 68.06 324.48Z" fill="#263238"/>
    <path d="M81.4 277.43C81.4 277.43 82.14 274.74 82.16 274.56C82.45 272.51 81.8 268.4 79.71 267.39C79.3627 267.235 78.9869 267.153 78.6064 267.151C78.226 267.149 77.8492 267.226 77.5002 267.378C77.1512 267.529 76.8376 267.752 76.5793 268.031C76.321 268.31 76.1237 268.64 76 269C75.44 270.53 76.15 272.41 77 273.71C78 275.27 81.4 277.43 81.4 277.43Z" fill="#263238"/>
    <path d="M457.93 382.58H51.1801V387.56H457.93V382.58Z" fill="#263238"/>
    </svg>
    