<svg width="503" height="500" fill="none" xmlns="http://www.w3.org/2000/svg"><rect x="3" y="26" width="500" height="460" rx="40" fill="#4D9DE0"/><path d="M437.24 381.57c2.92-10.68 12.43-46.53 18.89-82.84 7.7-43.35 14.44-103.06-16.38-128.11-30.82-25.05-71.28 4.82-92.47-4.81-21.19-9.63-22.15-57.8-79-72.24-56.85-14.44-88.62 35.63-113.66 62.6-25.04 26.97-53 8.67-89.58 37.57-36.2 28.58-5.5 158 21.27 187.83h350.93z" fill="#F3722C"/><path opacity=".7" d="M437.24 381.57c2.92-10.68 12.43-46.53 18.89-82.84 7.7-43.35 14.44-103.06-16.38-128.11-30.82-25.05-71.28 4.82-92.47-4.81-21.19-9.63-22.15-57.8-79-72.24-56.85-14.44-88.62 35.63-113.66 62.6-25.04 26.97-53 8.67-89.58 37.57-36.2 28.58-5.5 158 21.27 187.83h350.93z" fill="#fff"/><path d="M447.21 178.71h-78.5a1.448 1.448 0 00-1.44 1.44v202a1.45 1.45 0 001.44 1.45h78.5a1.449 1.449 0 001.45-1.45v-202a1.45 1.45 0 00-1.45-1.44zm-1.44 202h-75.61V181.6h75.61v199.11z" fill="#fff"/><path d="M375.64 223.16h64.65a1.437 1.437 0 001.333-.896c.072-.176.108-.364.107-.554v-34.13a1.437 1.437 0 00-.419-1.021 1.433 1.433 0 00-1.021-.419h-64.65a1.442 1.442 0 00-1.45 1.44v34.13a1.45 1.45 0 001.45 1.45zm1.44-34.16h61.76v31.24h-61.76V189zM375.64 271.64h64.65a1.437 1.437 0 001.021-.419 1.433 1.433 0 00.419-1.021v-34.13a1.442 1.442 0 00-1.44-1.45h-64.65a1.45 1.45 0 00-1.45 1.45v34.13a1.437 1.437 0 00.896 1.333c.176.072.364.108.554.107zm1.44-34.13h61.76v31.25h-61.76v-31.25zM375.64 320.13h64.65a1.44 1.44 0 001.44-1.44v-34.14a1.44 1.44 0 00-1.44-1.44h-64.65a1.45 1.45 0 00-1.45 1.44v34.14a1.45 1.45 0 001.45 1.44zm1.44-34.13h61.76v31.24h-61.76V286zM375.64 368.62h64.65a1.437 1.437 0 001.333-.896c.072-.176.108-.364.107-.554V333a1.437 1.437 0 00-.419-1.021 1.433 1.433 0 00-1.021-.419h-64.65a1.442 1.442 0 00-1.45 1.44v34.13a1.444 1.444 0 00.41 1.051 1.44 1.44 0 001.04.439zm1.44-34.13h61.76v31.24h-61.76v-31.24zM348.88 107H137.44a1.438 1.438 0 00-1.44 1.4v105.32a1.437 1.437 0 00.896 1.333c.176.072.364.108.554.107h211.43a1.44 1.44 0 001.021-.419 1.433 1.433 0 00.419-1.021V108.4a1.427 1.427 0 00-1.44-1.4zm-1.45 2.89v97.72H138.88v-97.76l208.55.04z" fill="#fff"/><path d="M396.43 315.28L391.88 384a1.388 1.388 0 01-1.916 1.181 1.362 1.362 0 01-.744-.771 1.364 1.364 0 01-.09-.54l1.87-68.59h5.43zM408.07 315.28l4.55 68.72a1.383 1.383 0 001.37 1.29 1.383 1.383 0 001.38-1.42l-1.89-68.55-5.41-.04zM362.45 315.28L367 384a1.383 1.383 0 001.37 1.29 1.383 1.383 0 001.38-1.42l-1.9-68.55-5.4-.04zM343.86 315.28L339.31 384a1.388 1.388 0 01-1.38 1.29 1.394 1.394 0 01-.987-.421 1.394 1.394 0 01-.393-.999l1.9-68.55 5.41-.04z" fill="#263238" stroke="#263238" stroke-linecap="round" stroke-linejoin="round"/><path d="M423.13 246s-45.4-1.7-49.24-1.7c-3.84 0-4.73 1.7-4.73 1.7l-6.48 45.69s-20.15-5.75-24.1-5c-3.95.75 1.95 29.42 1.95 29.42h22.8l.41-1.72h51.48l13.67-65.12c-.83-2.98-5.76-3.27-5.76-3.27z" fill="#fff" stroke="#263238" stroke-linecap="round" stroke-linejoin="round"/><path d="M405.85 274.58s4.62 30-.68 33.5c-.82.54-5.27 3.1-9.43 2.68-3.34-.34-26.94 0-26.94 0s-3.28-6.24-3.94-10.84c-.66-4.6 4.5-24.34 4.5-24.34l36.49-1z" fill="#fff" stroke="#263238" stroke-linecap="round" stroke-linejoin="round"/><path d="M367.2 290.65s-34.16 3.55-35.77 4.51c-1.61.96-9 7.41-7.73 11.6 1.27 4.19-1.93 4.51 1 5.16 2.93.65 44.46.64 44.46.64" fill="#F3722C"/><path d="M367.2 290.65s-34.16 3.55-35.77 4.51c-1.61.96-9 7.41-7.73 11.6 1.27 4.19-1.93 4.51 1 5.16 2.93.65 44.46.64 44.46.64" stroke="#263238" stroke-linecap="round" stroke-linejoin="round"/><path d="M336.13 316.06h81.17V310h-81.17v6.06z" fill="#fff" stroke="#263238" stroke-linecap="round" stroke-linejoin="round"/><path d="M398.13 291.94h-48.9s-2.57 2.9-2.9 9c-.33 6.1.33 7.41 4.84 9 4.51 1.59 44.57.78 44.57.78" fill="#F3722C"/><path d="M398.13 291.94h-48.9s-2.57 2.9-2.9 9c-.33 6.1.33 7.41 4.84 9 4.51 1.59 44.57.78 44.57.78" stroke="#263238" stroke-linecap="round" stroke-linejoin="round"/><path d="M359.6 369.54l-5.12-12.13-8.39 1.59 6.42 10.82-3.7 7.41-8 5.23s-.93.92 3.07.61c4-.31 12.3 0 12.3 0l5.23-6.15s1.9-3.13-1.81-7.38z" fill="#fff" stroke="#263238" stroke-linecap="round" stroke-linejoin="round"/><path d="M361.84 374.84l.21 7.93h-1.25l-1.67-3.96 2.71-3.97z" fill="#263238" stroke="#263238" stroke-linecap="round" stroke-linejoin="round"/><path d="M356.19 383.11l5.23-6.15s1.35-2.29-.51-5.59c-3.72 6.36-8.67 8.27-8.67 8.27l-5.16-1.24-6.26 4.1s-.93.92 3.07.61c4-.31 12.3 0 12.3 0z" fill="#263238" stroke="#263238" stroke-linecap="round" stroke-linejoin="round"/><path d="M339.49 307.73l17.15 51.85-12.17 2.16-24-54s-1.93-8.06 3.22-10.63c5.15-2.57 20.3-3.87 20.3-3.87" fill="#F3722C"/><path d="M339.49 307.73l17.15 51.85-12.17 2.16-24-54s-1.93-8.06 3.22-10.63c5.15-2.57 20.3-3.87 20.3-3.87" stroke="#263238" stroke-linecap="round" stroke-linejoin="round"/><path d="M394.5 316.05s-5.91-28.71-1.95-29.42c3.96-.71 24.1 5 24.1 5l6.48-45.63s6.84-1.08 7.56 5c.72 6.08-13.39 65.05-13.39 65.05h-22.8z" fill="#263238" stroke="#263238" stroke-linecap="round" stroke-linejoin="round"/><path d="M324.91 231.52l-3.05-5a3.23 3.23 0 00-2.81-1.54l-2.87.05-4.91-1.47a1.64 1.64 0 00-1.74.55l-.18.23 4.52 2-4.51 1.66-4.79-2.43a.897.897 0 00-1.13.26.902.902 0 00.16 1.26l6.7 5.17a1.877 1.877 0 001.5.36l7.41-1.49 2.07 2.26 3.63-1.87z" fill="#fff" stroke="#263238" stroke-linecap="round" stroke-linejoin="round"/><path d="M376.57 221.26l-27.47 28.73-26.22-21.19-3.62 2.63 28.85 32.69 25.01-13.47 3.45-29.39zM417.67 228.6l14.4 44.25-12.42.36-12.35-20.77s6.94-20.95 10.37-23.84z" fill="#fff" stroke="#263238" stroke-linecap="round" stroke-linejoin="round"/><path d="M402 221l15.67 7.65-13.12 36.69 1.55 10.23-36.74.06 4.38-16.48-3-10.56a8.096 8.096 0 01-.06-4.2l5.88-23.08 15.44-2.48 10 2.17z" fill="#fff" stroke="#263238" stroke-linecap="round" stroke-linejoin="round"/><path d="M401.25 218.85s3.08 2.08 3.18 3.93c.05 1.09 0 3-.1 4.46a9.473 9.473 0 01-.77 3.31l-5.55 6.7-6.42-5.07-5.33 2.72s-1-8.17 1.33-13.87c2.33-5.7 12.47-3.61 13.66-2.18z" fill="#fff" stroke="#263238" stroke-linecap="round" stroke-linejoin="round"/><path d="M405.66 203s-1.26 4.53-1.85 7.53c-.59 3-1.78 9-1.67 11.25.11 2.25-9.36 11.83-10.55 10.4-1.19-1.43-2.44-9.74-2.44-9.74l1.18-13.44s12.34-13.67 15.33-6z" fill="#fff" stroke="#263238" stroke-linecap="round" stroke-linejoin="round"/><path d="M385.87 196s-1.69 2.79-1.69 4 .59 3.58.49 4.27c-.1.69-1.78 3-2 3.78a1.377 1.377 0 00.69 1.69c.408.209.806.439 1.19.69 0 0 .5 6.16 1.3 7.75.8 1.59 1.49 2.29 3.87 2.49 2.38.2 8.05-2.29 8.84-4.28.79-1.99.9-4.37 1-7.25.1-2.88-1.89-7-3.38-10.93-1.49-3.93-7.73-6.09-10.31-2.21z" fill="#fff" stroke="#263238" stroke-linecap="round" stroke-linejoin="round"/><path d="M411.52 216.34a7.63 7.63 0 100-15.26 7.63 7.63 0 000 15.26z" fill="#263238" stroke="#263238" stroke-linecap="round" stroke-linejoin="round"/><path d="M385.83 195.57s3.07-2.65 8.59 2.62 3.42 12.89 7.11 14.47c3.69 1.58 10.52-6.32 11.31-10.26.79-3.94-1.58-12.11-8.95-13.69-7.37-1.58-16.4-.5-18.06 6.86z" fill="#263238" stroke="#263238" stroke-linecap="round" stroke-linejoin="round"/><path d="M385.83 195.57a4.107 4.107 0 011.229-3.38 4.109 4.109 0 013.421-1.11c5 .27 5.52 8.16 8.15 11.32 2.63 3.16 3.95 2.63 3.95 2.63s-4.47 1.31-7.37-.27c-2.9-1.58-4.3-10.49-9.38-9.19z" fill="#263238" stroke="#263238" stroke-linecap="round" stroke-linejoin="round"/><path d="M394 190.16a15.601 15.601 0 016 6.81c2.27 4.81 2.27 8.78 7.66 8.5 0 0-2.55.57-6.52-1.42-3.97-1.99-4.82-7.65-7.37-9.92a8.386 8.386 0 00-5.1-2.27M412.84 202.4s-.23 7.22-5.77 8.74" stroke="#fff" stroke-width=".5" stroke-linecap="round" stroke-linejoin="round"/><path d="M397.38 209.77s5.28-6.91 6.52-1.75c1.24 5.16-3 6.42-5 5.83-2-.59-1.72-1.66-1.72-1.66" fill="#fff"/><path d="M397.38 209.77s5.28-6.91 6.52-1.75c1.24 5.16-3 6.42-5 5.83-2-.59-1.72-1.66-1.72-1.66" stroke="#263238" stroke-linecap="round" stroke-linejoin="round"/><path d="M385.63 268.9s-10.08 1.4-11.76 1.4c-1.68 0-5.88 5.32-5.88 5.32h18.48l-.84-6.72z" fill="#fff" stroke="#263238" stroke-linecap="round" stroke-linejoin="round"/><path d="M428.45 262.12l3.62 8.16a3.223 3.223 0 01-1.547 3.878 3.228 3.228 0 01-1.453.372l-43.7.25.28-5.88 33.88-5.36" fill="#fff"/><path d="M428.45 262.12l3.62 8.16a3.223 3.223 0 01-1.547 3.878 3.228 3.228 0 01-1.453.372l-43.7.25.28-5.88 33.88-5.36" stroke="#263238" stroke-linecap="round" stroke-linejoin="round"/><path d="M369.96 374.84l.21 7.93h-1.25l-1.67-3.96 2.71-3.97z" fill="#263238" stroke="#263238" stroke-linecap="round" stroke-linejoin="round"/><path d="M367.72 369.54L366.11 358l-8.38.54 2.9 11.36-3.7 7.41-8 5.23s-.92.92 3.08.61c4-.31 12.3 0 12.3 0l5.23-6.15s1.89-3.21-1.82-7.46z" fill="#fff" stroke="#263238" stroke-linecap="round" stroke-linejoin="round"/><path d="M364.31 383.11l5.23-6.15s1.35-2.29-.52-5.59c-3.72 6.36-8.67 8.27-8.67 8.27l-5.15-1.24-6.27 4.1s-.92.92 3.08.61c4-.31 12.3 0 12.3 0z" fill="#263238" stroke="#263238" stroke-linecap="round" stroke-linejoin="round"/><path d="M363.88 298.8l3.59 61.32-11.37.27-11.1-55.71s.21-10.61 3.6-11.83c3.39-1.22 12.39.09 12.39.09" fill="#F3722C"/><path d="M363.88 298.8l3.59 61.32-11.37.27-11.1-55.71s.21-10.61 3.6-11.83c3.39-1.22 12.39.09 12.39.09" stroke="#263238" stroke-linecap="round" stroke-linejoin="round"/><path d="M314.18 166.81l14.11 39.55s-1.86 8.95-7.46 8.58c-5.6-.37-7.09-8.21-8.58-9.33-1.49-1.12-3.73-9.7-3.73-9.7l5.66-29.1z" fill="#fff" stroke="#263238" stroke-linecap="round" stroke-linejoin="round"/><path d="M277.68 158.88l-22.94 8.28 8.8 63.61h41.39l9.25-63.96-24.76-7.75-11.74-.18z" fill="#fff" stroke="#263238" stroke-linecap="round" stroke-linejoin="round"/><path d="M279.89 169.78l3.31 4.99-2.87 42.32 4.22 11.02 4.33-10.72-3.71-41.99 2.98-7.21-4.13-5.43-4.13 7.02z" fill="#F3722C" stroke="#263238" stroke-linecap="round" stroke-linejoin="round"/><path d="M284.47 167.72l-5.91 4.43-3.89-11.55 2.71-5.85 12.09-.29 2.95 2.65-.59 14.74-7.36-4.13z" fill="#fff" stroke="#263238" stroke-linecap="round" stroke-linejoin="round"/><path d="M290.72 151.75l-.92 7.43-6.62 8.54-4.95-8.66v-13.93s8.67 2.17 12.49 6.62z" fill="#fff" stroke="#263238" stroke-linecap="round" stroke-linejoin="round"/><path d="M274.83 136.31c0-6.75 4.92-12.22 11-12.22s9.45 5.77 9.45 12.52c0 2.18-.45 5.92-.63 7.91-.31 3.4-1.34 4.84-3.35 7.89-6.59 10-12-4.67-14.77-9.6a13.124 13.124 0 01-1.7-6.5z" fill="#fff" stroke="#263238" stroke-linecap="round" stroke-linejoin="round"/><path d="M290.61 138.43l.93 6.97-3.27-.09" fill="#fff"/><path d="M290.61 138.43l.93 6.97-3.27-.09" stroke="#263238" stroke-linecap="round" stroke-linejoin="round"/><path d="M297.91 137.22l-15.72.07a3.67 3.67 0 00.78 3.57c1 1 5.07.65 5.72.39.65-.26 1-3.12 1-3.12h1.17s.13 3 1.81 3.25c1.68.25 3.87.17 4.29-.13 1.86-1.25.95-4.03.95-4.03z" fill="#fff" stroke="#263238" stroke-linecap="round" stroke-linejoin="round"/><path d="M276.77 143.94s3.54 7.25 4.38 9.76c.84 2.51 5 4.47 9.21 3.07 4.21-1.4 3.07-7.63 3.07-7.63s-4.47-3.82-5.3-3c-.83.82-5.31 4.47-5.59 3.63-.28-.84-2.23-5.86-2.23-5.86l-.91-3.56 1.87-1.2a1.4 1.4 0 00.25-1.88l-.88-1.27a1.42 1.42 0 01-.23-1.08c.23-1.09.86-3.35 2.32-4 2-.83 4.43.38 6.67.94 2.24.56 4.67-1.46 4.67-1.46l1 3.32a15.93 15.93 0 004.54-7.7c1.12-4.75-10.33-6.7-14-6.7s-9.49 2-11.17 7.26c-1.68 5.26 1.34 16.42 2.33 17.36z" fill="#263238" stroke="#263238" stroke-linecap="round" stroke-linejoin="round"/><path d="M285.83 126.05s2.08 3.12-.65 3.77c-2.73.65-8.05-1.69-10.39-.78M281.15 132.93s-4.28-.52-6 1.3M291.45 148.7s-3.15 1.64-4.71-.31" stroke="#fff" stroke-width=".5" stroke-linecap="round" stroke-linejoin="round"/><path d="M277.3 141.73s-3.09-3.4-3.09.31.93 3.71 2.78 5c1.85 1.29 2.48-.31 2.48-.31" fill="#fff"/><path d="M277.3 141.73s-3.09-3.4-3.09.31.93 3.71 2.78 5c1.85 1.29 2.48-.31 2.48-.31" stroke="#263238" stroke-linecap="round" stroke-linejoin="round"/><path d="M318.56 372.24h.14l-.27-1.36-13.5-140.1h-41.39l-13.61 141.45h.15l8.78.75s9.74-32.7 9.74-35.14c0-2.44 2.78-25 2.78-25l13.81-48.55 12.21 48.55s2.78 22.61 2.78 25c0 2.39 9.75 35.16 9.75 35.16l8.26-.71h.37v-.05z" fill="#263238" stroke="#263238" stroke-linecap="round" stroke-linejoin="round"/><path d="M301.84 239.02l-9.21 13.15M296.91 241.98l-5.59 9.21M270.61 241.33l8.21 8.87M269.95 244.61l11.83 11.84M266 232.12h36.5" stroke="#fff" stroke-width=".5" stroke-linecap="round" stroke-linejoin="round"/><path d="M250.08 372.23s-5.27 4.15-8.31 5.29c-3.04 1.14-8.72 4.17-8.72 4.17s0 1.9 4.93 1.9h19.35l-.33-11.36h-6.92z" fill="#263238" stroke="#263238" stroke-linecap="round" stroke-linejoin="round"/><path d="M257.26 381.52c-7.727.353-15.468.229-23.18-.37l-1 .54s0 1.9 4.93 1.9h19.35l-.1-2.07z" fill="#fff" stroke="#263238" stroke-linecap="round" stroke-linejoin="round"/><path d="M317.76 372.23s5.28 4.15 8.31 5.29c3.03 1.14 8.73 4.17 8.73 4.17s0 1.9-4.94 1.9h-19.34l.35-11.36h6.89z" fill="#263238" stroke="#263238" stroke-linecap="round" stroke-linejoin="round"/><path d="M310.58 381.52c7.727.353 15.468.229 23.18-.37l1 .54s0 1.9-4.94 1.9h-19.3l.06-2.07zM254.74 167.16l-15.24 40.69h14.62l5.46-11.1-4.84-29.59z" fill="#fff" stroke="#263238" stroke-linecap="round" stroke-linejoin="round"/><path d="M321.41 201.55c-6.1-2.52-25.67-3.77-26.69-3.77-1.02 0-32.83-2.62-35.44-3-2.61-.38-5.6 5.6-5.6 5.6l13.8-.38 16.79 3.36s34 12.31 36.56 11.57c.349-.116.665-.315.92-.58" fill="#fff"/><path d="M321.41 201.55c-6.1-2.52-25.67-3.77-26.69-3.77-1.02 0-32.83-2.62-35.44-3-2.61-.38-5.6 5.6-5.6 5.6l13.8-.38 16.79 3.36s34 12.31 36.56 11.57c.349-.116.665-.315.92-.58" stroke="#263238" stroke-linecap="round" stroke-linejoin="round"/><path d="M250.32 199.64l52.6-5.22.38 4.47-45.52 13.81s-8.2 1.86-14.55.74c-6.35-1.12-3.35-7.46-1.86-11.19" fill="#fff"/><path d="M250.32 199.64l52.6-5.22.38 4.47-45.52 13.81s-8.2 1.86-14.55.74c-6.35-1.12-3.35-7.46-1.86-11.19" stroke="#263238" stroke-linecap="round" stroke-linejoin="round"/><path d="M302.93 194.42l10.07-.38 2.98 5.97-12.68-1.11-.37-4.48z" fill="#fff" stroke="#263238" stroke-linecap="round" stroke-linejoin="round"/><path d="M370 282.16l8.59 102.27c.023.152.076.299.157.43a1.143 1.143 0 00.736.511c.151.031.306.031.457-.001a1.099 1.099 0 00.83-1.18l-5.85-102-4.92-.03zM427.73 282.16l8.62 102.61a1.117 1.117 0 00.891.945c.152.03.308.028.459-.005a1.099 1.099 0 00.83-1.18l-5.87-102.37h-4.93zM189.49 282.16L185 383.54a1.118 1.118 0 001.295 1.207 1.076 1.076 0 00.731-.506 1.08 1.08 0 00.144-.431l7.27-101.65h-4.95zM136.28 282.16l-4.52 101a1.13 1.13 0 00.85 1.19 1.081 1.081 0 001.33-.92l7.24-101.31-4.9.04z" fill="#263238" stroke="#263238" stroke-linecap="round" stroke-linejoin="round"/><path d="M438.97 276.49H133.08v8.78h305.89v-8.78z" fill="#F3722C" stroke="#263238" stroke-linecap="round" stroke-linejoin="round"/><path d="M438.97 276.49H133.08v3.01h305.89v-3.01z" fill="#263238" stroke="#263238" stroke-linecap="round" stroke-linejoin="round"/><path d="M438.96 276.49h-76.54v8.78h76.54v-8.78z" fill="#263238" stroke="#263238" stroke-linecap="round" stroke-linejoin="round"/><path d="M441.69 273.57H130.35v3.35h311.34v-3.35z" fill="#F3722C" stroke="#263238" stroke-linecap="round" stroke-linejoin="round"/><path d="M441.68 273.57h-76.07v3.35h76.07v-3.35z" fill="#263238" stroke="#263238" stroke-linecap="round" stroke-linejoin="round"/><path d="M199.7 273.27h41.78a.813.813 0 00.75-.49l11.57-26.38a.815.815 0 00-.069-.768.814.814 0 00-.681-.362h-41.78a.81.81 0 00-.74.48L199 272.13a.803.803 0 00.049.755.807.807 0 00.651.385z" fill="#fff" stroke="#263238" stroke-linecap="round" stroke-linejoin="round"/><path d="M203.62 271.21h35.65a.69.69 0 00.63-.41l9.87-22.51a.69.69 0 00-.63-1h-35.65a.69.69 0 00-.64.42L203 270.24a.687.687 0 00.049.652.704.704 0 00.245.231c.1.055.212.085.326.087z" fill="#F3722C" stroke="#263238" stroke-linecap="round" stroke-linejoin="round"/><path d="M242.06 271.52h-62.77v2.05h62.77v-2.05z" fill="#fff" stroke="#263238" stroke-linecap="round" stroke-linejoin="round"/><path d="M242.07 271.52h-30.43v2.05h30.43v-2.05zM262.23 257.25h-11.07v16.36h11.07v-16.36z" fill="#fff" stroke="#263238" stroke-linecap="round" stroke-linejoin="round"/><path d="M261.74 271.38h-1.16a.911.911 0 01-.644-1.553.911.911 0 01.644-.267h1.16a1.74 1.74 0 001.73-1.73v-4a1.74 1.74 0 00-1.73-1.73h-1.49a.919.919 0 01-.643-.267.896.896 0 01-.267-.643.896.896 0 01.267-.643.896.896 0 01.643-.267h1.49a3.553 3.553 0 013.55 3.55v4a3.553 3.553 0 01-3.55 3.55zM348.72 273.27h-41.78a.81.81 0 01-.74-.49l-11.57-26.38a.815.815 0 01.066-.764.822.822 0 01.291-.268.826.826 0 01.383-.098h41.78a.82.82 0 01.75.48l11.57 26.38a.819.819 0 01-.75 1.14z" fill="#fff" stroke="#263238" stroke-linecap="round" stroke-linejoin="round"/><path d="M306.36 273.57h62.77v-2.05h-62.77v2.05z" fill="#fff" stroke="#263238" stroke-linecap="round" stroke-linejoin="round"/><path d="M306.36 273.57h43.28v-2.05h-43.28v2.05zM322.74 256.22a2.456 2.456 0 01-1.452 3.502 2.46 2.46 0 01-1.918-4.502 2.489 2.489 0 013.37 1zM127.37 178.57l3.08 30.43 14 40.53-4.79 2.74-16.44-37.1-8.21-31.85s-.69-9.58 2.74-11 8.25.09 9.62 6.25zM144.49 249.57s3.08 6.51 3.43 8.22c.35 1.71.7 5.2-.65 6.76-1.63 1.88-3.12.43-3.12.43s-4.11-1-4.11-4.45-.34-8.22-.34-8.22l4.79-2.74z" fill="#fff" stroke="#263238" stroke-linecap="round" stroke-linejoin="round"/><path d="M141.13 259.78l5.77 1.5" stroke="#263238" stroke-linecap="round" stroke-linejoin="round"/><path d="M142.51 255.89l1.64 2.58s-3.82 6.53-1.77 4.82 5.88-3.79 5.54-5.5a27.182 27.182 0 00-2.28-5.16" fill="#fff"/><path d="M142.51 255.89l1.64 2.58s-3.82 6.53-1.77 4.82 5.88-3.79 5.54-5.5a27.182 27.182 0 00-2.28-5.16" stroke="#263238" stroke-linecap="round" stroke-linejoin="round"/><path d="M111 142s-3.52-3.8-11.64-1.36c-8.12 2.44-10 15.44-9.75 21.93s6.5 13.81 4.61 17.06c-1.89 3.25-8.94 10.83-8.4 19 .54 8.17 7.31 14.62 17.06 11.64 9.75-2.98 8.12-14.91 6.18-19.27-1.94-4.36 2.17-6.23 3.52-15.71s-7.31-17.33-7.31-24.1c0-6.77 7-5.68 7-5.68L111 142z" fill="#263238" stroke="#263238" stroke-linecap="round" stroke-linejoin="round"/><path d="M98.8 167.7c1.28 2.64 2.77 5.46 4.25 8.5 4.94 10.08 1.08 13.72-6.43 19.3s-5.79 12.44-3.86 13.5M108.42 144.67s-10.08.86-12.66 7.29c-1.56 3.91-.36 8.29 1.94 13.39M101.05 206.49a6.066 6.066 0 002.43.38" stroke="#fff" stroke-width=".5" stroke-linecap="round" stroke-linejoin="round"/><path d="M111 144s-9.44 1.71-11.58 8.57c-2.14 6.86 10.51 17 11.15 24.46.64 7.46-8.37 11.82-11.57 17.61-2.25 4.06-2 8.53.37 10.78" stroke="#fff" stroke-width=".5" stroke-linecap="round" stroke-linejoin="round"/><path d="M135.22 282.07s-2.33 20.12-4.67 26.54c-2.34 6.42-7.58 56.87-7.87 59.79-.29 2.92 7.58 9.62 10.79 11.67 3.21 2.05 1.75 2.62-1.75 2.91-3.5.29-7.58-.29-9.33-3.5s-5.84-4.08-5.84-4.08l-.58 7h-1.17l-.87-8.75a10.086 10.086 0 01.87-5.83c1.46-3.21 2-9.92 2-19s-1.75-23.63-.88-30.63 4.38-12.25 4.38-18.08c0-5.83.29-14.58.29-14.58l14.63-3.46z" fill="#fff" stroke="#263238" stroke-linecap="round" stroke-linejoin="round"/><path d="M113.93 373.65a9.67 9.67 0 01.37-4.49c1.81 3.06 7 7.21 11 8.86a14.59 14.59 0 006.89 1.16c.47.35.91.65 1.28.89 3.21 2 1.75 2.62-1.75 2.91-3.5.29-7.58-.29-9.33-3.5s-5.84-4.08-5.84-4.08l-.58 7h-1.17l-.87-8.75z" fill="#263238" stroke="#263238" stroke-linecap="round" stroke-linejoin="round"/><path d="M118.3 285.28s-5 14.87-9.62 27.7c-4.62 12.83-15.75 42.29-16.92 47.54-1.17 5.25-1.75 14.88-5 19.84-3.25 4.96-6.42 7.29-5.84-1.46.58-8.75 5.84-15.17 7-21.88 1.16-6.71 1.75-30.91 5.83-41.7 4.08-10.79 8.46-19.54 9-22.75.399-3.194.593-6.411.58-9.63l14.97 2.34z" fill="#fff" stroke="#263238" stroke-linecap="round" stroke-linejoin="round"/><path d="M81.52 375.15a8.663 8.663 0 001.48 4.62c1.68 1.88 4.39-1.77 5.8-4a18.944 18.944 0 01-2 4.58c-3.21 4.95-6.42 7.29-5.84-1.46.096-1.259.284-2.509.56-3.74z" fill="#263238" stroke="#263238" stroke-linecap="round" stroke-linejoin="round"/><path d="M116 167.9s-1.75 1.46-2.92 11.38c-1.17 9.92 6.13 40.83 6.13 40.83s-12.54 20.54-15.46 30.75c-2.92 10.21-4.67 48.46-4.67 48.46s6.13 2.34 18.67 3.21c12.54.87 19.25-2.33 19.25-2.33s.58-54.59.58-63c0-8.41.59-27.54 1.46-29.87.87-2.33 3.5-8.46 3.5-10.79 0-2.33-17.54-27.18-17.54-27.18l-9-1.46z" fill="#fff" stroke="#263238" stroke-linecap="round" stroke-linejoin="round"/><path d="M103.72 250.86c2.3-8 11.82-29.28 15.22-32.94 5.17 1.72 14.6 3.42 18.81 2.16-.13 3-.2 14.2-.2 17.07 0 8.46-.58 63-.58 63s-6.71 3.21-19.25 2.33c-12.54-.88-18.67-3.21-18.67-3.21s1.75-38.2 4.67-48.41zM122.47 133.52s3.13-6.82 9.32-6.82 8.94 5.5 7.57 10.31c-1.37 4.81 4.12 3.44 4.81 6.54.69 3.1-4.47 5.15-7.22 5.15s-14.48-15.18-14.48-15.18z" fill="#263238" stroke="#263238" stroke-linecap="round" stroke-linejoin="round"/><path d="M131.51 132.82c1.84-1 4-1.72 5-.16 1.93 3-4.07 5.36-2.14 8.58 1.93 3.22 6.65 2.36 6.43 3.43-.22 1.07-3.21 1.71-3.21 1.71M128.36 135s.59-.51 1.47-1.13" stroke="#fff" stroke-width=".5" stroke-linecap="round" stroke-linejoin="round"/><path d="M138.34 149.39a3.113 3.113 0 01-1-1.26c-.5-3.69-1.58-7.32-3.62-9.36a19.832 19.832 0 00-11.23-5.25 7.907 7.907 0 00-3.71.34c-5.31 1.86-9.87 5.53-8.89 14.38 1.08 9.75 8.67 12.19 8.67 12.19l.54 6 7.58 3.52.27-6.5s5.14 2.16 7 1.89c1.86-.27 2.44-2.71 3.25-6.23.297-1.606.445-3.237.44-4.87l2.27-2.26c1.29-1.31.02-1.63-1.57-2.59z" fill="#fff" stroke="#263238" stroke-linecap="round" stroke-linejoin="round"/><path d="M109.87 148.24c-1-8.85 3.58-12.52 8.89-14.38a7.907 7.907 0 013.71-.34 21.5 21.5 0 018.12 2.82c-1.52-.31 1.07 4.16-1.31 7a22.126 22.126 0 01-7.77 6.22s-2.7-2.17-3.52.81c-.82 2.98-.54 5.14 1.63 5.69 2.17.55 3 0 3 0s-1.44 3.41-4 4.82v-.49s-7.62-2.39-8.75-12.15z" fill="#263238" stroke="#263238" stroke-linecap="round" stroke-linejoin="round"/><path d="M130.55 168.19l-1.45 7.88-15.46-8.17 1.46-7.29 15.45 7.58zM123.08 234.63c1.601.342 3.226.563 4.86.66 1.27-.08 3-1.51 4.28-.9 1.28.61 3.07 4.46 3.07 4.46s1.7.86 1.21 1.77-2.59 1.75-2.59 1.75-2 1.89-3.16 2.08c-1.16.19-8.23-5-8.23-5l.56-4.82z" fill="#fff" stroke="#263238" stroke-linecap="round" stroke-linejoin="round"/><path d="M123.83 238.37a2.45 2.45 0 00-.75-3.74l-19.43-18.2 21.16-32.9a7.612 7.612 0 00-8.525-11.015 7.608 7.608 0 00-4.625 3.365l-18.34 36.45a5.06 5.06 0 00-.16 7.1l.07.07c1.84 2.84 22.08 17.69 28 19.63a2.431 2.431 0 002.6-.76zM200.71 188s2.51 7.77 2.51 9.28a27.354 27.354 0 01-.25 3.26l2.21 3.43a.997.997 0 01-.31 1.34l-3.41 2s-.5 8-1 9-9 .76-9 .76l-2.76 5.26-14.3-5.51 3.76-10.29-.78-15.53s8.78-7.76 23.33-3z" fill="#fff" stroke="#263238" stroke-linecap="round" stroke-linejoin="round"/><path d="M190.92 206.9s-2.49 2.34-4.36 2.5c-1.87.16-7.95-1.25-8.42-1.87-.47-.62-4.67-9.35-4.52-13.56.15-4.21.32-10.44 4.83-12.46 4.51-2.02 11.69-1.41 15.43-3.74s9.66-4.21 12.78-.16c3.12 4.05.78 9.66-1.71 12s-5.61 3-5.3 4c.31 1 2.18 2.18 1.09 3.74s-5 3-5 3.58c0 .58.94 2.81-.15 3.12-1.09.31-2.19-2.18-3.28-2.18-1.09 0-3.41 3.01-1.39 5.03z" fill="#263238" stroke="#263238" stroke-linecap="round" stroke-linejoin="round"/><path d="M184.41 199.75a7.93 7.93 0 00-1.14 1.66M204.89 183.6a10.322 10.322 0 01-5.7 8.08c-4 2.07-9.33 3.76-12.87 6.36M199.65 193.66s-3.55 3-7.35 6.09a32.376 32.376 0 01-8.55 4.75" stroke="#fff" stroke-width=".5" stroke-linecap="round" stroke-linejoin="round"/><path d="M190.67 207.32l2 .5a6.906 6.906 0 001.51 5.27" fill="#fff"/><path d="M190.67 207.32l2 .5a6.906 6.906 0 001.51 5.27M192.99 201.95l14.12-3.5M203.48 198.17l3.22.14s1.11 3.64-2.24 4.06" stroke="#263238" stroke-linecap="round" stroke-linejoin="round"/><path d="M189.24 371.06s13 8.21 15.29 8.21c2.29 0 3.43 2.06 2.29 2.29-1.14.23-8.22.45-13 .68-4.78.23-8-.23-10.73-.23-2.73 0-5.94.23-7.31-.45-1.37-.68.92-8.45.92-9.82 0-1.37 10.94-1.6 12.54-.68z" fill="#263238" stroke="#263238" stroke-linecap="round" stroke-linejoin="round"/><path d="M206 379.61c-5.05 1.66-13.24.57-18.16.12-3.89-.35-10-.43-12.49-.45-.1 1.17 0 2.06.39 2.28 1.37.68 4.57.45 7.31.45 2.74 0 5.93.46 10.73.23 4.8-.23 11.87-.46 13-.68.89-.18.47-1.36-.78-1.95z" fill="#fff" stroke="#263238" stroke-linecap="round" stroke-linejoin="round"/><path d="M199.51 314.66l-10.26 51.45 2.14 5.34a10.75 10.75 0 01-6.49 4.38 49.157 49.157 0 01-8.9.92s-1.14-5.71-.45-6.4c.69-.69.91-3.42.91-3.42l5.93-51.82 17.12-.45z" fill="#F3722C" stroke="#263238" stroke-linecap="round" stroke-linejoin="round"/><path d="M230.78 369.32s8 6.62 11.65 7.76c3.65 1.14 7.53 2.28 7.53 3.42 0 1.14-8.67 2.28-15.29 1.6-6.62-.68-16.67-3.65-18.95-3.65-2.28 0-1.83-5.94-1.83-6.85 0-.91 11.19-8.22 16.89-2.28z" fill="#263238" stroke="#263238" stroke-linecap="round" stroke-linejoin="round"/><path d="M250 380.5c0-.41-.51-.82-1.32-1.23a70.472 70.472 0 01-19.68-.14c-6.57-.94-12.07-2.2-14.88-2.9.24 1.23.71 2.22 1.64 2.22 2.28 0 12.33 3 18.95 3.65 6.62.65 15.29-.46 15.29-1.6z" fill="#fff" stroke="#263238" stroke-linecap="round" stroke-linejoin="round"/><path d="M191.07 291.6c6.845-.524 13.725-.37 20.54.46 11.64 1.37 37.65 3 38.1 5.94.45 2.94-20.18 64.73-20.18 66.32 0 1.59 1.82 3.2 2.28 4.11.29.649.447 1.349.46 2.06 0 0-5.59 6-9.93 7.63s-8 .1-8.9.1c-.9 0-.91-6.16-.22-9.13.69-2.97 1.82-10.5 2.05-11.18.23-.68 12.73-44.62 12.73-44.62s-34 5.48-54.31 3.19c-20.31-2.29-22.37-5.47-23.51-10.27-1.14-4.8 1.14-14.38 1.14-14.38l39.75-.23z" fill="#F3722C" stroke="#263238" stroke-linecap="round" stroke-linejoin="round"/><path d="M188.5 306.39a14.908 14.908 0 01-1.54 1.88M194.72 294.11a86.406 86.406 0 01-4.53 9.59M192 296.4a24.25 24.25 0 01-11.87 10" stroke="#263238" stroke-linecap="round" stroke-linejoin="round"/><path d="M243.82 309c.78-.3 1.53-.61 2.24-.93l-2.24.93z" fill="#fff"/><path d="M243.82 309c.78-.3 1.53-.61 2.24-.93" stroke="#263238" stroke-linecap="round" stroke-linejoin="round"/><path d="M228 313.29a117.504 117.504 0 0013-3.29l-13 3.29z" fill="#fff"/><path d="M228 313.29a117.504 117.504 0 0013-3.29" stroke="#263238" stroke-linecap="round" stroke-linejoin="round"/><path d="M254.39 237.48c.48-1.91 1.28-1.76.64-2.39-.88-.88-1.59.16-4.14 1.59-2.55 1.43-5.09 3.18-5.09 3.18a2.558 2.558 0 01.63-1.43 6.81 6.81 0 001-3.5c0-1-.8-.8-1.12.16-.32.96-3.18 2.7-3.34 3.5-.16.8-.73 3.94-.73 3.94-.91 1.37-.91 7.76-.91 7.76l-18.53 13.92-9.36 11s4.11 6.62 6.39 5.71c2.28-.91 3.42-1.83 8.9-6.4 4.64-3.87 16.27-21.72 16.27-21.72a43.232 43.232 0 005.73-4.3 13.89 13.89 0 003.46-8.4c-.043-.878.024-1.758.2-2.62zM168.65 216.36s1.76-6.6 9.24-5.28c7.48 1.32 13.2 7.48 14.52 9.68 1.32 2.2-24.2-.88-24.2-.88l.44-3.52z" fill="#fff" stroke="#263238" stroke-linecap="round" stroke-linejoin="round"/><path d="M211.77 274s-1.74 1.88 0 4.84c1.19 2.05 3.29 3.62 7.31 2.93 3.76-.66 9.41-10 9.41-16.57s-4.84-7-6.6-5.72c-1.76 1.28-10.12 14.52-10.12 14.52z" fill="#fff" stroke="#263238" stroke-linecap="round" stroke-linejoin="round"/><path d="M171.89 215.59s-17.8 8.45-20.31 10c-2.51 1.55-4.11 21.45-4.11 24.88 0 3.43 2.51 37 3.19 42.68.68 5.68 22.6 9.59 29.91 7.53 7.31-2.06 14.43-7.25 14.43-9.08s-.69-17.34-.23-20.31c.46-2.97 4.56-15.52 4.56-15.52l12.46 19.88s1.31 2.44 5.94.52c6.62-2.74 7.17-13.33 7.17-13.33s-7.3-12.78-9.36-19.17c-2.06-6.39-3-11.19-3.88-12.33-.88-1.14-21.46-10.73-25.11-13.24a16.228 16.228 0 00-14.66-2.51z" fill="#fff" stroke="#263238" stroke-linecap="round" stroke-linejoin="round"/><path d="M199.28 255.77l-5.93-8.68M198.32 254.53l-10.45-5.15" stroke="#263238" stroke-linecap="round" stroke-linejoin="round"/><path d="M167.35 320l9.12 64.82a1.089 1.089 0 001.966.48 1.11 1.11 0 00.204-.74l-6.43-65.63-4.86 1.07zM141.15 320.51l-15.24 63.66a1.1 1.1 0 00.161.866 1.099 1.099 0 001.497.301c.221-.143.382-.363.452-.617l17.7-61.78-4.57-2.43z" fill="#263238" stroke="#263238" stroke-linecap="round" stroke-linejoin="round"/><path d="M168.83 319.72l-9.7 64.73a1.105 1.105 0 00.57 1.134c.133.071.28.114.43.126a1.09 1.09 0 001.13-.88l12.31-63.08-4.74-2.03zM203.17 320l9.12 64.82a1.089 1.089 0 001.966.48 1.11 1.11 0 00.204-.74L208 318.91l-4.83 1.09z" fill="#263238" stroke="#263238" stroke-linecap="round" stroke-linejoin="round"/><path d="M126.72 252.73l11.1 72.17h78.94s1.17-20.8-2.31-28.15c-3.48-7.35-46.45 8.41-48 8-1.15-.29.55-37.55 2.66-52.11a7.223 7.223 0 00-1.69-5.759 7.213 7.213 0 00-2.459-1.839 7.213 7.213 0 00-3.001-.652h-28.1a7.217 7.217 0 00-6.954 5.252 7.222 7.222 0 00-.186 3.088z" fill="#F3722C" stroke="#263238" stroke-linecap="round" stroke-linejoin="round"/><path d="M214.45 296.75c-3.48-7.35-46.45 8.41-48 8-1.15-.29.55-37.55 2.66-52.11a6.993 6.993 0 00-1.523-5.753 6.996 6.996 0 00-8.371-1.823 7 7 0 00-3.866 7.646l11.1 72.17h50.31s1.17-20.78-2.31-28.13z" fill="#263238" stroke="#263238" stroke-linecap="round" stroke-linejoin="round"/><path d="M254.39 237.48s-1.27 1.27-3.18 3.5l3.18-3.5z" fill="#fff"/><path d="M254.39 237.48s-1.27 1.27-3.18 3.5" stroke="#263238" stroke-linecap="round" stroke-linejoin="round"/><path d="M254.19 240.06s-1.55 3.15-2.5 4.58l2.5-4.58z" fill="#fff"/><path d="M254.19 240.06s-1.55 3.15-2.5 4.58" stroke="#263238" stroke-linecap="round" stroke-linejoin="round"/><path d="M40.36 276.54c1.66.72 5.71.63 5.72.63.01 0-.87-2.65-.95-2.81-.89-1.87-3.71-4.94-6-4.63a2.737 2.737 0 00-1.862 1.225 2.735 2.735 0 00-.328 2.205c.38 1.58 2 2.76 3.42 3.38z" fill="#263238"/><path d="M93.51 262.73c-2.3-.25-5 2.9-5.87 4.79-.07.16-.91 2.84-.87 2.84-.44.49-.9 1-1.39 1.62-.9 1.1-1.9 2.36-2.91 3.8a51.096 51.096 0 00-3 4.8 36.604 36.604 0 00-2.58 5.8.192.192 0 010 .07v-2.71c-.27-2.05-2-5.85-4.26-6.27a2.729 2.729 0 00-3.16 2.53c-.14 1.63 1 3.26 2.19 4.28 1.3 1.16 4.9 2.28 5.19 2.37a46.788 46.788 0 00-1.52 6.35c-.23 1.24-.41 2.49-.58 3.75v-1.18c-.26-2.05-2-5.85-4.25-6.27a2.749 2.749 0 00-2.152.581 2.742 2.742 0 00-1.008 1.989c-.13 1.63 1 3.26 2.2 4.29 1.2 1.03 4.21 2.06 5 2.31-.06.49-.13 1-.19 1.45-.27 2.32-.54 4.64-.87 6.9-.12.8-.26 1.58-.4 2.36v-1c-.27-2.05-2-5.85-4.26-6.27a2.746 2.746 0 00-2.15.589 2.737 2.737 0 00-1 1.991c-.13 1.62 1 3.25 2.2 4.28a17.5 17.5 0 004.85 2.23c-.17.8-.34 1.59-.54 2.36-.15.52-.25 1-.43 1.54s-.33 1-.49 1.52c-.35.95-.7 1.94-1.06 2.86-.25.65-.5 1.26-.74 1.87.12-.79.33-2.35.34-2.48a10.66 10.66 0 00-1.43-5.17 2.429 2.429 0 000-.6 2.73 2.73 0 00-3.37-2.33c-2.24.59-3.65 4.51-3.76 6.57 0 .12.08 1.45.14 2.29-.11-.49-.22-1-.34-1.46-.23-1-.5-2-.77-3-.16-.51-.31-1-.47-1.53-.16-.53-.36-1-.54-1.56-.44-1.21-.94-2.41-1.48-3.61.86-.21 3.92-1 5.15-1.93 1.23-.93 2.52-2.48 2.51-4.11a2.727 2.727 0 00-1.855-2.67 2.728 2.728 0 00-1.145-.13c-2.3.25-4.3 3.91-4.71 5.93 0 .13-.17 1.61-.23 2.43-.32-.72-.65-1.44-1-2.16-1-2.06-2.14-4.13-3.23-6.19l-1-1.9c.31-.07 4-.91 5.34-2 1.34-1.09 2.52-2.47 2.51-4.11a2.74 2.74 0 00-3-2.8c-2.3.25-4.29 3.91-4.71 5.93 0 .16-.23 2.29-.25 2.84-.72-1.39-1.43-2.79-2.07-4.19a48.216 48.216 0 01-2.26-5.83c.14 0 4-.9 5.38-2 1.22-.94 2.52-2.48 2.5-4.11a2.727 2.727 0 00-1.855-2.67 2.728 2.728 0 00-1.145-.13c-2.3.25-4.29 3.91-4.71 5.93 0 .16-.24 2.46-.25 2.88 0-.12-.08-.23-.12-.35a35.89 35.89 0 01-1.17-6.15 49.36 49.36 0 01-.22-3.33c.73-.09 4-.53 5.43-1.36 1.43-.83 2.78-2.19 3-3.81a2.742 2.742 0 00-2.63-3.11c-2.32 0-4.7 3.42-5.34 5.38 0 .11-.26 1.23-.42 2.05v-1.45c0-1.75.11-3.35.22-4.76.07-.81.15-1.54.23-2.22.67-.46 3.34-2.34 4.16-3.69.82-1.35 1.46-3.22.86-4.74a2.727 2.727 0 00-2.656-1.811 2.73 2.73 0 00-1.104.271c-2.06 1.06-2.6 5.19-2.26 7.23 0 .17.81 2.87.84 2.85-.09.65-.18 1.35-.26 2.12-.14 1.42-.28 3-.33 4.78a49.98 49.98 0 00.14 5.66 35.749 35.749 0 001 6.26.192.192 0 010 .07c-.36-.57-1.43-2.13-1.53-2.24-1.35-1.56-4.88-3.79-7-2.88a2.725 2.725 0 00-1.584 2.801c.044.381.168.749.364 1.079.79 1.43 2.67 2.14 4.2 2.36 1.72.25 5.34-.8 5.63-.88a48.768 48.768 0 002.19 6.08c.5 1.15 1 2.3 1.59 3.44-.33-.49-.63-.92-.67-1-1.35-1.56-4.88-3.79-7-2.88a2.734 2.734 0 00-1.453 2.887c.065.38.209.742.423 1.063.78 1.43 2.67 2.14 4.19 2.36 1.52.22 4.65-.6 5.47-.84.22.44.43.88.65 1.31 1 2.09 2.11 4.17 3.08 6.24.34.73.65 1.46 1 2.19l-.59-.84c-1.35-1.56-4.88-3.78-7-2.88a2.741 2.741 0 00-1.21 3.89c.79 1.43 2.67 2.14 4.19 2.36a17.705 17.705 0 005.33-.8c.3.76.6 1.52.85 2.26.17.52.36 1 .49 1.53s.29 1 .43 1.54c.24 1 .49 2 .7 3 .15.67.28 1.32.41 2-.34-.73-1-2.15-1.09-2.26-1.1-1.75-4.25-4.48-6.49-3.91a2.734 2.734 0 00-1.704 1.434 2.738 2.738 0 00-.076 2.226c.56 1.53 2.31 2.52 3.78 3 1.63.49 5.22 0 5.67 0 .22 1.07.41 2.12.59 3.11.6 3.43 1 6.32 1.21 8.33 0 .36.08.68.11 1h-7l2.54 49.57h11.86l2.54-49.57h-6.49l.15-.29c.89-1.86 2.12-4.52 3.45-7.78.43-1 .86-2.13 1.29-3.27.44.09 4 .81 5.65.43 1.51-.34 3.33-1.19 4-2.67a2.728 2.728 0 00-1.51-3.78c-2.19-.74-5.53 1.75-6.76 3.41-.07.1-.74 1.25-1.15 2l.53-1.4c.35-.95.67-1.92 1-2.95l.45-1.53c.17-.51.28-1.06.42-1.6.29-1.25.53-2.53.75-3.83.83.3 3.82 1.34 5.36 1.23 1.54-.11 3.47-.67 4.36-2a2.744 2.744 0 00-.047-3.25 2.737 2.737 0 00-.873-.75c-2-1-5.74.9-7.2 2.35-.09.1-1 1.26-1.52 1.91.12-.78.24-1.56.34-2.36.29-2.29.5-4.62.73-6.94.07-.71.15-1.42.22-2.13.3.11 3.82 1.42 5.55 1.3 1.53-.11 3.46-.67 4.35-2a2.744 2.744 0 00-.047-3.25 2.737 2.737 0 00-.873-.75c-2-1.05-5.73.9-7.2 2.35-.11.11-1.45 1.79-1.77 2.23.17-1.56.35-3.11.59-4.64a47.081 47.081 0 011.33-6.1c.14 0 3.8 1.43 5.58 1.31 1.53-.11 3.46-.68 4.35-2a2.728 2.728 0 00-.92-4c-2-1.06-5.73.89-7.2 2.35-.11.11-1.55 1.92-1.79 2.26l.09-.35a35.555 35.555 0 012.42-5.78c.53-1 1.09-2 1.65-2.9.66.33 3.68 1.8 5.28 1.86 1.6.06 3.52-.29 4.56-1.55a2.73 2.73 0 00-.48-4c-1.93-1.28-5.8.25-7.41 1.54-.09.07-.91.88-1.49 1.48.26-.41.52-.84.78-1.22 1-1.46 1.94-2.73 2.82-3.86.5-.63 1-1.19 1.41-1.71.81 0 4.08-.12 5.51-.79 1.43-.67 3-1.88 3.33-3.47a2.73 2.73 0 00-2.27-3.63zm-25.45 61.75c-1.39 3.2-2.67 5.81-3.58 7.62l-.51 1h-.15c0-.35-.1-.74-.16-1.17-.28-2-.72-4.94-1.41-8.39-.21-1.09-.46-2.25-.73-3.44a30.69 30.69 0 003.16-1.49 20.018 20.018 0 004.61 3c-.41.97-.83 1.95-1.23 2.87z" fill="#263238"/><path d="M81.4 277.43s.74-2.69.76-2.87c.29-2.05-.36-6.16-2.45-7.17a2.744 2.744 0 00-3.13.641A2.734 2.734 0 0076 269c-.56 1.53.15 3.41 1 4.71 1 1.56 4.4 3.72 4.4 3.72zM457.93 382.58H51.18v4.98h406.75v-4.98z" fill="#263238"/></svg>