<svg width="500" height="500" fill="none" xmlns="http://www.w3.org/2000/svg"><rect y="40" width="500" height="460" rx="40" fill="#4D9DE0"/><path d="M500 382.4H0v.25h500v-.25zM445.26 393.85h-50.9v.25h50.9v-.25zM99.67 390.89H52.46v.25h47.21v-.25zM398 389.21h-19.19v.25H398v-.25zM331.22 395.84h-14.08v.25h14.08v-.25zM308.23 395.84h-35.44v.25h35.44v-.25zM252.21 391.62h-56.99v.25h56.99v-.25zM390.37 85.67h-101.8V382.4h101.8V85.67z" fill="#EBEBEB"/><path d="M383.5 376.4V91.67h-88.06V376.4h88.06z" fill="#FAFAFA"/><path d="M285.52 85.67h-101.8V382.4h101.8V85.67z" fill="#EBEBEB"/><path d="M285.52 381.24h3.05V86.84h-3.05v294.4z" fill="#E0E0E0"/><path d="M278.65 376.39V91.66h-88.06v284.73h88.06z" fill="#FAFAFA"/><path d="M436.87 83.44H137.22a1.34 1.34 0 01-1.33-1.33 1.341 1.341 0 011.33-1.33h299.65a1.341 1.341 0 011.33 1.33 1.34 1.34 0 01-1.33 1.33zM383.5 97.34v-5.67h-88.06v5.67h88.06z" fill="#E0E0E0"/><path d="M383.5 101.22v-9.56h-88.06v9.56h88.06zM278.65 112.55V91.66h-88.06v20.89h88.06z" fill="#E0E0E0"/><g opacity=".8"><path d="M403.44 74.56h-28.2v304.19h28.2V74.56z" fill="#F5F5F5"/><path d="M396 74.56h-13.31v304.19H396V74.56z" fill="#F0F0F0"/><path d="M418.57 74.56h-28.2v304.19h28.2V74.56z" fill="#F5F5F5"/><path d="M411.13 74.56h-13.31v304.19h13.31V74.56z" fill="#F0F0F0"/><path d="M432.67 74.56h-28.2v304.19h28.2V74.56z" fill="#F5F5F5"/></g><g opacity=".8"><path d="M181.46 74.56h-40.93v304.19h40.93V74.56z" fill="#F5F5F5"/><path d="M170.65 74.56h-19.32v304.19h19.32V74.56z" fill="#F0F0F0"/><path d="M203.41 74.56h-40.93v304.19h40.93V74.56z" fill="#F5F5F5"/><path d="M192.6 74.56h-19.32v304.19h19.32V74.56z" fill="#F0F0F0"/><path d="M223.87 74.56h-40.93v304.19h40.93V74.56z" fill="#F5F5F5"/></g><path d="M121.1 105.73H55.07V254.4h66.03V105.73z" fill="#F0F0F0"/><path d="M121.1 254.41h2.08V105.74h-2.08v148.67z" fill="#E6E6E6"/><path d="M115.1 248.4V111.73H61.07V248.4h54.03z" fill="#FAFAFA"/><path d="M125.26 328.07H57.48a5.642 5.642 0 01-5.63-5.62 5.64 5.64 0 015.63-5.62h67.78a5.638 5.638 0 015.62 5.62 5.638 5.638 0 01-5.62 5.62z" fill="#F5F5F5"/><path d="M73.78 328.07H62.65L50 382.4h11.12l12.66-54.33zM95.98 328.07H84.86l-6.23 54.33h11.12l6.23-54.33zM108.96 328.07h11.12l12.66 54.33h-11.13l-12.65-54.33z" fill="#E6E6E6"/><path d="M250 427.56c107.082 0 193.89-5.068 193.89-11.32 0-6.252-86.808-11.32-193.89-11.32-107.083 0-193.89 5.068-193.89 11.32 0 6.252 86.807 11.32 193.89 11.32z" fill="#F5F5F5"/><path d="M314.57 298.36h-85.33a2.93 2.93 0 00-2.93 2.93v3.36a2.93 2.93 0 002.93 2.93h85.33a2.93 2.93 0 002.93-2.93v-3.36a2.93 2.93 0 00-2.93-2.93z" fill="#263238"/><path d="M313.76 410.24h3.74l-4.3-102.66h-5.18l5.74 102.66z" fill="#F3722C"/><path opacity=".6" d="M313.76 410.24h3.74l-4.3-102.66h-5.18l5.74 102.66z" fill="#fff"/><path d="M279.33 410.24h-3.74l4.3-102.66h5.18l-5.74 102.66z" fill="#F3722C"/><path opacity=".6" d="M279.33 410.24h-3.74l4.3-102.66h5.18l-5.74 102.66z" fill="#fff"/><path d="M264.49 410.24h3.74l-4.31-102.66h-5.17l5.74 102.66z" fill="#F3722C"/><path opacity=".6" d="M264.49 410.24h3.74l-4.31-102.66h-5.17l5.74 102.66z" fill="#fff"/><path d="M230.05 410.24h-3.74l4.31-102.66h5.17l-5.74 102.66z" fill="#F3722C"/><path opacity=".6" d="M230.05 410.24h-3.74l4.31-102.66h5.17l-5.74 102.66z" fill="#fff"/><g opacity=".3" fill="#F3722C"><path d="M313.2 307.57h-5.18l.24 4.37h5.12l-.18-4.37zM279.71 311.94h5.11l.25-4.37h-5.18l-.18 4.37zM258.75 307.57l.24 4.37h5.12l-.19-4.37h-5.17zM230.43 311.94h5.13l.24-4.37h-5.18l-.19 4.37z"/></g><path d="M262.08 395.15l-8.46 4.5-13.34-18.01 8.47-4.5 13.33 18.01z" fill="#FFB573"/><path d="M250.56 396.87l8.84-6.14a.675.675 0 01.795-.063.674.674 0 01.205.193l5.29 6.69a1.71 1.71 0 01-.41 2.36c-3.11 2.08-4.51 2.81-8.58 5.23-2.51 1.48-8.51 5-12.2 6.61-3.69 1.61-5.17-2.09-3.75-3.1 3.37-2.38 7.83-7.06 8.84-10.35a2.67 2.67 0 01.97-1.43z" fill="#263238"/><path opacity=".2" d="M248.76 377.15l-8.48 4.49 6.43 8.68 8.28-4.76-6.23-8.41z" fill="#000"/><path d="M269.19 270.47s-65.74-2.05-66 25.42c-.32 39.48 37.15 91.33 37.15 91.33l14.66-9.75s-25.68-37.69-25.9-68.51c19.37-5.47 65-2 70.91-18.1 4.84-13.14 2.31-20.39 2.31-20.39h-33.13z" fill="#F3722C"/><path opacity=".2" d="M269.19 270.47s-65.74-2.05-66 25.42c-.32 39.48 37.15 91.33 37.15 91.33l14.66-9.75s-25.68-37.69-25.9-68.51c19.37-5.47 65-2 70.91-18.1 4.84-13.14 2.31-20.39 2.31-20.39h-33.13z" fill="#000"/><path d="M258.98 379.98l-17.44 10.68-5.47-5.55 19.16-12.07 3.75 6.94z" fill="#263238"/><path d="M248.73 400.18a11.202 11.202 0 001.9-1.74.219.219 0 00.039-.242.22.22 0 00-.209-.128c-.37 0-3.65 0-4.35 1.07a.853.853 0 00-.07.82 1.228 1.228 0 00.92.83 2.62 2.62 0 001.77-.61zm1.21-1.65c-1.21 1.26-2.28 1.93-2.9 1.82a.77.77 0 01-.58-.56.38.38 0 010-.4c.4-.56 2.17-.81 3.48-.86z" fill="#F3722C"/><path d="M250.59 398.48a.283.283 0 00.07-.08.223.223 0 000-.22c-.06-.1-1.46-2.48-2.78-2.7a1.14 1.14 0 00-1 .29.851.851 0 00-.28 1c.42 1 2.73 1.81 3.84 1.74l.15-.03zM247.3 396a.66.66 0 01.51-.12c.79.13 1.75 1.38 2.25 2.14-1.09-.1-2.73-.8-3-1.45-.05-.12-.08-.29.17-.51.02.02.04-.01.07-.06z" fill="#F3722C"/><path d="M246.43 406.19l-9.5-.45-1.56-22.43 9.5.45 1.56 22.43z" fill="#FFB573"/><path d="M236.71 404.12l10.75-.34a.69.69 0 01.74.63l.79 8.49a1.7 1.7 0 01-1.63 1.76c-3.74 0-5.54-.11-10.27 0-2.91.09-8.63.52-12.62 0-3.99-.52-3.38-4.43-1.65-4.58 4.11-.33 9.62-3.17 12.26-5.38a2.698 2.698 0 011.63-.58z" fill="#263238"/><path d="M233.37 405.89c.86-.046 1.711-.187 2.54-.42a.22.22 0 00.06-.4c-.31-.2-3.08-2-4.23-1.48a.852.852 0 00-.5.65 1.227 1.227 0 00.31 1.2 2.556 2.556 0 001.82.45zm1.91-.72c-1.7.39-3 .38-3.42-.05a.822.822 0 01-.19-.79.395.395 0 01.24-.32c.62-.27 2.24.48 3.37 1.16z" fill="#F3722C"/><path d="M235.86 405.48a.189.189 0 00.1 0 .211.211 0 00.11-.18c0-.12.14-2.88-.86-3.78a1.093 1.093 0 00-1-.28.85.85 0 00-.79.7c-.19 1 1.3 3 2.27 3.54a.274.274 0 00.17 0zm-1.43-3.84a.636.636 0 01.48.18c.6.54.72 2.11.73 3-.86-.68-1.86-2.16-1.73-2.85 0-.13.09-.29.41-.34l.11.01z" fill="#F3722C"/><path opacity=".2" d="M244.88 383.76l-9.51-.45.89 12.83 9.48-.01-.86-12.37z" fill="#000"/><path d="M292.57 270.47s-68.78 6.5-66.28 27.21c3.62 29.86 5.4 94.22 5.4 94.22l17.53.69s7.43-58 3.59-88.63c17.8 0 61.38 1.28 65.35-9.44 3.51-9.48 2.26-24 2.26-24l-27.85-.05z" fill="#F3722C"/><path d="M251.16 393.67l-21.04-1.04-.76-9.16 23.08 1.59-1.28 8.61z" fill="#263238"/><path d="M277.31 209.81c-.13 1.68-.26 3.14-.45 4.68-.19 1.54-.39 3-.63 4.56-.47 3-1.07 6-1.77 9.07a71.784 71.784 0 01-6.59 18.22 32.621 32.621 0 01-3.09 4.59 20.824 20.824 0 01-4.54 4.22 22.688 22.688 0 01-11.07 3.74 31.984 31.984 0 01-10.29-1 40.261 40.261 0 01-4.66-1.5c-.76-.29-1.5-.61-2.23-1s-1.41-.71-2.25-1.16l2.63-6.69 1.91.24 2 .2c1.34.11 2.66.18 4 .18a27.674 27.674 0 007.21-.83 11.852 11.852 0 005.09-2.65 11.556 11.556 0 001.66-1.94 23.72 23.72 0 001.58-2.84 45.858 45.858 0 002.59-7.11c.76-2.53 1.37-5.18 1.92-7.88.55-2.7 1-5.43 1.45-8.18l.59-4.14c.18-1.36.38-2.82.51-4l14.43 1.22z" fill="#FFB573"/><path d="M277.37 201.66c-7-6.79-15.7-2.78-19.16 10a118.023 118.023 0 00-4 20.87l22.27 4.6c4.05-12.19 8.09-28.51.89-35.47z" fill="#263238"/><path opacity=".3" d="M270.2 215.56c1.59-1.43 6.11 5 8.87 12.93-.78 3-1.67 5.89-2.58 8.6l-13.4-2.77c1.07-7.92 3.54-15.54 7.11-18.76z" fill="#000"/><path d="M230.86 244.54l-5-1.91-.22 10.61s8.4 3.63 10.11-.54l-.6-2.65a8.59 8.59 0 00-4.29-5.51z" fill="#FFB573"/><path d="M219.96 242.91l-2.95 8.9 8.67 1.43.22-10.61-5.94.28z" fill="#FFB573"/><path d="M227.52 250a.565.565 0 01-.51-.31l-8.93-17.19a.578.578 0 01.24-.78.591.591 0 01.78.25l8.9 17.16a.578.578 0 01-.24.78.665.665 0 01-.24.09zM276.54 194.85l10.68-3 13.72-.64a9.508 9.508 0 019.5 6.56c2.61 8 5 19.52 6.77 29.49 2 11.19 3 28 3.21 43.26h-51.23c-1.17-31.85-5.22-50.68-7-61.1a9.479 9.479 0 015.28-10.19l9.07-4.38z" fill="#263238"/><path opacity=".3" d="M317.21 227.22c-1.38-7.85-3.16-16.69-5.14-24-9.13-1.54-13.55 18.48-10.84 28.41 2.71 9.93 17.16 3.91 17.16 3.91-.34-2.99-.74-5.8-1.18-8.32z" fill="#000"/><path d="M285.4 171c2.2 5.4.88 15.3-3.46 12.5-4.34-2.8 2.12-15.78 3.46-12.5z" fill="#263238"/><path d="M283 174.46l-4.15 6.34-5.64 8.63a8.61 8.61 0 011.74 2.55c1 2.08 1.89 3.63-2.48 6.61a2.908 2.908 0 00-1.31 2.86c.26 1.35 1.6 2.66 6.31 1.83a21.653 21.653 0 0011.82-6.56c1.57-1.57 1.21-2.75-.3-4.38-4.32-4.6-5.6-11.95-5.99-17.88z" fill="#FFB573"/><path opacity=".2" d="M274.56 187.3l3.46-6.15c.073.16.153.33.24.51.307.76.555 1.542.74 2.34.63 2.73-1.49 6.63-3.82 8.49l-.27-.53c-.42-.885-.958-1.71-1.6-2.45a.534.534 0 00-.14-.1l1.39-2.11z" fill="#000"/><path d="M253.79 167c-1.29 2.91 3.28 11.15 8.51 7.82s-6.23-12.97-8.51-7.82z" fill="#263238"/><path d="M279 205.05a.29.29 0 01-.29-.24c-.38-2.47-2-4-3.83-5.86-2.32-2.27-4.95-4.85-5.81-9.9a.288.288 0 01.047-.213.282.282 0 01.396-.07.282.282 0 01.117.183c.84 4.87 3.4 7.38 5.65 9.59 1.85 1.81 3.59 3.52 4 6.18a.269.269 0 01-.002.113.265.265 0 01-.047.104.266.266 0 01-.084.076.268.268 0 01-.107.037H279z" fill="#fff"/><path d="M281.13 164.07c2 9.06 3.56 14.27.33 20-4.88 8.67-17.08 7.49-21.72-.85-4.18-7.5-6.67-21.06 1.1-26.91a12.864 12.864 0 0112.276-1.693 12.866 12.866 0 018.014 9.453z" fill="#FFB573"/><path d="M283.82 170.29c-3.12 4.43-11.3-3.7-10.63-9.16-8.12 4.62-16.94 10.79-22.29 5.59-6.18-6-4.49-14.6 2.75-15.37-1.28 2.5 6 3.61 9.87-.25 6.55-6.48 16.9-5.13 16.71.12 4.99-1.98 10.44 9.34 3.59 19.07z" fill="#263238"/><path d="M279.27 152.69c1.93-1.44.65-6.57-3.83-8.07 4.26.55 8.67 3.72 3.83 8.07z" fill="#263238"/><path d="M286.71 169.89a8.48 8.48 0 01-1.9 5.71c-1.72 2.05-4.37.42-5-2.14-.55-2.29.16-5.84 2.42-6.94 2.26-1.1 4.36.79 4.48 3.37z" fill="#FFB573"/><path d="M268.13 171.42c.24.73.06 1.47-.42 1.64-.48.17-1-.28-1.29-1-.29-.72-.06-1.47.42-1.65.48-.18 1.05.27 1.29 1.01zM259.93 174.42c.25.74.06 1.48-.42 1.65-.48.17-1.05-.28-1.29-1s-.05-1.47.42-1.64c.47-.17 1.05.26 1.29.99z" fill="#263238"/><path d="M262.74 174a24.911 24.911 0 01-.76 6.49c1.47.54 3.09-.73 3.09-.73l-2.33-5.76z" fill="#ED893E"/><path d="M267.13 183.83a6.619 6.619 0 003.91-3.45.235.235 0 00.002-.175.233.233 0 00-.122-.125.238.238 0 00-.3.13 6.334 6.334 0 01-4.45 3.42.216.216 0 00-.088.031.209.209 0 00-.069.063.214.214 0 00-.038.086.224.224 0 00.036.179.234.234 0 00.156.097.243.243 0 00.093-.006c.295-.064.586-.148.87-.25zM268.88 168.24a.405.405 0 00.17-.15.461.461 0 00-.14-.63 4.348 4.348 0 00-4.07-.42.446.446 0 00-.24.258.454.454 0 00.282.582.461.461 0 00.348-.02 3.47 3.47 0 013.19.36.432.432 0 00.46.02zM258.31 169.68a.471.471 0 000-.23.457.457 0 00-.6-.24 4.322 4.322 0 00-2.66 3.11.454.454 0 00.37.52.454.454 0 00.52-.37 3.448 3.448 0 012.12-2.42.455.455 0 00.25-.37z" fill="#263238"/><path d="M308.67 198c1 1.62 1.8 3.08 2.63 4.64.83 1.56 1.63 3.08 2.41 4.64 1.58 3.11 3 6.31 4.38 9.57a96.14 96.14 0 013.63 10.12 57.09 57.09 0 012.28 11.28 26.985 26.985 0 01-.23 6.7 14.863 14.863 0 01-1.32 4.21 12.68 12.68 0 01-3.06 3.94 13.293 13.293 0 01-3.86 2.34c-1.184.465-2.414.8-3.67 1-2.12.332-4.275.389-6.41.17a38.393 38.393 0 01-5.66-.91 54.431 54.431 0 01-5.26-1.48 66.04 66.04 0 01-9.86-4.18l2.53-6.73c6.22 1.18 12.9 2.27 18.51 1.93a15.655 15.655 0 003.62-.62c1-.3 1.51-.75 1.47-.89-.04-.14-.06 0-.08-.1-.02-.1 0-.11 0-.62a14.718 14.718 0 00-.2-3.36 45.969 45.969 0 00-2.23-8.37c-1-2.9-2.21-5.83-3.52-8.73-1.31-2.9-2.72-5.81-4.15-8.71-.72-1.453-1.463-2.89-2.23-4.31l-2.26-4.19 12.54-7.34z" fill="#FFB573"/><path d="M304 191.31c-9.66-1.47-14.41 6.82-9.86 19.2a117.329 117.329 0 008.82 19.33l20.83-9.13c-3.79-12.25-9.91-27.89-19.79-29.4z" fill="#263238"/><path d="M281.84 242.39l-4.46 1.34 6.33 9s9.38-3.36 7.46-7.44l-2.36-1.34c-2.02-1.17-4.58-2.38-6.97-1.56z" fill="#FFB573"/><path d="M273.43 249.93l4.47 4.46 5.81-1.67-6.33-8.99-3.95 6.2z" fill="#FFB573"/><path d="M283.18 172.75c.795 0 1.44-.779 1.44-1.74s-.645-1.74-1.44-1.74c-.795 0-1.44.779-1.44 1.74s.645 1.74 1.44 1.74z" fill="#fff"/><path d="M284.37 175.61l-.83-.03-.51-4.01 1.58-.35-.24 4.39z" fill="#fff"/><path d="M290.11 251.2c-3 0-5.66-.45-7.27-1.91a5.75 5.75 0 01-1.75-4.5 46.302 46.302 0 011.91-12.17c1.39-5.45 2.49-9.75-.85-15.06-5.32-8.43-3.73-20.22 0-27.61 2.85-5.65 1.85-11.95 1.49-14.27-.05-.3-.09-.54-.11-.7a.282.282 0 01.064-.211.27.27 0 01.088-.069.268.268 0 01.108-.03.288.288 0 01.211.06c.06.046.099.115.109.19 0 .15.05.38.09.67.38 2.41 1.37 8.8-1.57 14.62-3.65 7.25-5.21 18.8 0 27 3.47 5.51 2.29 10.14.92 15.5a45.906 45.906 0 00-1.87 12 5.19 5.19 0 001.55 4.08c2.7 2.43 8.66 1.81 14.42 1.21 2.58-.26 5.25-.54 7.6-.54a.29.29 0 010 .58c-2.32 0-5 .27-7.54.54a75.797 75.797 0 01-7.6.62z" fill="#fff"/><path d="M317.22 249.06h-11.38a.6.6 0 00-.6.6v.8a.6.6 0 00.6.6h11.38a.6.6 0 00.6-.6v-.8a.6.6 0 00-.6-.6z" fill="#fff"/><path d="M388.64 257.72H111.36a3.342 3.342 0 01-3.33-3.33 3.342 3.342 0 013.33-3.33h277.28a3.342 3.342 0 013.33 3.33 3.342 3.342 0 01-3.33 3.33z" fill="#F3722C"/><path opacity=".3" d="M388.64 257.72h-64.91a3.342 3.342 0 01-3.33-3.33 3.342 3.342 0 013.33-3.33h64.91a3.342 3.342 0 013.33 3.33 3.342 3.342 0 01-3.33 3.33z" fill="#263238"/><path d="M385.58 414.62h6.39l-7.35-156.9h-8.84l9.8 156.9z" fill="#263238"/><path opacity=".1" d="M385.58 414.62h6.39l-7.35-156.9h-8.84l9.8 156.9z" fill="#fff"/><path d="M326.79 414.62h-6.39l7.35-156.9h8.84l-9.8 156.9z" fill="#263238"/><path opacity=".2" d="M326.79 414.62h-6.39l7.35-156.9h8.84l-9.8 156.9z" fill="#fff"/><path d="M173.22 414.62h6.38l-7.35-156.9h-8.84l9.81 156.9z" fill="#263238"/><path opacity=".1" d="M173.22 414.62h6.38l-7.35-156.9h-8.84l9.81 156.9z" fill="#fff"/><path d="M114.42 414.62h-6.39l7.35-156.9h8.84l-9.8 156.9z" fill="#263238"/><path opacity=".2" d="M114.42 414.62h-6.39l7.35-156.9h8.84l-9.8 156.9z" fill="#fff"/><path d="M330.49 266.07H117.24v13.15h213.25v-13.15z" fill="#263238"/><path opacity=".2" d="M330.49 266.07H117.24v13.15h213.25v-13.15z" fill="#fff"/><path d="M152.33 242.22a1.399 1.399 0 00-1.4 1.39v6a1.404 1.404 0 001.4 1.4h45.35a.462.462 0 00.46-.45v-7.94a.462.462 0 00-.46-.45l-45.35.05z" fill="#F3722C"/><path opacity=".9" d="M179.17 243.06h19v7.16h-19a.81.81 0 01-.81-.81v-5.55a.808.808 0 01.81-.8z" fill="#fff"/><path d="M176.05 242.22h-45.81a1.4 1.4 0 00-1.4 1.4v6.05a1.4 1.4 0 001.4 1.4h45.81a1.4 1.4 0 001.4-1.4v-6.05a1.4 1.4 0 00-1.4-1.4z" fill="#F3722C"/><path opacity=".2" d="M176.05 242.22h-45.81a1.4 1.4 0 00-1.4 1.4v6.05a1.4 1.4 0 001.4 1.4h45.81a1.4 1.4 0 001.4-1.4v-6.05a1.4 1.4 0 00-1.4-1.4z" fill="#000"/><path opacity=".5" d="M153.52 242.22h-6.95a.57.57 0 00-.57.57v7.71c0 .315.255.57.57.57h6.95a.57.57 0 00.57-.57v-7.71a.57.57 0 00-.57-.57zM163.55 242.22h-6.94a.57.57 0 00-.57.57v7.71c0 .315.255.57.57.57h6.94a.57.57 0 00.57-.57v-7.71a.57.57 0 00-.57-.57z" fill="#F3722C"/><path d="M144.13 231.32a1.39 1.39 0 00-.99.41 1.39 1.39 0 00-.41.99v8.1a1.39 1.39 0 00.41.99 1.39 1.39 0 00.99.41h49.13a.462.462 0 00.45-.46v-10a.462.462 0 00-.45-.46l-49.13.02z" fill="#F3722C"/><path opacity=".9" d="M171 232.17h22.74v9.21H171a.81.81 0 01-.81-.81V233a.813.813 0 01.81-.83z" fill="#fff"/><path d="M167.84 231.32h-38.52a1.4 1.4 0 00-1.4 1.4v8.09a1.4 1.4 0 001.4 1.4h38.52a1.4 1.4 0 001.4-1.4v-8.09a1.4 1.4 0 00-1.4-1.4z" fill="#F3722C"/><path opacity=".2" d="M167.84 231.32h-38.52a1.4 1.4 0 00-1.4 1.4v8.09a1.4 1.4 0 001.4 1.4h38.52a1.4 1.4 0 001.4-1.4v-8.09a1.4 1.4 0 00-1.4-1.4z" fill="#fff"/><path opacity=".6" d="M164.23 233.48h-28.21a.85.85 0 00-.85.85v4.87c0 .469.381.85.85.85h28.21a.85.85 0 00.85-.85v-4.87a.85.85 0 00-.85-.85z" fill="#F3722C"/><path d="M158.54 226.11c-.77 0-1.4.37-1.4.82v3.57c0 .45.63.82 1.4.82h45.36c.25 0 .45-.12.45-.26v-4.68c0-.15-.2-.27-.45-.27h-45.36z" fill="#F3722C"/><path opacity=".9" d="M185.2 226.6h19.15v4.22H185.2a.617.617 0 01-.438-.182.617.617 0 01-.182-.438v-3a.62.62 0 01.62-.6z" fill="#fff"/><path d="M182.59 226.11h-46.47a1.07 1.07 0 00-1.07 1.07v3.08c0 .591.479 1.07 1.07 1.07h46.47a1.07 1.07 0 001.07-1.07v-3.08a1.07 1.07 0 00-1.07-1.07z" fill="#F3722C"/><path opacity=".2" d="M182.59 226.11h-46.47a1.07 1.07 0 00-1.07 1.07v3.08c0 .591.479 1.07 1.07 1.07h46.47a1.07 1.07 0 001.07-1.07v-3.08a1.07 1.07 0 00-1.07-1.07z" fill="#000"/><path opacity=".5" d="M141.96 226.11h-1.45a.21.21 0 00-.21.21v4.8c0 .116.094.21.21.21h1.45a.21.21 0 00.21-.21v-4.8a.21.21 0 00-.21-.21zM179.68 226.11h-1.42a.21.21 0 00-.21.21v4.8c0 .116.094.21.21.21h1.42a.21.21 0 00.21-.21v-4.8a.21.21 0 00-.21-.21z" fill="#F3722C"/><path d="M150.34 218.57c-.77 0-1.4.37-1.4.82v5.89c0 .46.63.83 1.4.83h49.13c.25 0 .46-.12.46-.27v-7c0-.15-.21-.27-.46-.27h-49.13z" fill="#F3722C"/><path opacity=".9" d="M177 219.06h22.93v6.55H177a.617.617 0 01-.438-.182.617.617 0 01-.182-.438v-5.31c0-.164.065-.322.182-.438a.617.617 0 01.438-.182z" fill="#fff"/><path d="M174.38 218.57H135.2a1.07 1.07 0 00-1.07 1.07v5.4c0 .591.479 1.07 1.07 1.07h39.18a1.07 1.07 0 001.07-1.07v-5.4a1.07 1.07 0 00-1.07-1.07z" fill="#F3722C"/><path opacity=".1" d="M174.38 218.57H135.2a1.07 1.07 0 00-1.07 1.07v5.4c0 .591.479 1.07 1.07 1.07h39.18a1.07 1.07 0 001.07-1.07v-5.4a1.07 1.07 0 00-1.07-1.07z" fill="#000"/><path d="M259.92 249.4h-41.27a.836.836 0 00-.59.243.837.837 0 00-.25.587.841.841 0 00.84.83h41.27a.83.83 0 100-1.66z" fill="#fff"/><path d="M340.66 247.42h27.12l2.45 3.55h-32.02l2.45-3.55z" fill="#263238"/><path d="M382.54 186.83a3.65 3.65 0 11-3.65-3.65 3.64 3.64 0 013.65 3.65z" fill="#000"/><path d="M355.12 249.82a1.166 1.166 0 01-.961-.515 1.158 1.158 0 01-.109-1.085l26.13-61.84a1.164 1.164 0 011.48-.532 1.164 1.164 0 01.65 1.432l-26.13 61.83a1.157 1.157 0 01-1.06.71z" fill="#263238"/><path d="M381.24 188a1.19 1.19 0 01-.69-.23l-47.45-35.59a1.148 1.148 0 01-.23-1.61 1.148 1.148 0 011.61-.23l47.46 35.57a1.156 1.156 0 01.393 1.29 1.161 1.161 0 01-1.093.79v.01z" fill="#263238"/><path d="M384.89 186.83a3.65 3.65 0 11-3.65-3.65 3.64 3.64 0 013.65 3.65zM333.79 154.9a3.64 3.64 0 100-7.28 3.64 3.64 0 000 7.28z" fill="#263238"/><path d="M328.69 167.9a8.16 8.16 0 110-11.54 8.17 8.17 0 010 11.54z" fill="#F3722C"/><path opacity=".7" d="M328.69 167.9a8.16 8.16 0 110-11.54 8.17 8.17 0 010 11.54z" fill="#fff"/><path d="M333.79 151.26a17.465 17.465 0 00-19.05-3.792 17.475 17.475 0 00-5.67 3.792L333.79 176a17.488 17.488 0 005.13-12.37 17.488 17.488 0 00-5.13-12.37z" fill="#263238"/><g opacity=".2"><path d="M309.06 151.26l-103.82 99.8h106.51l22.04-75.07-24.73-24.73z" fill="#F3722C"/><path opacity=".7" d="M309.06 151.26l-103.82 99.8h106.51l22.04-75.07-24.73-24.73z" fill="#fff"/></g></svg>