<svg width="500" height="500" viewBox="0 0 500 500" fill="none" xmlns="http://www.w3.org/2000/svg">
<rect y="40" width="500" height="460" rx="40" fill="#4D9DE0"/>
<path d="M500 382.4H0V382.65H500V382.4Z" fill="#EBEBEB"/>
<path d="M445.26 393.85H394.36V394.1H445.26V393.85Z" fill="#EBEBEB"/>
<path d="M99.67 390.89H52.46V391.14H99.67V390.89Z" fill="#EBEBEB"/>
<path d="M398 389.21H378.81V389.46H398V389.21Z" fill="#EBEBEB"/>
<path d="M331.22 395.84H317.14V396.09H331.22V395.84Z" fill="#EBEBEB"/>
<path d="M308.23 395.84H272.79V396.09H308.23V395.84Z" fill="#EBEBEB"/>
<path d="M252.21 391.62H195.22V391.87H252.21V391.62Z" fill="#EBEBEB"/>
<path d="M390.37 85.67H288.57V382.4H390.37V85.67Z" fill="#EBEBEB"/>
<path d="M383.5 376.4V91.67H295.44V376.4H383.5Z" fill="#FAFAFA"/>
<path d="M285.52 85.67H183.72V382.4H285.52V85.67Z" fill="#EBEBEB"/>
<path d="M285.52 381.24H288.57L288.57 86.84H285.52L285.52 381.24Z" fill="#E0E0E0"/>
<path d="M278.65 376.39V91.66H190.59V376.39H278.65Z" fill="#FAFAFA"/>
<path d="M436.87 83.44H137.22C136.868 83.4374 136.531 83.2965 136.282 83.0476C136.034 82.7987 135.893 82.462 135.89 82.11C135.893 81.7581 136.034 81.4213 136.282 81.1725C136.531 80.9236 136.868 80.7826 137.22 80.78H436.87C437.222 80.7826 437.559 80.9236 437.808 81.1725C438.056 81.4213 438.197 81.7581 438.2 82.11C438.197 82.462 438.056 82.7987 437.808 83.0476C437.559 83.2965 437.222 83.4374 436.87 83.44Z" fill="#E0E0E0"/>
<path d="M383.5 97.34V91.67H295.44V97.34H383.5Z" fill="#E0E0E0"/>
<path d="M383.5 101.22V91.66H295.44V101.22H383.5Z" fill="#E0E0E0"/>
<path d="M278.65 112.55V91.66H190.59V112.55H278.65Z" fill="#E0E0E0"/>
<g opacity="0.8">
<path d="M403.44 74.56H375.24V378.75H403.44V74.56Z" fill="#F5F5F5"/>
<path d="M396 74.56H382.69V378.75H396V74.56Z" fill="#F0F0F0"/>
<path d="M418.57 74.56H390.37V378.75H418.57V74.56Z" fill="#F5F5F5"/>
<path d="M411.13 74.56H397.82V378.75H411.13V74.56Z" fill="#F0F0F0"/>
<path d="M432.67 74.56H404.47V378.75H432.67V74.56Z" fill="#F5F5F5"/>
</g>
<g opacity="0.8">
<path d="M181.46 74.56H140.53V378.75H181.46V74.56Z" fill="#F5F5F5"/>
<path d="M170.65 74.56H151.33V378.75H170.65V74.56Z" fill="#F0F0F0"/>
<path d="M203.41 74.56H162.48V378.75H203.41V74.56Z" fill="#F5F5F5"/>
<path d="M192.6 74.56H173.28V378.75H192.6V74.56Z" fill="#F0F0F0"/>
<path d="M223.87 74.56H182.94V378.75H223.87V74.56Z" fill="#F5F5F5"/>
</g>
<path d="M121.1 105.73H55.0699V254.4H121.1V105.73Z" fill="#F0F0F0"/>
<path d="M121.1 254.41H123.18L123.18 105.74H121.1L121.1 254.41Z" fill="#E6E6E6"/>
<path d="M115.1 248.4L115.1 111.73H61.07L61.07 248.4H115.1Z" fill="#FAFAFA"/>
<path d="M125.26 328.07H57.48C55.9893 328.067 54.5604 327.475 53.5054 326.422C52.4504 325.369 51.8553 323.941 51.85 322.45C51.8553 320.959 52.4504 319.531 53.5054 318.478C54.5604 317.425 55.9893 316.833 57.48 316.83H125.26C126.749 316.835 128.175 317.429 129.228 318.482C130.281 319.535 130.875 320.961 130.88 322.45C130.875 323.939 130.281 325.365 129.228 326.418C128.175 327.471 126.749 328.065 125.26 328.07Z" fill="#F5F5F5"/>
<path d="M73.78 328.07H62.65L50 382.4H61.12L73.78 328.07Z" fill="#E6E6E6"/>
<path d="M95.98 328.07H84.86L78.63 382.4H89.75L95.98 328.07Z" fill="#E6E6E6"/>
<path d="M108.96 328.07H120.08L132.74 382.4H121.61L108.96 328.07Z" fill="#E6E6E6"/>
<path d="M250 427.56C357.082 427.56 443.89 422.492 443.89 416.24C443.89 409.988 357.082 404.92 250 404.92C142.917 404.92 56.11 409.988 56.11 416.24C56.11 422.492 142.917 427.56 250 427.56Z" fill="#F5F5F5"/>
<path d="M314.57 298.36H229.24C227.622 298.36 226.31 299.672 226.31 301.29V304.65C226.31 306.268 227.622 307.58 229.24 307.58H314.57C316.188 307.58 317.5 306.268 317.5 304.65V301.29C317.5 299.672 316.188 298.36 314.57 298.36Z" fill="#263238"/>
<path d="M313.76 410.24H317.5L313.2 307.58H308.02L313.76 410.24Z" fill="#F3722C"/>
<path opacity="0.6" d="M313.76 410.24H317.5L313.2 307.58H308.02L313.76 410.24Z" fill="white"/>
<path d="M279.33 410.24H275.59L279.89 307.58H285.07L279.33 410.24Z" fill="#F3722C"/>
<path opacity="0.6" d="M279.33 410.24H275.59L279.89 307.58H285.07L279.33 410.24Z" fill="white"/>
<path d="M264.49 410.24H268.23L263.92 307.58H258.75L264.49 410.24Z" fill="#F3722C"/>
<path opacity="0.6" d="M264.49 410.24H268.23L263.92 307.58H258.75L264.49 410.24Z" fill="white"/>
<path d="M230.05 410.24H226.31L230.62 307.58H235.79L230.05 410.24Z" fill="#F3722C"/>
<path opacity="0.6" d="M230.05 410.24H226.31L230.62 307.58H235.79L230.05 410.24Z" fill="white"/>
<g opacity="0.3">
<path d="M313.2 307.57H308.02L308.26 311.94H313.38L313.2 307.57Z" fill="#F3722C"/>
<path d="M279.71 311.94H284.82L285.07 307.57H279.89L279.71 311.94Z" fill="#F3722C"/>
<path d="M258.75 307.57L258.99 311.94H264.11L263.92 307.57H258.75Z" fill="#F3722C"/>
<path d="M230.43 311.94H235.56L235.8 307.57H230.62L230.43 311.94Z" fill="#F3722C"/>
</g>
<path d="M262.08 395.15L253.62 399.65L240.28 381.64L248.75 377.14L262.08 395.15Z" fill="#FFB573"/>
<path d="M250.56 396.87L259.4 390.73C259.472 390.668 259.557 390.622 259.648 390.595C259.739 390.568 259.835 390.561 259.929 390.573C260.023 390.585 260.114 390.617 260.195 390.667C260.276 390.716 260.346 390.782 260.4 390.86L265.69 397.55C265.944 397.919 266.044 398.372 265.967 398.814C265.891 399.255 265.644 399.649 265.28 399.91C262.17 401.99 260.77 402.72 256.7 405.14C254.19 406.62 248.19 410.14 244.5 411.75C240.81 413.36 239.33 409.66 240.75 408.65C244.12 406.27 248.58 401.59 249.59 398.3C249.746 397.729 250.087 397.226 250.56 396.87Z" fill="#263238"/>
<path opacity="0.2" d="M248.76 377.15L240.28 381.64L246.71 390.32L254.99 385.56L248.76 377.15Z" fill="black"/>
<path d="M269.19 270.47C269.19 270.47 203.45 268.42 203.19 295.89C202.87 335.37 240.34 387.22 240.34 387.22L255 377.47C255 377.47 229.32 339.78 229.1 308.96C248.47 303.49 294.1 306.96 300.01 290.86C304.85 277.72 302.32 270.47 302.32 270.47H269.19Z" fill="#F3722C"/>
<path opacity="0.2" d="M269.19 270.47C269.19 270.47 203.45 268.42 203.19 295.89C202.87 335.37 240.34 387.22 240.34 387.22L255 377.47C255 377.47 229.32 339.78 229.1 308.96C248.47 303.49 294.1 306.96 300.01 290.86C304.85 277.72 302.32 270.47 302.32 270.47H269.19Z" fill="black"/>
<path d="M258.98 379.98L241.54 390.66L236.07 385.11L255.23 373.04L258.98 379.98Z" fill="#263238"/>
<path d="M248.73 400.18C249.428 399.675 250.066 399.091 250.63 398.44C250.66 398.408 250.679 398.368 250.686 398.325C250.693 398.282 250.687 398.238 250.669 398.198C250.651 398.158 250.621 398.125 250.584 398.102C250.547 398.079 250.504 398.068 250.46 398.07C250.09 398.07 246.81 398.07 246.11 399.14C246.03 399.26 245.981 399.398 245.969 399.541C245.957 399.684 245.981 399.829 246.04 399.96C246.106 400.167 246.226 400.353 246.388 400.499C246.549 400.645 246.747 400.745 246.96 400.79C247.605 400.812 248.235 400.594 248.73 400.18ZM249.94 398.53C248.73 399.79 247.66 400.46 247.04 400.35C246.901 400.319 246.773 400.251 246.671 400.152C246.568 400.053 246.495 399.928 246.46 399.79C246.423 399.73 246.403 399.661 246.403 399.59C246.403 399.519 246.423 399.45 246.46 399.39C246.86 398.83 248.63 398.58 249.94 398.53Z" fill="#F3722C"/>
<path d="M250.59 398.48C250.618 398.458 250.642 398.431 250.66 398.4C250.679 398.366 250.689 398.329 250.689 398.29C250.689 398.251 250.679 398.213 250.66 398.18C250.6 398.08 249.2 395.7 247.88 395.48C247.702 395.445 247.519 395.454 247.345 395.504C247.171 395.555 247.012 395.646 246.88 395.77C246.729 395.882 246.62 396.041 246.57 396.222C246.519 396.403 246.53 396.596 246.6 396.77C247.02 397.77 249.33 398.58 250.44 398.51L250.59 398.48ZM247.3 396C247.372 395.946 247.455 395.908 247.543 395.887C247.63 395.867 247.721 395.864 247.81 395.88C248.6 396.01 249.56 397.26 250.06 398.02C248.97 397.92 247.33 397.22 247.06 396.57C247.01 396.45 246.98 396.28 247.23 396.06C247.25 396.08 247.27 396.05 247.3 396Z" fill="#F3722C"/>
<path d="M246.43 406.19L236.93 405.74L235.37 383.31L244.87 383.76L246.43 406.19Z" fill="#FFB573"/>
<path d="M236.71 404.12L247.46 403.78C247.642 403.766 247.821 403.825 247.96 403.943C248.098 404.061 248.185 404.229 248.2 404.41L248.99 412.9C249.006 413.349 248.844 413.787 248.538 414.117C248.233 414.446 247.809 414.642 247.36 414.66C243.62 414.66 241.82 414.55 237.09 414.66C234.18 414.75 228.46 415.18 224.47 414.66C220.48 414.14 221.09 410.23 222.82 410.08C226.93 409.75 232.44 406.91 235.08 404.7C235.545 404.333 236.118 404.129 236.71 404.12Z" fill="#263238"/>
<path d="M233.37 405.89C234.23 405.844 235.081 405.703 235.91 405.47C235.952 405.459 235.989 405.436 236.018 405.404C236.047 405.372 236.066 405.332 236.072 405.29C236.078 405.247 236.072 405.204 236.054 405.165C236.036 405.126 236.007 405.093 235.97 405.07C235.66 404.87 232.89 403.07 231.74 403.59C231.609 403.647 231.494 403.737 231.406 403.851C231.319 403.964 231.262 404.098 231.24 404.24C231.181 404.45 231.178 404.671 231.233 404.882C231.287 405.093 231.397 405.285 231.55 405.44C232.078 405.815 232.728 405.976 233.37 405.89ZM235.28 405.17C233.58 405.56 232.28 405.55 231.86 405.12C231.762 405.016 231.694 404.889 231.66 404.75C231.627 404.612 231.63 404.467 231.67 404.33C231.678 404.26 231.705 404.194 231.747 404.138C231.789 404.082 231.845 404.038 231.91 404.01C232.53 403.74 234.15 404.49 235.28 405.17Z" fill="#F3722C"/>
<path d="M235.86 405.48C235.893 405.489 235.927 405.489 235.96 405.48C235.993 405.462 236.02 405.436 236.039 405.405C236.059 405.373 236.069 405.337 236.07 405.3C236.07 405.18 236.21 402.42 235.21 401.52C235.079 401.395 234.92 401.303 234.745 401.255C234.571 401.206 234.387 401.201 234.21 401.24C234.019 401.251 233.837 401.325 233.693 401.453C233.55 401.58 233.453 401.751 233.42 401.94C233.23 402.94 234.72 404.94 235.69 405.48C235.745 405.498 235.805 405.498 235.86 405.48ZM234.43 401.64C234.518 401.635 234.606 401.648 234.689 401.679C234.772 401.71 234.847 401.758 234.91 401.82C235.51 402.36 235.63 403.93 235.64 404.82C234.78 404.14 233.78 402.66 233.91 401.97C233.91 401.84 234 401.68 234.32 401.63L234.43 401.64Z" fill="#F3722C"/>
<path opacity="0.2" d="M244.88 383.76L235.37 383.31L236.26 396.14L245.74 396.13L244.88 383.76Z" fill="black"/>
<path d="M292.57 270.47C292.57 270.47 223.79 276.97 226.29 297.68C229.91 327.54 231.69 391.9 231.69 391.9L249.22 392.59C249.22 392.59 256.65 334.59 252.81 303.96C270.61 303.96 314.19 305.24 318.16 294.52C321.67 285.04 320.42 270.52 320.42 270.52L292.57 270.47Z" fill="#F3722C"/>
<path d="M251.16 393.67L230.12 392.63L229.36 383.47L252.44 385.06L251.16 393.67Z" fill="#263238"/>
<path d="M277.31 209.81C277.18 211.49 277.05 212.95 276.86 214.49C276.67 216.03 276.47 217.49 276.23 219.05C275.76 222.05 275.16 225.05 274.46 228.12C273.097 234.463 270.88 240.592 267.87 246.34C266.972 247.955 265.938 249.49 264.78 250.93C263.486 252.555 261.955 253.978 260.24 255.15C256.94 257.342 253.123 258.631 249.17 258.89C245.708 259.117 242.233 258.779 238.88 257.89C237.298 257.485 235.741 256.984 234.22 256.39C233.46 256.1 232.72 255.78 231.99 255.39C231.26 255 230.58 254.68 229.74 254.23L232.37 247.54L234.28 247.78L236.28 247.98C237.62 248.09 238.94 248.16 240.28 248.16C242.709 248.201 245.134 247.922 247.49 247.33C249.378 246.877 251.126 245.967 252.58 244.68C253.203 244.097 253.76 243.446 254.24 242.74C254.831 241.83 255.359 240.882 255.82 239.9C256.878 237.605 257.744 235.227 258.41 232.79C259.17 230.26 259.78 227.61 260.33 224.91C260.88 222.21 261.33 219.48 261.78 216.73L262.37 212.59C262.55 211.23 262.75 209.77 262.88 208.59L277.31 209.81Z" fill="#FFB573"/>
<path d="M277.37 201.66C270.37 194.87 261.67 198.88 258.21 211.66C256.252 218.482 254.913 225.467 254.21 232.53L276.48 237.13C280.53 224.94 284.57 208.62 277.37 201.66Z" fill="#263238"/>
<path opacity="0.3" d="M270.2 215.56C271.79 214.13 276.31 220.56 279.07 228.49C278.29 231.49 277.4 234.38 276.49 237.09L263.09 234.32C264.16 226.4 266.63 218.78 270.2 215.56Z" fill="black"/>
<path d="M230.86 244.54L225.86 242.63L225.64 253.24C225.64 253.24 234.04 256.87 235.75 252.7L235.15 250.05C234.861 248.882 234.329 247.789 233.59 246.839C232.851 245.89 231.921 245.107 230.86 244.54Z" fill="#FFB573"/>
<path d="M219.96 242.91L217.01 251.81L225.68 253.24L225.9 242.63L219.96 242.91Z" fill="#FFB573"/>
<path d="M227.52 250C227.414 250.002 227.311 249.973 227.22 249.919C227.13 249.864 227.057 249.784 227.01 249.69L218.08 232.5C218.009 232.365 217.995 232.207 218.04 232.061C218.085 231.915 218.185 231.792 218.32 231.72C218.457 231.653 218.615 231.641 218.761 231.688C218.906 231.734 219.028 231.835 219.1 231.97L228 249.13C228.071 249.265 228.085 249.423 228.04 249.569C227.996 249.715 227.895 249.838 227.76 249.91C227.687 249.955 227.605 249.986 227.52 250Z" fill="#263238"/>
<path d="M276.54 194.85L287.22 191.85L300.94 191.21C303.024 191.11 305.083 191.698 306.799 192.884C308.516 194.069 309.795 195.786 310.44 197.77C313.05 205.77 315.44 217.29 317.21 227.26C319.21 238.45 320.21 255.26 320.42 270.52H269.19C268.02 238.67 263.97 219.84 262.19 209.42C261.835 207.378 262.159 205.276 263.113 203.435C264.066 201.595 265.597 200.118 267.47 199.23L276.54 194.85Z" fill="#263238"/>
<path opacity="0.3" d="M317.21 227.22C315.83 219.37 314.05 210.53 312.07 203.22C302.94 201.68 298.52 221.7 301.23 231.63C303.94 241.56 318.39 235.54 318.39 235.54C318.05 232.55 317.65 229.74 317.21 227.22Z" fill="black"/>
<path d="M285.4 171C287.6 176.4 286.28 186.3 281.94 183.5C277.6 180.7 284.06 167.72 285.4 171Z" fill="#263238"/>
<path d="M283 174.46L278.85 180.8L273.21 189.43C273.939 190.168 274.528 191.032 274.95 191.98C275.95 194.06 276.84 195.61 272.47 198.59C272.001 198.891 271.628 199.321 271.395 199.828C271.163 200.335 271.081 200.898 271.16 201.45C271.42 202.8 272.76 204.11 277.47 203.28C282.009 202.411 286.151 200.112 289.29 196.72C290.86 195.15 290.5 193.97 288.99 192.34C284.67 187.74 283.39 180.39 283 174.46Z" fill="#FFB573"/>
<path opacity="0.2" d="M274.56 187.3L278.02 181.15C278.093 181.31 278.173 181.48 278.26 181.66C278.567 182.42 278.815 183.202 279 184C279.63 186.73 277.51 190.63 275.18 192.49L274.91 191.96C274.49 191.075 273.952 190.25 273.31 189.51C273.269 189.469 273.222 189.436 273.17 189.41L274.56 187.3Z" fill="black"/>
<path d="M253.79 167C252.5 169.91 257.07 178.15 262.3 174.82C267.53 171.49 256.07 161.85 253.79 167Z" fill="#263238"/>
<path d="M279 205.05C278.931 205.051 278.864 205.027 278.811 204.983C278.758 204.939 278.722 204.878 278.71 204.81C278.33 202.34 276.71 200.81 274.88 198.95C272.56 196.68 269.93 194.1 269.07 189.05C269.057 188.976 269.074 188.899 269.117 188.837C269.16 188.775 269.226 188.733 269.3 188.72C269.374 188.707 269.451 188.724 269.513 188.767C269.575 188.81 269.617 188.876 269.63 188.95C270.47 193.82 273.03 196.33 275.28 198.54C277.13 200.35 278.87 202.06 279.28 204.72C279.287 204.758 279.287 204.796 279.278 204.833C279.27 204.871 279.254 204.906 279.231 204.937C279.209 204.968 279.18 204.994 279.147 205.013C279.115 205.033 279.078 205.045 279.04 205.05H279Z" fill="white"/>
<path d="M281.13 164.07C283.13 173.13 284.69 178.34 281.46 184.07C276.58 192.74 264.38 191.56 259.74 183.22C255.56 175.72 253.07 162.16 260.84 156.31C262.578 155.017 264.615 154.185 266.761 153.889C268.907 153.593 271.093 153.844 273.116 154.617C275.14 155.391 276.935 156.663 278.336 158.316C279.737 159.968 280.698 161.947 281.13 164.07Z" fill="#FFB573"/>
<path d="M283.82 170.29C280.7 174.72 272.52 166.59 273.19 161.13C265.07 165.75 256.25 171.92 250.9 166.72C244.72 160.72 246.41 152.12 253.65 151.35C252.37 153.85 259.65 154.96 263.52 151.1C270.07 144.62 280.42 145.97 280.23 151.22C285.22 149.24 290.67 160.56 283.82 170.29Z" fill="#263238"/>
<path d="M279.27 152.69C281.2 151.25 279.92 146.12 275.44 144.62C279.7 145.17 284.11 148.34 279.27 152.69Z" fill="#263238"/>
<path d="M286.71 169.89C286.796 171.962 286.12 173.993 284.81 175.6C283.09 177.65 280.44 176.02 279.81 173.46C279.26 171.17 279.97 167.62 282.23 166.52C284.49 165.42 286.59 167.31 286.71 169.89Z" fill="#FFB573"/>
<path d="M268.13 171.42C268.37 172.15 268.19 172.89 267.71 173.06C267.23 173.23 266.71 172.78 266.42 172.06C266.13 171.34 266.36 170.59 266.84 170.41C267.32 170.23 267.89 170.68 268.13 171.42Z" fill="#263238"/>
<path d="M259.93 174.42C260.18 175.16 259.99 175.9 259.51 176.07C259.03 176.24 258.46 175.79 258.22 175.07C257.98 174.35 258.17 173.6 258.64 173.43C259.11 173.26 259.69 173.69 259.93 174.42Z" fill="#263238"/>
<path d="M262.74 174C262.773 176.187 262.517 178.369 261.98 180.49C263.45 181.03 265.07 179.76 265.07 179.76L262.74 174Z" fill="#ED893E"/>
<path d="M267.13 183.83C267.982 183.55 268.767 183.1 269.44 182.507C270.112 181.914 270.656 181.19 271.04 180.38C271.063 180.324 271.064 180.262 271.042 180.205C271.019 180.149 270.975 180.104 270.92 180.08C270.863 180.06 270.8 180.062 270.744 180.086C270.689 180.11 270.644 180.154 270.62 180.21C270.191 181.083 269.566 181.846 268.794 182.439C268.022 183.032 267.124 183.44 266.17 183.63C266.139 183.634 266.109 183.644 266.082 183.661C266.054 183.677 266.031 183.698 266.013 183.724C265.994 183.75 265.981 183.779 265.975 183.81C265.968 183.84 265.968 183.872 265.974 183.903C265.98 183.934 265.993 183.963 266.011 183.989C266.029 184.015 266.052 184.037 266.079 184.054C266.105 184.07 266.135 184.081 266.167 184.086C266.198 184.09 266.23 184.088 266.26 184.08C266.555 184.016 266.846 183.932 267.13 183.83Z" fill="#263238"/>
<path d="M268.88 168.24C268.95 168.207 269.009 168.155 269.05 168.09C269.114 167.988 269.135 167.864 269.109 167.746C269.083 167.628 269.011 167.526 268.91 167.46C268.319 167.061 267.638 166.814 266.928 166.74C266.218 166.667 265.501 166.77 264.84 167.04C264.785 167.065 264.735 167.1 264.694 167.145C264.653 167.189 264.621 167.241 264.6 167.298C264.58 167.355 264.571 167.416 264.574 167.476C264.578 167.537 264.593 167.596 264.62 167.65C264.674 167.758 264.768 167.841 264.882 167.88C264.996 167.919 265.121 167.912 265.23 167.86C265.751 167.659 266.314 167.586 266.869 167.649C267.425 167.712 267.957 167.908 268.42 168.22C268.487 168.267 268.566 168.293 268.647 168.297C268.729 168.3 268.809 168.281 268.88 168.24Z" fill="#263238"/>
<path d="M258.31 169.68C258.329 169.605 258.329 169.525 258.31 169.45C258.262 169.339 258.172 169.252 258.059 169.207C257.947 169.162 257.821 169.163 257.71 169.21C257.044 169.468 256.453 169.887 255.988 170.43C255.524 170.973 255.202 171.622 255.05 172.32C255.03 172.438 255.058 172.559 255.127 172.657C255.197 172.754 255.302 172.82 255.42 172.84C255.538 172.86 255.659 172.832 255.757 172.763C255.854 172.693 255.92 172.588 255.94 172.47C256.07 171.925 256.331 171.419 256.701 170.998C257.07 170.576 257.537 170.251 258.06 170.05C258.13 170.015 258.189 169.962 258.233 169.897C258.277 169.833 258.303 169.758 258.31 169.68Z" fill="#263238"/>
<path d="M308.67 198C309.67 199.62 310.47 201.08 311.3 202.64C312.13 204.2 312.93 205.72 313.71 207.28C315.29 210.39 316.71 213.59 318.09 216.85C319.47 220.11 320.68 223.47 321.72 226.97C322.858 230.644 323.622 234.423 324 238.25C324.202 240.484 324.125 242.735 323.77 244.95C323.542 246.411 323.097 247.83 322.45 249.16C321.701 250.663 320.661 252.002 319.39 253.1C318.246 254.094 316.941 254.886 315.53 255.44C314.346 255.905 313.116 256.24 311.86 256.44C309.74 256.772 307.585 256.829 305.45 256.61C303.543 256.448 301.651 256.144 299.79 255.7C298.013 255.295 296.257 254.801 294.53 254.22C291.136 253.096 287.838 251.698 284.67 250.04L287.2 243.31C293.42 244.49 300.1 245.58 305.71 245.24C306.937 245.176 308.152 244.968 309.33 244.62C310.33 244.32 310.84 243.87 310.8 243.73C310.76 243.59 310.74 243.73 310.72 243.63C310.7 243.53 310.72 243.52 310.72 243.01C310.782 241.886 310.715 240.759 310.52 239.65C310.042 236.796 309.295 233.994 308.29 231.28C307.29 228.38 306.08 225.45 304.77 222.55C303.46 219.65 302.05 216.74 300.62 213.84C299.9 212.387 299.157 210.95 298.39 209.53L296.13 205.34L308.67 198Z" fill="#FFB573"/>
<path d="M304 191.31C294.34 189.84 289.59 198.13 294.14 210.51C296.489 217.207 299.442 223.677 302.96 229.84L323.79 220.71C320 208.46 313.88 192.82 304 191.31Z" fill="#263238"/>
<path d="M281.84 242.39L277.38 243.73L283.71 252.73C283.71 252.73 293.09 249.37 291.17 245.29L288.81 243.95C286.79 242.78 284.23 241.57 281.84 242.39Z" fill="#FFB573"/>
<path d="M273.43 249.93L277.9 254.39L283.71 252.72L277.38 243.73L273.43 249.93Z" fill="#FFB573"/>
<path d="M283.18 172.75C283.975 172.75 284.62 171.971 284.62 171.01C284.62 170.049 283.975 169.27 283.18 169.27C282.385 169.27 281.74 170.049 281.74 171.01C281.74 171.971 282.385 172.75 283.18 172.75Z" fill="white"/>
<path d="M284.37 175.61L283.54 175.58L283.03 171.57L284.61 171.22L284.37 175.61Z" fill="white"/>
<path d="M290.11 251.2C287.11 251.2 284.45 250.75 282.84 249.29C282.24 248.712 281.772 248.01 281.47 247.233C281.168 246.456 281.038 245.622 281.09 244.79C281.182 240.666 281.824 236.573 283 232.62C284.39 227.17 285.49 222.87 282.15 217.56C276.83 209.13 278.42 197.34 282.15 189.95C285 184.3 284 178 283.64 175.68C283.59 175.38 283.55 175.14 283.53 174.98C283.526 174.942 283.529 174.904 283.54 174.868C283.551 174.832 283.57 174.798 283.594 174.769C283.618 174.74 283.648 174.717 283.682 174.7C283.715 174.683 283.752 174.672 283.79 174.67C283.865 174.661 283.941 174.683 284.001 174.73C284.061 174.776 284.1 174.845 284.11 174.92C284.11 175.07 284.16 175.3 284.2 175.59C284.58 178 285.57 184.39 282.63 190.21C278.98 197.46 277.42 209.01 282.63 217.21C286.1 222.72 284.92 227.35 283.55 232.71C282.398 236.61 281.769 240.645 281.68 244.71C281.626 245.462 281.737 246.217 282.004 246.921C282.272 247.626 282.69 248.264 283.23 248.79C285.93 251.22 291.89 250.6 297.65 250C300.23 249.74 302.9 249.46 305.25 249.46C305.327 249.46 305.401 249.491 305.455 249.545C305.509 249.599 305.54 249.673 305.54 249.75C305.54 249.827 305.509 249.901 305.455 249.955C305.401 250.009 305.327 250.04 305.25 250.04C302.93 250.04 300.25 250.31 297.71 250.58C295.189 250.914 292.652 251.121 290.11 251.2Z" fill="white"/>
<path d="M317.22 249.06H305.84C305.509 249.06 305.24 249.329 305.24 249.66V250.46C305.24 250.791 305.509 251.06 305.84 251.06H317.22C317.551 251.06 317.82 250.791 317.82 250.46V249.66C317.82 249.329 317.551 249.06 317.22 249.06Z" fill="white"/>
<path d="M388.64 257.72H111.36C110.478 257.717 109.632 257.366 109.008 256.742C108.384 256.118 108.033 255.272 108.03 254.39C108.033 253.508 108.384 252.662 109.008 252.038C109.632 251.414 110.478 251.063 111.36 251.06H388.64C389.522 251.063 390.368 251.414 390.992 252.038C391.616 252.662 391.967 253.508 391.97 254.39C391.967 255.272 391.616 256.118 390.992 256.742C390.368 257.366 389.522 257.717 388.64 257.72Z" fill="#F3722C"/>
<path opacity="0.3" d="M388.64 257.72H323.73C322.848 257.717 322.002 257.366 321.378 256.742C320.754 256.118 320.403 255.272 320.4 254.39C320.403 253.508 320.754 252.662 321.378 252.038C322.002 251.414 322.848 251.063 323.73 251.06H388.64C389.522 251.063 390.368 251.414 390.992 252.038C391.616 252.662 391.967 253.508 391.97 254.39C391.967 255.272 391.616 256.118 390.992 256.742C390.368 257.366 389.522 257.717 388.64 257.72Z" fill="#263238"/>
<path d="M385.58 414.62H391.97L384.62 257.72H375.78L385.58 414.62Z" fill="#263238"/>
<path opacity="0.1" d="M385.58 414.62H391.97L384.62 257.72H375.78L385.58 414.62Z" fill="white"/>
<path d="M326.79 414.62H320.4L327.75 257.72H336.59L326.79 414.62Z" fill="#263238"/>
<path opacity="0.2" d="M326.79 414.62H320.4L327.75 257.72H336.59L326.79 414.62Z" fill="white"/>
<path d="M173.22 414.62H179.6L172.25 257.72H163.41L173.22 414.62Z" fill="#263238"/>
<path opacity="0.1" d="M173.22 414.62H179.6L172.25 257.72H163.41L173.22 414.62Z" fill="white"/>
<path d="M114.42 414.62H108.03L115.38 257.72H124.22L114.42 414.62Z" fill="#263238"/>
<path opacity="0.2" d="M114.42 414.62H108.03L115.38 257.72H124.22L114.42 414.62Z" fill="white"/>
<path d="M330.49 266.07H117.24V279.22H330.49V266.07Z" fill="#263238"/>
<path opacity="0.2" d="M330.49 266.07H117.24V279.22H330.49V266.07Z" fill="white"/>
<path d="M152.33 242.22C151.96 242.22 151.606 242.366 151.344 242.626C151.081 242.887 150.933 243.24 150.93 243.61V249.61C150.93 249.981 151.078 250.337 151.34 250.6C151.603 250.862 151.959 251.01 152.33 251.01H197.68C197.8 251.01 197.916 250.963 198.002 250.879C198.088 250.795 198.137 250.68 198.14 250.56V242.62C198.137 242.5 198.088 242.385 198.002 242.301C197.916 242.217 197.8 242.17 197.68 242.17L152.33 242.22Z" fill="#F3722C"/>
<path opacity="0.9" d="M179.17 243.06H198.17V250.22H179.17C178.955 250.22 178.749 250.135 178.597 249.983C178.445 249.831 178.36 249.625 178.36 249.41V243.86C178.363 243.647 178.449 243.443 178.601 243.294C178.752 243.144 178.957 243.06 179.17 243.06Z" fill="white"/>
<path d="M176.05 242.22H130.24C129.467 242.22 128.84 242.847 128.84 243.62V249.67C128.84 250.443 129.467 251.07 130.24 251.07H176.05C176.823 251.07 177.45 250.443 177.45 249.67V243.62C177.45 242.847 176.823 242.22 176.05 242.22Z" fill="#F3722C"/>
<path opacity="0.2" d="M176.05 242.22H130.24C129.467 242.22 128.84 242.847 128.84 243.62V249.67C128.84 250.443 129.467 251.07 130.24 251.07H176.05C176.823 251.07 177.45 250.443 177.45 249.67V243.62C177.45 242.847 176.823 242.22 176.05 242.22Z" fill="black"/>
<path opacity="0.5" d="M153.52 242.22H146.57C146.255 242.22 146 242.475 146 242.79V250.5C146 250.815 146.255 251.07 146.57 251.07H153.52C153.835 251.07 154.09 250.815 154.09 250.5V242.79C154.09 242.475 153.835 242.22 153.52 242.22Z" fill="#F3722C"/>
<path opacity="0.5" d="M163.55 242.22H156.61C156.295 242.22 156.04 242.475 156.04 242.79V250.5C156.04 250.815 156.295 251.07 156.61 251.07H163.55C163.865 251.07 164.12 250.815 164.12 250.5V242.79C164.12 242.475 163.865 242.22 163.55 242.22Z" fill="#F3722C"/>
<path d="M144.13 231.32C143.946 231.32 143.764 231.356 143.594 231.427C143.424 231.497 143.27 231.6 143.14 231.73C143.01 231.86 142.907 232.014 142.837 232.184C142.766 232.354 142.73 232.536 142.73 232.72V240.82C142.73 241.004 142.766 241.186 142.837 241.356C142.907 241.526 143.01 241.68 143.14 241.81C143.27 241.94 143.424 242.043 143.594 242.113C143.764 242.184 143.946 242.22 144.13 242.22H193.26C193.38 242.217 193.495 242.168 193.579 242.082C193.663 241.996 193.71 241.88 193.71 241.76V231.76C193.71 231.64 193.663 231.524 193.579 231.438C193.495 231.352 193.38 231.303 193.26 231.3L144.13 231.32Z" fill="#F3722C"/>
<path opacity="0.9" d="M171 232.17H193.74V241.38H171C170.785 241.38 170.579 241.295 170.427 241.143C170.275 240.991 170.19 240.785 170.19 240.57V233C170.187 232.892 170.206 232.784 170.246 232.684C170.285 232.583 170.345 232.492 170.42 232.414C170.496 232.337 170.586 232.275 170.685 232.234C170.785 232.192 170.892 232.17 171 232.17Z" fill="white"/>
<path d="M167.84 231.32H129.32C128.547 231.32 127.92 231.947 127.92 232.72V240.81C127.92 241.583 128.547 242.21 129.32 242.21H167.84C168.613 242.21 169.24 241.583 169.24 240.81V232.72C169.24 231.947 168.613 231.32 167.84 231.32Z" fill="#F3722C"/>
<path opacity="0.2" d="M167.84 231.32H129.32C128.547 231.32 127.92 231.947 127.92 232.72V240.81C127.92 241.583 128.547 242.21 129.32 242.21H167.84C168.613 242.21 169.24 241.583 169.24 240.81V232.72C169.24 231.947 168.613 231.32 167.84 231.32Z" fill="white"/>
<path opacity="0.6" d="M164.23 233.48H136.02C135.551 233.48 135.17 233.861 135.17 234.33V239.2C135.17 239.669 135.551 240.05 136.02 240.05H164.23C164.699 240.05 165.08 239.669 165.08 239.2V234.33C165.08 233.861 164.699 233.48 164.23 233.48Z" fill="#F3722C"/>
<path d="M158.54 226.11C157.77 226.11 157.14 226.48 157.14 226.93V230.5C157.14 230.95 157.77 231.32 158.54 231.32H203.9C204.15 231.32 204.35 231.2 204.35 231.06V226.38C204.35 226.23 204.15 226.11 203.9 226.11H158.54Z" fill="#F3722C"/>
<path opacity="0.9" d="M185.2 226.6H204.35V230.82H185.2C185.036 230.82 184.878 230.755 184.762 230.638C184.645 230.522 184.58 230.364 184.58 230.2V227.2C184.585 227.039 184.653 226.886 184.769 226.774C184.884 226.662 185.039 226.6 185.2 226.6Z" fill="white"/>
<path d="M182.59 226.11H136.12C135.529 226.11 135.05 226.589 135.05 227.18V230.26C135.05 230.851 135.529 231.33 136.12 231.33H182.59C183.181 231.33 183.66 230.851 183.66 230.26V227.18C183.66 226.589 183.181 226.11 182.59 226.11Z" fill="#F3722C"/>
<path opacity="0.2" d="M182.59 226.11H136.12C135.529 226.11 135.05 226.589 135.05 227.18V230.26C135.05 230.851 135.529 231.33 136.12 231.33H182.59C183.181 231.33 183.66 230.851 183.66 230.26V227.18C183.66 226.589 183.181 226.11 182.59 226.11Z" fill="black"/>
<path opacity="0.5" d="M141.96 226.11H140.51C140.394 226.11 140.3 226.204 140.3 226.32V231.12C140.3 231.236 140.394 231.33 140.51 231.33H141.96C142.076 231.33 142.17 231.236 142.17 231.12V226.32C142.17 226.204 142.076 226.11 141.96 226.11Z" fill="#F3722C"/>
<path opacity="0.5" d="M179.68 226.11H178.26C178.144 226.11 178.05 226.204 178.05 226.32V231.12C178.05 231.236 178.144 231.33 178.26 231.33H179.68C179.796 231.33 179.89 231.236 179.89 231.12V226.32C179.89 226.204 179.796 226.11 179.68 226.11Z" fill="#F3722C"/>
<path d="M150.34 218.57C149.57 218.57 148.94 218.94 148.94 219.39V225.28C148.94 225.74 149.57 226.11 150.34 226.11H199.47C199.72 226.11 199.93 225.99 199.93 225.84V218.84C199.93 218.69 199.72 218.57 199.47 218.57H150.34Z" fill="#F3722C"/>
<path opacity="0.9" d="M177 219.06H199.93V225.61H177C176.836 225.61 176.678 225.545 176.562 225.428C176.445 225.312 176.38 225.154 176.38 224.99V219.68C176.38 219.516 176.445 219.358 176.562 219.242C176.678 219.125 176.836 219.06 177 219.06Z" fill="white"/>
<path d="M174.38 218.57H135.2C134.609 218.57 134.13 219.049 134.13 219.64V225.04C134.13 225.631 134.609 226.11 135.2 226.11H174.38C174.971 226.11 175.45 225.631 175.45 225.04V219.64C175.45 219.049 174.971 218.57 174.38 218.57Z" fill="#F3722C"/>
<path opacity="0.1" d="M174.38 218.57H135.2C134.609 218.57 134.13 219.049 134.13 219.64V225.04C134.13 225.631 134.609 226.11 135.2 226.11H174.38C174.971 226.11 175.45 225.631 175.45 225.04V219.64C175.45 219.049 174.971 218.57 174.38 218.57Z" fill="black"/>
<path d="M259.92 249.4H218.65C218.429 249.4 218.217 249.487 218.06 249.643C217.902 249.798 217.813 250.009 217.81 250.23C217.813 250.451 217.902 250.662 218.06 250.818C218.217 250.973 218.429 251.06 218.65 251.06H259.92C260.14 251.06 260.351 250.973 260.507 250.817C260.663 250.661 260.75 250.45 260.75 250.23C260.75 250.01 260.663 249.799 260.507 249.643C260.351 249.487 260.14 249.4 259.92 249.4Z" fill="white"/>
<path d="M340.66 247.42H367.78L370.23 250.97H338.21L340.66 247.42Z" fill="#263238"/>
<path d="M382.54 186.83C382.54 187.552 382.326 188.258 381.925 188.858C381.524 189.458 380.954 189.926 380.287 190.202C379.62 190.478 378.886 190.551 378.178 190.41C377.47 190.269 376.82 189.921 376.309 189.411C375.799 188.9 375.451 188.25 375.31 187.542C375.169 186.834 375.242 186.1 375.518 185.433C375.794 184.766 376.262 184.196 376.862 183.795C377.462 183.394 378.168 183.18 378.89 183.18C379.37 183.179 379.845 183.272 380.288 183.455C380.732 183.638 381.135 183.907 381.474 184.246C381.813 184.585 382.082 184.988 382.265 185.432C382.448 185.875 382.541 186.35 382.54 186.83Z" fill="black"/>
<path d="M355.12 249.82C354.93 249.819 354.743 249.772 354.575 249.682C354.408 249.593 354.265 249.463 354.159 249.305C354.053 249.147 353.988 248.965 353.969 248.776C353.95 248.587 353.978 248.396 354.05 248.22L380.18 186.38C380.315 186.122 380.542 185.924 380.816 185.825C381.09 185.727 381.392 185.735 381.66 185.848C381.928 185.962 382.144 186.172 382.265 186.437C382.385 186.702 382.401 187.003 382.31 187.28L356.18 249.11C356.092 249.319 355.945 249.498 355.756 249.624C355.568 249.75 355.347 249.818 355.12 249.82Z" fill="#263238"/>
<path d="M381.24 188C380.992 187.997 380.75 187.917 380.55 187.77L333.1 152.18C332.856 151.997 332.695 151.725 332.652 151.423C332.608 151.121 332.687 150.814 332.87 150.57C333.053 150.326 333.325 150.165 333.627 150.122C333.929 150.078 334.236 150.157 334.48 150.34L381.94 185.91C382.132 186.057 382.273 186.261 382.343 186.492C382.414 186.723 382.41 186.971 382.333 187.2C382.256 187.429 382.109 187.628 381.913 187.77C381.717 187.912 381.482 187.989 381.24 187.99V188Z" fill="#263238"/>
<path d="M384.89 186.83C384.89 187.552 384.676 188.258 384.275 188.858C383.874 189.458 383.304 189.926 382.637 190.202C381.97 190.478 381.236 190.551 380.528 190.41C379.82 190.269 379.17 189.921 378.659 189.411C378.149 188.9 377.801 188.25 377.66 187.542C377.519 186.834 377.592 186.1 377.868 185.433C378.144 184.766 378.612 184.196 379.212 183.795C379.812 183.394 380.518 183.18 381.24 183.18C381.72 183.179 382.195 183.272 382.638 183.455C383.082 183.638 383.485 183.907 383.824 184.246C384.163 184.585 384.432 184.988 384.615 185.432C384.798 185.875 384.891 186.35 384.89 186.83Z" fill="#263238"/>
<path d="M333.79 154.9C335.8 154.9 337.43 153.27 337.43 151.26C337.43 149.25 335.8 147.62 333.79 147.62C331.78 147.62 330.15 149.25 330.15 151.26C330.15 153.27 331.78 154.9 333.79 154.9Z" fill="#263238"/>
<path d="M328.69 167.9C327.549 169.041 326.095 169.818 324.512 170.133C322.929 170.448 321.288 170.286 319.797 169.669C318.306 169.051 317.032 168.005 316.135 166.663C315.239 165.322 314.76 163.744 314.76 162.13C314.76 160.516 315.239 158.938 316.135 157.597C317.032 156.255 318.306 155.209 319.797 154.591C321.288 153.974 322.929 153.812 324.512 154.127C326.095 154.442 327.549 155.219 328.69 156.36C330.218 157.892 331.076 159.967 331.076 162.13C331.076 164.293 330.218 166.368 328.69 167.9Z" fill="#F3722C"/>
<path opacity="0.7" d="M328.69 167.9C327.549 169.041 326.095 169.818 324.512 170.133C322.929 170.448 321.288 170.286 319.797 169.669C318.306 169.051 317.032 168.005 316.135 166.663C315.239 165.322 314.76 163.744 314.76 162.13C314.76 160.516 315.239 158.938 316.135 157.597C317.032 156.255 318.306 155.209 319.797 154.591C321.288 153.974 322.929 153.812 324.512 154.127C326.095 154.442 327.549 155.219 328.69 156.36C330.218 157.892 331.076 159.967 331.076 162.13C331.076 164.293 330.218 166.368 328.69 167.9Z" fill="white"/>
<path d="M333.79 151.26C332.168 149.636 330.241 148.347 328.12 147.468C325.999 146.589 323.726 146.136 321.43 146.136C319.134 146.136 316.861 146.589 314.74 147.468C312.619 148.347 310.693 149.636 309.07 151.26L333.79 176C335.416 174.376 336.706 172.448 337.586 170.326C338.467 168.203 338.92 165.928 338.92 163.63C338.92 161.332 338.467 159.057 337.586 156.934C336.706 154.812 335.416 152.884 333.79 151.26Z" fill="#263238"/>
<g opacity="0.2">
<path d="M309.06 151.26L205.24 251.06H311.75L333.79 175.99L309.06 151.26Z" fill="#F3722C"/>
<path opacity="0.7" d="M309.06 151.26L205.24 251.06H311.75L333.79 175.99L309.06 151.26Z" fill="white"/>
</g>
</svg>
